<svg width="262" height="421" viewBox="0 0 262 421" fill="none" xmlns="http://www.w3.org/2000/svg">
<g clip-path="url(#clip0_1561_10645)">
<path fill-rule="evenodd" clip-rule="evenodd" d="M72.8622 94.4499C72.2219 94.6712 77.4176 99.0119 80.9339 99.349C84.1353 99.6651 86.4026 99.1278 87.0219 97.8003C87.3787 97.0522 82.5819 98.0847 80.0207 97.2208C79.1495 96.9153 79.5169 95.5562 80.3986 95.8301C82.3509 96.4412 86.6965 97.4947 87.5991 95.9987C87.8196 95.6089 87.4522 94.9451 87.1058 94.5869C85.8672 93.3437 83.8939 93.0698 82.3614 92.9749C79.1352 92.931 75.9244 93.4296 72.8622 94.4499V94.4499ZM160.486 91.2892C161.798 90.2357 164.275 88.1918 164.685 86.3691C165.451 82.6816 161.987 74.2636 161.252 74.4217C159.09 74.8852 153.727 78.952 152.058 82.9766C151.354 84.6834 152.477 87.686 153.422 88.8976C153.59 89.1084 153.978 89.0557 153.947 88.7818C153.727 86.7558 153.876 84.7065 154.388 82.7343C154.692 81.8704 156.067 82.2496 155.763 83.1241C154.987 85.5001 154.688 88.0064 154.881 90.4991C155.018 91.6369 155.931 92.2585 156.099 91.4262C156.505 87.9853 157.326 84.6067 158.544 81.3646C158.88 80.5113 160.266 80.8905 159.919 81.7439C158.555 85.1786 156.424 91.6158 157.106 92.4166C157.243 92.5641 157.516 92.5114 157.694 92.4166C158.649 92.0689 159.132 90.5728 159.437 89.4982C159.835 88.1075 160.276 86.8221 160.623 85.2839C160.833 84.3778 162.124 84.7571 162.008 85.6632C161.544 87.4773 160.904 89.2416 160.098 90.931C160.07 90.9845 160.06 91.0457 160.071 91.1052C160.081 91.1647 160.111 91.2191 160.155 91.2599C160.199 91.3008 160.256 91.3258 160.316 91.3311C160.376 91.3364 160.435 91.3217 160.486 91.2892V91.2892ZM67.9708 110.612C68.4747 110.749 75.4548 109.558 76.368 109.421C79.3385 109.168 79.5169 107.714 79.0865 106.418C78.2363 104.533 75.5702 105.702 74.4681 106.334C74.3059 106.42 74.1173 106.439 73.9411 106.389C73.765 106.338 73.6149 106.222 73.5219 106.064C73.4288 105.905 73.4 105.717 73.4413 105.538C73.4826 105.359 73.591 105.203 73.7439 105.101C74.8051 104.535 75.9961 104.259 77.1972 104.301C77.253 104.3 77.3074 104.284 77.3536 104.252C77.3999 104.221 77.4359 104.177 77.4572 104.125C77.4785 104.073 77.4841 104.016 77.4733 103.961C77.4626 103.906 77.4359 103.856 77.3966 103.816C74.7725 101.14 72.012 103.458 71.2247 104.206C68.5167 106.777 67.53 110.464 67.9708 110.612ZM97.3608 95.9776C94.7481 95.7437 92.1287 96.3447 89.8768 97.6949C90.9597 99.7752 92.2057 101.766 93.6031 103.648C95.6499 105.755 97.4658 104.501 98.4524 103.216C98.7183 102.842 98.9602 102.451 99.1767 102.046C98.0096 101.287 96.7593 100.664 95.4505 100.192C94.5793 99.8969 94.9571 98.5062 95.8283 98.8117C97.2099 99.2957 98.5308 99.9392 99.7645 100.729C100.468 98.7169 100.541 96.3253 97.3188 95.9776H97.3608ZM73.0511 118.408C75.7802 117.354 77.9004 117.354 81.8786 115.774C82.5544 115.479 83.1367 115.004 83.5623 114.401C83.988 113.797 84.2406 113.088 84.2928 112.35C84.2928 112.206 84.2599 112.064 84.1966 111.935C84.1332 111.806 84.0412 111.694 83.9275 111.606C83.8139 111.518 83.6817 111.458 83.5412 111.43C83.4007 111.402 83.2556 111.407 83.1172 111.444C82.7288 111.549 82.3509 111.686 82.0675 111.771C81.2174 112.015 80.4024 112.369 79.6428 112.824C79.4786 112.921 79.283 112.947 79.0989 112.899C78.9149 112.851 78.7575 112.731 78.6614 112.566C78.5654 112.401 78.5385 112.205 78.5868 112.02C78.635 111.835 78.7544 111.677 78.9186 111.581C79.9683 110.949 84.0409 111.128 83.0122 109.99C81.9836 108.852 77.6695 109.695 75.6647 111.423C73.4395 113.277 72.3793 118.671 73.0511 118.408ZM102.567 94.0601C102.431 94.0074 101.349 100.181 100.468 102.057C98.8723 105.586 101.517 109.126 102.787 109.01C103.751 108.908 104.708 108.75 105.653 108.536C104.04 107.186 103.004 105.267 102.756 103.173C102.682 102.246 104.11 102.257 104.194 103.173C104.343 104.191 104.713 105.164 105.279 106.022C105.845 106.879 106.593 107.601 107.469 108.136C108.036 108.02 108.613 107.915 109.222 107.851C107.391 105.811 106.22 103.262 105.863 100.54C105.705 99.6335 107.08 99.2437 107.238 100.15C107.561 103.092 108.982 105.803 111.216 107.735C111.216 107.735 111.216 107.735 111.216 107.788C111.478 107.788 111.72 107.788 112.003 107.788C113.557 107.957 113.536 103.3 111.279 100.055C109.243 97.0628 104.824 94.8187 102.567 94.0601ZM100.93 123.181C103.375 122.538 104.677 121.074 104.74 119.525C104.756 119.197 104.65 118.875 104.442 118.622C104.235 118.368 103.94 118.202 103.617 118.155C102.096 118.02 100.573 118.39 99.2817 119.209C98.5679 119.778 97.5497 118.766 98.232 118.155C98.9143 117.544 100.982 117.249 102.525 117.102C102.628 117.093 102.728 117.058 102.813 116.999C102.899 116.94 102.968 116.86 103.013 116.767C103.059 116.673 103.079 116.57 103.073 116.466C103.066 116.362 103.033 116.262 102.976 116.174C101.696 114.447 97.9486 115.426 95.8493 117.017C94.6925 117.945 93.8062 119.168 93.2835 120.559C92.7607 121.949 92.621 123.456 92.8788 124.919C95.5903 124.479 98.2775 123.898 100.93 123.181V123.181ZM111.552 110.949C113.305 111.328 116.013 113.541 116.737 114.194C117.787 115.184 115.761 110.169 113.452 109.463C110.103 108.41 103.512 110.327 101.433 110.949C100.699 111.17 105.275 117.333 107.532 118.197C109.716 119.071 112.142 119.112 114.354 118.313C114.459 118.265 114.549 118.189 114.614 118.094C114.679 117.998 114.718 117.887 114.725 117.771C114.733 117.656 114.709 117.541 114.657 117.438C114.605 117.335 114.525 117.248 114.428 117.186C112.846 116.406 111.11 115.992 109.348 115.974C108.424 115.974 108.424 114.51 109.348 114.541C111.374 114.605 114.837 116.111 116.328 116.891C116.58 117.028 116.821 116.68 116.748 116.174C116.569 114.931 113.21 112.771 111.174 112.329C110.271 112.139 110.66 110.749 111.552 110.949ZM100.195 111.686C100.215 111.381 100.215 111.075 100.195 110.77C100.196 110.663 100.165 110.558 100.108 110.468C100.05 110.378 99.967 110.307 99.8694 110.264C97.9832 109.637 95.938 109.689 94.0859 110.411C93.2357 110.759 92.8579 109.358 93.7081 109.021C95.0936 108.462 97.3923 108.768 99.0927 109.021C99.5966 109.095 99.5441 107.967 99.2187 107.598C98.169 106.397 96.3531 106.071 93.8235 106.819C90.2232 107.872 86.9169 112.445 86.686 113.077C89.1128 113.928 91.6054 114.576 94.1384 115.016C97.5393 115.648 99.9744 114.194 100.195 111.686V111.686ZM126.814 87.2857C122.227 84.2303 112.119 84.9257 111.363 85.1786C110.607 85.4314 110.796 94.1655 113.305 97.3789C114.638 99.0751 117.682 100.54 120.831 100.645C120.938 100.647 121.043 100.616 121.132 100.555C121.22 100.495 121.288 100.408 121.325 100.307C121.362 100.206 121.366 100.096 121.338 99.9922C121.31 99.8885 121.25 99.7962 121.167 99.7283C119.845 98.7599 118.59 97.704 117.409 96.5676C116.79 95.8828 117.797 94.8714 118.459 95.514C120.159 97.3894 121.912 99.4333 124.158 100.181C124.389 100.255 125.554 100.329 125.103 99.6019C123.282 96.6501 121.095 93.9419 118.595 91.5421C117.713 90.6782 118.196 89.5719 119.036 90.1514C122.573 92.5851 124.116 95.9039 125.827 98.7063C125.865 98.7814 125.925 98.8433 125.999 98.8838C126.073 98.9244 126.157 98.9418 126.24 98.9339C126.324 98.9259 126.403 98.893 126.468 98.8393C126.533 98.7856 126.58 98.7136 126.604 98.6326C127.653 95.3244 125.019 91.8898 122.699 90.2673C121.954 89.7405 122.699 88.4973 123.423 89.0241C125.635 90.9005 127.154 93.468 127.737 96.3148C127.842 96.8626 128.556 95.8828 128.714 95.0189C129.249 92.0689 129.039 88.708 126.814 87.2857ZM85.8777 89.0873C86.4025 91.5948 87.977 94.7133 91.1259 95.2717C92.2774 95.5437 93.4847 95.4479 94.5792 94.9978C96.0487 94.4605 91.7032 93.7546 90.5696 92.543C89.9398 91.8687 90.9475 90.8573 91.6193 91.4894C92.6949 92.638 94.0998 93.4223 95.6394 93.7335C96.1591 93.8695 96.709 93.8284 97.203 93.6168C97.6969 93.4051 98.1068 93.0348 98.3685 92.5641C98.5524 92.1796 98.6157 91.7481 98.5501 91.3268C98.4845 90.9054 98.2931 90.5139 98.0011 90.2041C95.6709 87.2857 85.7623 88.5184 85.8672 89.0346L85.8777 89.0873ZM166.06 110.464C166.711 109.242 167.309 107.651 168.38 106.787C169.093 106.208 170.111 107.219 169.429 107.841C168.343 108.687 167.461 109.767 166.847 111.001C166.778 111.134 166.75 111.284 166.767 111.433C166.784 111.582 166.845 111.722 166.943 111.835C167.04 111.949 167.169 112.03 167.313 112.069C167.456 112.109 167.609 112.104 167.75 112.055C169.128 111.406 170.355 110.473 171.35 109.316C172.694 107.841 173.607 103.237 173.449 103.216C171.072 103.239 168.77 104.05 166.9 105.523C165.899 106.922 165.423 108.631 165.556 110.348C165.567 110.402 165.593 110.451 165.631 110.491C165.669 110.53 165.717 110.557 165.771 110.57C165.824 110.582 165.879 110.578 165.931 110.56C165.982 110.541 166.027 110.508 166.06 110.464V110.464ZM127.937 124.835C130.158 126.662 132.812 127.882 135.641 128.375C136.302 128.449 136.743 127.848 135.956 127.321C134.906 126.636 133.584 126.268 132.513 125.604C130.908 124.782 129.467 123.672 128.262 122.327C127.706 121.6 128.703 120.578 129.312 121.274C130.246 122.464 134.182 125.551 135.61 125.867C135.967 125.952 136.072 125.256 135.988 124.909C135.452 122.738 133.573 120.694 130.739 119.198C128.178 117.797 123.014 117.923 120.096 117.892C119.445 117.892 122.668 125.667 125.565 127.901C126.653 128.799 127.917 129.457 129.275 129.833C130.633 130.208 132.055 130.293 133.447 130.082C134.445 129.913 134.497 129.228 134.067 129.091C131.63 128.425 129.306 127.399 127.171 126.046C126.499 125.541 127.192 124.297 127.937 124.835ZM165.556 104.364C165.766 104.28 166.133 104.037 166.06 103.837C165.229 101.982 164.9 99.9398 165.105 97.9162C165.252 96.9996 166.637 97.3894 166.48 98.2955C166.113 99.9417 166.371 101.666 167.204 103.131C167.262 103.207 167.347 103.256 167.441 103.27C167.535 103.284 167.631 103.26 167.708 103.205C169.65 101.783 169.912 100.139 168.925 95.7037C168.778 95.0083 167.708 88.9293 167.403 89.0346C162.239 90.9942 158.051 94.0917 156.256 96.9785C153.894 100.803 155.437 103.721 156.351 104.501C156.791 104.932 157.317 105.265 157.893 105.479C158.47 105.693 159.085 105.783 159.699 105.744C159.811 105.742 159.92 105.708 160.015 105.647C160.109 105.587 160.185 105.501 160.234 105.399C160.283 105.298 160.303 105.185 160.292 105.073C160.281 104.961 160.239 104.854 160.171 104.764C159.007 103.338 158.277 101.603 158.072 99.7704C158.093 99.5941 158.178 99.4316 158.311 99.3138C158.443 99.1959 158.614 99.1308 158.791 99.1308C158.968 99.1308 159.139 99.1959 159.271 99.3138C159.404 99.4316 159.489 99.5941 159.51 99.7704C159.51 101.751 160.381 104.417 162.334 105.281C163.152 105.639 163.824 105.038 163.583 104.743C161.672 102.447 160.234 98.5062 161.903 95.3771C162.334 94.5658 163.572 95.2823 163.131 96.104C161.767 98.6642 162.837 101.899 164.601 104.122C164.713 104.259 164.867 104.357 165.039 104.401C165.211 104.444 165.392 104.431 165.556 104.364V104.364ZM149.937 85.5052C149.931 85.4794 149.918 85.4554 149.901 85.4349C149.884 85.4145 149.863 85.3981 149.839 85.387C149.815 85.3759 149.788 85.3703 149.762 85.3707C149.735 85.3711 149.709 85.3775 149.685 85.3893C148.107 86.4158 146.828 87.8447 145.98 89.5298C145.585 90.3927 145.396 91.3359 145.427 92.2849C145.458 93.2339 145.708 94.1627 146.159 94.9978C146.799 96.0514 148.825 97.1049 148.457 96.3253C147.631 94.8006 147.185 93.0982 147.156 91.363C147.24 90.4569 148.667 90.4464 148.583 91.363C148.352 92.9974 148.577 94.6643 149.234 96.1778C149.843 97.4631 150.735 97.8108 151.176 97.7687C151.617 97.7265 150.21 96.3464 149.969 93.5544C149.895 92.6378 151.386 92.6378 151.407 93.5544C151.429 94.4757 151.573 95.3899 151.837 96.2726C151.946 97.0529 152.278 97.7847 152.792 98.3797C152.792 98.3797 153.034 98.5588 153.097 98.5905C153.243 98.6309 153.397 98.6357 153.545 98.6046C153.694 98.5735 153.833 98.5073 153.951 98.4116C154.069 98.3158 154.162 98.1932 154.224 98.0539C154.285 97.9146 154.313 97.7627 154.304 97.6106C154.377 96.0408 153.685 91.0153 150.84 87.8441C150.337 87.1589 150.026 86.3515 149.937 85.5052V85.5052ZM86.3606 102.857C88.2289 103.616 92.0811 105.86 92.1336 104.396C92.1336 103.447 90.853 99.2331 85.5628 100.023C83.0462 100.607 80.6228 101.54 78.3623 102.794C78.2469 102.878 82.6868 107.872 85.4054 108.368C86.3787 108.569 87.3865 108.527 88.34 108.246C89.2936 107.965 90.1637 107.453 90.874 106.756C90.9612 106.663 91.0218 106.548 91.0494 106.424C91.077 106.3 91.0706 106.17 91.0308 106.049C90.9909 105.928 90.9192 105.82 90.8233 105.737C90.7273 105.654 90.6106 105.598 90.4857 105.576C88.9459 105.278 87.438 104.834 85.9827 104.248C85.1325 103.911 85.4999 102.52 86.3606 102.857ZM84.9645 133.716C89.415 133.98 93.5086 134.77 95.9648 133.643C97.8646 132.789 99.4391 130.882 98.4314 128.796C98.2901 128.552 98.0925 128.345 97.8551 128.192C97.6176 128.04 97.3474 127.948 97.0669 127.922C95.2219 128 93.4621 128.723 92.0916 129.966C91.4513 130.629 90.4332 129.607 91.042 128.912C91.9132 128.017 93.918 127.395 95.482 126.984C95.7549 126.91 95.251 126.32 94.9781 126.236C92.48 125.425 89.0372 126.879 88.0715 127.574C85.8882 129.186 83.7679 133.643 84.9645 133.716ZM103.974 138.247C105.27 138.138 106.488 137.583 107.422 136.674C108.356 135.765 108.947 134.56 109.096 133.263C109.18 132.789 109.379 132.442 109.148 132.02C108.508 130.872 105.37 132.863 103.984 133.99C103.27 134.57 102.252 133.558 102.934 132.937C104.341 131.788 108.435 131.114 106.661 130.482C106.241 130.324 106.136 130.334 104.645 130.324C99.3971 130.324 97.9486 134.78 97.0459 138.247C99.3458 138.541 101.674 138.541 103.974 138.247V138.247ZM219.654 94.9451C220.749 95.3952 221.956 95.491 223.108 95.219C226.194 94.6607 227.821 91.5421 228.356 89.0346C228.461 88.5184 218.552 87.233 216.285 90.1935C215.993 90.5034 215.802 90.8948 215.736 91.3162C215.671 91.7376 215.734 92.169 215.918 92.5535C216.179 93.0243 216.589 93.3946 217.083 93.6062C217.577 93.8179 218.127 93.8589 218.647 93.723C220.18 93.4155 221.581 92.6389 222.656 91.5C223.286 90.8257 224.294 91.8371 223.706 92.5535C222.53 93.7019 218.185 94.4078 219.654 94.9451V94.9451ZM77.4701 125.499C79.9473 124.16 84.6182 124.16 87.5467 123.75C90.4752 123.339 92.6899 120.726 92.6479 118.629C92.6427 118.376 92.5407 118.134 92.363 117.953C92.1852 117.773 91.9453 117.668 91.6927 117.66C89.6078 117.666 87.5747 118.313 85.8672 119.514C85.122 120.073 84.4082 118.829 85.143 118.282C86.5316 117.459 88.0572 116.895 89.646 116.617C90.1183 116.512 89.6459 115.743 89.1421 115.616C84.4922 114.299 80.9759 117.154 79.2755 120.062C78.5722 121.263 76.7878 125.867 77.4701 125.488V125.499ZM111.489 124.898C113.78 123.87 116.264 123.345 118.773 123.36C118.815 123.098 118.815 122.831 118.773 122.57C117.768 122.299 116.729 122.171 115.688 122.19C113.858 122.138 112.031 122.369 110.271 122.875C110.092 122.916 109.904 122.886 109.747 122.791C109.59 122.696 109.474 122.544 109.426 122.366C109.377 122.188 109.399 121.999 109.486 121.836C109.573 121.674 109.719 121.552 109.894 121.495C112.375 120.73 114.985 120.479 117.566 120.757C115.541 119.325 111.573 119.62 109.222 120.146C105.023 121.095 103.354 124.361 101.811 128.701C101.528 129.481 108.025 129.039 110.954 128.701C114.103 128.354 117.126 126.731 118.301 124.793C116.214 124.842 114.157 125.3 112.245 126.141C111.374 126.489 110.649 125.214 111.489 124.887V124.898ZM189.603 146.138C190.307 145.959 190.705 142.04 190.013 139.68C189.068 136.519 180.618 131.146 180.566 134.18C180.566 134.844 185.205 136.656 186.465 138.542C186.979 139.311 185.741 140.027 185.226 139.269C183.746 137.035 180.335 134.707 177.732 134.759C177.415 134.753 177.103 134.845 176.84 135.023C175.958 135.76 180.524 137.699 181.647 138.974C182.256 139.669 181.248 140.68 180.597 140.027C179.72 139.102 178.712 138.31 177.606 137.678C176.661 137.13 175.202 135.739 174.457 136.045C174.1 136.171 173.788 136.403 173.564 136.709C173.339 137.015 173.212 137.382 173.197 137.762C173.124 139.5 174.761 143.683 184.995 145.021C186.265 145.126 189.383 146.18 189.603 146.127V146.138ZM167.435 145.601C166.459 144.547 166.49 142.092 165.587 141.987C165.063 141.924 164.863 143.156 164.79 143.588C164.723 144.169 164.777 144.757 164.948 145.316C165.12 145.875 165.406 146.391 165.787 146.833C167.235 148.603 168.212 149.13 169.65 150.9C170.027 151.353 170.51 152.038 171.077 152.638C171.266 152.839 174.709 147.128 172.725 141.987C172.395 141.235 171.908 140.564 171.298 140.017C170.248 139.037 169.146 138.963 168.915 139.69C168.495 141.018 170.605 141.871 171.098 143.188C171.423 144.062 170.048 144.431 169.723 143.578C169.24 142.292 168.39 140.417 167.466 140.27C167.344 140.259 167.223 140.292 167.121 140.361C167.02 140.43 166.946 140.531 166.91 140.649C166.897 142.108 167.446 143.516 168.442 144.579C169.041 145.232 168.033 146.285 167.435 145.601ZM180.146 129.123C179.737 129.26 179.768 129.945 180.765 130.113C182.158 130.325 183.58 130.24 184.938 129.864C186.296 129.488 187.56 128.83 188.648 127.932C191.545 125.699 194.768 117.913 194.117 117.923C191.199 117.923 186.034 117.829 183.473 119.23C180.681 120.768 178.802 122.77 178.225 124.94C178.141 125.288 178.225 125.994 178.603 125.899C180.062 125.583 183.998 122.496 184.901 121.305C185.478 120.578 186.475 121.6 185.951 122.359C184.746 123.703 183.305 124.814 181.699 125.635C180.65 126.247 179.296 126.689 178.257 127.353C177.469 127.869 177.91 128.47 178.572 128.406C181.422 127.913 184.096 126.682 186.328 124.835C187.074 124.297 187.787 125.541 187.053 126.078C184.901 127.435 182.559 128.462 180.104 129.123H180.146ZM177.679 146.949C177.008 146.306 176.336 144.989 175.444 145.263C174.551 145.537 175.328 147.371 175.958 147.803C177.28 148.719 180.314 150.626 180.408 150.415C180.684 149.66 180.801 148.855 180.752 148.052C180.703 147.249 180.49 146.465 180.125 145.748C179.191 144.536 176.672 143.146 176.535 144.252C176.42 145.169 178.036 145.306 178.687 145.938C179.338 146.57 178.309 147.592 177.637 146.949H177.679ZM171.896 124.16C171.837 124.203 171.793 124.264 171.772 124.334C171.752 124.403 171.755 124.478 171.782 124.546C171.808 124.614 171.857 124.671 171.919 124.708C171.982 124.745 172.055 124.76 172.127 124.75C175.612 124.118 179.653 122.074 180.881 117.881C181.08 117.175 182.424 109.611 182.655 108.051C182.76 107.367 175.633 108.958 172.736 110.264C171.016 111.036 169.519 112.232 168.383 113.741C167.247 115.249 166.509 117.021 166.238 118.893C166.123 119.556 166.238 120.241 166.616 119.683C167.787 117.828 169.122 116.082 170.605 114.468C171.266 113.825 172.284 114.836 171.654 115.521C170.081 117.007 168.657 118.644 167.403 120.41C166.898 121.019 166.494 121.705 166.207 122.443C166.091 122.959 165.997 123.802 166.805 123.307C169.534 121.632 173.05 117.576 175.968 114.394C176.598 113.72 177.543 114.699 177.018 115.448C174.247 118.966 170.479 121.927 167.193 124.55C166.962 124.729 167.288 124.919 168.138 124.866C171.077 124.708 173.691 121.969 175.622 119.862C176.252 119.188 177.259 120.199 176.672 120.916C175.231 122.206 173.625 123.298 171.896 124.16ZM230.287 87.2225C232.565 87.7902 234.951 87.7429 237.204 87.0855C238.076 86.7905 238.454 88.1391 237.582 88.4657C235.483 89.1716 232.523 88.6132 230.235 88.0548C229.721 87.9284 229.794 88.9714 230.056 89.4244C231.662 92.1532 235.483 92.6378 238.789 91.1944C241.335 89.8484 243.626 88.0656 245.56 85.9266C245.077 85.5368 239.745 82.6395 236.333 82.2496C234.591 82.0495 230.676 82.06 229.584 84.7887C229.217 85.7369 229.364 86.9486 230.287 87.2119V87.2225ZM205.222 137.994C204.225 135.634 201.863 129.565 197.192 128.122C195.093 127.49 191.22 127.226 189.96 128.807C189.477 129.418 194.369 128.807 197.234 130.914C197.99 131.451 197.014 132.399 196.185 131.967C193.644 130.44 189.656 129.418 188.176 130.303C187.609 130.64 187.336 131.262 187.724 131.356C189.902 131.739 191.993 132.513 193.896 133.643C194.652 134.159 193.896 135.402 193.172 134.886C191.786 133.948 187.819 131.883 187.221 132.631C185.762 134.454 190.37 137.277 192.374 138.036C193.959 138.658 195.523 139.342 200.257 138.531C202.493 138.141 205.306 138.183 205.222 137.994ZM214.49 100.729C215.724 99.9392 217.045 99.2957 218.426 98.8117C219.298 98.5062 219.675 99.8653 218.804 100.192C217.496 100.661 216.246 101.28 215.078 102.036C215.295 102.44 215.536 102.831 215.802 103.205C216.789 104.49 218.605 105.755 220.652 103.637C222.049 101.755 223.295 99.7647 224.378 97.6844C222.126 96.3342 219.507 95.7331 216.894 95.9671C213.672 96.3253 213.745 98.7169 214.49 100.729ZM156.519 119.03C156.193 119.604 155.94 120.216 155.763 120.852C155.751 120.913 155.752 120.975 155.765 121.035C155.778 121.096 155.804 121.152 155.841 121.202C155.877 121.252 155.924 121.293 155.977 121.323C156.031 121.354 156.09 121.373 156.151 121.379C158.25 121.611 161.672 118.924 162.449 116.333C163.226 113.741 164.8 106.545 164.202 106.555C161.43 106.653 158.714 107.373 156.256 108.663C155.006 109.373 153.998 110.444 153.362 111.736C152.725 113.029 152.49 114.483 152.687 115.911C152.697 115.952 152.721 115.989 152.754 116.016C152.787 116.042 152.829 116.056 152.871 116.056C152.913 116.056 152.955 116.042 152.988 116.016C153.021 115.989 153.045 115.952 153.055 115.911C153.93 113.834 155.326 112.019 157.106 110.643C157.82 110.074 158.838 111.086 158.156 111.697C156.094 113.248 154.614 115.453 153.957 117.955C153.779 118.735 153.653 119.714 154.377 120.062C154.65 120.189 154.923 119.093 155.154 118.619C155.903 117.073 156.932 115.679 158.188 114.51C158.859 113.878 159.867 114.889 159.237 115.563C158.14 116.554 157.22 117.726 156.519 119.03V119.03ZM194.935 143.125C193.886 142.071 192.836 140.638 192.133 140.111C191.734 139.806 191.472 140.259 191.44 140.364C191.272 140.996 190.779 142.471 193.623 145.2C194.726 146.254 198.924 148.287 199.061 147.539C199.386 145.801 199.165 142.398 197.885 141.218C196.604 140.038 193.015 138.331 193.109 139.722C193.162 140.354 195.093 141.249 195.943 142.124C196.583 142.809 195.576 143.831 194.935 143.125ZM241.791 91.8371C242.295 92.6167 243.828 91.9214 244.594 91.5526C245.36 91.1839 246.147 92.3849 245.318 92.7853C244.489 93.1857 241.561 92.4482 242.4 93.3964C243.796 94.7976 246.452 94.2814 248.142 92.4376C248.931 91.1543 249.356 89.6788 249.37 88.1707C248.068 88.6999 246.713 89.0884 245.329 89.3296C242.705 90.0039 241.309 91.1312 241.791 91.8792V91.8371ZM150.934 104.006C151.763 105.718 152.231 107.583 152.31 109.484C152.312 109.566 152.342 109.644 152.394 109.707C152.445 109.769 152.516 109.813 152.595 109.831C152.674 109.849 152.757 109.84 152.831 109.806C152.904 109.772 152.965 109.715 153.002 109.642C153.947 107.984 154.275 106.042 153.926 104.164C153.317 101.298 147.145 96.7889 146.421 97.3051C146.064 97.558 140.438 104.965 142.737 108.8C143.786 110.527 146.358 112.75 148.426 113.014C148.504 113.024 148.583 113.015 148.656 112.988C148.73 112.961 148.796 112.917 148.85 112.86C148.903 112.802 148.942 112.732 148.963 112.656C148.984 112.581 148.987 112.501 148.972 112.424C148.774 111.627 148.511 110.848 148.184 110.095C147.78 109.051 147.288 108.043 146.715 107.082C146.222 106.292 147.46 105.576 147.943 106.355C148.796 107.793 149.483 109.323 149.99 110.917C150.326 111.971 150.294 112.466 150.483 112.361C150.748 112.186 150.959 111.941 151.093 111.652C151.227 111.364 151.277 111.043 151.239 110.728C151.251 108.639 150.719 106.583 149.696 104.764C149.213 103.932 150.452 103.216 150.934 104.006ZM126.992 132.589C126.394 131.841 122.426 133.906 121.041 134.844C120.274 135.36 119.561 134.117 120.316 133.6C122.22 132.455 124.315 131.666 126.499 131.272C126.887 131.188 126.614 130.566 126.047 130.218C124.568 129.334 120.579 130.355 118.039 131.883C117.251 132.347 116.275 131.398 116.989 130.83C119.855 128.796 124.746 129.376 124.263 128.722C123.004 127.142 119.088 127.405 117.031 128.038C112.36 129.46 109.998 135.55 109.001 137.91C108.917 138.099 111.73 138.057 113.966 138.436C118.71 139.248 120.264 138.563 121.849 137.941C123.791 137.267 128.451 134.443 126.992 132.589ZM130.991 104.775C132.492 106.545 135.242 107.588 137.289 106.882C137.424 106.834 137.544 106.753 137.64 106.647C137.735 106.54 137.802 106.411 137.834 106.271C137.867 106.131 137.864 105.986 137.825 105.848C137.787 105.709 137.714 105.583 137.615 105.481C137.321 105.196 137.027 104.933 136.754 104.701C135.808 103.841 134.676 103.213 133.447 102.868C132.545 102.657 132.923 101.277 133.825 101.477C135.379 101.825 137.132 103.479 138.486 104.933C138.536 104.984 138.601 105.018 138.671 105.031C138.741 105.045 138.813 105.037 138.879 105.008C138.945 104.98 139 104.932 139.039 104.872C139.077 104.812 139.096 104.741 139.095 104.67C139.095 103.279 138.412 101.193 137.111 100.455C135.011 99.1594 130.11 98.6958 128.714 98.6747C127.979 98.6958 129.448 102.994 130.991 104.806V104.775ZM121.104 139.711C121.198 138.32 117.703 139.911 116.328 141.207C114.953 142.503 114.827 145.811 115.152 147.529C115.289 148.277 119.487 146.264 120.589 145.19C123.434 142.429 122.941 140.975 122.773 140.354C122.773 140.248 122.479 139.795 122.08 140.101C121.387 140.628 120.295 142.05 119.277 143.114C118.637 143.778 117.629 142.756 118.228 142.061C119.151 141.27 121.051 140.375 121.104 139.743V139.711ZM125.722 105.565C127.383 107.181 128.798 109.034 129.921 111.065C130.047 111.286 130.299 110.759 130.152 109.474C129.868 106.956 128.598 104.459 126.625 103.479C122.426 101.372 113.809 101.087 113.872 101.372C114.711 104.87 116.779 111.844 119.015 113.962C121.166 115.598 123.857 116.351 126.541 116.069C126.606 116.06 126.666 116.029 126.712 115.983C126.758 115.936 126.788 115.876 126.798 115.811C126.807 115.746 126.796 115.679 126.764 115.621C126.733 115.564 126.684 115.517 126.625 115.49C124.167 114.541 121.848 113.265 119.729 111.697C119.025 111.096 120.044 110.085 120.778 110.643C122.878 112.466 126.562 114.858 128.693 115.068C128.84 115.068 129.396 115.142 129.469 114.952C129.543 114.763 129.322 114.426 129.165 114.278C127.632 112.75 126.593 112.508 122.867 109.579C122.479 109.284 121.912 108.789 121.691 108.631C120.936 108.104 121.691 106.85 122.405 107.388C124.828 109.257 127.134 111.273 129.312 113.425C129.364 113.473 129.431 113.504 129.502 113.514C129.573 113.523 129.645 113.51 129.708 113.476C129.771 113.443 129.823 113.391 129.855 113.327C129.887 113.263 129.899 113.19 129.889 113.119C129.511 110.538 126.866 108.315 124.756 106.598C124.001 106.029 125.019 105.017 125.722 105.597V105.565ZM140.48 91.7528C141.594 93.2244 142.518 94.8315 143.23 96.536C143.254 96.5906 143.295 96.6361 143.346 96.6662C143.398 96.6963 143.457 96.7093 143.517 96.7035C143.576 96.6977 143.632 96.6733 143.676 96.6337C143.721 96.5942 143.752 96.5416 143.765 96.4833C144.269 93.8283 143.65 90.0355 140.207 88.6869C133.909 86.2111 130.267 86.4112 130.225 86.5798C129.847 88.0337 130.173 93.8705 133.028 97.2314C133.773 98.1163 137.006 99.0224 138.811 99.3385C139.388 99.4228 139.483 99.2753 139.063 98.8749C137.642 97.7854 136.286 96.6139 135.001 95.3665C134.413 94.6712 135.421 93.6492 136.051 94.313C137.054 95.5395 138.123 96.7107 139.252 97.8213C139.932 98.7084 140.93 99.2943 142.034 99.4544C142.173 99.4382 142.305 99.3804 142.412 99.2884C142.518 99.1964 142.595 99.0744 142.632 98.9381C143.199 96.7467 140.816 94.5026 139.483 92.8169C138.895 92.09 139.903 91.068 140.48 91.7844V91.7528ZM137.331 134.949C137.068 134.771 136.756 134.679 136.439 134.686C133.836 134.686 130.424 136.961 128.944 139.195C128.43 139.953 127.192 139.195 127.706 138.468C128.965 136.582 133.605 134.77 133.605 134.106C133.605 131.072 125.145 136.403 124.158 139.606C123.465 141.966 123.864 145.927 124.567 146.064C124.788 146.117 127.905 145.063 129.123 144.905C139.357 143.567 140.994 139.385 140.921 137.646C140.907 137.266 140.779 136.899 140.554 136.593C140.33 136.287 140.019 136.055 139.661 135.929C138.885 135.623 137.426 136.982 136.512 137.562C135.407 138.211 134.402 139.021 133.531 139.964C132.923 140.659 131.915 139.648 132.482 138.91C133.647 137.688 138.213 135.75 137.331 135.012V134.949ZM137.72 144.189C137.583 143.135 135.064 144.473 134.13 145.685C133.321 146.738 133.363 149.362 133.846 150.352C133.941 150.563 136.995 148.656 138.297 147.739C138.927 147.307 139.777 145.506 138.811 145.2C137.845 144.895 137.247 146.254 136.575 146.886C135.904 147.518 134.896 146.507 135.526 145.832C136.156 145.158 137.835 145.169 137.72 144.252V144.189ZM138.286 114.299C141.204 117.46 144.731 121.537 147.45 123.212C148.258 123.707 148.163 122.865 148.048 122.348C147.761 121.61 147.356 120.924 146.851 120.315C145.598 118.549 144.174 116.912 142.6 115.426C141.929 114.784 142.947 113.772 143.65 114.373C145.133 115.988 146.468 117.733 147.639 119.588C148.027 120.146 148.132 119.462 148.016 118.798C147.751 116.922 147.015 115.145 145.879 113.632C144.743 112.119 143.243 110.921 141.519 110.148C138.622 108.842 131.495 107.251 131.6 107.936C131.831 109.495 133.175 117.059 133.374 117.765C134.602 121.98 138.622 124.002 142.128 124.635C142.2 124.644 142.273 124.629 142.336 124.592C142.398 124.555 142.447 124.498 142.473 124.43C142.5 124.362 142.503 124.288 142.482 124.218C142.462 124.148 142.418 124.087 142.359 124.045C140.669 123.146 139.105 122.027 137.709 120.715C137.079 120.031 138.087 119.019 138.759 119.662C140.69 121.769 143.304 124.508 146.243 124.666C147.093 124.666 147.418 124.529 147.187 124.35C143.902 121.727 140.134 118.766 137.363 115.247C136.712 114.678 137.667 113.688 138.286 114.362V114.299ZM145.34 139.585C145.109 138.847 143.996 138.931 142.957 139.911C142.347 140.458 141.86 141.13 141.53 141.881C139.546 147.023 142.989 152.733 143.178 152.533C143.744 151.932 144.227 151.248 144.605 150.795C146.043 149.025 147.019 148.498 148.468 146.728C148.849 146.286 149.135 145.769 149.306 145.211C149.478 144.652 149.532 144.064 149.465 143.483C149.392 143.051 149.192 141.818 148.667 141.881C147.765 141.987 147.796 144.463 146.82 145.495C146.18 146.159 145.172 145.148 145.77 144.442C146.767 143.379 147.316 141.971 147.303 140.512C147.267 140.394 147.193 140.293 147.091 140.224C146.99 140.155 146.868 140.122 146.746 140.133C145.823 140.238 144.973 142.155 144.49 143.441C144.164 144.294 142.789 143.925 143.115 143.051C143.65 141.871 145.76 141.018 145.392 139.69L145.34 139.585ZM210.239 138.141C212.525 138.432 214.839 138.432 217.125 138.141C216.222 134.675 214.721 130.208 209.536 130.218C208.035 130.218 207.93 130.218 207.51 130.377C205.736 131.009 209.83 131.683 211.236 132.831C211.961 133.411 210.942 134.422 210.187 133.885C208.801 132.758 205.663 130.724 205.022 131.915C204.792 132.336 205.022 132.684 205.022 133.158C205.151 134.489 205.746 135.731 206.701 136.662C207.657 137.594 208.91 138.156 210.239 138.247V138.141ZM121.398 72.7992C122.216 72.4409 119.13 70.8817 118.249 69.6385C117.724 68.8694 118.962 68.1529 119.477 68.9115C120.306 70.4093 121.584 71.6072 123.129 72.3356C124.106 72.7465 125.082 71.1556 124.484 69.649C123.612 67.426 115.404 63.7596 115.373 64.4549C115.255 66.6379 115.613 68.8204 116.422 70.8501C117.65 72.8518 120.967 72.9888 121.398 72.7992ZM124.463 79.5841C125.323 81.6913 125.733 83.7036 128.304 84.6623C129.574 85.1259 131.548 85.305 131.821 84.9257C132.093 84.5464 131.044 84.0829 130.634 83.8089C129.365 83.1104 128.264 82.139 127.412 80.9643C127.316 80.7994 127.289 80.603 127.337 80.4183C127.386 80.2336 127.505 80.0756 127.669 79.9792C127.833 79.8828 128.029 79.8558 128.213 79.9043C128.397 79.9527 128.555 80.0725 128.651 80.2373C129.418 81.4163 130.401 82.4387 131.548 83.2505C131.826 83.5175 132.156 83.7236 132.517 83.856C132.878 83.9884 133.263 84.0441 133.647 84.0196C133.808 83.9684 133.952 83.875 134.064 83.749C134.177 83.623 134.254 83.4691 134.287 83.3032C134.445 80.9327 131.8 79.1416 129.784 77.9827C129.641 77.8786 129.541 77.7247 129.504 77.5509C129.468 77.3771 129.496 77.1958 129.585 77.0422C129.674 76.8886 129.817 76.7736 129.986 76.7196C130.154 76.6656 130.337 76.6765 130.498 76.75C132.2 77.8373 133.609 79.3279 134.602 81.0907C134.643 81.1606 134.705 81.2162 134.778 81.2503C134.851 81.2844 134.933 81.2953 135.013 81.2816C135.093 81.2679 135.166 81.2302 135.224 81.1736C135.282 81.1169 135.321 81.0439 135.337 80.9643C135.83 78.8045 135.337 76.434 133.867 75.6438C130.96 74.074 125.26 73.0204 123.444 73.484C122.972 73.5893 124.137 78.7729 124.463 79.5841ZM132.65 73.7579C132.741 73.7701 132.833 73.7529 132.914 73.7086C132.994 73.6643 133.058 73.5954 133.097 73.5118C133.136 73.4283 133.147 73.3345 133.129 73.2442C133.111 73.1539 133.064 73.0718 132.996 73.0099C131.558 71.6488 130.417 70.0019 129.648 68.174C129.301 67.3101 130.697 66.9413 131.023 67.7842C131.821 69.7649 133.122 72.3777 134.833 73.6104C134.98 73.7151 135.159 73.7651 135.34 73.7516C135.52 73.7382 135.689 73.6621 135.82 73.5367C136.922 72.4831 137.195 69.6701 135.893 67.8158C134.917 66.4146 129.648 63.6015 128.105 63.4646C127.769 63.4646 127.055 70.1336 129.238 72.0617C130.211 72.9128 131.386 73.4971 132.65 73.7579V73.7579ZM98.4209 87.5912C101.119 93.5966 109.967 96.0198 109.568 92.8591C109.568 92.7537 109.568 92.6378 109.568 92.5324C109.474 91.7633 109.264 90.773 108.518 90.7098C106.104 90.5096 102.924 89.298 101.591 87.823C100.982 87.1382 101.99 86.1162 102.64 86.7694C103.705 87.8961 105.055 88.7117 106.545 89.1294C107.155 89.3455 107.784 89.5008 108.424 89.593C108.538 89.6064 108.653 89.5955 108.762 89.5607C108.872 89.526 108.972 89.4684 109.058 89.3917C109.143 89.315 109.211 89.2209 109.258 89.1158C109.304 89.0106 109.328 88.8968 109.327 88.7818V88.7818C109.329 88.6181 109.277 88.4583 109.178 88.3283C109.079 88.1983 108.939 88.1056 108.781 88.0653C106.382 87.3888 104.29 85.8998 102.861 83.8511C102.357 83.0714 103.596 82.355 104.099 83.1241C105.318 84.6137 106.763 85.9009 108.382 86.938C109.432 87.5069 109.432 85.8844 109.6 84.6939V84.4305C110.072 80.9959 102.724 78.8677 97.0774 77.0556C96.3951 76.9081 96.92 84.2409 98.4209 87.5912ZM111.3 83.0714C111.615 83.0714 112.906 83.0714 113.84 82.9766C113.933 82.9712 114.023 82.942 114.102 82.8917C114.181 82.8415 114.245 82.7718 114.289 82.6894C114.334 82.607 114.356 82.5146 114.355 82.421C114.353 82.3274 114.328 82.2358 114.281 82.1548C113.138 80.5174 112.299 78.6865 111.804 76.75C111.667 75.844 113.042 75.4541 113.179 76.3707C113.422 78.6107 114.284 80.7379 115.667 82.513C115.874 82.7307 116.135 82.8904 116.422 82.9766C117.157 83.24 118.773 83.1557 118.417 82.7554C117.176 81.4275 116.272 79.8194 115.782 78.067C115.614 77.1715 116.989 76.7816 117.168 77.6877C117.49 79.2045 118.118 80.6388 119.015 81.902C119.558 82.6273 120.359 83.1143 121.251 83.2611C121.744 83.3454 122.248 83.4296 122.762 83.535C124.19 83.8195 123.004 77.1609 119.319 74.6113C116.496 72.6622 109.998 70.5867 109.82 71.3874C109.033 75.0749 110.177 82.8818 111.3 83.0714ZM152.016 77.7088C152.153 77.7267 152.293 77.7106 152.422 77.662C152.552 77.6134 152.668 77.5337 152.76 77.4298C152.852 77.326 152.918 77.2011 152.951 77.0661C152.984 76.9311 152.983 76.7901 152.95 76.6552C152.446 74.9695 150.21 72.4409 149.098 71.5349C148.405 70.9343 149.413 69.9229 150.147 70.4813C151.647 71.7927 152.767 73.4849 153.391 75.3804C153.42 75.4747 153.479 75.5571 153.558 75.6157C153.637 75.6742 153.733 75.7058 153.831 75.7058C153.93 75.7058 154.026 75.6742 154.105 75.6157C154.184 75.5571 154.243 75.4747 154.272 75.3804C154.934 73.5999 154.577 70.534 151.228 68.4479C149.948 67.6472 145.56 65.6771 144.826 65.7824C144.448 65.8351 144.364 71.4401 145.119 72.9888C146.127 75.1381 149.759 77.3611 152.016 77.6772V77.7088ZM166.312 79.4682C165.189 81.7018 166.186 85.2312 167.634 86.6957C167.876 86.9275 168.086 86.8327 168.054 85.8212C167.924 84.1054 168.261 82.3864 169.03 80.8484C169.482 80.0372 170.71 80.7641 170.258 81.5754C169.573 82.896 169.105 84.3191 168.873 85.7896C168.708 86.4144 168.791 87.0791 169.104 87.6439V87.6439C169.205 87.7804 169.349 87.8792 169.512 87.925C169.675 87.9708 169.849 87.9608 170.006 87.8968C172.106 87.3068 172.736 84.3989 173.155 82.2813C173.334 81.3752 174.719 81.765 174.53 82.6711C174.176 84.345 173.459 85.9204 172.431 87.2857C172.391 87.3412 172.369 87.4077 172.367 87.4762C172.366 87.5448 172.385 87.6122 172.423 87.6695C172.46 87.7267 172.514 87.7711 172.578 87.7966C172.641 87.8222 172.711 87.8277 172.778 87.8125C173.826 87.5713 174.804 87.0889 175.635 86.4032C176.465 85.7176 177.126 84.8474 177.564 83.8616C178.225 82.2813 176.378 73.7158 175.727 72.1565C175.559 71.7561 174.362 72.4199 173.334 72.9993C170.678 74.5059 168.054 76.002 166.312 79.4366V79.4682ZM157.306 72.9888C157.39 73.0307 157.482 73.0512 157.576 73.0484C157.67 73.0455 157.761 73.0194 157.842 72.9725C157.923 72.9255 157.991 72.8591 158.041 72.7793C158.09 72.6994 158.119 72.6085 158.125 72.5147C158.198 71.5138 157.852 70.2179 157.841 69.217C157.831 68.2161 159.269 68.1635 159.269 69.0801C159.269 69.9967 159.017 71.0502 158.964 71.9247C158.958 72.0367 158.983 72.1481 159.036 72.2468C159.089 72.3455 159.169 72.4277 159.265 72.4842C159.362 72.5408 159.472 72.5696 159.583 72.5676C159.695 72.5655 159.804 72.5326 159.898 72.4726C160.751 71.9399 161.445 71.1882 161.91 70.2952C162.375 69.4023 162.594 68.4007 162.544 67.3944C162.25 65.4874 158.723 61.663 158.345 62.0633C157.012 62.8008 154.986 66.9308 154.839 68.2688C154.773 69.2036 154.969 70.1383 155.405 70.967C155.841 71.7956 156.499 72.4851 157.306 72.9572V72.9888ZM136.617 83.8616C137.056 84.8474 137.716 85.7176 138.547 86.4032C139.377 87.0889 140.355 87.5713 141.404 87.8125C141.47 87.8277 141.54 87.8222 141.603 87.7966C141.667 87.7711 141.721 87.7267 141.759 87.6695C141.796 87.6122 141.816 87.5448 141.814 87.4762C141.813 87.4077 141.79 87.3412 141.75 87.2857C140.722 85.9204 140.005 84.345 139.651 82.6711C139.462 81.765 140.847 81.3752 141.026 82.2813C141.456 84.3884 142.076 87.3068 144.175 87.8968C144.332 87.9608 144.506 87.9708 144.669 87.925C144.833 87.8792 144.976 87.7804 145.077 87.6439V87.6439C145.391 87.0791 145.473 86.4144 145.308 85.7896C145.076 84.3191 144.608 82.896 143.923 81.5754C143.472 80.7641 144.7 80.0372 145.151 80.8484C145.92 82.3864 146.257 84.1054 146.127 85.8212C146.127 86.8748 146.306 86.9275 146.547 86.6957C147.995 85.2312 149.003 81.7018 147.87 79.4682C146.127 76.0336 143.503 74.5375 140.816 73.0309C139.766 72.4515 138.591 71.7877 138.423 72.1881C137.803 73.7158 135.946 82.2813 136.617 83.8616ZM100.993 76.6552C102.966 78.0986 105.705 78.9625 107.017 78.7623C107.168 78.7279 107.308 78.6569 107.425 78.5556C107.542 78.4543 107.632 78.3257 107.688 78.1812C107.744 78.0366 107.764 77.8805 107.746 77.7265C107.728 77.5725 107.672 77.4254 107.584 77.2979C106.332 75.7811 104.757 74.5645 102.976 73.7368C102.137 73.3997 102.504 72.009 103.365 72.3567C105.055 73.0309 106.01 74.2109 107.406 75.7702C108.34 76.8238 107.71 72.6727 105.191 71.282C101.528 69.2486 96.794 71.1556 95.8703 72.1249C95.6499 72.3145 99.4181 75.5068 100.993 76.6552ZM164.391 73.189C165.015 71.3028 166.136 69.6211 167.634 68.3215C168.327 67.721 169.345 68.7324 168.684 69.3751C167.634 70.3233 165.346 72.8097 164.842 74.4954C164.809 74.6303 164.808 74.7713 164.841 74.9063C164.874 75.0413 164.94 75.1662 165.032 75.27C165.124 75.3739 165.24 75.4536 165.37 75.5022C165.499 75.5508 165.639 75.5669 165.776 75.549C168.023 75.2329 171.665 73.0099 172.694 70.8817C173.449 69.3329 173.376 63.728 172.998 63.6753C172.253 63.5594 167.865 65.5401 166.585 66.3408C163.236 68.4479 162.89 71.4927 163.551 73.2733C163.595 73.3511 163.661 73.4144 163.741 73.4555C163.82 73.4966 163.909 73.5138 163.998 73.5049C164.087 73.4959 164.172 73.4614 164.241 73.4053C164.311 73.3492 164.363 73.2741 164.391 73.189V73.189ZM202 126.12C200.088 125.279 198.03 124.821 195.943 124.772C197.129 126.71 200.142 128.333 203.291 128.68C206.219 129.017 212.737 129.46 212.433 128.68C210.89 124.392 209.179 121.074 205.022 120.125C202.671 119.599 198.725 119.304 196.678 120.736C199.259 120.458 201.869 120.709 204.351 121.474C204.525 121.531 204.671 121.653 204.758 121.815C204.846 121.978 204.867 122.167 204.818 122.345C204.77 122.523 204.655 122.675 204.497 122.77C204.34 122.864 204.152 122.895 203.973 122.854C202.213 122.348 200.386 122.117 198.557 122.169C197.515 122.15 196.477 122.278 195.471 122.549C195.434 122.811 195.434 123.077 195.471 123.339C197.98 123.324 200.464 123.848 202.755 124.877C203.563 125.214 202.839 126.489 202 126.131V126.12ZM204.298 284.155C202.419 282.501 200.016 279.677 197.675 278.887C194.526 277.834 191.199 279.003 186.402 280.004C178.162 281.721 172.652 277.212 170.92 274.125C169.188 271.038 168.17 257.099 166.522 251.221C163.698 241.159 164.044 239.305 163.751 235.48C163.068 226.852 166.973 221.584 165.283 215.104C164.401 211.701 162.753 212.239 162.292 207.93C161.746 202.893 161.557 193.18 162.292 175.216C162.407 172.171 164.485 165.228 164.59 160.898C164.706 155.546 161.945 155.631 161.378 152.628C160.98 150.594 161.378 145.421 163.163 141.291L163.31 141.07C164.947 138.658 169.293 137.151 170.92 136.287C173.205 134.947 175.604 133.811 178.089 132.895C180.083 132.168 180.031 130.977 179.212 130.903C176.862 131.278 174.582 132.01 172.452 133.074C170.871 133.929 169.233 134.676 167.55 135.307C166.616 135.455 168.673 132.347 169.996 131.03C173.008 128.017 174.551 126.489 173.943 126.046C173.134 125.467 170.374 127.806 168.694 129.534C167.582 130.682 162.029 137.193 161.861 137.161C161.557 136.877 162.124 135.613 162.701 134.454C163.33 133.093 164.119 131.812 165.052 130.64C165.644 130.04 166.143 129.355 166.532 128.607C166.585 128.457 166.587 128.294 166.537 128.144C166.488 127.993 166.39 127.863 166.259 127.774C165.598 127.384 163.646 129.618 163.11 130.271C162.609 130.969 162.051 131.625 161.441 132.231C160.927 132.231 162.208 126.594 162.9 124.592C163.677 122.327 165.692 117.628 164.527 117.217C164.045 117.049 162.848 118.271 160.329 125.435C159.72 127.205 158.481 130.387 157.789 129.723C157.379 129.323 156.424 126.299 155.133 123.96C153.999 121.862 152.551 119.951 150.84 118.292C150.126 117.871 149.329 119.051 150.284 120.326C152.068 122.717 153.569 124.066 154.167 128.533C154.351 130.337 154.351 132.155 154.167 133.959C154.094 134.064 153.989 133.959 153.852 133.506C152.861 131.501 151.743 129.562 150.504 127.7C148.867 125.13 147.649 125.593 147.586 126.362C147.523 127.132 148.289 128.08 149.297 129.934C150.913 132.873 151.543 136.572 150.934 136.255C150.642 136.094 150.341 135.949 150.032 135.823C149.675 135.571 149.266 135.307 148.783 135.002C146.894 133.566 145.185 131.907 143.692 130.06C142.275 127.953 142.107 126.078 141.047 126.457C140.449 126.679 140.102 128.101 141.824 130.861C142.275 131.588 142.8 132.378 143.356 133.137C141.635 132.373 139.86 131.739 138.045 131.24C135.704 130.724 135.767 132.083 136.995 132.61C138.622 133.327 142.653 134.96 144.605 136.024C150.483 139.184 150.903 138.9 151.228 142.345C151.228 144.779 151.228 147.95 151.302 149.067C151.433 157.327 151.121 165.588 150.368 173.815C150.011 175.785 147.933 177.102 147.502 180.716C146.788 186.637 149.213 190.914 150.095 194.581C150.882 197.889 150.557 215.389 150.567 219.034C150.62 230.097 151.123 239.747 149.287 243.14C147.932 245.637 145.56 249.387 144.805 258.269C144.49 261.999 143.566 266.329 141.929 269.047C137.226 276.875 134.319 277.676 129.606 277.539C124.2 277.381 122.993 276.906 119.718 277.254C117.262 277.518 114.176 280.415 111.636 282.596C109.096 284.777 105.674 285.156 105.338 285.978C104.813 287.147 108.655 286.083 111.762 284.439C113.956 283.27 116.926 280.309 119.55 280.12C123.234 279.846 126.058 280.668 130.603 281.11C136.848 281.721 142.149 278.044 144.731 274.388C145.214 273.714 145.865 273.978 145.676 274.599C145.172 276.232 142.863 281.279 140.207 281.489C135.883 281.837 133.605 282.922 130.204 285.419C127.517 287.389 124.956 289.159 125.124 289.718C125.292 290.276 126.583 289.117 129.249 287.737C132.692 285.957 136.313 284.018 139.053 284.039C140.616 284.154 142.179 283.81 143.552 283.051C144.925 282.292 146.049 281.149 146.788 279.762C149.308 275.621 149.276 270.617 149.78 268.257C150.021 267.098 150.83 267.14 150.945 268.394C151.217 271.804 150.81 275.235 149.748 278.487C149.099 280.843 147.818 282.975 146.043 284.65C144.931 285.704 143.818 285.988 142.317 287.126C140.573 288.477 139.12 290.169 138.045 292.099C136.911 293.911 136.093 295.86 136.407 296.176C136.985 296.745 138.276 294.069 139.021 293.016C139.985 291.382 141.352 290.026 142.989 289.075C144.364 288.401 145.193 288.022 146.683 287.305C148.442 286.407 149.939 285.068 151.029 283.418C152.033 281.992 152.723 280.369 153.055 278.655C153.139 278.245 153.16 277.928 153.349 277.918C153.538 277.907 153.758 278.877 153.873 279.646C154.524 284.018 153.307 289.065 151.953 291.087C150 293.995 149.402 295.049 149.098 296.408C147.828 302.097 155.595 302.845 155.899 302.445C156.33 301.865 154.787 301.391 153.695 300.991C150.126 299.621 151.06 297.24 151.596 296.218C153.149 293.384 155.28 291.909 157.967 288.443C159.295 286.38 159.914 283.938 159.73 281.489C159.657 280.225 159.132 276.875 159.646 276.843C159.993 276.843 160.098 277.591 160.182 277.95C160.75 280.569 161.777 283.066 163.215 285.324C164.884 287.495 168.044 289.181 170.269 290.213C172.494 291.246 174.908 291.456 174.866 290.908C174.824 290.361 172.536 290.15 170.342 288.738C162.638 283.807 162.355 273.746 162.166 272.65C161.977 271.554 162.313 271.291 162.533 271.976C163.866 275.99 164.233 276.78 165.86 279.151C168.936 283.639 173.943 285.103 178.11 285.103C184.733 285.103 191.503 280.246 197.003 281.216C199.491 281.648 200.635 283.702 202.346 284.819C205.211 286.684 208.644 286.789 208.969 286.399C209.714 285.356 206.177 285.841 204.298 284.187V284.155ZM141.96 274.093C140.564 275.284 138.654 275.558 139.105 275.147C140.277 274.445 141.317 273.543 142.18 272.482C143.125 271.238 144.028 269.226 144.511 269.321C144.994 269.416 143.965 272.418 141.96 274.125V274.093ZM151.134 247.649C150.45 248.849 149.951 250.145 149.654 251.494C149.553 252.417 149.392 253.332 149.171 254.234C148.888 254.813 148.447 255.393 147.964 254.971C146.83 253.918 147.964 250.283 148.352 249.029C148.52 248.523 148.993 247.059 150.126 246.69C150.83 246.49 151.428 247.006 151.134 247.681V247.649ZM151.48 178.377C150.961 179.297 150.679 180.333 150.662 181.39C150.746 182.444 150.997 182.981 150.767 183.371C150.536 183.761 149.99 183.845 149.538 183.371C148.709 182.475 148.783 180.358 149.15 179.388C149.339 178.872 149.906 177.281 150.84 177.134C151.428 177.06 151.69 177.892 151.48 178.409V178.377ZM160.99 159.413C160.707 158.58 160.287 158.096 160.161 157.559C160.003 156.81 160.518 156.505 161.126 156.663C161.998 156.947 162.785 158.907 162.858 159.908C162.909 160.228 162.895 160.556 162.817 160.87C162.74 161.185 162.6 161.481 162.407 161.741C162.333 161.808 162.245 161.859 162.149 161.889C162.054 161.919 161.953 161.929 161.854 161.917C161.754 161.905 161.659 161.871 161.573 161.819C161.488 161.767 161.414 161.698 161.357 161.615C160.917 161.151 161.305 160.393 160.99 159.465V159.413ZM163.331 219.466C162.858 219.772 162.344 219.793 162.092 219.329C161.735 218.697 162.858 217.875 162.271 216.453C162.018 215.812 161.717 215.192 161.368 214.599C161.043 213.988 161.672 213.103 162.596 213.787C163.113 214.23 163.526 214.781 163.807 215.402C164.089 216.023 164.23 216.698 164.223 217.38C164.247 217.787 164.179 218.195 164.025 218.573C163.87 218.95 163.633 219.288 163.331 219.561V219.466ZM172.043 280.889C169.608 279.835 167.928 278.592 167.099 276.854C166.27 275.115 165.818 272.418 166.343 272.271C166.868 272.123 167.466 274.989 168.736 276.812C169.711 278.193 170.958 279.358 172.4 280.236C172.945 280.594 174.793 281.142 174.667 281.353C174.541 281.563 172.683 281.247 172.043 280.984V280.889ZM236.806 103.721C236.766 103.761 236.74 103.812 236.729 103.867C236.718 103.921 236.724 103.978 236.745 104.03C236.766 104.082 236.802 104.126 236.849 104.157C236.895 104.189 236.949 104.206 237.005 104.206C238.206 104.163 239.397 104.44 240.458 105.007C240.611 105.108 240.72 105.264 240.761 105.443C240.802 105.622 240.773 105.81 240.68 105.969C240.587 106.127 240.437 106.244 240.261 106.294C240.085 106.344 239.896 106.325 239.734 106.239C238.632 105.607 235.966 104.438 235.116 106.324C234.664 107.62 234.864 109.073 237.834 109.326C238.758 109.411 245.738 110.654 246.231 110.517C246.725 110.38 245.686 106.682 242.967 104.111C242.19 103.458 239.43 101.14 236.806 103.816V103.721ZM250.073 98.9171C248.668 97.4535 246.9 96.3917 244.951 95.8406C242.18 95.2401 240.973 96.6624 240.437 97.6212C239.787 98.7906 243.376 97.3789 244.709 97.6949C245.612 97.9162 245.224 99.2963 244.332 99.0856C243.209 98.7787 242.031 98.7355 240.889 98.9592C240.765 98.9929 240.651 99.0534 240.554 99.1364C240.456 99.2194 240.378 99.3229 240.325 99.4395C240.272 99.5561 240.245 99.683 240.247 99.8112C240.248 99.9394 240.277 100.066 240.332 100.181C240.636 100.764 241.087 101.256 241.639 101.609C242.192 101.962 242.827 102.164 243.481 102.194C246.158 102.425 250.913 99.9285 250.073 99.0119V98.9171ZM236.848 195.803C234.867 196.394 232.982 197.27 231.253 198.405C222.688 205.032 224.798 215.831 224.798 215.831C225.627 225.06 231.096 232.583 227.537 237.84C226.918 238.757 224.955 238.81 224.84 238.083C223.969 232.583 218.028 223.196 218.028 223.196C216.579 220.562 214.028 218.128 214.06 215.083C214.06 210.585 215.96 209.552 216.957 204.874C217.482 202.44 216.663 195.972 217.629 194.528C225.081 183.36 225.48 175.564 223.349 169.053C222.73 167.167 221.617 166.24 222.027 164.596C222.961 160.898 222.782 156.421 221.46 157.221C220.523 157.849 219.436 158.213 218.311 158.275V158.275C217.301 158.165 216.279 158.266 215.309 158.57C214.312 158.928 214.028 159.192 213.976 159.107C213.923 159.023 215.393 157.232 217.125 157.063C216.778 156.168 216.17 154.893 215.277 154.63C215.183 154.63 214.942 154.472 214.858 154.63C213.808 156.737 213.693 157.653 212.758 158.054C212.434 158.143 212.104 158.213 211.772 158.264C208.276 159.381 206.083 161.425 203.931 161.836C203.217 161.973 202.209 161.299 202.167 162.763C202.128 163.453 202.224 164.144 202.451 164.797C203.721 169.116 208.822 171.381 208.822 171.381C209.777 173.351 208.717 177.776 208.717 177.776C202.871 181.633 201.013 185.952 199.669 187.817C199.029 188.976 198.147 188.786 196.52 190.029C195.585 190.763 194.764 191.633 194.085 192.611C193.634 193.201 193.036 191.557 197.371 187.891C197.267 187.468 197.127 187.056 196.951 186.658C194.956 183.15 189.866 174.194 189.204 173.32C188.06 171.824 187.535 172.266 184.628 169.316C183.305 167.978 183.295 167.051 182.613 166.872C181.93 166.693 180.513 166.788 178.991 166.619C177.595 166.461 176.955 166.524 176.798 166.777C176.546 167.199 176.987 168.674 177.669 169.738C179.947 173.278 185.867 175.827 185.992 176.059C186.118 176.291 186.853 180.2 187.042 180.99C189.141 188.291 190.411 188.839 190.453 193.243C190.581 194.612 190.485 195.993 190.17 197.331C190.588 197.442 191.012 197.53 191.44 197.594C196.195 198.374 201.853 196.224 201.643 197.236C201.527 197.836 199.449 198.511 195.744 198.742C193.6 198.876 191.448 198.799 189.32 198.511C189.32 198.511 189.257 198.511 189.32 198.511C189.383 198.511 183.473 197.668 176 196.688C174.656 196.509 173.418 198.353 170.857 201.197C168.757 203.483 167.015 203.589 166.858 204.642C166.469 207.181 166.018 207.993 166.354 208.857C166.585 209.489 169.303 208.572 170.248 208.045C173.901 206.033 176.178 201.724 176.598 201.998C178.96 203.389 186.276 205.559 190.044 206.465C191.514 206.813 193.141 206.465 193.036 207.445C191.797 218.318 201.065 226.946 203.312 230.349C203.511 230.644 203.364 231.161 203.102 231.119C201.706 230.876 192.92 229.422 189.362 232.73C187.105 234.838 187.619 239.421 188.68 242.076C190.181 245.868 192.206 247.259 194.432 251.473C195.103 252.738 196.972 254.855 195.817 258.437C194.663 262.02 191.062 264.949 186.37 266.866C185.195 267.34 183.106 266.645 182.329 267.719C181.28 269.215 180.345 271.934 181.08 272.113C181.647 272.229 186.328 272.408 187.43 271.47C189.078 270.058 197.486 266.202 200.971 260.113C203.07 256.509 198.494 256.478 200.005 250.631C200.95 246.943 206.807 244.309 206.544 241.675C206.419 240.516 206.786 240.832 206.922 240.917C208.612 241.97 206.188 247.47 207.647 252.938C208.896 257.605 213.944 262.525 218.51 266.95C218.822 267.251 219.075 267.609 219.256 268.004C219.645 268.868 219.716 269.842 219.455 270.754C218.269 275.295 215.141 281.605 213.451 282.396C213.105 282.554 211.184 282.849 210.712 283.86C210.565 284.187 209.578 286.125 210.05 286.504C211.1 287.337 216.432 286.799 217.156 286.241C217.339 286.078 217.489 285.881 217.597 285.662C219.109 282.743 227.327 267.456 224.336 263.832C223.286 262.61 222.237 264.643 220.526 262.715C220.022 262.125 219.675 260.26 219.885 257.521C219.917 256.786 220.154 256.074 220.568 255.466C224.682 251.178 226.183 246.985 226.152 242.571C226.152 242.149 227.695 241.802 228.178 242.213C228.95 242.954 229.897 243.489 230.93 243.767C231.962 244.045 233.048 244.057 234.087 243.803C237.939 243.308 242.484 238.82 243.586 230.866C244.489 224.418 243.996 220.614 235.378 207.16C231.232 200.892 236.848 195.803 236.848 195.803ZM220.106 160.066C218.993 161.91 219.119 161.92 219.13 162.953C219.13 163.311 218.92 163.722 218.51 163.68C218.124 163.529 217.776 163.294 217.491 162.991C217.206 162.689 216.991 162.327 216.862 161.931C216.768 160.509 220.473 159.444 220.106 160.066ZM217.818 170.37C218.773 169.58 219.014 168.168 219.434 168.263C219.854 168.358 220.316 170.812 218.678 171.666C218.106 171.944 217.468 172.059 216.835 171.998C216.202 171.937 215.597 171.701 215.089 171.318C214.826 170.855 216.663 171.35 217.818 170.37ZM205.012 209.826C204.241 209.999 203.442 209.999 202.671 209.826C202.283 209.763 201.506 209.499 201.622 209.141C201.737 208.783 203.322 209.215 204.246 208.498C204.991 207.919 204.96 206.739 205.295 206.792C205.631 206.844 205.726 207.508 205.747 207.592C205.883 208.446 205.894 209.499 205.012 209.826ZM210.082 164.07C209.724 163.845 209.468 163.49 209.368 163.079C209.153 163.001 208.956 162.879 208.791 162.721C208.528 162.5 208.465 162.342 208.476 162.31C208.486 162.279 208.549 162.194 208.938 162.205C209.171 162.209 209.397 162.122 209.567 161.962C209.802 161.668 210.136 161.471 210.507 161.411C210.878 161.35 211.257 161.431 211.572 161.636C212.213 162.036 212.769 162.984 213.399 163.532C213.514 163.627 211.404 164.933 210.082 164.07ZM71.7916 93.4807C72.6313 92.5324 69.6923 93.2805 68.8736 92.8696C68.0548 92.4587 68.7686 91.2366 69.5978 91.6369C70.427 92.0373 71.8965 92.6905 72.4003 91.9214C72.9042 91.1523 71.4872 90.046 68.8421 89.4455C67.4579 89.2043 66.1032 88.8158 64.8009 88.2866C64.6855 88.2339 65.0319 91.4473 66.029 92.5535C67.719 94.3551 70.3955 94.8714 71.7916 93.4701V93.4807ZM111.678 250.652C113.189 256.541 108.655 256.573 110.712 260.134C114.197 266.234 122.605 270.079 124.253 271.491C125.302 272.429 130.036 272.25 130.613 272.134C131.191 272.018 130.435 269.237 129.354 267.74C128.577 266.687 126.488 267.361 125.313 266.887C120.6 265.001 117.042 262.22 115.866 258.459C114.69 254.697 116.58 252.759 117.251 251.494C119.477 247.28 121.45 245.89 123.014 242.097C124.064 239.442 124.578 234.859 122.321 232.752C118.763 229.443 109.977 230.897 108.581 231.14C108.319 231.14 108.183 230.665 108.372 230.37C110.618 226.967 119.918 218.339 118.648 207.466C118.543 206.486 120.169 206.834 121.639 206.486C125.418 205.58 132.723 203.41 135.085 202.019C135.505 201.777 137.782 206.054 141.435 208.066C142.38 208.593 145.098 209.51 145.34 208.878C145.665 207.993 145.214 207.181 144.826 204.663C144.668 203.61 142.894 203.505 140.826 201.218C138.265 198.374 137.027 196.53 135.694 196.709C128.21 197.689 122.363 198.532 122.363 198.532C120.235 198.82 118.083 198.897 115.939 198.763C112.234 198.532 110.166 197.857 110.04 197.257C109.831 196.203 115.488 198.395 120.243 197.615C120.671 197.551 121.095 197.464 121.513 197.352C121.198 196.014 121.102 194.633 121.23 193.264C121.282 188.86 122.584 188.312 124.641 181.011C124.861 180.221 125.544 176.481 125.691 176.08C125.838 175.68 131.737 173.246 134.014 169.759C134.697 168.705 135.148 167.22 134.885 166.798C134.728 166.545 134.088 166.482 132.702 166.64C131.128 166.809 129.879 166.64 129.081 166.893C128.283 167.146 128.378 167.947 127.066 169.337C124.148 172.287 123.623 171.845 122.479 173.341C121.817 174.215 116.727 183.171 114.732 186.679C114.556 187.077 114.416 187.489 114.313 187.912C118.648 191.61 118.049 193.18 117.598 192.632C116.919 191.654 116.098 190.784 115.163 190.051C113.515 188.807 112.633 188.997 112.014 187.838C110.66 185.973 108.802 181.654 102.955 177.798C102.955 177.798 101.906 173.373 102.85 171.402C102.85 171.402 107.962 169.137 109.222 164.818C109.448 164.165 109.544 163.474 109.505 162.784C109.505 161.32 108.456 161.994 107.742 161.857C105.59 161.467 103.396 159.402 99.9009 158.285C99.5683 158.234 99.2389 158.164 98.9143 158.075C97.9381 157.674 97.8017 156.705 96.815 154.651C96.731 154.493 96.4896 154.651 96.3951 154.651C95.5029 154.914 94.8941 156.189 94.5478 157.084C96.2482 157.253 97.7911 158.928 97.6967 159.128C97.6022 159.329 97.3608 158.949 96.3637 158.591C95.3938 158.287 94.3719 158.186 93.3617 158.296C92.237 158.234 91.1496 157.87 90.2127 157.242C88.8902 156.473 88.7118 160.951 89.646 164.617C90.0658 166.261 88.9427 167.188 88.3234 169.074C86.2241 175.575 86.5915 183.381 94.0439 194.549C95.0096 195.993 94.1909 202.462 94.7157 204.895C95.7129 209.573 97.5812 210.606 97.6232 215.104C97.6232 218.149 95.0936 220.583 93.6451 223.217C93.6451 223.217 87.7041 232.604 86.8329 238.104C86.7174 238.831 84.7336 238.778 84.1353 237.861C80.5771 232.593 86.0457 225.082 86.8749 215.852C86.8749 215.852 88.9742 205.053 80.4196 198.426C78.6902 197.292 76.8056 196.415 74.825 195.824C74.825 195.824 80.4406 200.892 76.4205 207.15C67.8029 220.604 67.3096 224.407 68.2123 230.855C69.2619 238.81 73.8593 243.298 77.659 243.793C78.6857 244.023 79.753 243.994 80.7659 243.709C81.7787 243.424 82.7055 242.892 83.4636 242.16C83.9569 241.749 85.4894 242.097 85.4894 242.518C85.4894 246.933 86.9589 251.126 91.0735 255.414C91.4923 256.019 91.7291 256.732 91.7557 257.468C91.9761 260.207 91.6193 262.072 91.1154 262.662C89.4465 264.59 88.3129 262.557 87.3052 263.779C84.3138 267.403 92.5534 282.691 94.0439 285.609C94.1526 285.829 94.3023 286.025 94.4848 286.188C95.209 286.747 100.583 287.242 101.591 286.452C102.063 286.072 101.077 284.134 100.93 283.807C100.457 282.754 98.5469 282.501 98.19 282.343C96.5001 281.553 93.3722 275.242 92.1861 270.701C91.9306 269.789 92.0012 268.816 92.3855 267.951C92.5659 267.556 92.8187 267.199 93.1307 266.898C97.6862 262.473 102.745 257.552 103.995 252.885C105.454 247.417 103.029 241.918 104.719 240.864C104.855 240.78 105.223 240.464 105.097 241.623C104.866 244.267 110.754 246.954 111.667 250.641L111.678 250.652ZM94.6947 161.941C94.5661 162.337 94.3515 162.699 94.0665 163.002C93.7816 163.304 93.4333 163.539 93.0468 163.69C92.6374 163.69 92.417 163.322 92.4275 162.963C92.4275 161.91 92.5639 161.91 91.4513 160.077C91.0734 159.444 94.7472 160.509 94.6842 161.931L94.6947 161.941ZM96.4476 171.276C95.9388 171.659 95.3346 171.894 94.7014 171.956C94.0681 172.017 93.4303 171.902 92.8579 171.624C91.2204 170.77 91.5458 168.273 92.1126 168.221C92.5219 168.221 92.7634 169.59 93.7185 170.328C94.8836 171.35 96.7205 170.855 96.4371 171.265L96.4476 171.276ZM101.475 164.08C100.153 164.944 98.0431 163.638 98.1585 163.543C98.7883 162.995 99.3446 162.047 99.9849 161.646C100.299 161.439 100.679 161.357 101.051 161.418C101.422 161.478 101.757 161.676 101.99 161.973C102.161 162.132 102.386 162.219 102.62 162.215C103.008 162.215 103.06 162.279 103.081 162.321C103.102 162.363 103.081 162.51 102.766 162.732C102.602 162.892 102.405 163.014 102.189 163.09C102.084 163.498 101.824 163.85 101.465 164.07L101.475 164.08ZM105.821 207.645C105.821 207.561 105.957 206.897 106.262 206.844C106.566 206.792 106.587 207.972 107.311 208.551C108.235 209.268 109.799 208.709 109.936 209.194C110.072 209.678 109.264 209.815 108.886 209.879C108.115 210.052 107.316 210.052 106.545 209.879C105.653 209.499 105.663 208.446 105.81 207.635L105.821 207.645ZM75.3813 91.1944C78.6877 92.6378 82.5084 92.1532 84.1143 89.4244C84.3767 88.9714 84.4502 87.9284 83.9359 88.0548C81.6477 88.6132 78.6877 89.1716 76.5884 88.4657C75.7172 88.1812 76.0951 86.7905 76.9663 87.0855C79.2196 87.7429 81.606 87.7902 83.8834 87.2225C84.8491 86.9591 84.9331 85.7475 84.5867 84.8203C83.537 82.0916 79.5799 82.0811 77.8375 82.2813C74.4262 82.6711 69.094 85.5684 68.6111 85.9582C70.5604 88.0861 72.866 89.8547 75.4233 91.1839L75.3813 91.1944ZM73.8383 100.287C73.8936 100.171 73.9229 100.045 73.9241 99.9166C73.9253 99.7884 73.8985 99.6615 73.8454 99.5448C73.7923 99.4282 73.7143 99.3248 73.617 99.2418C73.5196 99.1588 73.4053 99.0983 73.282 99.0646C72.14 98.8408 70.9619 98.8841 69.8392 99.191C68.947 99.4017 68.5587 98.0215 69.4613 97.8003C70.7944 97.4842 74.3842 98.8538 73.7334 97.7265C73.1981 96.7678 71.991 95.3455 69.2199 95.946C67.2708 96.4971 65.5028 97.5589 64.0977 99.0224C63.258 99.9496 68.0338 102.436 70.7314 102.299C71.3868 102.268 72.0226 102.065 72.5752 101.71C73.1278 101.355 73.5778 100.861 73.8803 100.276L73.8383 100.287ZM89.4465 86.1478C90.6791 86.6872 92.0067 86.9738 93.3512 86.9907C94.2854 86.9275 95.7234 87.096 95.4505 86.2005C94.9676 84.7255 92.3855 82.5763 90.9685 81.902C90.1393 81.5121 90.8635 80.2795 91.6927 80.6693C93.5086 81.5227 94.0859 83.377 95.5974 84.7887C95.8283 84.9995 95.9963 84.283 95.9963 83.9037C95.9963 81.7229 94.8417 78.6359 92.1336 78.0775C89.7089 77.5507 87.1583 78.362 84.7861 79.1311C84.7126 79.1943 85.6888 84.6096 89.4885 86.1373L89.4465 86.1478ZM175.108 104.754C175.102 104.826 175.119 104.897 175.156 104.959C175.193 105.02 175.248 105.069 175.314 105.098C175.38 105.127 175.453 105.135 175.523 105.12C175.593 105.106 175.657 105.07 175.706 105.017C177.06 103.563 178.855 101.857 180.366 101.562C181.269 101.361 181.647 102.742 180.744 102.952C179.518 103.295 178.389 103.923 177.448 104.785C177.165 105.017 176.871 105.281 176.577 105.565C176.477 105.668 176.405 105.794 176.366 105.932C176.328 106.07 176.325 106.216 176.357 106.355C176.39 106.495 176.457 106.624 176.552 106.731C176.647 106.838 176.768 106.919 176.903 106.966C178.928 107.63 181.678 106.587 183.2 104.859C184.722 103.131 186.213 98.7485 185.468 98.7485C184.103 98.7485 179.243 99.2331 177.071 100.529C175.832 101.267 175.181 103.353 175.15 104.743L175.108 104.754ZM179.306 73.6209C181.08 72.3777 182.382 69.7649 183.179 67.7842C183.515 66.9413 184.901 67.3101 184.554 68.174C183.788 70.0009 182.651 71.6478 181.217 73.0099C181.149 73.0718 181.102 73.1539 181.084 73.2442C181.066 73.3345 181.077 73.4283 181.116 73.5118C181.154 73.5954 181.219 73.6643 181.299 73.7086C181.38 73.7529 181.472 73.7701 181.563 73.7579C182.823 73.4954 183.994 72.9112 184.964 72.0617C187.158 70.1336 186.433 63.4224 186.097 63.4646C184.554 63.6226 179.285 66.4146 178.309 67.8158C177.008 69.6701 177.259 72.462 178.383 73.5367C178.515 73.659 178.686 73.7312 178.867 73.7408C179.047 73.7504 179.224 73.6968 179.369 73.5893L179.306 73.6209ZM229.259 133.716C230.445 133.643 228.325 129.186 226.11 127.606C225.144 126.91 221.701 125.499 219.203 126.268C218.93 126.352 218.426 126.942 218.699 127.016C220.263 127.427 222.268 128.069 223.139 128.944C223.78 129.607 222.761 130.629 222.09 129.997C220.719 128.755 218.959 128.032 217.114 127.953C216.834 127.979 216.564 128.072 216.326 128.224C216.089 128.376 215.891 128.583 215.75 128.828C214.7 130.935 216.317 132.821 218.216 133.674C220.704 134.749 224.798 133.98 229.259 133.716ZM174.006 88.7185C170.563 90.0671 169.943 93.8599 170.458 96.5149C170.467 96.5745 170.496 96.6293 170.54 96.6706C170.584 96.712 170.64 96.7377 170.7 96.7437C170.76 96.7497 170.82 96.7357 170.871 96.7039C170.922 96.672 170.961 96.6241 170.983 96.5676C171.695 94.8631 172.619 93.256 173.733 91.7844C174.31 91.068 175.318 92.09 174.782 92.838C173.428 94.5237 171.046 96.7678 171.633 98.9592C171.67 99.0954 171.747 99.2174 171.854 99.3095C171.96 99.4015 172.092 99.4593 172.232 99.4754C173.32 99.2992 174.299 98.7064 174.961 97.8213C176.103 96.7255 177.186 95.5684 178.204 94.3551C178.792 93.6492 179.8 94.6712 179.254 95.4087C177.954 96.6429 176.583 97.8003 175.15 98.8749C174.73 99.2753 174.824 99.4228 175.402 99.3385C177.207 99.0751 180.44 98.169 181.185 97.2314C184.04 93.8705 184.334 88.0337 183.988 86.5798C183.946 86.4428 180.324 86.2321 174.006 88.7185ZM211.646 94.0601C209.389 94.8187 204.97 97.0628 202.85 100.108C200.593 103.353 200.572 108.009 202.125 107.841C202.409 107.841 202.65 107.841 202.913 107.841C202.913 107.841 202.913 107.841 202.913 107.788C205.147 105.855 206.568 103.145 206.891 100.202C207.048 99.2963 208.423 99.6862 208.266 100.592C207.909 103.314 206.738 105.864 204.907 107.904C205.516 107.967 206.093 108.073 206.66 108.188C207.536 107.654 208.283 106.932 208.849 106.074C209.415 105.217 209.786 104.244 209.935 103.226C210.019 102.31 211.446 102.299 211.373 103.226C211.125 105.32 210.089 107.238 208.476 108.589C209.424 108.803 210.385 108.961 211.352 109.063C212.569 109.179 215.256 105.639 213.661 102.109C212.863 100.181 211.782 94.0074 211.646 94.0601ZM204.876 115.974C203.11 115.991 201.37 116.405 199.785 117.186C199.687 117.248 199.608 117.335 199.556 117.438C199.503 117.541 199.48 117.656 199.487 117.771C199.495 117.887 199.533 117.998 199.599 118.094C199.664 118.189 199.754 118.265 199.858 118.313C202.07 119.112 204.497 119.071 206.681 118.197C208.938 117.333 213.514 111.17 212.779 110.949C210.68 110.327 204.109 108.431 200.761 109.463C198.452 110.169 196.394 115.184 197.476 114.194C198.2 113.541 200.908 111.328 202.661 110.949C203.553 110.749 203.941 112.139 203.039 112.329C201.002 112.771 197.643 114.931 197.465 116.174C197.392 116.68 197.633 117.028 197.885 116.891C199.375 116.111 202.85 114.605 204.876 114.541C205.789 114.51 205.789 115.943 204.876 115.974V115.974ZM234.937 120.052C233.237 117.144 229.689 114.289 225.071 115.606C224.609 115.732 224.094 116.501 224.567 116.606C226.156 116.884 227.681 117.448 229.07 118.271C229.805 118.819 229.07 120.062 228.356 119.504C226.644 118.304 224.608 117.657 222.52 117.649C222.267 117.657 222.028 117.763 221.85 117.943C221.672 118.123 221.57 118.365 221.565 118.619C221.565 120.726 223.748 123.328 226.666 123.739C229.584 124.15 234.265 124.15 236.743 125.488C237.425 125.867 235.662 121.263 234.937 120.052ZM187.556 115.458C187.497 115.486 187.448 115.532 187.417 115.59C187.386 115.648 187.374 115.714 187.383 115.779C187.393 115.844 187.423 115.905 187.469 115.951C187.516 115.998 187.576 116.028 187.64 116.038C190.325 116.319 193.015 115.566 195.166 113.93C197.402 111.823 199.47 104.838 200.31 101.34C200.373 101.077 191.713 101.34 187.556 103.447C185.583 104.427 184.313 106.924 184.03 109.442C183.883 110.728 184.135 111.254 184.261 111.033C185.39 109.007 186.804 107.155 188.459 105.533C189.162 104.954 190.181 105.965 189.509 106.587C187.41 108.304 184.754 110.527 184.376 113.109C184.366 113.18 184.378 113.252 184.41 113.316C184.443 113.38 184.494 113.432 184.557 113.466C184.621 113.499 184.693 113.512 184.763 113.503C184.834 113.494 184.901 113.463 184.953 113.414C187.131 111.262 189.437 109.246 191.86 107.377C192.605 106.84 193.329 108.094 192.574 108.62C192.353 108.778 191.786 109.274 191.398 109.569C187.64 112.498 186.601 112.729 185.1 114.268C184.953 114.415 184.659 114.636 184.796 114.942C184.932 115.247 185.426 115.079 185.573 115.058C187.672 114.826 191.356 112.455 193.487 110.633C194.18 110.032 195.198 111.044 194.537 111.686C192.39 113.254 190.042 114.523 187.556 115.458V115.458ZM220.358 106.808C217.828 106.06 216.002 106.387 214.963 107.588C214.637 107.978 214.585 109.084 215.099 109.01C216.789 108.768 219.088 108.462 220.473 109.01C221.323 109.358 220.946 110.749 220.095 110.401C218.243 109.678 216.198 109.626 214.312 110.253C214.214 110.297 214.132 110.368 214.074 110.457C214.016 110.547 213.986 110.652 213.986 110.759C213.966 111.064 213.966 111.371 213.986 111.676C214.207 114.183 216.642 115.637 220.011 114.994C222.544 114.555 225.037 113.907 227.464 113.056C227.264 112.434 223.958 107.872 220.358 106.808ZM221.292 124.982C221.55 123.519 221.41 122.013 220.887 120.622C220.365 119.232 219.478 118.008 218.321 117.081C216.222 115.49 212.475 114.51 211.194 116.238C211.138 116.325 211.104 116.425 211.098 116.529C211.092 116.633 211.112 116.737 211.158 116.83C211.203 116.923 211.272 117.003 211.358 117.062C211.443 117.121 211.542 117.156 211.646 117.165C213.189 117.291 215.099 117.523 215.939 118.218C216.778 118.914 215.645 119.799 214.889 119.272C213.598 118.454 212.075 118.083 210.554 118.218C210.231 118.265 209.936 118.432 209.728 118.685C209.521 118.938 209.415 119.26 209.431 119.588C209.494 121.189 210.796 122.601 213.241 123.244C215.893 123.962 218.58 124.542 221.292 124.982V124.982ZM187.378 87.2857C185.153 88.7607 184.943 92.1216 185.51 95.0715C185.667 95.9355 186.381 96.9153 186.486 96.3674C187.069 93.5207 188.589 90.9531 190.8 89.0768C191.556 88.55 192.269 89.7932 191.524 90.32C189.204 91.9425 186.528 95.3771 187.619 98.6853C187.643 98.7662 187.69 98.8382 187.755 98.8919C187.82 98.9457 187.899 98.9786 187.983 98.9866C188.067 98.9945 188.151 98.9771 188.224 98.9365C188.298 98.8959 188.358 98.8341 188.396 98.759C190.107 95.9565 191.65 92.6378 195.187 90.2041C196.027 89.6246 196.52 90.7309 195.628 91.5948C193.128 93.9946 190.942 96.7028 189.12 99.6546C188.669 100.382 189.834 100.308 190.065 100.234C192.311 99.486 194.064 97.4421 195.765 95.5667C196.394 94.8819 197.402 95.8933 196.814 96.6203C195.633 97.7567 194.378 98.8126 193.057 99.781C192.973 99.8489 192.913 99.9411 192.885 100.045C192.857 100.149 192.861 100.259 192.898 100.36C192.935 100.461 193.003 100.547 193.091 100.608C193.18 100.669 193.285 100.7 193.392 100.698C196.541 100.571 199.585 99.1278 200.918 97.4315C203.427 94.2708 203.469 85.4209 202.86 85.2312C202.251 85.0416 191.986 84.1777 187.378 87.2857ZM191.388 83.5877C191.902 83.4823 192.437 83.398 192.899 83.3137C193.794 83.188 194.607 82.7199 195.166 82.0073C196.067 80.7466 196.696 79.3114 197.014 77.7931C197.192 76.887 198.567 77.2768 198.399 78.1723C197.904 79.8955 197.004 81.4743 195.775 82.7764C195.418 83.1768 197.035 83.2611 197.769 82.9977C198.057 82.9115 198.318 82.7518 198.525 82.5341C199.912 80.7601 200.777 78.6328 201.023 76.3918C201.16 75.4752 202.535 75.865 202.398 76.7711C201.913 78.6856 201.092 80.4979 199.974 82.1232C199.927 82.2042 199.902 82.2958 199.9 82.3894C199.899 82.483 199.921 82.5754 199.965 82.6578C200.01 82.7402 200.074 82.8099 200.153 82.8601C200.231 82.9104 200.321 82.9396 200.415 82.945C201.349 83.0082 202.64 83.082 202.955 83.0398C204.078 82.8818 205.222 75.0749 204.393 71.3874C204.214 70.5867 197.717 72.6622 194.893 74.6113C191.167 77.1609 189.981 83.8195 191.409 83.535L191.388 83.5877ZM238.548 111.444C236.533 109.716 232.177 108.915 231.201 110.011C230.224 111.107 234.265 110.97 235.294 111.602C235.458 111.698 235.578 111.856 235.626 112.041C235.674 112.226 235.647 112.422 235.551 112.587C235.455 112.752 235.298 112.872 235.114 112.92C234.93 112.969 234.734 112.942 234.57 112.845C233.81 112.39 232.995 112.036 232.145 111.792C231.862 111.707 231.484 111.57 231.096 111.465C230.957 111.428 230.812 111.423 230.672 111.451C230.531 111.479 230.399 111.54 230.285 111.627C230.172 111.715 230.08 111.827 230.016 111.956C229.953 112.085 229.92 112.227 229.92 112.371C229.972 113.109 230.225 113.818 230.65 114.422C231.076 115.025 231.658 115.5 232.334 115.795C236.312 117.333 238.433 117.354 241.162 118.429C241.844 118.671 240.773 113.277 238.569 111.391L238.548 111.444ZM205.757 90.7519C204.991 90.8151 204.781 91.8055 204.708 92.5746C204.708 92.6799 204.708 92.7958 204.708 92.9012C204.319 96.0619 213.157 93.5966 215.855 87.6334C217.356 84.283 217.881 76.9502 217.261 77.1504C211.614 78.9625 204.267 81.0907 204.739 84.5253V84.7887C204.886 85.9371 204.949 87.6018 205.957 87.0328C207.575 85.9957 209.021 84.7085 210.239 83.2189C210.743 82.4498 211.982 83.1662 211.478 83.9459C210.048 85.9946 207.957 87.4836 205.558 88.1602C205.4 88.2005 205.26 88.2931 205.161 88.4231C205.062 88.5532 205.009 88.7129 205.012 88.8766C205.011 88.9926 205.035 89.1075 205.082 89.2134C205.129 89.3194 205.198 89.414 205.285 89.4909C205.371 89.5678 205.473 89.6252 205.584 89.6592C205.694 89.6931 205.811 89.7029 205.925 89.6878C206.561 89.5944 207.187 89.4391 207.794 89.2243C209.284 88.8065 210.633 87.9909 211.698 86.8643C212.318 86.1794 213.325 87.2014 212.748 87.9178C211.352 89.3928 208.171 90.5517 205.757 90.7519ZM178.897 80.9643C178.913 81.0439 178.952 81.1169 179.01 81.1736C179.068 81.2302 179.141 81.2679 179.221 81.2816C179.301 81.2953 179.383 81.2844 179.456 81.2503C179.529 81.2162 179.591 81.1606 179.632 81.0907C180.624 79.3279 182.034 77.8373 183.736 76.75C183.897 76.6765 184.079 76.6656 184.248 76.7196C184.417 76.7736 184.559 76.8886 184.648 77.0422C184.737 77.1958 184.766 77.3771 184.729 77.5509C184.693 77.7247 184.593 77.8786 184.45 77.9827C182.434 79.1416 179.789 80.9327 179.947 83.3032C179.98 83.4691 180.057 83.623 180.169 83.749C180.282 83.875 180.426 83.9684 180.587 84.0196C180.971 84.0441 181.355 83.9884 181.717 83.856C182.078 83.7236 182.408 83.5175 182.686 83.2505C183.833 82.4387 184.816 81.4163 185.583 80.2373C185.679 80.0725 185.837 79.9527 186.021 79.9043C186.205 79.8558 186.4 79.8828 186.565 79.9792C186.729 80.0756 186.848 80.2336 186.896 80.4183C186.945 80.603 186.918 80.7994 186.822 80.9643C185.968 82.1352 184.868 83.1029 183.599 83.7984C183.19 84.0723 182.077 84.4516 182.413 84.9152C182.749 85.3787 184.659 85.1153 185.93 84.6518C188.512 83.693 188.91 81.7334 189.771 79.5736C190.097 78.7623 191.262 73.5999 190.821 73.484C189.005 73.0204 183.305 74.074 180.398 75.6438C178.897 76.4445 178.404 78.8572 178.897 80.9643ZM191.052 72.3251C192.603 71.6031 193.889 70.4087 194.726 68.9115C195.24 68.1529 196.478 68.9115 195.964 69.6385C195.103 70.8817 192.017 72.4409 192.815 72.7992C193.246 72.9888 196.562 72.8518 197.727 70.8501C198.537 68.8204 198.895 66.6379 198.777 64.4549C198.777 63.7596 190.537 67.426 189.666 69.649C189.099 71.1556 190.076 72.7465 191.052 72.3356V72.3251ZM206.796 75.7281C208.192 74.1688 209.148 72.9888 210.837 72.3145C211.698 71.9668 212.066 73.3681 211.226 73.6947C209.445 74.5223 207.87 75.739 206.618 77.2557C206.53 77.3832 206.474 77.5304 206.456 77.6844C206.438 77.8384 206.458 77.9945 206.514 78.139C206.57 78.2836 206.66 78.4121 206.777 78.5135C206.894 78.6148 207.034 78.6858 207.185 78.7202C208.497 78.952 211.236 78.0881 213.21 76.6131C214.784 75.4647 218.552 72.2724 218.332 72.0511C217.398 71.0818 212.674 69.1749 209.011 71.2083C206.502 72.6411 205.873 76.75 206.807 75.6965L206.796 75.7281ZM228.639 100.013C223.391 99.2226 222.027 103.437 222.069 104.385C222.132 105.85 225.973 103.605 227.842 102.847C228.702 102.51 229.07 103.9 228.22 104.238C226.764 104.823 225.256 105.268 223.717 105.565C223.592 105.587 223.475 105.643 223.379 105.726C223.283 105.81 223.211 105.918 223.172 106.039C223.132 106.16 223.125 106.289 223.153 106.414C223.18 106.538 223.241 106.652 223.328 106.745C224.04 107.444 224.912 107.957 225.867 108.238C226.823 108.52 227.832 108.56 228.807 108.357C231.526 107.862 235.966 102.868 235.85 102.784C233.589 101.533 231.166 100.604 228.65 100.023L228.639 100.013ZM241.34 94.4394C238.278 93.4191 235.067 92.9205 231.841 92.9644C230.308 93.0592 228.335 93.3332 227.096 94.5764C226.75 94.924 226.383 95.6299 226.603 95.9881C227.485 97.4842 231.851 96.4306 233.804 95.8196C234.685 95.5456 235.053 96.8731 234.182 97.2103C231.62 98.0742 226.834 97.0417 227.18 97.7897C227.8 99.1172 230.067 99.6546 233.268 99.3385C236.795 99.0119 241.959 94.6607 241.351 94.4499L241.34 94.4394ZM218.584 84.7677C220.095 83.3559 220.683 81.5016 222.489 80.6482C223.318 80.2584 224.042 81.4911 223.213 81.8809C221.796 82.5552 219.214 84.7045 218.731 86.1794C218.437 87.075 219.875 86.9064 220.83 86.9696C222.175 86.9527 223.502 86.6661 224.735 86.1268C228.534 84.5991 229.511 79.1838 229.395 79.1416C227.044 78.3409 224.493 77.5297 222.048 78.0881C219.34 78.6675 218.153 81.7334 218.185 83.9143C218.195 84.2725 218.363 84.9889 218.594 84.7782L218.584 84.7677Z" fill="#8F7965"/>
</g>
<path d="M179.284 5.32428C179.284 5.32428 251.5 -4.00034 228 59.9998" fill="none" stroke="#322D29" stroke-opacity="0.2"/>
<path d="M187.5 298C187.5 298 293.5 329.5 226 418" stroke="#322D29" fill="none" stroke-opacity="0.2"/>
<path d="M62.0009 192.5C62.0009 192.5 -45.7816 239.5 73.001 330.5" fill="none" stroke="#322D29" stroke-opacity="0.2"/>
<circle cx="225.5" cy="64.5" r="2.5" fill="#322D29"/>
<circle cx="183.5" cy="296.5" r="2.5" fill="#322D29"/>
<circle cx="65.5" cy="189.5" r="2.5" fill="#322D29"/>
<defs>
<clipPath id="clip0_1561_10645">
<rect width="184" height="243" fill="white" transform="translate(64 62)"/>
</clipPath>
</defs>
</svg>
