<svg width="640" height="416" viewBox="0 0 640 416" fill="none" xmlns="http://www.w3.org/2000/svg">
<circle cx="354.5" cy="365.097" r="2.5" fill="#322D29"/>
<circle cx="414.5" cy="80.0969" r="2.5" fill="#322D29"/>
<g clip-path="url(#clip0_1495_10656)">
<path fill-rule="evenodd" clip-rule="evenodd" d="M209.174 110.326C208.367 110.604 214.918 116.052 219.351 116.475C223.388 116.872 226.247 116.197 227.028 114.531C227.478 113.592 221.429 114.888 218.2 113.804C217.102 113.42 217.565 111.715 218.676 112.058C221.138 112.825 226.617 114.148 227.755 112.27C228.033 111.781 227.57 110.948 227.133 110.498C225.572 108.938 223.084 108.594 221.151 108.475C217.084 108.42 213.035 109.045 209.174 110.326ZM319.657 106.359C321.311 105.037 324.434 102.471 324.95 100.183C325.916 95.5551 321.549 84.9894 320.623 85.1877C317.896 85.7696 311.133 90.8739 309.029 95.9254C308.142 98.0677 309.559 101.836 310.75 103.357C310.961 103.622 311.451 103.556 311.411 103.212C311.134 100.669 311.322 98.0967 311.967 95.6213C312.351 94.5369 314.085 95.013 313.701 96.1105C312.723 99.0927 312.346 102.239 312.589 105.367C312.761 106.795 313.913 107.576 314.124 106.531C314.637 102.212 315.672 97.9714 317.208 93.9022C317.632 92.831 319.379 93.3071 318.942 94.3782C317.221 98.6892 314.535 106.769 315.395 107.774C315.567 107.959 315.911 107.893 316.136 107.774C317.34 107.338 317.949 105.46 318.333 104.111C318.836 102.365 319.392 100.752 319.829 98.8214C320.093 97.6842 321.721 98.1602 321.576 99.2975C320.99 101.574 320.183 103.789 319.167 105.909C319.132 105.976 319.12 106.053 319.133 106.128C319.146 106.203 319.183 106.271 319.239 106.322C319.295 106.373 319.366 106.405 319.441 106.412C319.517 106.418 319.593 106.4 319.657 106.359ZM203.007 130.611C203.642 130.783 212.443 129.289 213.594 129.117C217.34 128.8 217.565 126.975 217.022 125.348C215.95 122.981 212.589 124.449 211.199 125.243C210.994 125.35 210.757 125.374 210.534 125.311C210.312 125.248 210.123 125.102 210.006 124.903C209.889 124.704 209.852 124.468 209.904 124.243C209.956 124.018 210.093 123.822 210.286 123.695C211.624 122.985 213.125 122.638 214.64 122.69C214.71 122.69 214.779 122.669 214.837 122.629C214.896 122.59 214.941 122.535 214.968 122.47C214.995 122.405 215.002 122.333 214.988 122.264C214.975 122.195 214.941 122.132 214.891 122.082C211.583 118.723 208.102 121.632 207.109 122.571C203.695 125.798 202.451 130.426 203.007 130.611ZM240.064 112.244C236.769 111.95 233.467 112.704 230.627 114.399C231.993 117.01 233.564 119.508 235.326 121.87C237.906 124.515 240.196 122.942 241.44 121.328C241.775 120.859 242.08 120.369 242.353 119.86C240.882 118.907 239.305 118.126 237.655 117.533C236.556 117.163 237.033 115.417 238.131 115.801C239.873 116.408 241.539 117.216 243.094 118.207C243.981 115.682 244.074 112.68 240.011 112.244H240.064ZM209.412 140.397C212.853 139.075 215.527 139.075 220.543 137.091C221.395 136.721 222.129 136.125 222.666 135.367C223.202 134.609 223.521 133.719 223.587 132.793C223.587 132.613 223.545 132.435 223.465 132.273C223.385 132.111 223.269 131.969 223.126 131.86C222.983 131.75 222.816 131.674 222.639 131.639C222.462 131.603 222.279 131.609 222.104 131.656C221.615 131.788 221.138 131.96 220.781 132.066C219.709 132.373 218.681 132.818 217.724 133.388C217.516 133.509 217.27 133.543 217.038 133.482C216.806 133.422 216.607 133.271 216.486 133.064C216.365 132.857 216.331 132.611 216.392 132.379C216.453 132.147 216.603 131.949 216.81 131.828C218.134 131.035 223.269 131.259 221.972 129.831C220.675 128.403 215.236 129.461 212.708 131.63C209.902 133.957 208.565 140.728 209.412 140.397ZM246.628 109.837C246.456 109.771 245.093 117.52 243.981 119.874C241.969 124.304 245.305 128.747 246.906 128.601C248.121 128.473 249.327 128.274 250.519 128.006C248.485 126.311 247.178 123.903 246.866 121.275C246.774 120.112 248.573 120.125 248.679 121.275C248.867 122.553 249.334 123.774 250.048 124.85C250.762 125.927 251.704 126.833 252.809 127.504C253.523 127.358 254.251 127.226 255.019 127.147C252.71 124.586 251.234 121.386 250.784 117.969C250.585 116.832 252.319 116.343 252.517 117.48C252.924 121.173 254.717 124.576 257.533 127.001C257.533 127.001 257.533 127.001 257.533 127.067C257.864 127.067 258.169 127.067 258.526 127.067C260.485 127.279 260.458 121.434 257.613 117.361C255.045 113.606 249.473 110.789 246.628 109.837ZM244.563 146.387C247.647 145.581 249.288 143.743 249.368 141.799C249.388 141.387 249.255 140.983 248.993 140.665C248.731 140.347 248.359 140.138 247.951 140.08C246.034 139.91 244.113 140.375 242.486 141.402C241.586 142.116 240.302 140.847 241.162 140.08C242.022 139.313 244.63 138.942 246.575 138.757C246.705 138.746 246.83 138.702 246.938 138.628C247.046 138.555 247.133 138.454 247.191 138.337C247.248 138.22 247.274 138.089 247.266 137.959C247.258 137.829 247.216 137.703 247.144 137.594C245.53 135.425 240.805 136.655 238.158 138.651C236.699 139.816 235.582 141.351 234.923 143.097C234.264 144.842 234.087 146.732 234.412 148.569C237.831 148.016 241.219 147.288 244.563 146.387ZM257.957 131.035C260.167 131.511 263.582 134.288 264.495 135.107C265.818 136.35 263.264 130.056 260.352 129.17C256.13 127.848 247.819 130.254 245.199 131.035C244.272 131.312 250.042 139.048 252.888 140.132C255.641 141.229 258.701 141.281 261.49 140.278C261.622 140.217 261.736 140.122 261.818 140.002C261.9 139.883 261.949 139.743 261.958 139.598C261.968 139.453 261.938 139.308 261.872 139.179C261.806 139.05 261.706 138.94 261.583 138.863C259.588 137.884 257.4 137.365 255.178 137.342C254.013 137.342 254.013 135.504 255.178 135.544C257.732 135.623 262.099 137.514 263.979 138.493C264.296 138.665 264.601 138.228 264.508 137.594C264.283 136.033 260.048 133.322 257.48 132.767C256.342 132.529 256.832 130.783 257.957 131.035ZM243.637 131.96C243.663 131.577 243.663 131.193 243.637 130.81C243.638 130.675 243.6 130.544 243.527 130.431C243.454 130.318 243.35 130.229 243.227 130.175C240.848 129.388 238.27 129.453 235.934 130.36C234.862 130.796 234.386 129.038 235.458 128.615C237.205 127.914 240.103 128.297 242.247 128.615C242.883 128.707 242.816 127.292 242.406 126.829C241.083 125.322 238.793 124.912 235.604 125.851C231.064 127.173 226.895 132.912 226.604 133.706C229.664 134.773 232.807 135.587 236.001 136.139C240.289 136.932 243.359 135.107 243.637 131.96ZM277.2 101.334C271.416 97.499 258.671 98.3718 257.719 98.6892C256.766 99.0065 257.004 109.969 260.167 114.002C261.848 116.131 265.686 117.969 269.656 118.102C269.791 118.105 269.924 118.065 270.036 117.989C270.147 117.913 270.232 117.804 270.279 117.678C270.326 117.551 270.332 117.413 270.296 117.282C270.26 117.152 270.185 117.036 270.08 116.951C268.414 115.736 266.831 114.41 265.342 112.984C264.561 112.125 265.831 110.855 266.665 111.662C268.809 114.016 271.019 116.581 273.852 117.52C274.143 117.612 275.612 117.705 275.043 116.793C272.746 113.088 269.989 109.688 266.837 106.676C265.726 105.592 266.334 104.203 267.393 104.931C271.853 107.985 273.799 112.151 275.956 115.668C276.004 115.763 276.08 115.84 276.173 115.891C276.265 115.942 276.371 115.964 276.477 115.954C276.582 115.944 276.683 115.903 276.764 115.835C276.846 115.768 276.905 115.678 276.935 115.576C278.259 111.424 274.937 107.113 272.012 105.076C271.072 104.415 272.012 102.855 272.925 103.516C275.713 105.871 277.629 109.094 278.365 112.667C278.497 113.354 279.397 112.125 279.595 111.04C280.27 107.338 280.006 103.119 277.2 101.334ZM225.585 103.595C226.247 106.742 228.232 110.657 232.202 111.358C233.654 111.699 235.176 111.579 236.556 111.014C238.409 110.339 232.93 109.453 231.501 107.933C230.707 107.086 231.977 105.817 232.824 106.61C234.18 108.052 235.952 109.036 237.893 109.427C238.548 109.598 239.242 109.546 239.865 109.28C240.487 109.015 241.004 108.55 241.334 107.959C241.566 107.476 241.646 106.935 241.563 106.406C241.48 105.877 241.239 105.386 240.871 104.997C237.933 101.334 225.439 102.881 225.572 103.529L225.585 103.595ZM326.684 130.426C327.505 128.892 328.259 126.895 329.609 125.811C330.509 125.084 331.793 126.353 330.932 127.134C329.563 128.195 328.45 129.551 327.677 131.101C327.59 131.267 327.555 131.456 327.576 131.642C327.598 131.829 327.675 132.005 327.797 132.147C327.92 132.29 328.082 132.392 328.264 132.441C328.445 132.49 328.637 132.484 328.815 132.423C330.553 131.608 332.1 130.437 333.354 128.985C335.048 127.134 336.2 121.355 336.001 121.328C333.004 121.357 330.101 122.376 327.743 124.224C326.481 125.98 325.881 128.125 326.049 130.281C326.062 130.348 326.095 130.41 326.143 130.46C326.191 130.509 326.252 130.543 326.319 130.559C326.386 130.574 326.457 130.57 326.521 130.546C326.586 130.523 326.643 130.481 326.684 130.426ZM278.616 148.463C281.416 150.757 284.763 152.288 288.33 152.907C289.164 152.999 289.72 152.245 288.727 151.584C287.404 150.725 285.736 150.262 284.386 149.429C282.362 148.398 280.546 147.004 279.026 145.316C278.325 144.404 279.582 143.121 280.35 143.994C281.528 145.488 286.491 149.363 288.291 149.759C288.74 149.865 288.873 148.992 288.767 148.556C288.092 145.832 285.723 143.267 282.15 141.389C278.92 139.63 272.409 139.789 268.73 139.749C267.909 139.749 271.972 149.508 275.625 152.312C276.997 153.439 278.591 154.265 280.303 154.736C282.016 155.208 283.808 155.314 285.564 155.049C286.821 154.837 286.888 153.978 286.345 153.806C283.273 152.97 280.343 151.682 277.65 149.984C276.803 149.349 277.676 147.789 278.616 148.463ZM326.049 122.77C326.314 122.664 326.777 122.36 326.684 122.108C325.637 119.78 325.222 117.217 325.48 114.677C325.665 113.526 327.412 114.016 327.213 115.153C326.751 117.219 327.077 119.383 328.127 121.222C328.2 121.317 328.307 121.379 328.426 121.397C328.544 121.414 328.665 121.385 328.762 121.315C331.21 119.53 331.541 117.467 330.297 111.9C330.112 111.027 328.762 103.397 328.378 103.529C321.867 105.989 316.586 109.876 314.323 113.5C311.345 118.3 313.291 121.963 314.442 122.942C314.998 123.482 315.66 123.9 316.387 124.169C317.115 124.438 317.89 124.551 318.664 124.502C318.805 124.499 318.943 124.457 319.062 124.381C319.181 124.304 319.277 124.196 319.339 124.069C319.4 123.942 319.425 123.8 319.411 123.66C319.397 123.519 319.345 123.385 319.259 123.272C317.791 121.481 316.872 119.305 316.613 117.004C316.639 116.783 316.746 116.579 316.913 116.431C317.08 116.283 317.296 116.201 317.519 116.201C317.742 116.201 317.958 116.283 318.125 116.431C318.292 116.579 318.399 116.783 318.426 117.004C318.426 119.49 319.524 122.836 321.986 123.92C323.018 124.37 323.865 123.616 323.561 123.246C321.152 120.363 319.339 115.417 321.443 111.49C321.986 110.472 323.547 111.371 322.992 112.402C321.271 115.616 322.621 119.675 324.844 122.466C324.986 122.638 325.18 122.761 325.397 122.816C325.613 122.87 325.842 122.854 326.049 122.77ZM306.356 99.0991C306.347 99.0667 306.332 99.0366 306.31 99.0109C306.289 98.9853 306.262 98.9647 306.232 98.9508C306.201 98.9369 306.168 98.9299 306.135 98.9304C306.101 98.9309 306.068 98.9388 306.038 98.9537C304.048 100.242 302.436 102.036 301.366 104.151C300.868 105.234 300.63 106.418 300.669 107.609C300.708 108.8 301.024 109.966 301.591 111.014C302.399 112.336 304.953 113.658 304.49 112.68C303.448 110.766 302.885 108.629 302.849 106.452C302.954 105.314 304.754 105.301 304.648 106.452C304.357 108.503 304.641 110.595 305.469 112.495C306.237 114.108 307.362 114.544 307.917 114.492C308.473 114.439 306.7 112.706 306.395 109.202C306.303 108.052 308.182 108.052 308.209 109.202C308.236 110.358 308.419 111.506 308.751 112.614C308.889 113.593 309.307 114.512 309.956 115.259C309.956 115.259 310.26 115.483 310.339 115.523C310.524 115.574 310.718 115.58 310.905 115.541C311.092 115.502 311.268 115.419 311.416 115.299C311.565 115.178 311.683 115.024 311.76 114.85C311.838 114.675 311.872 114.484 311.861 114.293C311.954 112.323 311.081 106.015 307.494 102.035C306.86 101.175 306.467 100.161 306.356 99.0991ZM226.194 120.879C228.55 121.831 233.407 124.647 233.473 122.809C233.473 121.619 231.858 116.33 225.188 117.321C222.015 118.054 218.959 119.225 216.109 120.799C215.963 120.905 221.562 127.173 224.989 127.795C226.217 128.048 227.487 127.995 228.69 127.642C229.892 127.29 230.989 126.647 231.885 125.771C231.995 125.655 232.071 125.511 232.106 125.355C232.141 125.199 232.132 125.037 232.082 124.885C232.032 124.733 231.942 124.598 231.821 124.493C231.7 124.388 231.553 124.318 231.395 124.29C229.453 123.917 227.552 123.359 225.717 122.624C224.645 122.201 225.109 120.456 226.194 120.879ZM224.434 159.611C230.045 159.942 235.207 160.933 238.303 159.519C240.699 158.447 242.684 156.054 241.414 153.436C241.235 153.129 240.986 152.869 240.687 152.678C240.387 152.487 240.047 152.37 239.693 152.338C237.367 152.437 235.148 153.344 233.42 154.903C232.613 155.737 231.329 154.454 232.096 153.581C233.195 152.457 235.723 151.677 237.695 151.161C238.039 151.069 237.403 150.328 237.059 150.222C233.91 149.204 229.569 151.029 228.351 151.902C225.598 153.925 222.925 159.519 224.434 159.611ZM248.401 165.297C250.036 165.161 251.572 164.464 252.75 163.323C253.927 162.183 254.673 160.67 254.86 159.042C254.966 158.447 255.217 158.011 254.926 157.482C254.119 156.041 250.162 158.54 248.415 159.955C247.515 160.682 246.231 159.413 247.091 158.633C248.865 157.191 254.026 156.345 251.789 155.551C251.26 155.353 251.128 155.366 249.248 155.353C242.631 155.353 240.805 160.947 239.667 165.297C242.566 165.666 245.502 165.666 248.401 165.297ZM394.26 110.948C395.64 111.513 397.162 111.633 398.614 111.291C402.505 110.591 404.557 106.676 405.231 103.529C405.364 102.881 392.87 101.268 390.012 104.984C389.644 105.373 389.402 105.864 389.319 106.393C389.237 106.922 389.317 107.463 389.548 107.946C389.878 108.537 390.395 109.001 391.018 109.267C391.641 109.533 392.334 109.584 392.989 109.414C394.923 109.028 396.689 108.053 398.045 106.623C398.839 105.777 400.11 107.047 399.369 107.946C397.886 109.387 392.407 110.273 394.26 110.948ZM214.984 149.297C218.107 147.617 223.997 147.617 227.689 147.101C231.382 146.586 234.174 143.306 234.121 140.675C234.115 140.356 233.986 140.053 233.762 139.826C233.538 139.6 233.235 139.468 232.917 139.458C230.288 139.466 227.725 140.278 225.572 141.785C224.632 142.486 223.732 140.926 224.659 140.238C226.409 139.205 228.333 138.497 230.336 138.149C230.932 138.017 230.336 137.051 229.701 136.893C223.838 135.24 219.404 138.823 217.26 142.473C216.374 143.981 214.124 149.759 214.984 149.283V149.297ZM257.877 148.543C260.766 147.252 263.898 146.594 267.062 146.612C267.115 146.284 267.115 145.949 267.062 145.62C265.794 145.28 264.484 145.12 263.171 145.144C260.864 145.079 258.561 145.369 256.342 146.004C256.116 146.055 255.88 146.017 255.681 145.898C255.482 145.779 255.337 145.588 255.276 145.365C255.215 145.142 255.242 144.904 255.352 144.7C255.461 144.497 255.646 144.343 255.866 144.272C258.994 143.311 262.286 142.996 265.54 143.346C262.986 141.547 257.983 141.918 255.019 142.579C249.725 143.769 247.621 147.868 245.675 153.317C245.318 154.295 253.51 153.74 257.202 153.317C261.173 152.88 264.984 150.844 266.467 148.411C263.835 148.472 261.241 149.047 258.83 150.103C257.732 150.54 256.819 148.939 257.877 148.53V148.543ZM356.369 175.202C357.256 174.977 357.759 170.058 356.885 167.096C355.694 163.129 345.041 156.384 344.974 160.193C344.974 161.026 350.824 163.301 352.412 165.668C353.061 166.633 351.499 167.532 350.85 166.58C348.984 163.777 344.683 160.854 341.401 160.92C341.001 160.912 340.608 161.028 340.276 161.251C339.164 162.176 344.921 164.61 346.337 166.21C347.105 167.083 345.835 168.352 345.014 167.532C343.908 166.37 342.637 165.377 341.242 164.583C340.051 163.896 338.211 162.15 337.272 162.534C336.821 162.692 336.429 162.983 336.146 163.367C335.863 163.751 335.702 164.212 335.684 164.689C335.591 166.871 337.656 172.121 350.559 173.8C352.161 173.932 356.091 175.255 356.369 175.189V175.202ZM328.418 174.527C327.187 173.205 327.227 170.124 326.089 169.992C325.427 169.912 325.175 171.46 325.083 172.002C324.998 172.731 325.066 173.469 325.283 174.17C325.499 174.872 325.859 175.52 326.34 176.075C328.166 178.296 329.397 178.957 331.21 181.179C331.687 181.748 332.296 182.607 333.01 183.361C333.248 183.612 337.589 176.445 335.088 169.992C334.672 169.049 334.058 168.205 333.288 167.519C331.965 166.289 330.575 166.197 330.284 167.109C329.755 168.775 332.415 169.846 333.037 171.499C333.447 172.597 331.713 173.06 331.303 171.989C330.694 170.375 329.622 168.021 328.458 167.836C328.304 167.824 328.15 167.864 328.023 167.951C327.895 168.037 327.801 168.165 327.756 168.312C327.739 170.144 328.432 171.911 329.688 173.245C330.443 174.065 329.172 175.387 328.418 174.527ZM344.445 153.846C343.929 154.017 343.969 154.877 345.226 155.089C346.982 155.354 348.774 155.248 350.487 154.776C352.199 154.305 353.793 153.478 355.165 152.351C358.818 149.548 362.881 139.775 362.06 139.789C358.381 139.789 351.87 139.67 348.64 141.428C345.12 143.359 342.751 145.872 342.023 148.596C341.917 149.032 342.023 149.918 342.499 149.799C344.339 149.402 349.302 145.528 350.44 144.033C351.168 143.121 352.425 144.404 351.764 145.356C350.244 147.043 348.428 148.438 346.404 149.468C345.08 150.235 343.373 150.791 342.063 151.624C341.07 152.272 341.626 153.026 342.46 152.946C346.054 152.327 349.425 150.781 352.24 148.463C353.18 147.789 354.08 149.349 353.153 150.024C350.44 151.727 347.487 153.016 344.392 153.846H344.445ZM341.335 176.22C340.488 175.413 339.641 173.761 338.516 174.104C337.391 174.448 338.37 176.749 339.164 177.291C340.832 178.442 344.657 180.835 344.776 180.571C345.123 179.622 345.27 178.612 345.209 177.604C345.147 176.596 344.878 175.612 344.418 174.713C343.241 173.192 340.064 171.446 339.892 172.835C339.747 173.985 341.785 174.157 342.605 174.951C343.426 175.744 342.129 177.027 341.282 176.22H341.335ZM334.043 147.617C333.968 147.67 333.913 147.747 333.887 147.834C333.861 147.922 333.865 148.016 333.898 148.101C333.932 148.186 333.993 148.258 334.072 148.304C334.151 148.351 334.243 148.37 334.334 148.358C338.728 147.564 343.823 144.999 345.371 139.736C345.623 138.85 347.317 129.355 347.608 127.398C347.74 126.538 338.754 128.535 335.101 130.175C332.933 131.144 331.045 132.645 329.613 134.539C328.181 136.432 327.251 138.657 326.909 141.005C326.763 141.838 326.909 142.698 327.386 141.997C328.862 139.669 330.545 137.478 332.415 135.451C333.248 134.645 334.532 135.914 333.738 136.774C331.754 138.638 329.959 140.693 328.378 142.909C327.741 143.674 327.232 144.535 326.869 145.462C326.724 146.11 326.605 147.168 327.624 146.546C331.065 144.443 335.498 139.352 339.178 135.359C339.972 134.512 341.163 135.742 340.501 136.681C337.007 141.098 332.256 144.814 328.113 148.106C327.822 148.331 328.233 148.569 329.305 148.503C333.01 148.305 336.306 144.867 338.741 142.222C339.535 141.376 340.805 142.645 340.064 143.544C338.248 145.165 336.223 146.534 334.043 147.617ZM407.667 101.255C410.538 101.967 413.547 101.908 416.388 101.083C417.487 100.712 417.963 102.405 416.865 102.815C414.218 103.701 410.486 103 407.6 102.299C406.952 102.141 407.045 103.45 407.375 104.018C409.4 107.443 414.218 108.052 418.387 106.24C421.596 104.551 424.485 102.313 426.923 99.6281C426.314 99.1388 419.591 95.5023 415.29 95.013C413.093 94.7617 408.156 94.7749 406.78 98.1999C406.317 99.39 406.502 100.911 407.667 101.241V101.255ZM376.062 164.98C374.805 162.018 371.827 154.401 365.938 152.589C363.291 151.796 358.407 151.465 356.819 153.449C356.21 154.216 362.378 153.449 365.991 156.094C366.944 156.768 365.713 157.958 364.667 157.416C361.465 155.498 356.436 154.216 354.569 155.327C353.855 155.75 353.511 156.53 354 156.649C356.746 157.129 359.383 158.101 361.782 159.519C362.735 160.166 361.782 161.727 360.869 161.079C359.122 159.902 354.119 157.31 353.365 158.249C351.525 160.537 357.335 164.081 359.863 165.033C361.862 165.813 363.834 166.673 369.802 165.654C372.621 165.165 376.168 165.218 376.062 164.98ZM387.749 118.207C389.304 117.216 390.969 116.408 392.712 115.801C393.81 115.417 394.286 117.123 393.188 117.533C391.538 118.122 389.962 118.898 388.49 119.847C388.763 120.355 389.068 120.846 389.403 121.315C390.647 122.928 392.937 124.515 395.517 121.857C397.279 119.495 398.85 116.997 400.216 114.386C397.376 112.691 394.073 111.937 390.779 112.23C386.716 112.68 386.809 115.682 387.749 118.207ZM314.654 141.177C314.244 141.898 313.924 142.666 313.701 143.465C313.686 143.541 313.687 143.619 313.704 143.695C313.721 143.77 313.753 143.842 313.799 143.904C313.845 143.966 313.904 144.018 313.971 144.056C314.039 144.095 314.113 144.118 314.191 144.126C316.838 144.417 321.152 141.045 322.131 137.792C323.111 134.539 325.096 125.507 324.342 125.52C320.846 125.642 317.423 126.546 314.323 128.165C312.747 129.057 311.476 130.401 310.673 132.023C309.871 133.645 309.575 135.471 309.823 137.263C309.836 137.315 309.865 137.361 309.907 137.394C309.949 137.427 310.001 137.445 310.055 137.445C310.108 137.445 310.16 137.427 310.202 137.394C310.244 137.361 310.274 137.315 310.286 137.263C311.39 134.656 313.15 132.378 315.395 130.651C316.295 129.937 317.579 131.206 316.718 131.973C314.118 133.921 312.253 136.689 311.425 139.828C311.2 140.807 311.041 142.037 311.954 142.473C312.298 142.632 312.642 141.257 312.933 140.661C313.878 138.721 315.175 136.972 316.758 135.504C317.605 134.711 318.876 135.98 318.082 136.827C316.698 138.07 315.538 139.541 314.654 141.177ZM363.093 171.42C361.769 170.098 360.446 168.299 359.559 167.638C359.056 167.254 358.725 167.823 358.685 167.955C358.474 168.749 357.852 170.6 361.438 174.025C362.828 175.347 368.122 177.9 368.294 176.961C368.704 174.779 368.426 170.507 366.811 169.026C365.197 167.545 360.671 165.403 360.79 167.149C360.856 167.942 363.291 169.066 364.363 170.164C365.17 171.023 363.9 172.306 363.093 171.42ZM422.172 107.047C422.807 108.025 424.739 107.152 425.705 106.69C426.672 106.227 427.664 107.734 426.619 108.237C425.573 108.739 421.881 107.814 422.939 109.004C424.7 110.762 428.048 110.115 430.179 107.8C431.174 106.19 431.709 104.338 431.727 102.445C430.085 103.109 428.377 103.597 426.632 103.899C423.323 104.746 421.563 106.161 422.172 107.099V107.047ZM307.613 122.32C308.657 124.469 309.247 126.81 309.347 129.196C309.35 129.299 309.388 129.397 309.453 129.475C309.518 129.554 309.607 129.609 309.707 129.632C309.807 129.654 309.911 129.643 310.004 129.601C310.097 129.558 310.173 129.485 310.22 129.395C311.412 127.313 311.825 124.876 311.385 122.518C310.617 118.922 302.835 113.262 301.922 113.91C301.472 114.227 294.378 123.523 297.277 128.337C298.6 130.506 301.843 133.296 304.45 133.626C304.548 133.639 304.648 133.628 304.741 133.594C304.834 133.56 304.917 133.505 304.984 133.433C305.052 133.36 305.101 133.273 305.128 133.178C305.154 133.083 305.158 132.983 305.138 132.886C304.889 131.886 304.557 130.908 304.146 129.963C303.635 128.653 303.016 127.388 302.293 126.181C301.671 125.19 303.232 124.29 303.841 125.269C304.917 127.073 305.783 128.994 306.422 130.995C306.845 132.317 306.806 132.939 307.044 132.807C307.378 132.588 307.645 132.28 307.813 131.917C307.981 131.555 308.045 131.153 307.997 130.757C308.012 128.135 307.341 125.555 306.051 123.272C305.443 122.227 307.004 121.328 307.613 122.32ZM277.425 158.196C276.671 157.257 271.668 159.849 269.921 161.026C268.955 161.674 268.055 160.114 269.008 159.466C271.408 158.028 274.049 157.038 276.803 156.543C277.293 156.437 276.948 155.657 276.234 155.221C274.368 154.11 269.339 155.393 266.136 157.31C265.143 157.892 263.912 156.702 264.812 155.988C268.425 153.436 274.593 154.163 273.984 153.343C272.396 151.359 267.459 151.69 264.865 152.483C258.976 154.269 255.998 161.912 254.741 164.874C254.635 165.112 258.182 165.059 261.001 165.535C266.983 166.554 268.942 165.694 270.94 164.914C273.388 164.067 279.265 160.524 277.425 158.196ZM282.467 123.285C284.36 125.507 287.827 126.816 290.408 125.93C290.578 125.87 290.73 125.769 290.85 125.635C290.97 125.501 291.055 125.338 291.096 125.163C291.136 124.988 291.132 124.805 291.084 124.632C291.036 124.458 290.944 124.3 290.818 124.171C290.448 123.814 290.077 123.484 289.733 123.193C288.541 122.113 287.114 121.325 285.564 120.892C284.426 120.627 284.902 118.895 286.041 119.146C287.999 119.583 290.21 121.659 291.917 123.484C291.981 123.547 292.062 123.59 292.15 123.607C292.239 123.624 292.33 123.614 292.413 123.578C292.495 123.543 292.565 123.483 292.614 123.407C292.662 123.332 292.687 123.243 292.684 123.153C292.684 121.408 291.824 118.789 290.183 117.864C287.536 116.237 281.356 115.655 279.595 115.629C278.669 115.655 280.522 121.051 282.467 123.325V123.285ZM270 167.135C270.119 165.39 265.712 167.387 263.979 169.013C262.245 170.64 262.086 174.792 262.496 176.947C262.668 177.886 267.962 175.361 269.352 174.012C272.938 170.547 272.316 168.722 272.105 167.942C272.105 167.81 271.734 167.241 271.231 167.625C270.358 168.286 268.981 170.071 267.697 171.407C266.89 172.24 265.62 170.957 266.374 170.084C267.539 169.093 269.934 167.969 270 167.175V167.135ZM275.824 124.277C277.918 126.306 279.702 128.632 281.117 131.18C281.276 131.458 281.594 130.796 281.409 129.183C281.051 126.023 279.45 122.889 276.962 121.659C271.668 119.014 260.802 118.657 260.882 119.014C261.94 123.404 264.548 132.159 267.367 134.817C270.079 136.869 273.471 137.815 276.856 137.461C276.938 137.449 277.013 137.411 277.072 137.353C277.13 137.294 277.168 137.219 277.18 137.137C277.192 137.055 277.177 136.972 277.138 136.899C277.098 136.827 277.037 136.769 276.962 136.734C273.863 135.543 270.938 133.942 268.267 131.973C267.38 131.22 268.664 129.95 269.59 130.651C272.237 132.939 276.882 135.941 279.569 136.205C279.754 136.205 280.456 136.298 280.548 136.06C280.641 135.822 280.363 135.398 280.164 135.213C278.232 133.296 276.922 132.992 272.224 129.315C271.734 128.945 271.019 128.324 270.741 128.125C269.789 127.464 270.741 125.89 271.641 126.565C274.696 128.911 277.604 131.441 280.35 134.142C280.416 134.203 280.5 134.242 280.589 134.254C280.679 134.265 280.769 134.249 280.849 134.207C280.929 134.165 280.994 134.099 281.035 134.019C281.075 133.939 281.091 133.848 281.078 133.759C280.601 130.519 277.266 127.729 274.606 125.573C273.653 124.859 274.937 123.59 275.824 124.317V124.277ZM294.431 106.941C295.836 108.788 297.001 110.805 297.899 112.944C297.929 113.013 297.981 113.07 298.046 113.108C298.11 113.146 298.186 113.162 298.26 113.155C298.335 113.147 298.405 113.117 298.462 113.067C298.518 113.017 298.557 112.951 298.574 112.878C299.209 109.546 298.428 104.785 294.087 103.093C286.147 99.9851 281.554 100.236 281.501 100.448C281.025 102.273 281.435 109.599 285.035 113.817C285.974 114.928 290.051 116.065 292.327 116.462C293.055 116.568 293.174 116.383 292.645 115.88C290.854 114.513 289.143 113.042 287.523 111.477C286.782 110.604 288.052 109.321 288.846 110.154C290.111 111.694 291.459 113.164 292.883 114.558C293.74 115.671 294.999 116.406 296.39 116.607C296.566 116.587 296.732 116.515 296.867 116.399C297.001 116.284 297.098 116.13 297.144 115.959C297.859 113.209 294.855 110.392 293.174 108.276C292.433 107.364 293.703 106.081 294.431 106.98V106.941ZM290.461 161.158C290.129 160.935 289.736 160.82 289.336 160.828C286.054 160.828 281.753 163.684 279.887 166.487C279.238 167.44 277.676 166.487 278.325 165.575C279.913 163.208 285.763 160.933 285.763 160.1C285.763 156.292 275.096 162.983 273.852 167.003C272.978 169.965 273.481 174.937 274.368 175.109C274.646 175.175 278.576 173.853 280.112 173.655C293.015 171.975 295.08 166.725 294.987 164.544C294.969 164.067 294.808 163.606 294.525 163.222C294.242 162.837 293.85 162.547 293.399 162.388C292.42 162.005 290.58 163.71 289.429 164.438C288.034 165.253 286.768 166.269 285.67 167.453C284.902 168.326 283.632 167.056 284.347 166.13C285.816 164.596 291.573 162.163 290.461 161.238V161.158ZM290.951 172.756C290.779 171.433 287.602 173.113 286.424 174.633C285.405 175.956 285.458 179.248 286.067 180.491C286.186 180.756 290.037 178.362 291.679 177.212C292.473 176.67 293.545 174.408 292.327 174.025C291.109 173.642 290.355 175.347 289.508 176.141C288.661 176.934 287.391 175.665 288.185 174.818C288.979 173.972 291.096 173.985 290.951 172.835V172.756ZM291.665 135.24C295.345 139.207 299.791 144.324 303.219 146.427C304.238 147.049 304.119 145.991 303.974 145.343C303.611 144.416 303.102 143.555 302.465 142.79C300.884 140.574 299.089 138.519 297.105 136.655C296.258 135.848 297.541 134.578 298.428 135.332C300.298 137.359 301.981 139.55 303.457 141.878C303.947 142.579 304.079 141.719 303.934 140.886C303.599 138.532 302.672 136.301 301.239 134.402C299.806 132.504 297.915 130.999 295.742 130.03C292.089 128.39 283.103 126.393 283.235 127.253C283.526 129.21 285.22 138.704 285.472 139.59C287.02 144.88 292.089 147.419 296.509 148.212C296.6 148.224 296.692 148.205 296.771 148.159C296.85 148.112 296.911 148.041 296.944 147.956C296.978 147.87 296.982 147.777 296.956 147.689C296.93 147.601 296.875 147.525 296.8 147.472C294.67 146.344 292.698 144.939 290.937 143.293C290.143 142.433 291.414 141.164 292.261 141.971C294.696 144.615 297.991 148.054 301.697 148.252C302.769 148.252 303.179 148.08 302.888 147.855C298.746 144.562 293.995 140.847 290.501 136.43C289.68 135.716 290.885 134.473 291.665 135.319V135.24ZM300.559 166.977C300.268 166.051 298.865 166.157 297.555 167.387C296.785 168.073 296.171 168.916 295.755 169.86C293.254 176.313 297.594 183.48 297.833 183.229C298.547 182.475 299.156 181.615 299.633 181.047C301.446 178.825 302.677 178.164 304.503 175.942C304.984 175.388 305.344 174.739 305.56 174.038C305.777 173.337 305.845 172.598 305.76 171.87C305.668 171.327 305.416 169.78 304.754 169.86C303.616 169.992 303.656 173.099 302.425 174.395C301.618 175.228 300.347 173.959 301.102 173.073C302.358 171.739 303.051 169.972 303.034 168.14C302.989 167.993 302.895 167.865 302.767 167.779C302.64 167.692 302.486 167.652 302.332 167.664C301.168 167.797 300.096 170.203 299.487 171.817C299.077 172.888 297.343 172.425 297.753 171.327C298.428 169.846 301.088 168.775 300.625 167.109L300.559 166.977ZM382.389 165.165C385.271 165.53 388.188 165.53 391.07 165.165C389.932 160.814 388.04 155.208 381.502 155.221C379.609 155.221 379.477 155.221 378.948 155.419C376.711 156.213 381.872 157.059 383.646 158.5C384.559 159.228 383.275 160.497 382.322 159.823C380.575 158.408 376.618 155.856 375.811 157.35C375.52 157.879 375.811 158.315 375.811 158.91C375.973 160.581 376.723 162.139 377.928 163.309C379.132 164.478 380.713 165.183 382.389 165.297V165.165ZM270.371 83.1512C271.403 82.7016 267.512 80.7445 266.4 79.1841C265.739 78.2188 267.3 77.3196 267.949 78.2717C268.995 80.1517 270.606 81.6552 272.555 82.5694C273.785 83.0851 275.016 81.0883 274.262 79.1973C273.163 76.4071 262.814 71.8053 262.774 72.678C262.626 75.418 263.077 78.1573 264.098 80.7049C265.646 83.2174 269.828 83.3893 270.371 83.1512ZM274.235 91.6674C275.321 94.3121 275.837 96.8379 279.079 98.0412C280.681 98.6231 283.169 98.8479 283.513 98.3718C283.857 97.8958 282.533 97.3139 282.017 96.9701C280.416 96.0933 279.029 94.8741 277.954 93.3997C277.833 93.1927 277.799 92.9462 277.86 92.7144C277.921 92.4825 278.071 92.2842 278.279 92.1632C278.486 92.0423 278.732 92.0084 278.964 92.0692C279.196 92.1299 279.395 92.2803 279.516 92.4872C280.484 93.9669 281.723 95.2502 283.169 96.2692C283.519 96.6043 283.935 96.863 284.391 97.0292C284.846 97.1953 285.332 97.2653 285.816 97.2346C286.018 97.1703 286.2 97.053 286.342 96.8949C286.484 96.7368 286.581 96.5436 286.623 96.3353C286.821 93.36 283.486 91.112 280.945 89.6573C280.764 89.5267 280.639 89.3335 280.592 89.1154C280.546 88.8972 280.582 88.6697 280.695 88.4768C280.807 88.284 280.987 88.1398 281.199 88.072C281.412 88.0042 281.642 88.0178 281.845 88.1102C283.991 89.4748 285.768 91.3458 287.02 93.5584C287.072 93.646 287.149 93.7159 287.242 93.7587C287.334 93.8015 287.437 93.8152 287.538 93.798C287.638 93.7808 287.731 93.7335 287.804 93.6623C287.877 93.5912 287.927 93.4996 287.946 93.3997C288.568 90.6888 287.946 87.7134 286.094 86.7217C282.428 84.7513 275.241 83.4289 272.952 84.0108C272.356 84.143 273.825 90.6491 274.235 91.6674ZM284.558 84.3546C284.673 84.37 284.79 84.3483 284.891 84.2927C284.993 84.2372 285.074 84.1506 285.123 84.0458C285.171 83.9409 285.185 83.8232 285.162 83.7098C285.139 83.5965 285.081 83.4934 284.995 83.4157C283.181 81.7074 281.743 79.6403 280.773 77.346C280.337 76.2617 282.097 75.7988 282.507 76.8567C283.513 79.3428 285.154 82.6223 287.311 84.1695C287.497 84.3009 287.723 84.3636 287.95 84.3467C288.177 84.3298 288.391 84.2344 288.555 84.0769C289.945 82.7545 290.289 79.2238 288.648 76.8964C287.417 75.1376 280.773 71.6069 278.828 71.435C278.404 71.435 277.504 79.8056 280.257 82.2256C281.483 83.2939 282.965 84.0273 284.558 84.3546ZM241.4 101.717C244.802 109.255 255.958 112.296 255.455 108.329C255.455 108.197 255.455 108.052 255.455 107.919C255.336 106.954 255.072 105.711 254.132 105.632C251.088 105.38 247.078 103.86 245.397 102.008C244.63 101.149 245.9 99.8661 246.721 100.686C248.063 102.1 249.765 103.124 251.644 103.648C252.413 103.919 253.206 104.114 254.013 104.23C254.156 104.247 254.302 104.233 254.44 104.189C254.577 104.146 254.704 104.074 254.812 103.977C254.919 103.881 255.005 103.763 255.064 103.631C255.122 103.499 255.152 103.356 255.151 103.212C255.154 103.006 255.088 102.806 254.963 102.643C254.839 102.479 254.662 102.363 254.463 102.312C251.438 101.463 248.801 99.5944 246.999 97.023C246.363 96.0444 247.925 95.1452 248.56 96.1105C250.097 97.9802 251.919 99.5958 253.96 100.898C255.283 101.612 255.283 99.5752 255.495 98.0809V97.7503C256.091 93.4393 246.826 90.7681 239.706 88.4937C238.846 88.3085 239.508 97.5123 241.4 101.717ZM257.639 96.0444C258.036 96.0444 259.664 96.0444 260.842 95.9254C260.959 95.9187 261.073 95.882 261.172 95.8189C261.271 95.7558 261.353 95.6683 261.408 95.5649C261.464 95.4615 261.492 95.3455 261.491 95.2281C261.489 95.1106 261.457 94.9956 261.398 94.894C259.957 92.8387 258.899 90.5407 258.274 88.1102C258.102 86.9729 259.836 86.4836 260.008 87.6341C260.315 90.4455 261.402 93.1155 263.145 95.3436C263.407 95.6168 263.735 95.8173 264.098 95.9254C265.024 96.256 267.062 96.1502 266.612 95.6477C265.048 93.9811 263.909 91.9627 263.29 89.7631C263.079 88.6391 264.812 88.1498 265.037 89.2871C265.443 91.1909 266.236 92.9912 267.367 94.5766C268.051 95.487 269.061 96.0982 270.186 96.2825C270.808 96.3882 271.443 96.494 272.091 96.6263C273.891 96.9833 272.396 88.6259 267.75 85.4257C264.19 82.9793 255.998 80.3743 255.773 81.3793C254.78 86.0076 256.223 95.8064 257.639 96.0444ZM308.976 89.3135C309.149 89.336 309.325 89.3158 309.489 89.2548C309.653 89.1938 309.799 89.0938 309.915 88.9634C310.031 88.8331 310.114 88.6764 310.155 88.5069C310.197 88.3375 310.197 88.1604 310.154 87.9911C309.519 85.8753 306.7 82.7016 305.297 81.5644C304.423 80.8106 305.694 79.5412 306.62 80.242C308.511 81.888 309.924 84.0119 310.71 86.3911C310.747 86.5095 310.821 86.6129 310.921 86.6864C311.021 86.7599 311.142 86.7995 311.266 86.7995C311.39 86.7995 311.511 86.7599 311.611 86.6864C311.711 86.6129 311.785 86.5095 311.822 86.3911C312.655 84.1563 312.205 80.3081 307.984 77.6898C306.369 76.6848 300.837 74.212 299.91 74.3442C299.434 74.4103 299.328 81.4454 300.281 83.3893C301.552 86.0869 306.131 88.8771 308.976 89.2739V89.3135ZM327.002 91.5219C325.586 94.3253 326.843 98.7553 328.669 100.593C328.974 100.884 329.238 100.765 329.199 99.4958C329.035 97.3422 329.46 95.1846 330.429 93.2542C330.999 92.236 332.547 93.1484 331.978 94.1667C331.114 95.8242 330.524 97.6104 330.231 99.4562C330.023 100.24 330.127 101.075 330.522 101.784C330.65 101.955 330.831 102.079 331.037 102.136C331.243 102.194 331.462 102.181 331.66 102.101C334.307 101.36 335.101 97.7106 335.631 95.0526C335.856 93.9154 337.603 94.4047 337.364 95.5419C336.917 97.643 336.014 99.6203 334.718 101.334C334.667 101.404 334.639 101.487 334.637 101.573C334.635 101.659 334.659 101.744 334.707 101.816C334.754 101.887 334.823 101.943 334.902 101.975C334.982 102.007 335.07 102.014 335.154 101.995C336.476 101.692 337.709 101.087 338.757 100.226C339.804 99.3657 340.637 98.2736 341.189 97.0362C342.023 95.0526 339.694 84.3017 338.873 82.3446C338.661 81.8421 337.153 82.6752 335.856 83.4025C332.507 85.2935 329.199 87.1713 327.002 91.4822V91.5219ZM315.646 83.3893C315.752 83.4419 315.869 83.4676 315.987 83.464C316.105 83.4605 316.22 83.4277 316.323 83.3688C316.425 83.3099 316.511 83.2265 316.573 83.1263C316.635 83.026 316.671 82.9119 316.679 82.7942C316.771 81.5379 316.335 79.9114 316.321 78.6552C316.308 77.3989 318.121 77.3328 318.121 78.4833C318.121 79.6337 317.804 80.9561 317.737 82.0537C317.73 82.1942 317.762 82.3341 317.829 82.458C317.895 82.5819 317.995 82.685 318.117 82.756C318.238 82.827 318.377 82.8632 318.518 82.8606C318.659 82.858 318.796 82.8167 318.915 82.7413C319.99 82.0728 320.866 81.1292 321.452 80.0085C322.039 78.8877 322.314 77.6306 322.251 76.3675C321.88 73.974 317.433 69.1737 316.957 69.6762C315.276 70.6019 312.722 75.7856 312.536 77.465C312.453 78.6383 312.7 79.8115 313.249 80.8516C313.799 81.8917 314.63 82.7571 315.646 83.3496V83.3893ZM289.561 97.0362C290.114 98.2736 290.946 99.3657 291.994 100.226C293.041 101.087 294.274 101.692 295.596 101.995C295.68 102.014 295.768 102.007 295.848 101.975C295.928 101.943 295.996 101.887 296.044 101.816C296.091 101.744 296.115 101.659 296.113 101.573C296.111 101.487 296.083 101.404 296.033 101.334C294.737 99.6203 293.833 97.643 293.386 95.5419C293.148 94.4047 294.895 93.9154 295.12 95.0526C295.662 97.6974 296.443 101.36 299.09 102.101C299.288 102.181 299.507 102.194 299.713 102.136C299.919 102.079 300.1 101.955 300.228 101.784C300.623 101.075 300.727 100.24 300.519 99.4562C300.226 97.6104 299.636 95.8242 298.772 94.1667C298.203 93.1484 299.752 92.236 300.321 93.2542C301.29 95.1846 301.716 97.3422 301.552 99.4958C301.552 100.818 301.777 100.884 302.081 100.593C303.907 98.7553 305.178 94.3253 303.749 91.5219C301.552 87.2109 298.243 85.3332 294.855 83.4422C293.531 82.7149 292.049 81.8818 291.837 82.3843C291.057 84.3017 288.714 95.0526 289.561 97.0362ZM244.643 87.9911C247.131 89.8028 250.585 90.8872 252.239 90.6359C252.429 90.5927 252.606 90.5036 252.753 90.3764C252.901 90.2492 253.015 90.0879 253.085 89.9065C253.156 89.725 253.181 89.5291 253.158 89.3358C253.135 89.1425 253.065 88.9578 252.954 88.7978C251.375 86.8941 249.39 85.367 247.144 84.3282C246.085 83.905 246.549 82.1595 247.634 82.5959C249.765 83.4422 250.969 84.9232 252.729 86.8804C253.907 88.2027 253.113 82.9926 249.937 81.247C245.318 78.6948 239.349 81.0883 238.184 82.3049C237.906 82.543 242.658 86.5498 244.643 87.9911ZM324.58 83.6405C325.367 81.2731 326.78 79.1623 328.669 77.5311C329.543 76.7774 330.827 78.0469 329.993 78.8535C328.669 80.0437 325.784 83.1645 325.149 85.2803C325.106 85.4495 325.106 85.6266 325.148 85.796C325.189 85.9655 325.272 86.1222 325.388 86.2526C325.504 86.3829 325.65 86.4829 325.814 86.5439C325.978 86.605 326.154 86.6251 326.327 86.6027C329.159 86.2059 333.751 83.4157 335.048 80.7445C336.001 78.8006 335.909 71.7656 335.432 71.6995C334.492 71.554 328.96 74.0401 327.346 75.0451C323.124 77.6898 322.687 81.5115 323.521 83.7463C323.577 83.844 323.66 83.9235 323.76 83.9751C323.86 84.0267 323.973 84.0482 324.085 84.037C324.197 84.0258 324.303 83.9824 324.391 83.912C324.479 83.8417 324.544 83.7474 324.58 83.6405ZM371.999 150.077C369.589 149.021 366.995 148.446 364.363 148.384C365.859 150.817 369.657 152.854 373.627 153.29C377.32 153.713 385.538 154.269 385.155 153.29C383.209 147.908 381.052 143.743 375.811 142.552C372.846 141.891 367.87 141.521 365.289 143.319C368.544 142.97 371.835 143.285 374.964 144.245C375.184 144.317 375.368 144.47 375.478 144.674C375.588 144.877 375.615 145.115 375.554 145.339C375.492 145.562 375.347 145.752 375.149 145.871C374.95 145.99 374.713 146.028 374.487 145.977C372.269 145.343 369.965 145.053 367.658 145.118C366.346 145.094 365.036 145.254 363.767 145.594C363.721 145.923 363.721 146.257 363.767 146.586C366.932 146.567 370.064 147.226 372.952 148.516C373.971 148.94 373.058 150.54 371.999 150.09V150.077ZM374.898 348.433C372.529 346.357 369.498 342.813 366.547 341.821C362.576 340.499 358.381 341.967 352.333 343.223C341.944 345.379 334.995 339.719 332.812 335.844C330.628 331.97 329.344 314.475 327.266 307.096C323.706 294.467 324.143 292.14 323.772 287.339C322.912 276.509 327.836 269.897 325.705 261.765C324.593 257.493 322.515 258.168 321.933 252.759C321.245 246.438 321.006 234.246 321.933 211.7C322.078 207.878 324.699 199.163 324.831 193.728C324.977 187.011 321.496 187.117 320.781 183.348C320.279 180.796 320.781 174.303 323.031 169.119L323.217 168.841C325.281 165.813 330.76 163.922 332.812 162.838C335.693 161.155 338.718 159.73 341.851 158.58C344.366 157.667 344.299 156.173 343.267 156.08C340.304 156.55 337.43 157.469 334.744 158.804C332.75 159.878 330.685 160.815 328.563 161.608C327.386 161.793 329.98 157.892 331.647 156.239C335.445 152.457 337.391 150.54 336.623 149.984C335.604 149.257 332.124 152.193 330.006 154.361C328.603 155.803 321.602 163.975 321.39 163.935C321.006 163.578 321.721 161.991 322.449 160.537C323.242 158.828 324.237 157.221 325.414 155.75C326.16 154.997 326.789 154.137 327.28 153.198C327.346 153.01 327.348 152.806 327.286 152.617C327.224 152.427 327.101 152.264 326.936 152.153C326.102 151.664 323.64 154.467 322.965 155.287C322.333 156.163 321.629 156.986 320.861 157.747C320.212 157.747 321.827 150.672 322.7 148.159C323.68 145.316 326.221 139.418 324.752 138.903C324.143 138.691 322.634 140.225 319.458 149.217C318.69 151.439 317.129 155.432 316.255 154.599C315.739 154.097 314.535 150.302 312.907 147.366C311.477 144.732 309.651 142.333 307.494 140.251C306.594 139.723 305.588 141.204 306.792 142.804C309.042 145.805 310.935 147.498 311.689 153.105C311.921 155.369 311.921 157.651 311.689 159.915C311.597 160.047 311.464 159.915 311.292 159.347C310.042 156.83 308.632 154.396 307.07 152.06C305.006 148.834 303.471 149.416 303.391 150.381C303.312 151.346 304.278 152.536 305.548 154.864C307.587 158.553 308.381 163.195 307.613 162.798C307.245 162.595 306.865 162.414 306.475 162.256C306.025 161.938 305.509 161.608 304.9 161.224C302.519 159.422 300.364 157.34 298.481 155.022C296.694 152.378 296.483 150.024 295.146 150.5C294.392 150.778 293.955 152.563 296.125 156.027C296.694 156.94 297.356 157.932 298.058 158.884C295.888 157.925 293.649 157.129 291.361 156.503C288.41 155.856 288.489 157.561 290.037 158.223C292.089 159.122 297.171 161.171 299.633 162.507C307.044 166.474 307.573 166.117 307.984 170.441C307.984 173.496 307.984 177.476 308.076 178.878C308.242 189.246 307.849 199.615 306.898 209.941C306.448 212.414 303.828 214.067 303.285 218.602C302.385 226.034 305.443 231.403 306.554 236.005C307.547 240.157 307.137 262.122 307.15 266.697C307.216 280.582 307.851 292.695 305.535 296.953C303.828 300.087 300.837 304.795 299.884 315.942C299.487 320.624 298.322 326.059 296.258 329.47C290.329 339.296 286.663 340.301 280.72 340.129C273.904 339.93 272.383 339.335 268.253 339.772C265.156 340.102 261.265 343.739 258.063 346.476C254.86 349.214 250.545 349.69 250.122 350.721C249.46 352.189 254.304 350.853 258.221 348.79C260.988 347.323 264.733 343.607 268.042 343.369C272.687 343.025 276.247 344.056 281.978 344.612C289.852 345.379 296.536 340.764 299.791 336.175C300.4 335.329 301.221 335.659 300.982 336.439C300.347 338.489 297.436 344.823 294.087 345.088C288.635 345.524 285.763 346.886 281.475 350.02C278.087 352.493 274.857 354.715 275.069 355.415C275.281 356.116 276.909 354.662 280.27 352.929C284.611 350.695 289.177 348.261 292.631 348.288C294.603 348.432 296.574 348.001 298.305 347.048C300.036 346.095 301.454 344.661 302.385 342.919C305.562 337.722 305.522 331.441 306.157 328.479C306.462 327.024 307.481 327.077 307.626 328.651C307.969 332.932 307.456 337.238 306.118 341.319C305.299 344.277 303.683 346.953 301.446 349.055C300.043 350.377 298.64 350.734 296.747 352.162C294.549 353.858 292.716 355.981 291.361 358.404C289.932 360.678 288.899 363.125 289.296 363.522C290.024 364.236 291.652 360.877 292.592 359.555C293.807 357.505 295.53 355.802 297.594 354.609C299.328 353.762 300.374 353.286 302.253 352.387C304.47 351.26 306.358 349.579 307.732 347.508C308.997 345.718 309.868 343.681 310.286 341.53C310.392 341.015 310.419 340.618 310.657 340.605C310.895 340.592 311.173 341.808 311.319 342.774C312.139 348.261 310.604 354.596 308.897 357.135C306.435 360.784 305.681 362.107 305.297 363.813C303.696 370.953 313.489 371.892 313.873 371.39C314.416 370.662 312.47 370.067 311.094 369.565C306.594 367.846 307.772 364.857 308.447 363.575C310.406 360.017 313.092 358.166 316.48 353.815C318.155 351.227 318.936 348.161 318.704 345.088C318.611 343.501 317.949 339.296 318.598 339.256C319.034 339.256 319.167 340.195 319.273 340.645C319.989 343.932 321.284 347.066 323.098 349.901C325.202 352.625 329.185 354.741 331.991 356.037C334.797 357.333 337.841 357.597 337.788 356.91C337.735 356.222 334.85 355.958 332.084 354.186C322.37 347.997 322.012 335.368 321.774 333.993C321.536 332.618 321.959 332.287 322.237 333.147C323.918 338.185 324.381 339.177 326.433 342.152C330.31 347.785 336.623 349.623 341.877 349.623C350.228 349.623 358.765 343.527 365.7 344.744C368.836 345.286 370.279 347.865 372.436 349.266C376.049 351.607 380.377 351.739 380.787 351.25C381.727 349.941 377.267 350.549 374.898 348.473V348.433ZM296.297 335.805C294.537 337.299 292.129 337.643 292.698 337.127C294.175 336.245 295.487 335.113 296.575 333.781C297.766 332.221 298.905 329.695 299.513 329.814C300.122 329.933 298.825 333.702 296.297 335.844V335.805ZM307.864 302.613C307.002 304.119 306.373 305.746 305.998 307.44C305.871 308.598 305.668 309.746 305.39 310.878C305.032 311.605 304.476 312.332 303.868 311.803C302.438 310.481 303.868 305.919 304.357 304.345C304.569 303.711 305.165 301.872 306.594 301.41C307.481 301.158 308.235 301.806 307.864 302.653V302.613ZM308.301 215.667C307.646 216.821 307.291 218.122 307.269 219.449C307.375 220.771 307.692 221.445 307.401 221.935C307.11 222.424 306.422 222.53 305.853 221.935C304.807 220.811 304.9 218.153 305.363 216.936C305.601 216.288 306.316 214.291 307.494 214.106C308.235 214.014 308.566 215.058 308.301 215.706V215.667ZM320.292 191.864C319.934 190.819 319.405 190.211 319.246 189.536C319.048 188.598 319.696 188.214 320.464 188.412C321.562 188.769 322.555 191.229 322.648 192.485C322.711 192.887 322.693 193.298 322.595 193.693C322.498 194.088 322.322 194.46 322.078 194.786C321.985 194.87 321.874 194.934 321.753 194.972C321.633 195.01 321.506 195.021 321.381 195.006C321.256 194.991 321.135 194.95 321.027 194.885C320.919 194.819 320.826 194.732 320.755 194.628C320.199 194.046 320.689 193.094 320.292 191.93V191.864ZM323.243 267.239C322.648 267.623 321.999 267.649 321.681 267.067C321.231 266.274 322.648 265.243 321.906 263.457C321.589 262.653 321.208 261.875 320.768 261.13C320.358 260.363 321.152 259.252 322.317 260.112C322.968 260.667 323.49 261.359 323.844 262.139C324.199 262.918 324.377 263.765 324.368 264.621C324.398 265.132 324.313 265.644 324.118 266.118C323.923 266.592 323.624 267.016 323.243 267.358V267.239ZM334.228 344.334C331.157 343.012 329.04 341.451 327.994 339.269C326.949 337.087 326.38 333.702 327.041 333.517C327.703 333.332 328.458 336.929 330.059 339.216C331.288 340.95 332.86 342.412 334.678 343.514C335.366 343.964 337.695 344.651 337.536 344.916C337.378 345.18 335.035 344.784 334.228 344.453V344.334ZM415.885 121.963C415.836 122.013 415.802 122.076 415.789 122.145C415.775 122.214 415.782 122.286 415.809 122.351C415.836 122.416 415.881 122.471 415.94 122.51C415.998 122.55 416.066 122.571 416.137 122.571C417.651 122.518 419.153 122.864 420.491 123.576C420.684 123.703 420.82 123.899 420.872 124.124C420.925 124.349 420.888 124.585 420.771 124.784C420.654 124.983 420.464 125.129 420.242 125.192C420.02 125.255 419.782 125.231 419.578 125.123C418.188 124.33 414.827 122.862 413.755 125.229C413.185 126.856 413.437 128.681 417.182 128.998C418.347 129.104 427.148 130.664 427.77 130.492C428.392 130.32 427.082 125.679 423.654 122.452C422.675 121.632 419.194 118.723 415.885 122.082V121.963ZM432.614 115.933C430.842 114.096 428.613 112.763 426.155 112.072C422.661 111.318 421.139 113.103 420.464 114.306C419.644 115.774 424.17 114.002 425.851 114.399C426.989 114.677 426.499 116.409 425.375 116.145C423.959 115.759 422.474 115.705 421.034 115.986C420.878 116.028 420.734 116.104 420.611 116.208C420.489 116.312 420.39 116.442 420.323 116.589C420.256 116.735 420.222 116.894 420.224 117.055C420.226 117.216 420.262 117.375 420.332 117.52C420.715 118.251 421.284 118.869 421.98 119.312C422.677 119.755 423.478 120.008 424.303 120.046C427.677 120.336 433.673 117.202 432.614 116.052V115.933ZM415.938 237.539C413.441 238.28 411.065 239.381 408.884 240.805C398.085 249.123 400.745 262.677 400.745 262.677C401.79 274.261 408.686 283.703 404.199 290.302C403.418 291.452 400.943 291.518 400.798 290.606C399.699 283.703 392.209 271.921 392.209 271.921C390.382 268.615 387.166 265.56 387.206 261.738C387.206 256.092 389.601 254.796 390.859 248.924C391.52 245.87 390.488 237.75 391.706 235.939C401.102 221.921 401.605 212.136 398.919 203.964C398.138 201.597 396.735 200.433 397.251 198.37C398.429 193.728 398.204 188.108 396.536 189.113C395.355 189.901 393.984 190.358 392.566 190.436C391.292 190.298 390.004 190.424 388.781 190.806C387.524 191.256 387.166 191.586 387.1 191.48C387.034 191.375 388.887 189.127 391.07 188.915C390.634 187.791 389.866 186.191 388.741 185.86C388.622 185.86 388.318 185.662 388.212 185.86C386.888 188.505 386.743 189.655 385.565 190.158C385.156 190.27 384.74 190.358 384.321 190.422C379.914 191.824 377.148 194.39 374.435 194.905C373.535 195.077 372.264 194.231 372.211 196.069C372.162 196.935 372.283 197.802 372.568 198.621C374.17 204.043 380.602 206.886 380.602 206.886C381.806 209.359 380.47 214.913 380.47 214.913C373.098 219.753 370.755 225.175 369.061 227.515C368.254 228.97 367.142 228.732 365.091 230.292C363.911 231.213 362.876 232.305 362.021 233.532C361.451 234.272 360.697 232.21 366.163 227.608C366.032 227.077 365.855 226.56 365.634 226.061C363.119 221.657 356.7 210.417 355.866 209.319C354.424 207.441 353.762 207.997 350.096 204.294C348.429 202.615 348.415 201.451 347.555 201.226C346.695 201.001 344.908 201.12 342.989 200.909C341.229 200.711 340.422 200.79 340.223 201.107C339.905 201.636 340.461 203.488 341.322 204.823C344.193 209.266 351.658 212.466 351.817 212.757C351.975 213.048 352.902 217.954 353.14 218.946C355.787 228.11 357.388 228.798 357.441 234.325C357.602 236.044 357.482 237.777 357.084 239.456C357.611 239.597 358.146 239.707 358.685 239.787C364.681 240.765 371.814 238.068 371.549 239.337C371.404 240.091 368.783 240.937 364.112 241.228C361.409 241.396 358.696 241.299 356.012 240.937C356.012 240.937 355.933 240.937 356.012 240.937C356.091 240.937 348.64 239.879 339.217 238.65C337.523 238.425 335.962 240.739 332.732 244.309C330.085 247.179 327.888 247.311 327.69 248.634C327.2 251.82 326.631 252.839 327.055 253.923C327.346 254.716 330.774 253.566 331.965 252.905C336.57 250.379 339.442 244.971 339.972 245.314C342.949 247.06 352.174 249.784 356.925 250.921C358.778 251.358 360.829 250.921 360.697 252.151C359.135 265.798 370.821 276.628 373.654 280.9C373.905 281.27 373.72 281.918 373.389 281.865C371.629 281.561 360.551 279.736 356.065 283.888C353.219 286.533 353.868 292.285 355.205 295.618C357.097 300.378 359.652 302.124 362.457 307.413C363.304 309 365.66 311.658 364.204 316.154C362.748 320.65 358.209 324.326 352.293 326.733C350.811 327.328 348.177 326.455 347.198 327.804C345.874 329.682 344.696 333.094 345.623 333.319C346.337 333.464 352.24 333.689 353.63 332.512C355.708 330.74 366.309 325.9 370.702 318.257C373.349 313.734 367.579 313.694 369.485 306.355C370.676 301.727 378.061 298.421 377.73 295.115C377.571 293.66 378.034 294.057 378.206 294.163C380.337 295.485 377.28 302.388 379.12 309.251C380.695 315.109 387.06 321.285 392.817 326.839C393.211 327.217 393.53 327.666 393.757 328.161C394.248 329.245 394.337 330.469 394.009 331.613C392.513 337.312 388.569 345.233 386.438 346.225C386.002 346.423 383.58 346.794 382.984 348.063C382.799 348.473 381.555 350.906 382.15 351.382C383.474 352.427 390.197 351.752 391.11 351.052C391.34 350.847 391.529 350.6 391.666 350.324C393.572 346.661 403.934 327.474 400.163 322.925C398.839 321.391 397.516 323.943 395.358 321.523C394.723 320.782 394.286 318.442 394.551 315.004C394.591 314.081 394.889 313.187 395.411 312.425C400.599 307.043 402.492 301.78 402.452 296.239C402.452 295.71 404.398 295.274 405.006 295.789C405.981 296.72 407.174 297.391 408.476 297.74C409.779 298.089 411.148 298.105 412.458 297.786C417.315 297.165 423.045 291.531 424.435 281.547C425.573 273.455 424.951 268.681 414.085 251.794C408.858 243.926 415.938 237.539 415.938 237.539ZM394.829 192.684C393.426 194.998 393.585 195.011 393.598 196.307C393.598 196.757 393.334 197.272 392.817 197.219C392.33 197.03 391.891 196.735 391.532 196.355C391.172 195.976 390.902 195.521 390.74 195.024C390.62 193.239 395.292 191.904 394.829 192.684ZM391.944 205.617C393.148 204.625 393.453 202.853 393.982 202.972C394.511 203.091 395.094 206.172 393.029 207.243C392.307 207.593 391.503 207.737 390.705 207.66C389.906 207.583 389.145 207.288 388.503 206.807C388.172 206.225 390.488 206.846 391.944 205.617ZM375.798 255.14C374.826 255.357 373.818 255.357 372.846 255.14C372.357 255.06 371.377 254.73 371.523 254.28C371.669 253.83 373.667 254.373 374.832 253.473C375.771 252.746 375.732 251.265 376.155 251.331C376.579 251.397 376.698 252.23 376.724 252.336C376.896 253.407 376.909 254.73 375.798 255.14ZM382.19 197.709C381.739 197.427 381.416 196.981 381.29 196.466C381.019 196.368 380.771 196.215 380.562 196.016C380.231 195.738 380.152 195.54 380.165 195.5C380.178 195.461 380.258 195.355 380.747 195.368C381.042 195.373 381.326 195.264 381.542 195.064C381.837 194.694 382.259 194.447 382.726 194.372C383.194 194.296 383.672 194.397 384.069 194.654C384.877 195.157 385.578 196.347 386.372 197.034C386.518 197.153 383.858 198.793 382.19 197.709ZM207.824 109.11C208.883 107.919 205.177 108.858 204.145 108.343C203.113 107.827 204.013 106.293 205.058 106.795C206.104 107.298 207.956 108.118 208.592 107.152C209.227 106.187 207.44 104.799 204.105 104.045C202.36 103.742 200.652 103.254 199.01 102.59C198.864 102.524 199.301 106.557 200.558 107.946C202.689 110.207 206.064 110.855 207.824 109.096V109.11ZM258.116 306.382C260.021 313.774 254.304 313.813 256.898 318.283C261.292 325.94 271.893 330.766 273.971 332.538C275.294 333.715 281.263 333.49 281.991 333.345C282.719 333.2 281.766 329.708 280.403 327.831C279.423 326.508 276.79 327.355 275.307 326.76C269.365 324.392 264.878 320.901 263.396 316.181C261.914 311.46 264.296 309.026 265.143 307.44C267.949 302.15 270.437 300.405 272.409 295.644C273.732 292.312 274.381 286.559 271.535 283.915C267.049 279.762 255.972 281.587 254.211 281.891C253.881 281.891 253.709 281.296 253.947 280.926C256.779 276.655 268.505 265.824 266.903 252.177C266.771 250.948 268.822 251.384 270.675 250.948C275.44 249.81 284.651 247.086 287.629 245.341C288.158 245.037 291.03 250.405 295.636 252.931C296.827 253.592 300.255 254.743 300.559 253.949C300.969 252.839 300.4 251.82 299.91 248.66C299.712 247.338 297.475 247.205 294.868 244.336C291.639 240.765 290.077 238.451 288.396 238.676C278.96 239.906 271.588 240.964 271.588 240.964C268.905 241.325 266.192 241.423 263.489 241.255C258.817 240.964 256.21 240.117 256.051 239.364C255.786 238.041 262.92 240.792 268.915 239.813C269.455 239.733 269.989 239.623 270.516 239.483C270.119 237.803 269.998 236.07 270.159 234.352C270.225 228.824 271.866 228.137 274.46 218.973C274.738 217.981 275.599 213.286 275.784 212.784C275.969 212.281 283.407 209.227 286.279 204.85C287.139 203.527 287.708 201.663 287.377 201.134C287.179 200.816 286.372 200.737 284.625 200.935C282.639 201.147 281.064 200.935 280.059 201.253C279.053 201.57 279.172 202.575 277.518 204.321C273.838 208.023 273.177 207.468 271.734 209.346C270.9 210.443 264.481 221.683 261.967 226.087C261.745 226.586 261.568 227.104 261.438 227.634C266.903 232.276 266.149 234.246 265.58 233.558C264.724 232.331 263.689 231.239 262.51 230.319C260.432 228.758 259.32 228.996 258.539 227.542C256.832 225.201 254.489 219.779 247.118 214.939C247.118 214.939 245.794 209.385 246.985 206.913C246.985 206.913 253.431 204.069 255.019 198.648C255.304 197.829 255.426 196.961 255.376 196.095C255.376 194.257 254.053 195.104 253.153 194.932C250.44 194.442 247.674 191.851 243.266 190.449C242.847 190.384 242.432 190.296 242.022 190.184C240.792 189.682 240.619 188.465 239.375 185.887C239.27 185.688 238.965 185.887 238.846 185.887C237.721 186.217 236.953 187.817 236.517 188.941C238.661 189.153 240.606 191.256 240.487 191.507C240.368 191.758 240.064 191.282 238.806 190.832C237.583 190.451 236.295 190.325 235.021 190.462C233.603 190.384 232.232 189.927 231.051 189.14C229.383 188.174 229.158 193.795 230.336 198.396C230.866 200.459 229.449 201.623 228.669 203.99C226.022 212.149 226.485 221.948 235.881 235.965C237.099 237.777 236.067 245.896 236.729 248.951C237.986 254.822 240.342 256.118 240.394 261.765C240.394 265.586 237.205 268.641 235.379 271.947C235.379 271.947 227.888 283.729 226.789 290.632C226.644 291.545 224.142 291.479 223.388 290.328C218.902 283.716 225.797 274.288 226.842 262.704C226.842 262.704 229.489 249.149 218.703 240.831C216.522 239.407 214.146 238.307 211.649 237.565C211.649 237.565 218.729 243.926 213.661 251.781C202.795 268.668 202.173 273.441 203.311 281.534C204.635 291.518 210.431 297.152 215.222 297.773C216.517 298.062 217.863 298.025 219.14 297.668C220.417 297.31 221.585 296.642 222.541 295.723C223.163 295.208 225.095 295.644 225.095 296.173C225.095 301.714 226.948 306.977 232.136 312.359C232.664 313.118 232.963 314.013 232.996 314.937C233.274 318.376 232.824 320.716 232.189 321.457C230.085 323.877 228.655 321.325 227.385 322.859C223.613 327.408 234.002 346.595 235.881 350.258C236.018 350.534 236.207 350.781 236.437 350.985C237.351 351.686 244.127 352.308 245.397 351.316C245.993 350.84 244.749 348.407 244.563 347.997C243.968 346.675 241.559 346.357 241.109 346.159C238.978 345.167 235.034 337.246 233.539 331.547C233.217 330.402 233.306 329.181 233.79 328.095C234.018 327.599 234.337 327.151 234.73 326.773C240.474 321.219 246.853 315.043 248.428 309.185C250.267 302.322 247.21 295.419 249.341 294.097C249.513 293.991 249.976 293.594 249.817 295.049C249.526 298.368 256.951 301.74 258.102 306.368L258.116 306.382ZM236.702 195.038C236.54 195.534 236.269 195.989 235.91 196.368C235.551 196.748 235.112 197.043 234.624 197.233C234.108 197.233 233.83 196.77 233.843 196.32C233.843 194.998 234.015 194.998 232.613 192.697C232.136 191.904 236.768 193.239 236.689 195.024L236.702 195.038ZM238.912 206.754C238.271 207.235 237.509 207.53 236.71 207.607C235.912 207.684 235.108 207.54 234.386 207.19C232.321 206.119 232.732 202.985 233.446 202.919C233.962 202.919 234.267 204.638 235.471 205.564C236.94 206.846 239.256 206.225 238.899 206.741L238.912 206.754ZM245.252 197.722C243.584 198.806 240.924 197.167 241.069 197.048C241.864 196.36 242.565 195.17 243.372 194.667C243.768 194.407 244.248 194.304 244.716 194.38C245.184 194.456 245.607 194.705 245.9 195.077C246.115 195.277 246.4 195.386 246.694 195.381C247.184 195.381 247.25 195.461 247.276 195.514C247.303 195.567 247.276 195.752 246.879 196.029C246.672 196.23 246.424 196.384 246.152 196.479C246.019 196.992 245.691 197.433 245.238 197.709L245.252 197.722ZM250.731 252.402C250.731 252.296 250.903 251.463 251.287 251.397C251.67 251.331 251.697 252.812 252.61 253.54C253.775 254.439 255.747 253.738 255.919 254.346C256.091 254.954 255.072 255.126 254.595 255.206C253.623 255.423 252.616 255.423 251.644 255.206C250.519 254.73 250.532 253.407 250.717 252.389L250.731 252.402ZM212.35 106.24C216.519 108.052 221.337 107.443 223.362 104.018C223.692 103.45 223.785 102.141 223.137 102.299C220.251 103 216.519 103.701 213.872 102.815C212.774 102.458 213.25 100.712 214.349 101.083C217.19 101.908 220.199 101.967 223.07 101.255C224.288 100.924 224.394 99.4033 223.957 98.2396C222.634 94.8146 217.644 94.8014 215.447 95.0526C211.146 95.5419 204.423 99.1785 203.814 99.6677C206.272 102.339 209.179 104.558 212.403 106.227L212.35 106.24ZM210.405 117.652C210.475 117.507 210.511 117.348 210.513 117.187C210.515 117.027 210.481 116.867 210.414 116.721C210.347 116.575 210.248 116.445 210.126 116.341C210.003 116.236 209.859 116.16 209.703 116.118C208.263 115.837 206.778 115.892 205.362 116.277C204.238 116.541 203.748 114.809 204.886 114.531C206.567 114.135 211.093 115.854 210.273 114.439C209.598 113.235 208.076 111.45 204.582 112.204C202.124 112.896 199.895 114.228 198.123 116.065C197.064 117.229 203.086 120.35 206.487 120.178C207.314 120.139 208.115 119.884 208.812 119.438C209.509 118.993 210.076 118.372 210.458 117.639L210.405 117.652ZM230.085 99.9058C231.639 100.583 233.313 100.942 235.008 100.964C236.186 100.884 237.999 101.096 237.655 99.9719C237.046 98.1206 233.79 95.4229 232.004 94.5766C230.958 94.0873 231.871 92.5401 232.917 93.0294C235.207 94.1005 235.934 96.4279 237.84 98.1999C238.131 98.4644 238.343 97.5652 238.343 97.0891C238.343 94.3518 236.887 90.4772 233.473 89.7764C230.416 89.1152 227.2 90.1334 224.209 91.0987C224.116 91.1781 225.347 97.9751 230.138 99.8925L230.085 99.9058ZM338.092 123.259C338.086 123.349 338.107 123.439 338.154 123.516C338.2 123.594 338.27 123.655 338.352 123.691C338.435 123.727 338.527 123.737 338.616 123.719C338.704 123.701 338.785 123.655 338.847 123.59C340.554 121.765 342.817 119.622 344.723 119.252C345.861 119.001 346.337 120.733 345.199 120.998C343.653 121.428 342.229 122.216 341.044 123.299C340.686 123.59 340.316 123.92 339.945 124.277C339.819 124.406 339.728 124.564 339.679 124.738C339.631 124.911 339.627 125.094 339.668 125.269C339.709 125.444 339.793 125.606 339.913 125.74C340.034 125.874 340.186 125.976 340.355 126.036C342.91 126.869 346.377 125.56 348.296 123.391C350.215 121.222 352.095 115.721 351.155 115.721C349.434 115.721 343.307 116.33 340.567 117.956C339.006 118.882 338.185 121.5 338.145 123.246L338.092 123.259ZM343.386 84.1827C345.623 82.6223 347.264 79.3428 348.27 76.8567C348.693 75.7988 350.44 76.2617 350.003 77.346C349.037 79.6391 347.604 81.7061 345.795 83.4157C345.709 83.4934 345.651 83.5965 345.628 83.7098C345.605 83.8232 345.619 83.9409 345.667 84.0458C345.716 84.1506 345.797 84.2372 345.899 84.2927C346 84.3483 346.117 84.37 346.232 84.3546C347.82 84.0251 349.297 83.2918 350.52 82.2256C353.286 79.8056 352.372 71.3821 351.949 71.435C350.003 71.6333 343.36 75.1376 342.129 76.8964C340.488 79.2238 340.805 82.7281 342.222 84.0769C342.389 84.2305 342.605 84.321 342.832 84.3331C343.059 84.3452 343.283 84.278 343.466 84.143L343.386 84.1827ZM406.37 159.611C407.865 159.519 405.192 153.925 402.399 151.941C401.182 151.069 396.841 149.297 393.691 150.262C393.347 150.368 392.712 151.108 393.056 151.201C395.028 151.716 397.555 152.523 398.654 153.621C399.461 154.454 398.177 155.737 397.33 154.943C395.602 153.384 393.384 152.476 391.057 152.378C390.704 152.41 390.363 152.527 390.063 152.718C389.764 152.908 389.515 153.168 389.337 153.475C388.013 156.12 390.051 158.487 392.447 159.558C395.583 160.907 400.745 159.942 406.37 159.611ZM336.703 103.132C332.362 104.825 331.581 109.586 332.229 112.918C332.242 112.993 332.278 113.061 332.333 113.113C332.389 113.165 332.459 113.198 332.535 113.205C332.61 113.213 332.686 113.195 332.751 113.155C332.815 113.115 332.864 113.055 332.891 112.984C333.789 110.845 334.954 108.827 336.359 106.98C337.087 106.081 338.357 107.364 337.682 108.303C335.975 110.419 332.971 113.235 333.712 115.986C333.758 116.157 333.855 116.31 333.989 116.426C334.124 116.541 334.29 116.614 334.466 116.634C335.839 116.413 337.072 115.669 337.907 114.558C339.348 113.182 340.713 111.73 341.997 110.207C342.738 109.321 344.008 110.604 343.32 111.529C341.681 113.079 339.953 114.531 338.145 115.88C337.616 116.383 337.735 116.568 338.463 116.462C340.739 116.131 344.816 114.994 345.755 113.817C349.355 109.599 349.726 102.273 349.289 100.448C349.236 100.276 344.67 100.012 336.703 103.132ZM384.162 109.837C381.317 110.789 375.745 113.606 373.071 117.427C370.226 121.5 370.199 127.345 372.158 127.134C372.516 127.134 372.82 127.134 373.151 127.134C373.151 127.134 373.151 127.134 373.151 127.067C375.968 124.642 377.76 121.24 378.167 117.546C378.365 116.409 380.099 116.898 379.9 118.036C379.45 121.452 377.974 124.652 375.665 127.213C376.433 127.292 377.161 127.424 377.876 127.57C378.98 126.899 379.922 125.993 380.636 124.916C381.35 123.84 381.817 122.619 382.005 121.341C382.111 120.191 383.911 120.178 383.818 121.341C383.506 123.969 382.199 126.378 380.165 128.072C381.361 128.341 382.572 128.54 383.791 128.667C385.327 128.813 388.715 124.37 386.703 119.94C385.697 117.52 384.334 109.771 384.162 109.837ZM375.626 137.342C373.399 137.363 371.206 137.883 369.207 138.863C369.084 138.94 368.984 139.05 368.918 139.179C368.852 139.308 368.822 139.453 368.832 139.598C368.841 139.743 368.89 139.883 368.972 140.002C369.054 140.122 369.168 140.217 369.3 140.278C372.089 141.281 375.149 141.229 377.902 140.132C380.747 139.048 386.518 131.312 385.591 131.035C382.944 130.254 374.66 127.874 370.438 129.17C367.526 130.056 364.932 136.35 366.295 135.107C367.208 134.288 370.623 131.511 372.833 131.035C373.958 130.783 374.448 132.529 373.31 132.767C370.742 133.322 366.507 136.033 366.282 137.594C366.189 138.228 366.494 138.665 366.811 138.493C368.691 137.514 373.071 135.623 375.626 135.544C376.777 135.504 376.777 137.303 375.626 137.342ZM413.53 142.46C411.386 138.81 406.912 135.226 401.089 136.879C400.507 137.038 399.858 138.003 400.454 138.136C402.457 138.484 404.381 139.192 406.131 140.225C407.058 140.913 406.131 142.473 405.231 141.772C403.073 140.266 400.506 139.454 397.873 139.445C397.555 139.455 397.252 139.587 397.028 139.813C396.804 140.039 396.675 140.343 396.669 140.661C396.669 143.306 399.421 146.572 403.101 147.088C406.78 147.604 412.683 147.604 415.806 149.283C416.666 149.759 414.443 143.981 413.53 142.46ZM353.789 136.694C353.714 136.729 353.652 136.787 353.613 136.86C353.573 136.932 353.558 137.016 353.57 137.097C353.582 137.179 353.62 137.255 353.679 137.313C353.737 137.372 353.813 137.41 353.894 137.422C357.279 137.775 360.671 136.83 363.384 134.777C366.203 132.132 368.81 123.365 369.869 118.974C369.948 118.644 359.029 118.974 353.789 121.619C351.3 122.849 349.699 125.983 349.342 129.144C349.156 130.757 349.474 131.418 349.633 131.14C351.057 128.598 352.84 126.273 354.927 124.238C355.813 123.51 357.097 124.78 356.25 125.56C353.603 127.715 350.255 130.506 349.779 133.745C349.766 133.835 349.781 133.925 349.822 134.006C349.863 134.086 349.927 134.152 350.007 134.194C350.087 134.236 350.178 134.252 350.267 134.24C350.356 134.229 350.44 134.19 350.506 134.129C353.252 131.428 356.16 128.898 359.215 126.552C360.154 125.877 361.068 127.451 360.115 128.112C359.837 128.31 359.122 128.932 358.632 129.302C353.894 132.978 352.584 133.269 350.692 135.2C350.506 135.385 350.136 135.663 350.308 136.046C350.48 136.43 351.102 136.218 351.287 136.192C353.934 135.901 358.579 132.926 361.266 130.638C362.14 129.884 363.423 131.154 362.59 131.96C359.883 133.928 356.923 135.521 353.789 136.694ZM395.147 125.838C391.957 124.899 389.654 125.309 388.344 126.816C387.934 127.305 387.868 128.694 388.516 128.601C390.647 128.297 393.545 127.914 395.292 128.601C396.364 129.038 395.888 130.783 394.816 130.347C392.481 129.44 389.902 129.374 387.524 130.162C387.401 130.216 387.296 130.305 387.223 130.418C387.15 130.531 387.112 130.662 387.113 130.796C387.087 131.18 387.087 131.564 387.113 131.947C387.391 135.094 390.462 136.919 394.71 136.112C397.904 135.561 401.047 134.747 404.107 133.679C403.855 132.899 399.686 127.173 395.147 125.838ZM396.325 148.649C396.65 146.812 396.473 144.921 395.814 143.176C395.155 141.431 394.038 139.895 392.579 138.731C389.932 136.734 385.208 135.504 383.593 137.673C383.521 137.782 383.48 137.908 383.471 138.038C383.463 138.169 383.489 138.299 383.546 138.416C383.604 138.534 383.691 138.634 383.799 138.708C383.907 138.781 384.032 138.826 384.162 138.837C386.107 138.995 388.516 139.286 389.575 140.159C390.634 141.032 389.204 142.142 388.251 141.481C386.624 140.454 384.703 139.99 382.786 140.159C382.378 140.218 382.006 140.427 381.744 140.745C381.482 141.062 381.349 141.467 381.369 141.878C381.449 143.888 383.09 145.66 386.174 146.467C389.518 147.367 392.906 148.096 396.325 148.649ZM353.564 101.334C350.758 103.185 350.493 107.404 351.208 111.106C351.406 112.191 352.306 113.42 352.439 112.733C353.174 109.16 355.09 105.937 357.878 103.582C358.831 102.921 359.731 104.481 358.791 105.142C355.866 107.179 352.492 111.49 353.868 115.642C353.898 115.744 353.957 115.834 354.039 115.901C354.121 115.969 354.221 116.01 354.326 116.02C354.432 116.03 354.538 116.008 354.631 115.957C354.724 115.906 354.799 115.829 354.847 115.735C357.005 112.217 358.95 108.052 363.41 104.997C364.469 104.27 365.091 105.658 363.966 106.742C360.814 109.755 358.057 113.154 355.761 116.859C355.191 117.771 356.66 117.679 356.952 117.586C359.784 116.647 361.994 114.082 364.138 111.728C364.932 110.868 366.203 112.138 365.461 113.05C363.972 114.477 362.389 115.802 360.724 117.017C360.619 117.103 360.543 117.218 360.507 117.349C360.472 117.479 360.477 117.617 360.524 117.744C360.571 117.87 360.656 117.979 360.768 118.055C360.879 118.131 361.012 118.171 361.147 118.168C365.117 118.009 368.955 116.197 370.636 114.068C373.799 110.101 373.852 98.9933 373.085 98.7553C372.317 98.5173 359.374 97.4329 353.564 101.334ZM358.619 96.6924C359.268 96.5602 359.943 96.4544 360.525 96.3486C361.654 96.1907 362.678 95.6032 363.384 94.7088C364.519 93.1264 365.313 91.325 365.713 89.4193C365.938 88.2821 367.672 88.7714 367.46 89.8954C366.835 92.0582 365.701 94.0398 364.151 95.6742C363.701 96.1767 365.739 96.2825 366.666 95.9519C367.029 95.8437 367.357 95.6432 367.619 95.37C369.367 93.1434 370.458 90.4733 370.769 87.6606C370.941 86.5101 372.674 86.9994 372.502 88.1366C371.891 90.5395 370.855 92.8143 369.445 94.8543C369.386 94.9559 369.354 95.0709 369.352 95.1884C369.35 95.3058 369.379 95.4218 369.435 95.5252C369.49 95.6287 369.572 95.7161 369.671 95.7792C369.77 95.8423 369.884 95.879 370.001 95.8857C371.179 95.9651 372.807 96.0576 373.204 96.0048C374.62 95.8064 376.062 86.0076 375.017 81.3793C374.792 80.3743 366.6 82.9793 363.04 85.4257C358.341 88.6259 356.846 96.9833 358.646 96.6263L358.619 96.6924ZM418.082 131.656C415.541 129.487 410.049 128.482 408.818 129.858C407.587 131.233 412.683 131.061 413.98 131.854C414.187 131.975 414.337 132.174 414.398 132.406C414.459 132.637 414.425 132.884 414.304 133.091C414.183 133.298 413.984 133.448 413.752 133.509C413.52 133.57 413.273 133.536 413.066 133.415C412.109 132.844 411.081 132.4 410.009 132.092C409.652 131.987 409.175 131.815 408.686 131.682C408.511 131.636 408.328 131.63 408.151 131.665C407.974 131.7 407.807 131.776 407.664 131.886C407.521 131.996 407.405 132.137 407.325 132.299C407.245 132.461 407.203 132.639 407.203 132.82C407.269 133.746 407.588 134.636 408.124 135.394C408.661 136.151 409.395 136.748 410.247 137.117C415.263 139.048 417.937 139.075 421.378 140.423C422.238 140.728 420.888 133.957 418.109 131.59L418.082 131.656ZM376.737 105.685C375.771 105.764 375.507 107.007 375.414 107.972C375.414 108.105 375.414 108.25 375.414 108.382C374.924 112.349 386.068 109.255 389.469 101.77C391.362 97.5652 392.023 88.3614 391.242 88.6127C384.122 90.8872 374.858 93.5584 375.454 97.8693V98.1999C375.639 99.6413 375.718 101.731 376.989 101.017C379.03 99.7148 380.852 98.0992 382.389 96.2296C383.024 95.2642 384.585 96.1634 383.95 97.142C382.148 99.7134 379.511 101.582 376.486 102.432C376.287 102.482 376.11 102.598 375.985 102.762C375.86 102.925 375.794 103.125 375.798 103.331C375.796 103.476 375.827 103.621 375.886 103.754C375.945 103.887 376.032 104.005 376.141 104.102C376.25 104.198 376.379 104.27 376.518 104.313C376.658 104.356 376.805 104.368 376.949 104.349C377.751 104.232 378.54 104.037 379.305 103.767C381.184 103.243 382.885 102.219 384.228 100.805C385.009 99.9454 386.28 101.228 385.552 102.127C383.791 103.979 379.781 105.433 376.737 105.685ZM342.87 93.3997C342.89 93.4996 342.939 93.5912 343.012 93.6623C343.085 93.7335 343.178 93.7808 343.278 93.798C343.379 93.8152 343.482 93.8015 343.575 93.7587C343.667 93.7159 343.745 93.646 343.796 93.5584C345.048 91.3458 346.825 89.4748 348.971 88.1102C349.174 88.0178 349.405 88.0042 349.617 88.072C349.83 88.1398 350.01 88.284 350.122 88.4768C350.234 88.6697 350.27 88.8972 350.224 89.1154C350.178 89.3335 350.052 89.5267 349.871 89.6573C347.33 91.112 343.995 93.36 344.193 96.3353C344.236 96.5436 344.333 96.7368 344.474 96.8949C344.616 97.053 344.798 97.1703 345.001 97.2346C345.485 97.2653 345.97 97.1953 346.426 97.0292C346.881 96.863 347.297 96.6043 347.648 96.2692C349.093 95.2502 350.333 93.9669 351.3 92.4872C351.422 92.2803 351.62 92.1299 351.852 92.0692C352.084 92.0084 352.331 92.0423 352.538 92.1632C352.745 92.2842 352.895 92.4825 352.956 92.7144C353.017 92.9462 352.983 93.1927 352.862 93.3997C351.786 94.8693 350.399 96.0839 348.799 96.9569C348.283 97.3007 346.88 97.7767 347.304 98.3586C347.727 98.9404 350.136 98.6098 351.737 98.028C354.993 96.8246 355.496 94.365 356.581 91.6541C356.991 90.6359 358.46 84.1563 357.905 84.0108C355.615 83.4289 348.429 84.7513 344.763 86.7217C342.87 87.7267 342.248 90.7549 342.87 93.3997ZM358.196 82.5562C360.152 81.65 361.773 80.1509 362.828 78.2717C363.476 77.3196 365.038 78.2717 364.389 79.1841C363.304 80.7445 359.413 82.7016 360.419 83.1512C360.962 83.3893 365.144 83.2174 366.613 80.7049C367.633 78.1573 368.085 75.418 367.936 72.678C367.936 71.8053 357.547 76.4071 356.449 79.1973C355.734 81.0883 356.965 83.0851 358.196 82.5694V82.5562ZM378.048 86.8275C379.808 84.8703 381.012 83.3893 383.143 82.543C384.228 82.1066 384.691 83.8653 383.633 84.2753C381.387 85.3141 379.402 86.8412 377.823 88.7449C377.712 88.9049 377.642 89.0896 377.619 89.2829C377.596 89.4762 377.621 89.6721 377.691 89.8536C377.762 90.035 377.876 90.1963 378.023 90.3235C378.171 90.4507 378.347 90.5398 378.537 90.583C380.192 90.8739 383.646 89.7896 386.134 87.9383C388.119 86.4969 392.87 82.4901 392.592 82.2124C391.415 80.9958 385.459 78.6023 380.84 81.1545C377.677 82.9529 376.883 88.1102 378.061 86.7878L378.048 86.8275ZM405.589 117.308C398.971 116.316 397.251 121.606 397.304 122.796C397.383 124.634 402.227 121.818 404.583 120.865C405.668 120.442 406.131 122.188 405.059 122.611C403.224 123.346 401.323 123.904 399.382 124.277C399.224 124.305 399.077 124.375 398.956 124.48C398.835 124.584 398.745 124.72 398.695 124.872C398.644 125.024 398.636 125.186 398.671 125.342C398.706 125.498 398.782 125.642 398.892 125.758C399.789 126.636 400.888 127.28 402.093 127.633C403.298 127.985 404.571 128.037 405.801 127.781C409.228 127.16 414.827 120.892 414.681 120.786C411.83 119.216 408.775 118.05 405.602 117.321L405.589 117.308ZM421.603 110.313C417.742 109.032 413.693 108.406 409.625 108.462C407.693 108.581 405.205 108.924 403.643 110.485C403.207 110.921 402.743 111.807 403.021 112.257C404.133 114.135 409.639 112.812 412.1 112.045C413.212 111.701 413.675 113.368 412.577 113.791C409.347 114.875 403.312 113.579 403.749 114.518C404.53 116.184 407.389 116.859 411.425 116.462C415.872 116.052 422.384 110.591 421.616 110.326L421.603 110.313ZM392.91 98.1735C394.816 96.4015 395.557 94.0741 397.833 93.003C398.879 92.5137 399.792 94.0609 398.747 94.5501C396.96 95.3965 393.704 98.0941 393.095 99.9454C392.725 101.069 394.538 100.858 395.742 100.937C397.438 100.916 399.111 100.556 400.666 99.8793C405.456 97.9619 406.687 91.1649 406.542 91.112C403.577 90.107 400.361 89.0887 397.277 89.7896C393.863 90.5169 392.367 94.365 392.407 97.1023C392.42 97.5519 392.632 98.4512 392.923 98.1867L392.91 98.1735Z" fill="#8F7965"/>
</g>
<circle cx="210.5" cy="201.097" r="2.5" fill="#322D29"/>
<path d="M5.50067 126.595C5.50067 126.595 145 94.5969 208 196.596" fill="none" stroke="#322D29" stroke-opacity="0.2"/>
<path d="M361 367.597C361 367.597 512 430.597 581 301.597" fill="none" stroke="#322D29" stroke-opacity="0.2"/>
<path d="M418.347 76.5762C418.347 76.5762 519 -28.4031 639 58.597" fill="none" stroke="#322D29" stroke-opacity="0.2"/>
<defs>
<clipPath id="clip0_1495_10656">
<rect width="232" height="305" fill="white" transform="translate(198 69.5969)"/>
</clipPath>
</defs>
</svg>
