<svg width="24" height="24" viewBox="0 0 24 24" fill="none" xmlns="http://www.w3.org/2000/svg">
<path d="M19.0768 4.928C17.1908 3.041 14.6828 2.001 12.0108 2C6.50476 2 2.02376 6.479 2.02176 11.985C2.02076 13.745 2.48076 15.463 3.35476 16.977L1.99976 22L7.23276 20.763C8.69176 21.559 10.3338 21.978 12.0058 21.979H12.0098C17.5148 21.979 21.9958 17.499 21.9988 11.994C22.0008 9.325 20.9628 6.816 19.0768 4.928ZM16.8978 15.554C16.6898 16.137 15.6708 16.699 15.2128 16.74C14.7548 16.782 14.3258 16.947 12.2178 16.116C9.68076 15.116 8.07876 12.515 7.95476 12.349C7.82976 12.182 6.93576 10.996 6.93576 9.768C6.93576 8.54 7.58076 7.936 7.80976 7.687C8.03876 7.437 8.30876 7.375 8.47576 7.375C8.64176 7.375 8.80876 7.375 8.95376 7.381C9.13176 7.388 9.32876 7.397 9.51576 7.812C9.73776 8.306 10.2228 9.54 10.2848 9.665C10.3468 9.79 10.3888 9.936 10.3058 10.102C10.2228 10.268 10.1808 10.372 10.0568 10.518C9.93176 10.664 9.79476 10.843 9.68276 10.955C9.55776 11.079 9.42776 11.215 9.57276 11.464C9.71876 11.714 10.2188 12.531 10.9608 13.192C11.9148 14.042 12.7178 14.305 12.9678 14.431C13.2178 14.556 13.3628 14.535 13.5088 14.368C13.6548 14.202 14.1328 13.64 14.2988 13.39C14.4648 13.14 14.6318 13.182 14.8608 13.265C15.0898 13.348 16.3168 13.952 16.5658 14.077C16.8158 14.202 16.9818 14.264 17.0438 14.368C17.1058 14.471 17.1058 14.971 16.8978 15.554Z" fill="currentColor"/>
</svg>
