<svg width="34" height="27" viewBox="0 0 34 27" fill="none" xmlns="http://www.w3.org/2000/svg">
<path d="M18.782 26.3477L22.0804 23.0593L22.0578 23.0367L22.0804 23.0145L19.6906 20.6308L22.0804 18.2482L22.0578 18.226L22.0804 18.2035L18.782 14.915L17.8799 15.8144L20.2988 18.226L17.881 20.6244L17.8874 20.6298L17.8799 20.6373L20.2988 23.0367L17.8799 25.4351L17.8863 25.4415L17.8799 25.4483L18.782 26.3477Z" fill="#AF403E"/>
<path d="M15.616 20.6319L18.0058 18.2493L17.9832 18.2271L18.0058 18.2046L15.616 15.8212L18.0058 13.4386L17.9832 13.4161L18.0055 13.3939L11.5084 6.93469L6.77173 11.657L11.5084 16.3793L14.4053 13.4912L13.5107 12.5993L11.5084 14.5959L8.56053 11.657L11.5084 8.71809L11.5209 8.73096L16.2242 13.4161L13.8064 15.8145L13.8128 15.8202L13.8053 15.8277L16.2242 18.2271L13.8053 20.6255L13.8117 20.6319L13.8053 20.6384L16.2242 23.0367L13.8053 25.4484L14.7074 26.3477L18.0058 23.0593L17.9832 23.0367L18.0058 23.0146L15.616 20.6319Z" fill="#AF403E"/>
<path d="M27.2089 11.657L22.4722 6.93469L17.7356 11.657L18.6298 12.5489L22.4722 8.71809L25.4197 11.657L22.4722 14.596L20.4699 12.5993L19.5754 13.4912L22.4722 16.3793L27.2089 11.657Z" fill="#AF403E"/>
<path d="M21.843 5.0701L17.1064 0.347778L12.3698 5.0701L13.2643 5.96198L17.1064 2.13153L20.0539 5.0701L17.1064 8.00904L15.1041 6.01242L14.2095 6.9043L17.1064 9.79243L21.843 5.0701Z" fill="#AF403E"/>
</svg>
