<svg width="20" height="20" viewBox="0 0 20 20" fill="none" xmlns="http://www.w3.org/2000/svg">
<path d="M10.0007 4.16675C11.3192 4.16675 12.6081 4.55774 13.7045 5.29028C14.8008 6.02283 15.6553 7.06402 16.1598 8.28219C16.6644 9.50037 16.7965 10.8408 16.5392 12.134C16.282 13.4272 15.647 14.6151 14.7147 15.5475C13.7823 16.4798 12.5945 17.1147 11.3013 17.372C10.008 17.6292 8.6676 17.4972 7.44943 16.9926C6.23125 16.488 5.19006 15.6335 4.45752 14.5372C3.72498 13.4409 3.33398 12.152 3.33398 10.8334" stroke="currentColor" stroke-linecap="round"/>
<path d="M7.01957 4.52014C6.82431 4.32488 6.82431 4.00829 7.01957 3.81303L9.1458 1.68681C9.46078 1.37182 9.99935 1.59491 9.99935 2.04036V6.29281C9.99935 6.73827 9.46078 6.96135 9.1458 6.64637L7.01957 4.52014Z" fill="currentColor"/>
</svg>
