<svg width="24" height="24" viewBox="0 0 24 24" fill="none" xmlns="http://www.w3.org/2000/svg">
<path fill-rule="evenodd" clip-rule="evenodd" d="M7.05028 18.3643L18.364 7.05063C18.7529 6.66172 18.7529 6.02532 18.364 5.63641C17.9751 5.2475 17.3387 5.2475 16.9498 5.63641L5.63606 16.9501C5.24715 17.339 5.24715 17.9754 5.63606 18.3643C6.02497 18.7532 6.66137 18.7532 7.05028 18.3643Z" fill="currentColor"/>
<path fill-rule="evenodd" clip-rule="evenodd" d="M5.63603 5.63582C5.24712 6.02473 5.24712 6.66112 5.63603 7.05003L16.9497 18.3637C17.3386 18.7526 17.975 18.7526 18.364 18.3637C18.7529 17.9748 18.7529 17.3384 18.364 16.9495L7.05025 5.63582C6.66134 5.24691 6.02494 5.24691 5.63603 5.63582Z" fill="currentColor"/>
</svg>
