<svg width="20" height="20" viewBox="0 0 20 20" xmlns="http://www.w3.org/2000/svg">
<path d="M9.99993 4.3999C7.66711 4.3999 5.53743 5.00459 3.91555 5.9999H0.799927C0.799927 5.9999 1.50149 6.86084 1.83118 7.83115C1.18743 8.64834 0.799927 9.67803 0.799927 10.7999C0.799927 13.4515 2.94836 15.5999 5.59993 15.5999C6.99836 15.5999 8.25461 14.9968 9.13118 14.0421L9.99993 15.1999L10.8687 14.0421C11.7452 14.9968 13.0015 15.5999 14.3999 15.5999C17.0515 15.5999 19.1999 13.4515 19.1999 10.7999C19.1999 9.67803 18.8124 8.64834 18.1687 7.83115C18.4984 6.86084 19.1999 5.9999 19.1999 5.9999H16.0812C14.4593 5.00459 12.3312 4.3999 9.99993 4.3999ZM9.99993 5.1999C11.5531 5.1999 13.0343 5.48271 14.3202 6.00459C12.3859 6.03584 10.7296 7.21084 9.99993 8.88584C9.26868 7.20772 7.6093 6.03115 5.66868 6.00459L5.6968 5.99522C6.98118 5.47959 8.45774 5.1999 9.99993 5.1999ZM5.59993 6.7999C7.8093 6.7999 9.59993 8.59053 9.59993 10.7999C9.59993 13.0093 7.8093 14.7999 5.59993 14.7999C3.39055 14.7999 1.59993 13.0093 1.59993 10.7999C1.59993 8.59053 3.39055 6.7999 5.59993 6.7999ZM14.3999 6.7999C16.6093 6.7999 18.3999 8.59053 18.3999 10.7999C18.3999 13.0093 16.6093 14.7999 14.3999 14.7999C12.1906 14.7999 10.3999 13.0093 10.3999 10.7999C10.3999 8.59053 12.1906 6.7999 14.3999 6.7999ZM5.59993 8.3999C4.27493 8.3999 3.19993 9.4749 3.19993 10.7999C3.19993 12.1249 4.27493 13.1999 5.59993 13.1999C6.92493 13.1999 7.99993 12.1249 7.99993 10.7999C7.99993 9.4749 6.92493 8.3999 5.59993 8.3999ZM14.3999 8.3999C13.0749 8.3999 11.9999 9.4749 11.9999 10.7999C11.9999 12.1249 13.0749 13.1999 14.3999 13.1999C15.7249 13.1999 16.7999 12.1249 16.7999 10.7999C16.7999 9.4749 15.7249 8.3999 14.3999 8.3999ZM5.59993 9.1999C6.4843 9.1999 7.19993 9.91553 7.19993 10.7999C7.19993 11.6843 6.4843 12.3999 5.59993 12.3999C4.71555 12.3999 3.99993 11.6843 3.99993 10.7999C3.99993 9.91553 4.71555 9.1999 5.59993 9.1999ZM14.3999 9.1999C15.2843 9.1999 15.9999 9.91553 15.9999 10.7999C15.9999 11.6843 15.2843 12.3999 14.3999 12.3999C13.5156 12.3999 12.7999 11.6843 12.7999 10.7999C12.7999 9.91553 13.5156 9.1999 14.3999 9.1999ZM5.59993 9.9999C5.15774 9.9999 4.79993 10.3577 4.79993 10.7999C4.79993 11.2421 5.15774 11.5999 5.59993 11.5999C6.04211 11.5999 6.39993 11.2421 6.39993 10.7999C6.39993 10.3577 6.04211 9.9999 5.59993 9.9999ZM14.3999 9.9999C13.9577 9.9999 13.5999 10.3577 13.5999 10.7999C13.5999 11.2421 13.9577 11.5999 14.3999 11.5999C14.8421 11.5999 15.1999 11.2421 15.1999 10.7999C15.1999 10.3577 14.8421 9.9999 14.3999 9.9999Z"/>
</svg>
