<svg width="34" height="27" viewBox="0 0 34 27" fill="none" xmlns="http://www.w3.org/2000/svg">
<path d="M7.24548 5.78114L10.4876 9.01962L11.3518 8.15408L6.71184 3.51904L2.04639 8.1894L2.91192 9.05363L6.14746 5.81515L6.14909 8.27605L6.12522 8.29992L2.22688 12.2022L3.0934 13.0664L6.15007 10.0058L6.15171 12.2892L6.12751 12.313L2.40705 16.0374L3.2739 16.9016L6.15269 14.0189L6.154 16.3019L6.13013 16.3258L2.58853 19.8723L3.45406 20.7369L6.15531 18.0317L6.15661 21.1427L7.25431 21.1414L7.253 17.999L9.95915 20.7025L10.8234 19.836L7.25169 16.2679L7.25039 13.9862L10.1357 16.8676L10.9999 16.0021L7.24908 12.2552L7.24777 9.97311L10.311 13.0324L11.1765 12.1669L7.24679 8.24204L7.24548 5.78114Z" fill="#AF403E"/>
<path d="M16.7779 10.8712L20.0203 14.1097L20.8845 13.2442L16.2446 8.60913L11.5791 13.2795L12.4456 14.1437L15.6805 10.9052L15.6818 13.3661L15.6576 13.3903L11.7596 17.2923L12.6261 18.1568L15.6828 15.0962L15.6844 17.3792L15.6602 17.4031L11.9411 21.1275L12.8066 21.9917L15.6854 19.109L15.6867 21.392L15.6628 21.4159L12.1212 24.9624L12.9868 25.827L15.688 23.1218L15.6893 26.2327L16.787 26.2314L16.7857 23.0891L19.4919 25.793L20.3574 24.9261L16.7844 21.358L16.7831 19.0763L19.6684 21.9577L20.5327 21.0922L16.7818 17.3452L16.7805 15.0635L19.8437 18.1228L20.7092 17.257L16.7795 13.3321L16.7779 10.8712Z" fill="#AF403E"/>
<path d="M26.3085 5.78122L29.5505 9.0197L30.4161 8.15384L25.7748 3.5188L21.1094 8.18916L21.9762 9.05469L25.2104 5.81523L25.2121 8.27613L25.1882 8.3L21.2909 12.2023L22.1564 13.0678L25.2131 10.0072L25.2147 12.2889L25.1905 12.3128L21.4713 16.0372L22.3369 16.9027L25.2157 14.02L25.217 16.302L25.1931 16.3259L21.6515 19.8724L22.5171 20.7366L25.2183 18.0331L25.2196 21.1427H26.3173L26.316 17.9991L29.0221 20.7026L29.8877 19.8371L26.3147 16.2693L26.3134 13.9863L29.1987 16.8677L30.0629 16.0022L26.3121 12.2562L26.3108 9.9732L29.3753 13.0325L30.2395 12.167L26.3098 8.24213L26.3085 5.78122Z" fill="#AF403E"/>
</svg>
