<svg width="35" height="26" viewBox="0 0 35 26" fill="none" xmlns="http://www.w3.org/2000/svg">
<path d="M27.7162 18.3245L29.3425 16.7336L28.4623 15.8707L26.8354 17.462L25.6517 16.303L27.2859 14.7032L26.4054 13.8406L24.7712 15.4405L23.2923 13.9921L24.8941 12.4232L24.0134 11.5609L22.4119 13.1299L20.9628 11.7107L22.5421 10.1638L21.6617 9.30151L20.0821 10.8482L18.5024 9.30151L17.622 10.1638L19.2016 11.7107L17.7198 13.1619L16.0719 11.5475L15.1911 12.4097L16.8391 14.0242L15.6465 15.1923L13.9978 13.5782L13.1173 14.441L14.7658 16.0546L11.7263 19.0316L9.84658 17.1901L10.5995 16.4537L9.71901 15.5908L8.96614 16.3279L8.21385 15.5911L7.3334 16.4534L8.0854 17.1901L5.00705 20.2054L4.22703 19.4427L3.3676 20.2855L3.34717 20.3055L4.12661 21.0677L0.5625 24.5581L1.44324 25.4207L5.00764 21.9296L5.67089 22.5778L6.53003 21.7349L6.55075 21.7149L5.88838 21.0671L8.96585 18.0524L10.8455 19.8938L6.0574 24.5833L6.93814 25.4455L11.7263 20.7563L16.4981 25.429L17.3788 24.5664L12.6067 19.8938L20.0821 12.573L25.9544 18.324L24.5286 19.7188L25.4088 20.5819L26.8351 19.1865L33.2117 25.4315L34.0924 24.569L27.7162 18.3245Z" fill="#AF403E"/>
</svg>
