<svg width="196" height="42" viewBox="0 0 196 42" fill="none" xmlns="http://www.w3.org/2000/svg">
<path d="M25.54 16H23.989L26.97 12.04L24.132 8.19H25.65L27.751 11.039L29.863 8.19H31.381L28.543 12.051L31.524 16H29.984L27.762 13.074L25.54 16ZM36.1281 14.889C36.8908 14.889 37.5361 14.6177 38.0641 14.075C38.5921 13.5323 38.8561 12.8723 38.8561 12.095C38.8561 11.3177 38.5921 10.6577 38.0641 10.115C37.5361 9.57233 36.8908 9.301 36.1281 9.301C35.3581 9.301 34.7091 9.57233 34.1811 10.115C33.6531 10.6577 33.3891 11.3177 33.3891 12.095C33.3891 12.8723 33.6531 13.5323 34.1811 14.075C34.7091 14.6177 35.3581 14.889 36.1281 14.889ZM38.9881 14.955C38.2034 15.7397 37.2501 16.132 36.1281 16.132C35.0061 16.132 34.0528 15.7433 33.2681 14.966C32.4834 14.1813 32.0911 13.2243 32.0911 12.095C32.0911 10.9657 32.4834 10.0123 33.2681 9.235C34.0528 8.45033 35.0061 8.058 36.1281 8.058C37.2501 8.058 38.2034 8.45033 38.9881 9.235C39.7728 10.0197 40.1651 10.973 40.1651 12.095C40.1651 13.217 39.7728 14.1703 38.9881 14.955ZM46.5603 8.927C47.0663 9.411 47.3193 10.016 47.3193 10.742C47.3193 11.468 47.0663 12.0767 46.5603 12.568C46.0543 13.052 45.4053 13.294 44.6133 13.294H43.4143V16H42.1273V8.19H44.6133C45.4053 8.19 46.0543 8.43567 46.5603 8.927ZM45.6583 11.71C45.9223 11.4533 46.0543 11.1307 46.0543 10.742C46.0543 10.3533 45.9223 10.0343 45.6583 9.785C45.4016 9.52833 45.0496 9.4 44.6023 9.4H43.4143V12.084H44.6023C45.0496 12.084 45.4016 11.9593 45.6583 11.71ZM52.6861 14.889C53.4488 14.889 54.0941 14.6177 54.6221 14.075C55.1501 13.5323 55.4141 12.8723 55.4141 12.095C55.4141 11.3177 55.1501 10.6577 54.6221 10.115C54.0941 9.57233 53.4488 9.301 52.6861 9.301C51.9161 9.301 51.2671 9.57233 50.7391 10.115C50.2111 10.6577 49.9471 11.3177 49.9471 12.095C49.9471 12.8723 50.2111 13.5323 50.7391 14.075C51.2671 14.6177 51.9161 14.889 52.6861 14.889ZM55.5461 14.955C54.7614 15.7397 53.8081 16.132 52.6861 16.132C51.5641 16.132 50.6108 15.7433 49.8261 14.966C49.0414 14.1813 48.6491 13.2243 48.6491 12.095C48.6491 10.9657 49.0414 10.0123 49.8261 9.235C50.6108 8.45033 51.5641 8.058 52.6861 8.058C53.8081 8.058 54.7614 8.45033 55.5461 9.235C56.3308 10.0197 56.7231 10.973 56.7231 12.095C56.7231 13.217 56.3308 14.1703 55.5461 14.955ZM58.6853 16V8.19H59.9833V14.768H62.4913V8.19H63.7783V14.768H66.2863V8.19H67.5843V16H58.6853ZM70.0527 16V8.19H74.7497V9.422H71.3397V11.424H74.0897V12.656H71.3397V14.768H74.7497V16H70.0527ZM76.7795 16V8.19H81.4765V9.422H78.0665V11.424H80.8165V12.656H78.0665V14.768H81.4765V16H76.7795ZM86.6451 16V8.19H87.8221L90.5501 12.557L93.2781 8.19H94.4551V16H93.1681V10.665L91.0011 14.141H90.1211L87.9321 10.654V16H86.6451ZM96.9275 16V8.19H101.625V9.422H98.2145V11.424H100.965V12.656H98.2145V14.768H101.625V16H96.9275ZM106.992 16.132C105.87 16.132 104.917 15.7433 104.132 14.966C103.347 14.1813 102.955 13.2243 102.955 12.095C102.955 10.9657 103.347 10.0123 104.132 9.235C104.917 8.45033 105.87 8.058 106.992 8.058C107.747 8.058 108.433 8.23767 109.049 8.597C109.665 8.949 110.153 9.42933 110.512 10.038L109.401 10.676C108.836 9.75933 108.033 9.301 106.992 9.301C106.222 9.301 105.573 9.57233 105.045 10.115C104.517 10.6577 104.253 11.3177 104.253 12.095C104.253 12.8723 104.517 13.5323 105.045 14.075C105.573 14.6177 106.222 14.889 106.992 14.889C108.033 14.889 108.836 14.4307 109.401 13.514L110.512 14.152C110.153 14.7607 109.665 15.2447 109.049 15.604C108.433 15.956 107.747 16.132 106.992 16.132ZM113.811 16V9.422H111.545V8.19H117.375V9.422H115.098V16H113.811ZM122.261 14.889C123.024 14.889 123.669 14.6177 124.197 14.075C124.725 13.5323 124.989 12.8723 124.989 12.095C124.989 11.3177 124.725 10.6577 124.197 10.115C123.669 9.57233 123.024 9.301 122.261 9.301C121.491 9.301 120.842 9.57233 120.314 10.115C119.786 10.6577 119.522 11.3177 119.522 12.095C119.522 12.8723 119.786 13.5323 120.314 14.075C120.842 14.6177 121.491 14.889 122.261 14.889ZM125.121 14.955C124.336 15.7397 123.383 16.132 122.261 16.132C121.139 16.132 120.186 15.7433 119.401 14.966C118.616 14.1813 118.224 13.2243 118.224 12.095C118.224 10.9657 118.616 10.0123 119.401 9.235C120.186 8.45033 121.139 8.058 122.261 8.058C123.383 8.058 124.336 8.45033 125.121 9.235C125.906 10.0197 126.298 10.973 126.298 12.095C126.298 13.217 125.906 14.1703 125.121 14.955Z" fill="white"/>
<path d="M183.224 16V14.042H179.187V13.063L183.356 8.19H184.434V12.92H185.479V14.042H184.434V16H183.224ZM180.705 12.92H183.224V9.994L180.705 12.92ZM187.272 17.76L187.789 16H187.118V14.416H188.702V16.011L187.987 17.76H187.272ZM190.517 16L192.739 13.206H192.618C191.98 13.206 191.412 12.9677 190.913 12.491C190.422 12.007 190.176 11.4093 190.176 10.698C190.176 9.95 190.425 9.323 190.924 8.817C191.43 8.311 192.075 8.058 192.86 8.058C193.645 8.058 194.286 8.311 194.785 8.817C195.291 9.323 195.544 9.94633 195.544 10.687C195.544 11.061 195.471 11.3947 195.324 11.688C195.185 11.9813 194.961 12.326 194.653 12.722L192.035 16H190.517ZM191.815 11.743C192.094 12.0217 192.442 12.161 192.86 12.161C193.278 12.161 193.623 12.0217 193.894 11.743C194.173 11.457 194.312 11.105 194.312 10.687C194.312 10.2837 194.173 9.939 193.894 9.653C193.615 9.367 193.271 9.224 192.86 9.224C192.449 9.224 192.105 9.367 191.826 9.653C191.547 9.939 191.408 10.2837 191.408 10.687C191.408 11.105 191.544 11.457 191.815 11.743Z" fill="white"/>
<path d="M1.287 38V28.77H4.199C5.04833 28.77 5.72 28.9997 6.214 29.459C6.708 29.9183 6.955 30.4773 6.955 31.136C6.955 32.0373 6.604 32.6917 5.902 33.099C7.01133 33.4717 7.566 34.2083 7.566 35.309C7.566 36.0977 7.27567 36.7433 6.695 37.246C6.123 37.7487 5.36033 38 4.407 38H1.287ZM2.275 37.103H4.511C5.187 37.103 5.70267 36.947 6.058 36.635C6.41333 36.323 6.591 35.907 6.591 35.387C6.591 34.867 6.41333 34.451 6.058 34.139C5.71133 33.8183 5.2 33.658 4.524 33.658H2.275V37.103ZM2.275 32.8H4.264C4.80133 32.8 5.22167 32.657 5.525 32.371C5.82833 32.0763 5.98 31.6993 5.98 31.24C5.98 30.8067 5.824 30.4383 5.512 30.135C5.20867 29.823 4.79267 29.667 4.264 29.667H2.275V32.8ZM15.2091 38V31.5H16.1191V38H15.2091ZM9.28109 38V31.5H10.1911V33.97H11.7771C12.5571 33.97 13.1464 34.165 13.5451 34.555C13.9524 34.9363 14.1561 35.4087 14.1561 35.972C14.1561 36.544 13.9524 37.025 13.5451 37.415C13.1378 37.805 12.5441 38 11.7641 38H9.28109ZM10.1911 34.828V37.142H11.7771C12.2364 37.142 12.5918 37.038 12.8431 36.83C13.0944 36.622 13.2201 36.336 13.2201 35.972C13.2201 35.608 13.0944 35.3263 12.8431 35.127C12.6004 34.9277 12.2494 34.828 11.7901 34.828H10.1911ZM23.9092 37.142C23.2766 37.8007 22.4619 38.13 21.4652 38.13C20.4686 38.13 19.6582 37.7963 19.0342 37.129C18.4102 36.453 18.0982 35.5907 18.0982 34.542V33.788C18.0982 32.2107 18.3712 31.0233 18.9172 30.226C19.4719 29.42 20.3949 28.8957 21.6862 28.653L24.0002 28.224L24.1562 29.069L21.8812 29.485C20.9019 29.667 20.2086 30.005 19.8012 30.499C19.3939 30.993 19.1252 31.7427 18.9952 32.748C19.5932 31.8813 20.4512 31.448 21.5692 31.448C22.5486 31.448 23.3416 31.7643 23.9482 32.397C24.5636 33.0297 24.8712 33.801 24.8712 34.711C24.8712 35.673 24.5506 36.4833 23.9092 37.142ZM19.7102 36.557C20.1609 37.0423 20.7459 37.285 21.4652 37.285C22.1846 37.285 22.7739 37.0423 23.2332 36.557C23.7012 36.063 23.9352 35.4477 23.9352 34.711C23.9352 34.0003 23.7056 33.4197 23.2462 32.969C22.7869 32.5183 22.2019 32.293 21.4912 32.293C20.7719 32.293 20.1826 32.5227 19.7232 32.982C19.2639 33.4413 19.0342 34.0133 19.0342 34.698C19.0342 35.452 19.2596 36.0717 19.7102 36.557ZM31.8374 37.155C31.1961 37.805 30.3857 38.13 29.4064 38.13C28.4271 38.13 27.6167 37.805 26.9754 37.155C26.3341 36.4963 26.0134 35.6947 26.0134 34.75C26.0134 33.8053 26.3341 33.008 26.9754 32.358C27.6167 31.6993 28.4271 31.37 29.4064 31.37C30.3857 31.37 31.1961 31.6993 31.8374 32.358C32.4787 33.008 32.7994 33.8053 32.7994 34.75C32.7994 35.6947 32.4787 36.4963 31.8374 37.155ZM27.6254 36.557C28.0847 37.0423 28.6784 37.285 29.4064 37.285C30.1344 37.285 30.7237 37.0423 31.1744 36.557C31.6337 36.063 31.8634 35.4607 31.8634 34.75C31.8634 34.0393 31.6337 33.4413 31.1744 32.956C30.7237 32.462 30.1344 32.215 29.4064 32.215C28.6784 32.215 28.0847 32.462 27.6254 32.956C27.1747 33.4413 26.9494 34.0393 26.9494 34.75C26.9494 35.4607 27.1747 36.063 27.6254 36.557ZM34.494 40.522V31.5H35.404V32.293C35.9673 31.6777 36.7213 31.37 37.666 31.37C38.6193 31.37 39.4036 31.6993 40.019 32.358C40.643 33.008 40.955 33.8053 40.955 34.75C40.955 35.6947 40.643 36.4963 40.019 37.155C39.4036 37.805 38.6193 38.13 37.666 38.13C36.7213 38.13 35.9673 37.8223 35.404 37.207V40.522H34.494ZM37.627 37.285C38.329 37.285 38.901 37.0423 39.343 36.557C39.7936 36.063 40.019 35.4607 40.019 34.75C40.019 34.0393 39.7936 33.4413 39.343 32.956C38.901 32.462 38.329 32.215 37.627 32.215C37.1243 32.215 36.6823 32.3233 36.301 32.54C35.9196 32.7567 35.6206 33.0427 35.404 33.398V36.102C35.6206 36.4573 35.9196 36.7433 36.301 36.96C36.6823 37.1767 37.1243 37.285 37.627 37.285ZM45.8436 38V31.5H51.3296V38H50.4196V32.358H46.7536V38H45.8436ZM58.8403 37.155C58.199 37.805 57.3887 38.13 56.4093 38.13C55.43 38.13 54.6197 37.805 53.9783 37.155C53.337 36.4963 53.0163 35.6947 53.0163 34.75C53.0163 33.8053 53.337 33.008 53.9783 32.358C54.6197 31.6993 55.43 31.37 56.4093 31.37C57.3887 31.37 58.199 31.6993 58.8403 32.358C59.4817 33.008 59.8023 33.8053 59.8023 34.75C59.8023 35.6947 59.4817 36.4963 58.8403 37.155ZM54.6283 36.557C55.0877 37.0423 55.6813 37.285 56.4093 37.285C57.1373 37.285 57.7267 37.0423 58.1773 36.557C58.6367 36.063 58.8663 35.4607 58.8663 34.75C58.8663 34.0393 58.6367 33.4413 58.1773 32.956C57.7267 32.462 57.1373 32.215 56.4093 32.215C55.6813 32.215 55.0877 32.462 54.6283 32.956C54.1777 33.4413 53.9523 34.0393 53.9523 34.75C53.9523 35.4607 54.1777 36.063 54.6283 36.557ZM61.0443 38.078C60.845 38.078 60.65 38.0563 60.4593 38.013L60.6023 37.207C60.6977 37.233 60.819 37.246 60.9663 37.246C61.4777 37.246 61.7333 36.7997 61.7333 35.907V31.5H66.5953V38H65.6853V32.358H62.6433V36.154C62.6433 36.778 62.496 37.2547 62.2013 37.584C61.9153 37.9133 61.5297 38.078 61.0443 38.078ZM68.8348 38V31.5H69.7448V33.97H71.3308C72.1108 33.97 72.7001 34.165 73.0988 34.555C73.5061 34.9363 73.7098 35.4087 73.7098 35.972C73.7098 36.544 73.5061 37.025 73.0988 37.415C72.6915 37.805 72.0978 38 71.3178 38H68.8348ZM69.7448 34.828V37.142H71.3308C71.7901 37.142 72.1455 37.038 72.3968 36.83C72.6481 36.622 72.7738 36.336 72.7738 35.972C72.7738 35.608 72.6481 35.3263 72.3968 35.127C72.1541 34.9277 71.8031 34.828 71.3438 34.828H69.7448ZM77.1179 38.13C76.0086 38.13 75.1419 37.6923 74.5179 36.817L75.2459 36.336C75.6966 36.9947 76.3206 37.324 77.1179 37.324C77.6639 37.324 78.0669 37.2157 78.3269 36.999C78.5869 36.7823 78.7169 36.5007 78.7169 36.154C78.7169 35.3913 78.2013 35.01 77.1699 35.01H76.1819V34.204H77.1829C78.0496 34.204 78.4829 33.866 78.4829 33.19C78.4829 32.852 78.3616 32.5963 78.1189 32.423C77.8763 32.2497 77.5426 32.163 77.1179 32.163C76.4073 32.163 75.8526 32.4403 75.4539 32.995L74.7389 32.553C75.2849 31.7643 76.0866 31.37 77.1439 31.37C77.8373 31.37 78.3789 31.5303 78.7689 31.851C79.1676 32.1717 79.3669 32.6007 79.3669 33.138C79.3669 33.7967 79.0896 34.2777 78.5349 34.581C78.8729 34.7197 79.1416 34.932 79.3409 35.218C79.5403 35.504 79.6399 35.8377 79.6399 36.219C79.6399 36.7823 79.4146 37.2417 78.9639 37.597C78.5219 37.9523 77.9066 38.13 77.1179 38.13ZM86.6685 37.155C86.0271 37.805 85.2168 38.13 84.2375 38.13C83.2581 38.13 82.4478 37.805 81.8065 37.155C81.1651 36.4963 80.8445 35.6947 80.8445 34.75C80.8445 33.8053 81.1651 33.008 81.8065 32.358C82.4478 31.6993 83.2581 31.37 84.2375 31.37C85.2168 31.37 86.0271 31.6993 86.6685 32.358C87.3098 33.008 87.6305 33.8053 87.6305 34.75C87.6305 35.6947 87.3098 36.4963 86.6685 37.155ZM82.4565 36.557C82.9158 37.0423 83.5095 37.285 84.2375 37.285C84.9655 37.285 85.5548 37.0423 86.0055 36.557C86.4648 36.063 86.6945 35.4607 86.6945 34.75C86.6945 34.0393 86.4648 33.4413 86.0055 32.956C85.5548 32.462 84.9655 32.215 84.2375 32.215C83.5095 32.215 82.9158 32.462 82.4565 32.956C82.0058 33.4413 81.7805 34.0393 81.7805 34.75C81.7805 35.4607 82.0058 36.063 82.4565 36.557ZM89.325 38V31.5H92.068C92.7614 31.5 93.2944 31.6517 93.667 31.955C94.0397 32.2497 94.226 32.67 94.226 33.216C94.226 33.7793 93.992 34.2213 93.524 34.542C94.278 34.854 94.655 35.387 94.655 36.141C94.655 36.6957 94.46 37.1463 94.07 37.493C93.68 37.831 93.0994 38 92.328 38H89.325ZM90.235 37.168H92.445C92.8437 37.168 93.1557 37.077 93.381 36.895C93.6064 36.7043 93.719 36.44 93.719 36.102C93.719 35.764 93.6064 35.504 93.381 35.322C93.1557 35.1313 92.8437 35.036 92.445 35.036H90.235V37.168ZM90.235 34.23H92.198C92.5187 34.23 92.783 34.152 92.991 33.996C93.199 33.84 93.303 33.5973 93.303 33.268C93.303 32.9387 93.199 32.7003 92.991 32.553C92.783 32.4057 92.5187 32.332 92.198 32.332H90.235V34.23ZM99.1012 38.13C98.1479 38.13 97.3592 37.805 96.7352 37.155C96.1199 36.4963 95.8122 35.6947 95.8122 34.75C95.8122 33.8053 96.1199 33.008 96.7352 32.358C97.3592 31.6993 98.1479 31.37 99.1012 31.37C100.046 31.37 100.8 31.6777 101.363 32.293V31.5H102.273V38H101.363V37.207C100.8 37.8223 100.046 38.13 99.1012 38.13ZM99.1402 37.285C99.6429 37.285 100.085 37.1767 100.466 36.96C100.848 36.7433 101.147 36.4573 101.363 36.102V33.398C101.147 33.0427 100.848 32.7567 100.466 32.54C100.085 32.3233 99.6429 32.215 99.1402 32.215C98.4382 32.215 97.8619 32.462 97.4112 32.956C96.9692 33.4413 96.7482 34.0393 96.7482 34.75C96.7482 35.4607 96.9692 36.063 97.4112 36.557C97.8619 37.0423 98.4382 37.285 99.1402 37.285ZM105.757 38V32.358H103.612V31.5H108.903V32.358H106.667V38H105.757ZM112.864 38.13C111.868 38.13 111.062 37.8093 110.446 37.168C109.831 36.518 109.523 35.712 109.523 34.75C109.523 33.7967 109.84 32.995 110.472 32.345C111.105 31.695 111.911 31.37 112.89 31.37C113.766 31.37 114.494 31.6647 115.074 32.254C115.655 32.8433 115.945 33.645 115.945 34.659V34.906H110.459C110.459 35.582 110.685 36.1497 111.135 36.609C111.586 37.0597 112.162 37.285 112.864 37.285C113.384 37.285 113.809 37.1853 114.138 36.986C114.476 36.778 114.767 36.4703 115.009 36.063L115.75 36.544C115.135 37.6013 114.173 38.13 112.864 38.13ZM110.537 34.1H114.996C114.91 33.5193 114.671 33.06 114.281 32.722C113.891 32.384 113.415 32.215 112.851 32.215C112.288 32.215 111.785 32.3883 111.343 32.735C110.91 33.073 110.641 33.528 110.537 34.1ZM117.272 38.078C117.073 38.078 116.878 38.0563 116.687 38.013L116.83 37.207C116.925 37.233 117.047 37.246 117.194 37.246C117.705 37.246 117.961 36.7997 117.961 35.907V31.5H122.823V38H121.913V32.358H118.871V36.154C118.871 36.778 118.724 37.2547 118.429 37.584C118.143 37.9133 117.757 38.078 117.272 38.078ZM127.87 38.13C126.874 38.13 126.068 37.8093 125.452 37.168C124.837 36.518 124.529 35.712 124.529 34.75C124.529 33.7967 124.846 32.995 125.478 32.345C126.111 31.695 126.917 31.37 127.896 31.37C128.772 31.37 129.5 31.6647 130.08 32.254C130.661 32.8433 130.951 33.645 130.951 34.659V34.906H125.465C125.465 35.582 125.691 36.1497 126.141 36.609C126.592 37.0597 127.168 37.285 127.87 37.285C128.39 37.285 128.815 37.1853 129.144 36.986C129.482 36.778 129.773 36.4703 130.015 36.063L130.756 36.544C130.141 37.6013 129.179 38.13 127.87 38.13ZM125.543 34.1H130.002C129.916 33.5193 129.677 33.06 129.287 32.722C128.897 32.384 128.421 32.215 127.857 32.215C127.294 32.215 126.791 32.3883 126.349 32.735C125.916 33.073 125.647 33.528 125.543 34.1ZM133.435 38H132.629V31.5H133.539V36.557L137.439 31.5H138.245V38H137.335V32.943L133.435 38ZM136.958 30.109C136.576 30.473 136.1 30.655 135.528 30.655C134.956 30.655 134.479 30.473 134.098 30.109C133.716 29.745 133.526 29.2597 133.526 28.653V28.51H134.28V28.653C134.28 29.0517 134.392 29.3723 134.618 29.615C134.852 29.8577 135.155 29.979 135.528 29.979C135.9 29.979 136.199 29.8577 136.425 29.615C136.659 29.3723 136.776 29.0517 136.776 28.653V28.51H137.53V28.653C137.53 29.2597 137.339 29.745 136.958 30.109ZM148.177 38V34.061H146.877L143.536 38H142.275L145.746 33.944C145.018 33.84 144.446 33.554 144.03 33.086C143.623 32.6093 143.419 32.046 143.419 31.396C143.419 30.6247 143.696 29.9963 144.251 29.511C144.814 29.017 145.573 28.77 146.526 28.77H149.165V38H148.177ZM144.42 31.396C144.42 31.942 144.602 32.371 144.966 32.683C145.339 32.9863 145.872 33.138 146.565 33.138H148.177V29.693H146.565C145.88 29.693 145.352 29.8447 144.979 30.148C144.606 30.4513 144.42 30.8673 144.42 31.396ZM151.57 38V31.5H152.48V34.243H156.289V31.5H157.199V38H156.289V35.101H152.48V38H151.57ZM158.765 37.142H158.921C159.207 37.142 159.433 36.986 159.597 36.674C159.771 36.3533 159.857 35.7597 159.857 34.893V31.5H164.888V37.142H165.85V39.651H164.966V38H159.649V39.651H158.765V37.142ZM160.767 32.358V35.101C160.767 36.0283 160.624 36.7087 160.338 37.142H163.978V32.358H160.767ZM170.158 38.13C169.162 38.13 168.356 37.8093 167.74 37.168C167.125 36.518 166.817 35.712 166.817 34.75C166.817 33.7967 167.134 32.995 167.766 32.345C168.399 31.695 169.205 31.37 170.184 31.37C171.06 31.37 171.788 31.6647 172.368 32.254C172.949 32.8433 173.239 33.645 173.239 34.659V34.906H167.753C167.753 35.582 167.979 36.1497 168.429 36.609C168.88 37.0597 169.456 37.285 170.158 37.285C170.678 37.285 171.103 37.1853 171.432 36.986C171.77 36.778 172.061 36.4703 172.303 36.063L173.044 36.544C172.429 37.6013 171.467 38.13 170.158 38.13ZM167.831 34.1H172.29C172.204 33.5193 171.965 33.06 171.575 32.722C171.185 32.384 170.709 32.215 170.145 32.215C169.582 32.215 169.079 32.3883 168.637 32.735C168.204 33.073 167.935 33.528 167.831 34.1ZM179.298 38L175.827 35.01V38H174.917V31.5H175.827V34.464L178.921 31.5H180.117L176.763 34.685L180.611 38H179.298ZM184.099 38.13C183.119 38.13 182.309 37.805 181.668 37.155C181.026 36.4963 180.706 35.6947 180.706 34.75C180.706 33.8053 181.026 33.008 181.668 32.358C182.309 31.6993 183.119 31.37 184.099 31.37C184.757 31.37 185.342 31.5217 185.854 31.825C186.374 32.1283 186.781 32.5443 187.076 33.073L186.283 33.528C186.075 33.1207 185.78 32.8 185.399 32.566C185.026 32.332 184.593 32.215 184.099 32.215C183.371 32.215 182.777 32.462 182.318 32.956C181.867 33.4413 181.642 34.0393 181.642 34.75C181.642 35.4607 181.867 36.063 182.318 36.557C182.777 37.0423 183.371 37.285 184.099 37.285C184.593 37.285 185.026 37.168 185.399 36.934C185.78 36.7 186.075 36.3793 186.283 35.972L187.076 36.427C186.781 36.9557 186.374 37.3717 185.854 37.675C185.342 37.9783 184.757 38.13 184.099 38.13ZM191.371 38.13C190.417 38.13 189.629 37.805 189.005 37.155C188.389 36.4963 188.082 35.6947 188.082 34.75C188.082 33.8053 188.389 33.008 189.005 32.358C189.629 31.6993 190.417 31.37 191.371 31.37C192.315 31.37 193.069 31.6777 193.633 32.293V31.5H194.543V38H193.633V37.207C193.069 37.8223 192.315 38.13 191.371 38.13ZM191.41 37.285C191.912 37.285 192.354 37.1767 192.736 36.96C193.117 36.7433 193.416 36.4573 193.633 36.102V33.398C193.416 33.0427 193.117 32.7567 192.736 32.54C192.354 32.3233 191.912 32.215 191.41 32.215C190.708 32.215 190.131 32.462 189.681 32.956C189.239 33.4413 189.018 34.0393 189.018 34.75C189.018 35.4607 189.239 36.063 189.681 36.557C190.131 37.0423 190.708 37.285 191.41 37.285Z" fill="white" fill-opacity="0.7"/>
<path d="M163 4L164.796 9.52786H170.608L165.906 12.9443L167.702 18.4721L163 15.0557L158.298 18.4721L160.094 12.9443L155.392 9.52786H161.204L163 4Z" fill="#FFD04F"/>
<g clip-path="url(#clip0_4731_22328)">
<path d="M8.00031 19.9837C12.4096 19.9837 15.984 16.4093 15.984 12C15.984 7.59072 12.4096 4.0163 8.00031 4.0163C3.59103 4.0163 0.0166016 7.59072 0.0166016 12C0.0166016 16.4093 3.59103 19.9837 8.00031 19.9837Z" fill="#FC3F1D"/>
<path d="M10.8893 17.0119H9.1367V8.34373H8.35596C6.92485 8.34373 6.17522 9.05929 6.17522 10.1274C6.17522 11.3393 6.69225 11.9008 7.76188 12.6163L8.64336 13.2104L6.11003 17.0104H4.22559L6.50559 13.6178C5.19447 12.6815 4.4567 11.7674 4.4567 10.2252C4.4567 8.29781 5.8004 6.98669 8.3441 6.98669H10.8774V17.0089H10.8893V17.0119Z" fill="white"/>
</g>
<defs>
<clipPath id="clip0_4731_22328">
<rect width="16" height="16" fill="white" transform="translate(0 4)"/>
</clipPath>
</defs>
</svg>
