<svg width="20" height="20" viewBox="0 0 20 20" fill="none" xmlns="http://www.w3.org/2000/svg">
<path d="M10 10C10.9167 10 11.6667 9.25002 11.6667 8.33335C11.6667 7.41669 10.9167 6.66669 10 6.66669C9.08334 6.66669 8.33334 7.41669 8.33334 8.33335C8.33334 9.25002 9.08334 10 10 10ZM10 1.66669C13.5 1.66669 16.6667 4.35002 16.6667 8.50002C16.6667 11.15 14.625 14.2667 10.55 17.8584C10.2333 18.1334 9.75834 18.1334 9.44168 17.8584C5.37501 14.2667 3.33334 11.15 3.33334 8.50002C3.33334 4.35002 6.50001 1.66669 10 1.66669Z" fill="currentColor"/>
</svg>
