<svg width="15" height="46" viewBox="0 0 15 46" fill="none" xmlns="http://www.w3.org/2000/svg">
<path fill-rule="evenodd" clip-rule="evenodd" d="M8.50923 0.0288086C9.68327 0.0288086 10.6896 0.230073 11.5282 0.632601C12.3668 1.00159 13.0377 1.48797 13.5408 2.09177C14.044 2.66201 14.413 3.29935 14.6478 4.00377C14.8826 4.67465 15 5.31199 15 5.91578V24.4824C15 24.7172 14.9161 25.2539 14.7484 26.0925C14.5807 26.8976 14.1279 27.7194 13.3899 28.558C13.0209 28.927 12.4339 29.3127 11.6288 29.7153C10.8238 30.0842 9.78391 30.2687 8.50923 30.2687H6.64754V34.7082H11.9318V37.9623H6.64754V45.5145H2.16941V37.9623H0V34.7082H2.16941V31.4541H0V27.9541H2.16941V0.0288086H8.50923ZM10.0187 25.3881C10.1864 25.2204 10.3038 25.0526 10.3709 24.8849C10.4045 24.7843 10.438 24.7004 10.4716 24.6333V6.06673C10.438 5.6642 10.3374 5.36231 10.1697 5.16104C10.0019 4.95978 9.81745 4.80883 9.61619 4.7082C9.41492 4.60757 9.19689 4.55725 8.96208 4.55725C8.76081 4.52371 8.60987 4.50693 8.50923 4.50693H6.64754V25.7906H8.50923C8.77759 25.7906 9.04594 25.7738 9.31429 25.7403C9.61619 25.6732 9.85099 25.5558 10.0187 25.3881Z" fill="#AF403E"/>
</svg>
