<svg width="20" height="20" viewBox="0 0 20 20" fill="none" xmlns="http://www.w3.org/2000/svg">
<path fill-rule="evenodd" clip-rule="evenodd" d="M16.025 12.7171L13.9084 12.4755C13.4 12.4171 12.9 12.5921 12.5417 12.9505L11.0084 14.4838C8.65003 13.2838 6.7167 11.3588 5.5167 8.99212L7.05837 7.45046C7.4167 7.09212 7.5917 6.59212 7.53337 6.08379L7.2917 3.98379C7.1917 3.14212 6.48337 2.50879 5.63337 2.50879H4.1917C3.25003 2.50879 2.4667 3.29212 2.52503 4.23379C2.9667 11.3505 8.65837 17.0338 15.7667 17.4755C16.7084 17.5338 17.4917 16.7505 17.4917 15.8088V14.3671C17.5 13.5255 16.8667 12.8171 16.025 12.7171Z" fill="#322D29"/>
</svg>
