<svg width="20" height="20" viewBox="0 0 20 20" fill="none" xmlns="http://www.w3.org/2000/svg">
<path fill-rule="evenodd" clip-rule="evenodd" d="M16.025 12.7171L13.9083 12.4755C13.4 12.4171 12.9 12.5921 12.5417 12.9505L11.0083 14.4838C8.65 13.2838 6.71667 11.3588 5.51667 8.99212L7.05834 7.45046C7.41667 7.09212 7.59167 6.59212 7.53334 6.08379L7.29167 3.98379C7.19167 3.14212 6.48334 2.50879 5.63334 2.50879H4.19167C3.25 2.50879 2.46667 3.29212 2.525 4.23379C2.96667 11.3505 8.65834 17.0338 15.7667 17.4755C16.7083 17.5338 17.4917 16.7505 17.4917 15.8088V14.3671C17.5 13.5255 16.8667 12.8171 16.025 12.7171Z" fill="currentColor"/>
</svg>
