<svg width="24" height="24" viewBox="0 0 24 24" fill="none" xmlns="http://www.w3.org/2000/svg">
<path d="M11.9998 2C6.48579 2 1.99976 6.48604 1.99976 12C1.99976 17.514 6.48579 22 11.9998 22C17.5137 22 21.9998 17.514 21.9998 12C21.9998 6.48604 17.5137 2 11.9998 2ZM11.9998 3.5C16.7031 3.5 20.4998 7.2967 20.4998 12C20.4998 16.7033 16.7031 20.5 11.9998 20.5C7.29645 20.5 3.49976 16.7033 3.49976 12C3.49976 7.2967 7.29645 3.5 11.9998 3.5ZM11.738 5.98926C11.5393 5.99236 11.3499 6.07423 11.2115 6.21686C11.0731 6.3595 10.9969 6.55125 10.9998 6.75V12.75C10.9998 12.9489 11.0788 13.1397 11.2194 13.2803C11.3601 13.421 11.5508 13.5 11.7498 13.5H15.7498C15.8491 13.5014 15.9478 13.483 16.04 13.446C16.1323 13.4089 16.2162 13.3539 16.287 13.2841C16.3578 13.2143 16.414 13.1312 16.4523 13.0395C16.4907 12.9478 16.5104 12.8494 16.5104 12.75C16.5104 12.6506 16.4907 12.5522 16.4523 12.4605C16.414 12.3688 16.3578 12.2857 16.287 12.2159C16.2162 12.1461 16.1323 12.0911 16.04 12.054C15.9478 12.017 15.8491 11.9986 15.7498 12H12.4998V6.75C12.5012 6.64962 12.4825 6.54997 12.4447 6.45695C12.4069 6.36394 12.3508 6.27946 12.2798 6.20852C12.2088 6.13758 12.1242 6.08161 12.0312 6.04395C11.9381 6.00629 11.8384 5.98769 11.738 5.98926Z" fill="currentColor"/>
</svg>
