<svg width="131" height="12" viewBox="0 0 131 12" fill="none" xmlns="http://www.w3.org/2000/svg">
<path d="M0.136236 11.6298C0.424258 11.4861 0.707096 11.3795 0.984011 11.3114C1.26093 11.2433 1.54747 11.2092 1.84289 11.2092C2.16127 11.2092 2.81358 11.3247 3.79981 11.5565C4.78604 11.7875 5.61679 11.9037 6.29204 11.9037C7.88542 11.9037 9.173 11.5565 10.1555 10.8627C11.1381 10.1682 11.629 9.27527 11.629 8.18316C11.629 7.18952 11.1891 6.40838 10.3088 5.839C9.42844 5.27036 8.02535 4.86017 6.0988 4.60991C5.90185 4.58696 5.61308 4.5529 5.23399 4.50774C2.90539 4.21972 1.74071 3.61628 1.74071 2.69816C1.74071 2.12212 2.03466 1.64751 2.62255 1.27583C3.21044 0.904138 3.99009 0.718296 4.96078 0.718296C6.0988 0.718296 7.13612 0.921168 8.07274 1.32691C9.00937 1.73266 9.69055 2.26946 10.1155 2.93658H10.7641V0.160021C10.3925 0.31921 10.0511 0.433237 9.74015 0.501355C9.42918 0.569474 9.12561 0.603533 8.83018 0.603533C8.50366 0.603533 7.87209 0.51098 6.93546 0.324395C5.9981 0.138551 5.19993 0.0452576 4.54022 0.0452576C3.16675 0.0452576 2.06724 0.331801 1.24019 0.904141C0.413151 1.47722 0 2.22208 0 3.14019C0 4.0583 0.399824 4.7691 1.20021 5.25111C2.0006 5.73312 3.47773 6.10259 5.63233 6.36026C7.30863 6.56535 8.44295 6.83634 9.03454 7.17397C9.62613 7.5116 9.9223 8.01064 9.9223 8.67035C9.9223 9.40632 9.58097 10.0172 8.8983 10.5021C8.21564 10.9878 7.33159 11.23 6.24688 11.23C4.97262 11.23 3.83461 11.0004 2.83357 10.5414C1.83253 10.0823 1.14986 9.4811 0.78558 8.73773H0.136236V11.6283V11.6298Z" fill="#2B2B2B"/>
<path d="M26.2538 11.698V11.0494H26.1857C25.6393 11.0494 25.2624 10.9169 25.0536 10.651C24.8448 10.386 24.7404 9.88842 24.7404 9.16059V2.82265C24.7404 2.07927 24.8463 1.57505 25.0588 1.30924C25.2713 1.04417 25.6467 0.910897 26.185 0.910897H26.2531V0.25119H21.3604V0.910897H21.4285C21.975 0.910897 22.3518 1.04343 22.5606 1.30924C22.7694 1.57505 22.8738 2.07927 22.8738 2.82265V9.16059C22.8738 9.88916 22.7716 10.386 22.5665 10.651C22.3615 10.9169 21.9824 11.0494 21.4285 11.0494H21.3604V11.698H26.2531H26.2538Z" fill="#2B2B2B"/>
<path d="M43.7124 11.6977C45.3354 11.6977 46.6007 11.3697 47.507 10.7137C48.4133 10.0577 48.8664 9.14916 48.8664 7.98819C48.8664 7.29813 48.6517 6.6895 48.2237 6.16159C47.795 5.63441 47.2012 5.2568 46.443 5.0295C47.042 4.87031 47.5181 4.58599 47.8713 4.1758C48.2237 3.76635 48.4007 3.29989 48.4007 2.77642C48.4007 1.94197 48.0631 1.31262 47.3878 0.887618C46.7125 0.46262 45.7152 0.250122 44.395 0.250122H35.9973V0.909829H36.0543C36.4793 0.909829 36.7747 1.03496 36.942 1.28522C37.1086 1.53548 37.1923 2.04044 37.1923 2.79863V9.15953C37.1923 9.91846 37.1108 10.4227 36.9479 10.6729C36.7843 10.9232 36.4948 11.0483 36.0772 11.0483H35.998V11.6969H43.7124V11.6977ZM45.8114 6.05423C46.3534 6.51699 46.6252 7.13153 46.6252 7.89786C46.6252 8.9374 46.3105 9.72224 45.6804 10.2531C45.051 10.784 44.1174 11.0498 42.8816 11.0498H39.0581V5.36046H43.5984C44.5313 5.36046 45.2687 5.59221 45.8114 6.05497V6.05423ZM45.5442 1.44071C45.9536 1.79315 46.1587 2.23888 46.1587 2.7779C46.1587 3.36949 45.9158 3.83595 45.4301 4.17728C44.9444 4.51861 44.2655 4.68965 43.3933 4.68965H39.0581V0.912053H43.9737C44.6112 0.912053 45.1347 1.08827 45.5442 1.44145" fill="#2B2B2B"/>
<path d="M61.7503 11.0493V5.80349H62.9112C63.8516 5.80349 64.5424 5.91529 64.9822 6.1389C65.422 6.3625 65.6493 6.71346 65.6648 7.19103L66.3134 7.20214V3.77698H65.6648C65.6419 4.26269 65.4146 4.61735 64.9822 4.84095C64.5498 5.06456 63.8597 5.17636 62.9112 5.17636H61.7503V0.909354H65.5738C66.4689 0.909354 67.176 1.06854 67.6958 1.38692C68.2156 1.7053 68.6265 2.22877 68.9301 2.95734H69.5787V0.248901H58.7005V0.908613H58.8145C59.2092 0.908613 59.4861 1.03967 59.6453 1.30103C59.8045 1.5624 59.8844 2.06144 59.8844 2.79741V9.15831C59.8844 9.88614 59.8008 10.3837 59.6342 10.6488C59.4668 10.9146 59.1714 11.0471 58.7464 11.0471H58.7012V11.6957H69.5794V8.89621H68.9308C68.6272 9.66253 68.2178 10.2127 67.7017 10.5458C67.1857 10.8798 66.4763 11.0464 65.5738 11.0464H61.7503V11.0493Z" fill="#2B2B2B"/>
<path d="M80.6308 0.250863V0.910571H80.7448C81.1395 0.910571 81.4119 1.03422 81.5637 1.28004C81.7155 1.52659 81.791 2.03304 81.791 2.79937V9.16027C81.791 9.91105 81.7118 10.4138 81.5519 10.6678C81.3927 10.9217 81.1002 11.0491 80.676 11.0491H80.6308V11.6977H84.8297V11.0491H84.7845C84.3595 11.0491 84.0656 10.9225 83.9027 10.6678C83.7398 10.4138 83.6584 9.91105 83.6584 9.16027V6.17936H86.4571C86.9043 6.17936 87.3064 6.34077 87.6633 6.66285C88.0194 6.98567 88.4866 7.66241 89.0626 8.69381C89.1159 8.77748 89.1878 8.90261 89.2788 9.0692C90.3332 10.958 91.3875 11.9028 92.4419 11.9028C92.8817 11.9028 93.2689 11.8346 93.6029 11.6977C93.9368 11.5614 94.2589 11.3378 94.5698 11.0261L94.2855 10.5367C94.1715 10.613 94.0538 10.6692 93.9331 10.707C93.8117 10.7448 93.6754 10.764 93.5236 10.764C92.8713 10.764 92.1161 10.0813 91.2595 8.71602C91.0018 8.32138 90.8004 8.01041 90.656 7.7831C90.3376 7.32034 90.0607 6.96939 89.8253 6.73023C89.5898 6.49108 89.347 6.30745 89.0967 6.17862C90.4243 6.14086 91.4764 5.85654 92.2546 5.32492C93.032 4.79404 93.4207 4.09954 93.4207 3.24288C93.4207 2.25664 92.9713 1.51179 92.0724 1.00682C91.1736 0.502601 89.8438 0.250122 88.0846 0.250122H80.6315L80.6308 0.250863ZM90.3088 1.55917C90.8966 1.99158 91.1906 2.55281 91.1906 3.24288C91.1906 3.93294 90.8966 4.47937 90.3088 4.90437C89.7209 5.32936 88.9494 5.54186 87.9935 5.54186H83.6584V0.910571H87.9935C88.9494 0.910571 89.7209 1.12677 90.3088 1.55917Z" fill="#2B2B2B"/>
<path d="M107.966 11.698V11.0494H107.898C107.352 11.0494 106.975 10.9169 106.766 10.651C106.557 10.386 106.453 9.88842 106.453 9.16059V2.82265C106.453 2.07927 106.559 1.57505 106.771 1.30924C106.984 1.04417 107.359 0.910897 107.897 0.910897H107.966V0.25119H103.073V0.910897H103.141C103.687 0.910897 104.064 1.04343 104.273 1.30924C104.482 1.57505 104.586 2.07927 104.586 2.82265V9.16059C104.586 9.88916 104.484 10.386 104.279 10.651C104.074 10.9169 103.695 11.0494 103.141 11.0494H103.073V11.698H107.966H107.966Z" fill="#2B2B2B"/>
<path d="M122.489 2.4922L125.197 6.69109H120.214L122.49 2.4922H122.489ZM119.838 7.33969H125.618L126.756 9.13742C126.9 9.34992 127.006 9.54317 127.074 9.7179C127.142 9.89264 127.176 10.0555 127.176 10.2073C127.176 10.4576 127.089 10.6605 126.915 10.8159C126.74 10.9714 126.509 11.0492 126.221 11.0492H126.107V11.6978H131V11.0492C130.666 10.9885 130.351 10.8441 130.055 10.6168C129.759 10.3895 129.498 10.097 129.27 9.74086L123.126 0.0458679L118.437 8.62579C117.914 9.58167 117.457 10.2192 117.066 10.5375C116.675 10.8559 116.2 11.027 115.638 11.0499V11.6985H120.064V11.0499C119.632 11.027 119.287 10.927 119.029 10.7486C118.771 10.5701 118.642 10.345 118.642 10.0718C118.642 9.89709 118.683 9.69643 118.767 9.46838C118.851 9.24108 118.979 8.96046 119.154 8.62653L119.837 7.34043L119.838 7.33969Z" fill="#2B2B2B"/>
</svg>
