<svg width="35" height="26" viewBox="0 0 35 26" fill="none" xmlns="http://www.w3.org/2000/svg">
<path d="M22.5516 17.3411L22.5843 17.3084L22.617 17.3408L26.0953 13.8641L29.572 17.3408L29.6047 17.3084L29.6373 17.3411L34.092 12.8865L33.1237 11.9186L29.6047 15.4376L27.077 12.91L27.0855 12.9006L26.1186 11.9334L26.1108 11.9425L26.0862 11.9182L25.1038 12.9006L25.1119 12.91L22.5843 15.4376L20.0426 12.8959L20.052 12.8865L19.0841 11.9182L19.0743 11.9276L19.0652 11.9186L18.0973 12.8865L18.1068 12.8959L15.5653 15.4376L12.0462 11.9186L11.078 12.8865L15.5327 17.3411L15.5653 17.3084L15.5977 17.3411L19.0747 13.8641L22.5516 17.3411Z" fill="#AF403E"/>
<path d="M30.6173 21.3455L26.1613 16.8892L22.6189 20.3661L19.1406 16.8892L15.5986 20.3661L15.5747 20.3425L12.122 16.8898L7.60498 21.3468L8.57154 22.3134L12.0913 18.7936L15.5909 22.3127L15.6 22.3036L15.6091 22.3131L19.1096 18.7933L22.6115 22.3127L22.6361 22.2885L22.6439 22.2972L26.1296 18.794L29.6494 22.3134L30.6173 21.3455Z" fill="#AF403E"/>
<path d="M23.5748 11.4019L19.1188 6.94589L15.5765 10.4225L12.0981 6.94556L8.55613 10.4225L8.5322 10.3989L5.07949 6.94623L0.5625 11.4032L1.52905 12.3698L5.04882 8.85036L8.54871 12.3695L8.55747 12.3604L8.56657 12.3695L12.0671 8.85002L15.569 12.3695L15.5933 12.3449L15.6014 12.354L19.0871 8.85036L22.6069 12.3698L23.5748 11.4019Z" fill="#AF403E"/>
</svg>
