<svg width="34" height="27" viewBox="0 0 34 27" fill="none" xmlns="http://www.w3.org/2000/svg">
<path d="M5.53878 6.38535L5.52954 6.39494L10.4008 11.2662L10.399 14.369L8.68135 12.6534L7.99287 13.343L10.3983 15.7463L10.3969 18.0785L8.68135 16.3651L7.99287 17.0547L10.3962 19.4558L10.394 23.261V23.2745H11.5987L11.6008 19.4949L14.0521 17.0401L14.0613 17.0309L13.3718 16.3424L11.6015 18.1148L11.603 15.7815L14.0521 13.3288L14.0613 13.3195L13.3718 12.6311L11.6037 14.4013L11.6055 11.2687L16.4685 6.4056L16.4778 6.396L11.0029 0.922607L5.53878 6.38677V6.38535ZM7.56693 6.39494L11.004 2.95786L14.4411 6.39494L11.004 9.83202L7.56693 6.39494Z" fill="#AF403E"/>
<path d="M28.2105 6.40413L28.2197 6.39454L22.7545 0.930379L22.7449 0.921143L17.2807 6.3853L17.2715 6.39489L22.1427 11.2661L22.1402 15.6507L20.4229 13.9352L19.7345 14.6247L22.1395 17.028L22.136 23.2606V23.2741H23.3406L23.3442 17.0632L25.7937 14.6101L25.8029 14.6009L25.1134 13.9124L23.3449 15.6827L23.3474 11.2676L28.2105 6.40449V6.40413ZM19.3096 6.39454L22.7467 2.95746L26.1837 6.39454L22.7467 9.83162L19.3096 6.39454Z" fill="#AF403E"/>
</svg>
