<svg width="18" height="18" viewBox="0 0 18 18" fill="none" xmlns="http://www.w3.org/2000/svg">
<path d="M16.6092 2.35872C16.3392 2.12976 15.9151 2.097 15.4766 2.27304H15.4759C15.0148 2.45808 2.42196 7.85952 1.90932 8.0802C1.81608 8.1126 1.00176 8.41644 1.08564 9.09325C1.16052 9.70344 1.815 9.95616 1.89492 9.98532L5.0964 11.0815C5.3088 11.7886 6.0918 14.3971 6.26496 14.9544C6.37296 15.3018 6.549 15.7583 6.85752 15.8522C7.12824 15.9566 7.39752 15.8612 7.57176 15.7244L9.52908 13.909L12.6888 16.3732L12.764 16.4182C12.9786 16.5132 13.1842 16.5607 13.3804 16.5607C13.5319 16.5607 13.6774 16.5323 13.8163 16.4754C14.2897 16.281 14.4791 15.8299 14.4989 15.7788L16.859 3.51108C17.003 2.85588 16.8029 2.52252 16.6092 2.35872ZM7.91988 11.52L6.83988 14.4L5.75988 10.8L14.0399 4.68L7.91988 11.52Z" fill="currentColor"/>
</svg>
