<svg width="117" height="10" viewBox="0 0 117 10" fill="none" xmlns="http://www.w3.org/2000/svg">
<g clip-path="url(#clip0_1046_9725)">
<path fill-rule="evenodd" clip-rule="evenodd" d="M9.20693 4.87974C8.42223 4.39824 7.16631 4.05206 5.43916 3.84123L4.66752 3.75575C2.5877 3.51262 1.5478 3.0031 1.5478 2.22719C1.5478 1.74188 1.81004 1.34205 2.33451 1.02769C2.86049 0.712861 3.55527 0.556158 4.42337 0.556158C5.37737 0.544312 6.32363 0.719413 7.20248 1.07043C8.03842 1.41233 8.64679 1.86534 9.02759 2.42947H9.60632V0.0860501C9.31147 0.207828 9.00519 0.303217 8.6915 0.370965C8.42478 0.427268 8.15245 0.456398 7.87917 0.457862C7.30923 0.42194 6.74325 0.34286 6.18668 0.221382C5.48289 0.0786705 4.76625 -3.90711e-05 4.04659 -0.0136719C2.82181 -0.0136719 1.83968 0.22803 1.10019 0.711436C0.360698 1.19484 -0.00603187 1.82498 -3.43003e-06 2.60184C-0.0131264 2.9635 0.0800693 3.32151 0.269231 3.63611C0.458394 3.95071 0.736117 4.20959 1.07155 4.38399C1.78693 4.79142 3.10665 5.10388 5.03073 5.32136C6.52779 5.49516 7.54057 5.72451 8.06907 6.00943C8.31457 6.12707 8.51953 6.30842 8.65993 6.53221C8.80033 6.756 8.87036 7.01297 8.8618 7.27303C8.8618 7.89414 8.55687 8.40936 7.94699 8.81869C7.33711 9.22802 6.54688 9.43126 5.5763 9.42841C4.52935 9.44908 3.49013 9.25466 2.53044 8.85858C1.63722 8.46634 1.02734 7.95635 0.700803 7.32859H0.122073V9.76888C0.361702 9.65254 0.614497 9.56221 0.875628 9.49964C1.12673 9.44176 1.38428 9.41259 1.64275 9.41274C1.92809 9.41274 2.51084 9.51056 3.39099 9.7062C4.12013 9.88194 4.8678 9.9799 5.62001 9.99824C7.04272 9.99824 8.19265 9.70525 9.06979 9.11927C9.94692 8.5333 10.3855 7.7816 10.3855 6.86417C10.3855 6.02177 9.99264 5.3603 9.20693 4.87974ZM19.0785 0.719983H19.1388C19.6271 0.719983 19.9647 0.831102 20.1501 1.05618C20.3354 1.28127 20.4304 1.70579 20.4304 2.3383V7.689C20.4304 8.30299 20.3385 8.72324 20.1561 8.9469C19.9737 9.17056 19.6346 9.28595 19.1403 9.28595H19.08V9.83299H23.4506V9.28595H23.3888C22.9005 9.28595 22.5645 9.17341 22.3776 8.94975C22.1907 8.72609 22.0988 8.30584 22.0988 7.69185V2.33403C22.0988 1.70627 22.1937 1.27889 22.3836 1.05191C22.572 0.826829 22.9081 0.71571 23.3888 0.71571H23.4506V0.168673H19.08L19.0785 0.719983ZM41.4802 4.19737C41.9733 4.08637 42.4185 3.83472 42.7552 3.47654C42.9382 3.27454 43.0733 3.03779 43.1514 2.78226C43.2294 2.52672 43.2486 2.25835 43.2076 1.99522C43.1666 1.73209 43.0664 1.48033 42.9137 1.2569C42.7611 1.03348 42.5595 0.843594 42.3227 0.700041C41.7198 0.342948 40.8291 0.163924 39.6506 0.162974H32.1512V0.719983H32.2009C32.5807 0.719983 32.845 0.825402 32.9937 1.03624C33.1424 1.24708 33.2172 1.67445 33.2182 2.31836V7.689C33.2182 8.32864 33.1444 8.75458 32.9997 8.97112C32.855 9.18766 32.5943 9.28595 32.222 9.28595H32.1512V9.83299H39.0342C40.484 9.83299 41.6138 9.55615 42.4236 9.00246C43.2335 8.44878 43.6384 7.68188 43.6384 6.70177C43.6493 6.13867 43.4479 5.59026 43.0702 5.15468C42.6561 4.68956 42.1012 4.35548 41.4802 4.19737V4.19737ZM34.8836 0.719983H39.2738C39.7836 0.700394 40.2832 0.859147 40.6769 1.16588C40.8527 1.30275 40.9934 1.47552 41.0884 1.67118C41.1834 1.86684 41.2303 2.08032 41.2255 2.29556C41.2323 2.52836 41.1762 2.75896 41.0626 2.9656C40.9489 3.17223 40.7814 3.34807 40.5759 3.47654C40.1419 3.76145 39.5355 3.90391 38.7568 3.90391H34.8836V0.719983ZM40.799 8.60643C40.2373 9.05944 39.4039 9.28595 38.2987 9.28595H34.8836V4.47516H38.9392C39.7721 4.47516 40.4312 4.6708 40.9165 5.06209C41.1544 5.25244 41.3433 5.49138 41.4692 5.76087C41.595 6.03036 41.6544 6.32335 41.643 6.61772C41.643 7.49526 41.3616 8.15816 40.799 8.60643V8.60643ZM52.4278 0.719983H52.5288C52.8815 0.719983 53.1292 0.830151 53.2718 1.05049C53.4145 1.27082 53.4853 1.69202 53.4843 2.31408V7.68473C53.4843 8.29872 53.4105 8.71897 53.2613 8.94263C53.1121 9.16628 52.8483 9.27883 52.4685 9.27883H52.4278V9.82586H62.1427V7.4625H61.5639C61.2927 8.11068 60.9264 8.57366 60.4668 8.85573C60.0071 9.1378 59.3726 9.2831 58.5663 9.2831H55.1512V4.84982H56.1881C57.027 4.84982 57.6434 4.94479 58.0373 5.13474C58.2189 5.21144 58.3732 5.33618 58.4815 5.49392C58.5898 5.65165 58.6475 5.83563 58.6477 6.02368L59.2264 6.03365V3.14176H58.6477C58.6463 3.33064 58.5882 3.51527 58.4802 3.67415C58.3721 3.83304 58.2185 3.95965 58.0373 4.03924C57.6515 4.22919 57.0351 4.32416 56.1881 4.32416H55.1512V0.719983H58.5663C59.3651 0.719983 59.9966 0.85437 60.4607 1.12314C60.9249 1.39191 61.2927 1.834 61.5639 2.44942H62.1427V0.168673H52.4278V0.719983ZM83.8948 8.99106C83.7759 9.02379 83.6524 9.03963 83.5286 9.03808C82.9448 9.03808 82.2706 8.46207 81.506 7.31007C81.2754 6.97672 81.0961 6.71317 80.968 6.52228C80.7476 6.20648 80.499 5.90908 80.225 5.63334C80.0363 5.44608 79.817 5.28878 79.5754 5.1675C80.76 5.13521 81.6999 4.89494 82.3952 4.44667C83.0905 3.9984 83.4376 3.41243 83.4366 2.68875C83.4366 1.85679 83.0347 1.22761 82.2309 0.801185C81.4272 0.374762 80.2406 0.163925 78.6712 0.168673H72.0142V0.725683H72.1152C72.4679 0.725683 72.712 0.829677 72.8477 1.03766C72.9833 1.24565 73.0511 1.67302 73.0511 2.31978V7.69042C73.0511 8.32436 72.9788 8.74746 72.8371 8.96257C72.6955 9.17768 72.4347 9.28595 72.0549 9.28595H72.0142V9.83299H75.7639V9.28595H75.7232C75.3435 9.28595 75.0812 9.17863 74.9365 8.96399C74.7858 8.74888 74.718 8.32579 74.718 7.69185V5.1675H77.2168C77.6191 5.16931 78.0051 5.31782 78.2944 5.58206C78.6119 5.85557 79.0288 6.4254 79.5453 7.29155C79.592 7.36277 79.6568 7.46819 79.7382 7.60923C80.6786 9.2019 81.6201 9.99824 82.5625 9.99824C82.9168 10.0047 83.269 9.94562 83.5994 9.82444C83.9249 9.69131 84.2186 9.4975 84.463 9.25461L84.2098 8.84148C84.1125 8.9047 84.0065 8.95503 83.8948 8.99106ZM78.5898 4.62902H74.718V0.719983H78.5898C79.4428 0.719983 80.132 0.902328 80.6575 1.26702C80.9037 1.42399 81.1046 1.6364 81.2422 1.8851C81.3798 2.1338 81.4497 2.41096 81.4457 2.69159C81.4491 2.96915 81.3787 3.24307 81.241 3.48823C81.1033 3.7334 80.9027 3.94196 80.6575 4.0948C80.132 4.45094 79.4428 4.62902 78.5898 4.62902V4.62902ZM92.0588 0.719983H92.1191C92.6074 0.719983 92.9435 0.831102 93.1304 1.05618C93.3172 1.28127 93.4092 1.70579 93.4092 2.3383V7.689C93.4092 8.30299 93.3188 8.72324 93.1349 8.9469C92.951 9.17056 92.6134 9.2831 92.1191 9.2831H92.0588V9.83014H96.4294V9.28595H96.3691C95.8808 9.28595 95.5437 9.17389 95.3579 8.94975C95.171 8.72609 95.0776 8.30584 95.0776 7.69185V2.33403C95.0776 1.70627 95.1725 1.27889 95.3624 1.05191C95.5523 0.826829 95.8869 0.71571 96.3691 0.71571H96.4294V0.168673H92.0588V0.719983ZM116.156 8.91414C115.879 8.70767 115.641 8.45697 115.455 8.17336L109.968 -0.0108243L105.781 7.23314C105.312 8.03945 104.903 8.57699 104.556 8.84576C104.193 9.11767 103.744 9.26798 103.281 9.27313V9.82017H107.234V9.28595C106.906 9.28324 106.586 9.19498 106.309 9.03095C106.204 8.97188 106.118 8.88845 106.057 8.78867C105.997 8.68888 105.964 8.57609 105.963 8.46112C105.969 8.28679 106.007 8.11474 106.075 7.95255C106.174 7.70863 106.29 7.47075 106.42 7.24026L107.023 6.15473H112.186L113.202 7.67191C113.315 7.82532 113.41 7.98958 113.487 8.16196C113.544 8.29315 113.575 8.43326 113.577 8.57509C113.581 8.67181 113.562 8.76811 113.522 8.85704C113.481 8.94598 113.421 9.02532 113.344 9.08936C113.173 9.22462 112.955 9.29472 112.732 9.28595H112.629V9.83299H117V9.28595C116.691 9.22835 116.401 9.10077 116.156 8.91414V8.91414ZM107.367 5.59915L109.398 2.05481L111.809 5.59915H107.367Z" fill="currentColor"/>
</g>
<defs>
<clipPath id="clip0_1046_9725">
<rect width="117" height="10" fill="white"/>
</clipPath>
</defs>
</svg>
