<svg width="32" height="42" viewBox="0 0 32 42" fill="none" xmlns="http://www.w3.org/2000/svg">
<g clip-path="url(#clip0_1046_9674)">
<path fill-rule="evenodd" clip-rule="evenodd" d="M1.54125 5.60858C1.42989 5.64682 2.3335 6.39707 2.94503 6.45534C3.50179 6.50997 3.8961 6.4171 4.0038 6.18765C4.06587 6.05837 3.23163 6.23682 2.78621 6.0875C2.6347 6.03469 2.69859 5.79979 2.85193 5.84713C3.19146 5.95275 3.94721 6.13485 4.1042 5.87627C4.14253 5.80889 4.07864 5.69417 4.0184 5.63226C3.803 5.41738 3.45981 5.37004 3.19329 5.35365C2.63221 5.34606 2.07381 5.43223 1.54125 5.60858ZM16.7802 5.06229C17.0084 4.88019 17.4392 4.52692 17.5104 4.21189C17.6437 3.57455 17.0412 2.11959 16.9135 2.1469C16.5374 2.22703 15.6046 2.92992 15.3144 3.62554C15.1921 3.92054 15.3874 4.43952 15.5517 4.64893C15.5809 4.68535 15.6484 4.67624 15.6429 4.6289C15.6046 4.27873 15.6306 3.92453 15.7196 3.58366C15.7726 3.43434 16.0117 3.49989 15.9588 3.65103C15.8239 4.06169 15.7718 4.49489 15.8054 4.92572C15.8291 5.12238 15.988 5.22982 16.0172 5.08596C16.0878 4.49124 16.2306 3.90728 16.4425 3.34693C16.5009 3.19943 16.7419 3.26498 16.6816 3.41248C16.4443 4.00612 16.0738 5.11874 16.1924 5.25713C16.2161 5.28263 16.2636 5.27352 16.2946 5.25713C16.4608 5.19704 16.5447 4.93846 16.5977 4.75272C16.667 4.51235 16.7437 4.2902 16.8039 4.02433C16.8405 3.86773 17.065 3.93328 17.0449 4.08989C16.9641 4.40344 16.8528 4.70838 16.7127 5.00038C16.7078 5.00962 16.7061 5.0202 16.7079 5.03048C16.7097 5.04076 16.7149 5.05017 16.7226 5.05723C16.7303 5.06429 16.7401 5.06861 16.7505 5.06953C16.761 5.07044 16.7714 5.0679 16.7802 5.06229ZM0.690581 8.40196C0.778203 8.42564 1.99214 8.21987 2.15095 8.19619C2.66756 8.15249 2.69859 7.9012 2.62375 7.67722C2.47588 7.35126 2.01222 7.55339 1.82054 7.66265C1.79234 7.6774 1.75952 7.68078 1.72889 7.67207C1.69826 7.66337 1.67215 7.64325 1.65597 7.61589C1.63979 7.58852 1.63478 7.55599 1.64197 7.52504C1.64916 7.49409 1.66799 7.46708 1.69459 7.44959C1.87915 7.35173 2.08627 7.30401 2.29516 7.3112C2.30486 7.31113 2.31433 7.30821 2.32237 7.30281C2.33042 7.2974 2.33668 7.28975 2.34038 7.2808C2.34409 7.27186 2.34507 7.26203 2.34319 7.25253C2.34132 7.24304 2.33667 7.23431 2.32985 7.22743C1.87348 6.7649 1.39339 7.16552 1.25648 7.29481C0.785506 7.73913 0.613912 8.37647 0.690581 8.40196ZM5.80188 5.87263C5.3475 5.83219 4.89194 5.93608 4.50032 6.16945C4.68864 6.529 4.90534 6.87303 5.14836 7.1983C5.50433 7.56249 5.82013 7.3458 5.99173 7.12364C6.03796 7.05899 6.08003 6.99148 6.11768 6.92151C5.91471 6.79023 5.69727 6.68269 5.46965 6.60102C5.31813 6.55003 5.38385 6.30966 5.53536 6.36247C5.77564 6.44612 6.00536 6.55734 6.21991 6.69389C6.34221 6.34608 6.355 5.93272 5.79458 5.87263H5.80188ZM1.5741 9.74949C2.04872 9.56739 2.41747 9.56739 3.10932 9.29424C3.22684 9.2433 3.32812 9.1612 3.40215 9.05686C3.47617 8.95252 3.52011 8.82993 3.52918 8.70243C3.52919 8.67757 3.52346 8.65304 3.51244 8.63075C3.50143 8.60845 3.48542 8.58898 3.46566 8.57384C3.4459 8.5587 3.4229 8.5483 3.39846 8.54344C3.37403 8.53858 3.3488 8.5394 3.32473 8.54582C3.25719 8.56403 3.19147 8.5877 3.14218 8.60227C2.99433 8.64456 2.85259 8.70577 2.72049 8.78437C2.69193 8.80103 2.6579 8.80569 2.6259 8.79733C2.59389 8.78896 2.56652 8.76825 2.54981 8.73976C2.53311 8.71126 2.52844 8.67731 2.53683 8.64538C2.54522 8.61345 2.56598 8.58616 2.59454 8.56949C2.77709 8.46024 3.48537 8.49119 3.30647 8.29453C3.12758 8.09786 2.37731 8.24354 2.02865 8.54218C1.64165 8.86267 1.45727 9.79501 1.5741 9.74949ZM6.70731 5.54121C6.68358 5.5321 6.49556 6.5992 6.34222 6.92333C6.06475 7.53336 6.52476 8.14521 6.74564 8.12518C6.91321 8.10748 7.0796 8.08012 7.244 8.04323C6.9635 7.80984 6.78322 7.47818 6.74017 7.11635C6.72739 6.95611 6.97565 6.95793 6.99025 7.11635C7.01612 7.2923 7.08058 7.46038 7.17902 7.60863C7.27747 7.75688 7.40748 7.88165 7.5598 7.97403C7.65837 7.954 7.75877 7.93579 7.86465 7.92487C7.54625 7.57227 7.34257 7.13161 7.2805 6.66111C7.25312 6.50451 7.49225 6.43713 7.51964 6.59373C7.57576 7.10232 7.82297 7.5708 8.21149 7.90484C8.21149 7.90484 8.21149 7.90484 8.21149 7.91394C8.25712 7.91394 8.29911 7.91394 8.3484 7.91394C8.61857 7.94308 8.61491 7.13821 8.22244 6.57734C7.8683 6.06019 7.09978 5.67232 6.70731 5.54121ZM6.42254 10.5744C6.84787 10.4633 7.07422 10.2102 7.08518 9.94251C7.08803 9.88587 7.06959 9.83021 7.03346 9.78642C6.99733 9.74264 6.94612 9.71388 6.88986 9.70578C6.62534 9.68246 6.36046 9.74644 6.13594 9.88788C6.01181 9.98622 5.83474 9.8114 5.95339 9.70578C6.07205 9.60017 6.43166 9.54918 6.70001 9.52369C6.71797 9.5222 6.73524 9.51609 6.75012 9.50594C6.765 9.4958 6.77699 9.48197 6.7849 9.46581C6.79281 9.44966 6.79638 9.43173 6.79526 9.41378C6.79414 9.39584 6.78836 9.37849 6.7785 9.36344C6.55579 9.0648 5.9041 9.23415 5.53901 9.50912C5.33783 9.66946 5.18369 9.88092 5.09278 10.1212C5.00187 10.3616 4.97756 10.6219 5.02241 10.8749C5.49397 10.7987 5.9613 10.6984 6.42254 10.5744ZM8.2699 8.46024C8.57476 8.52579 9.04573 8.9082 9.17168 9.0211C9.35423 9.19227 9.00191 8.32548 8.60031 8.20348C8.01799 8.02138 6.8716 8.3528 6.51016 8.46024C6.38237 8.49848 7.17828 9.56375 7.57075 9.71307C7.95054 9.86407 8.3726 9.87119 8.7573 9.7331C8.77551 9.72473 8.79111 9.71161 8.80246 9.69513C8.81382 9.67865 8.8205 9.65942 8.82181 9.63947C8.82312 9.61952 8.819 9.59958 8.80989 9.58177C8.80079 9.56395 8.78704 9.54892 8.77008 9.53825C8.49495 9.4035 8.19305 9.33194 7.88656 9.32884C7.72592 9.32884 7.72592 9.07573 7.88656 9.08119C8.23887 9.09211 8.84127 9.35251 9.10049 9.48727C9.1443 9.51094 9.18628 9.45085 9.1735 9.36344C9.14247 9.14857 8.55832 8.77526 8.20418 8.69878C8.0472 8.66601 8.11474 8.42564 8.2699 8.46024ZM6.29475 8.5877C6.29834 8.53496 6.29834 8.48203 6.29475 8.42928C6.29491 8.41079 6.28963 8.39266 6.27957 8.37713C6.26952 8.36159 6.25512 8.34934 6.23816 8.34187C5.91012 8.23343 5.55444 8.24245 5.23233 8.36737C5.08447 8.42746 5.01876 8.18527 5.16662 8.127C5.40758 8.03049 5.80736 8.08329 6.10308 8.127C6.1907 8.13974 6.18158 7.9449 6.12499 7.88116C5.94244 7.67357 5.62663 7.61712 5.1867 7.74641C4.56056 7.92851 3.98554 8.71881 3.94538 8.82807C4.36744 8.97511 4.80094 9.08717 5.24146 9.16313C5.83291 9.27239 6.25642 9.0211 6.29475 8.5877ZM10.9241 4.37032C10.1264 3.84223 8.36847 3.96242 8.23704 4.00612C8.10561 4.04983 8.13847 5.55942 8.57475 6.11482C8.80659 6.40799 9.33597 6.66111 9.88361 6.67932C9.90225 6.67973 9.92055 6.67432 9.93595 6.66385C9.95135 6.65338 9.9631 6.63837 9.96953 6.62091C9.97597 6.60346 9.97678 6.58444 9.97184 6.56651C9.96691 6.54858 9.95649 6.53263 9.94203 6.52089C9.71224 6.35352 9.49391 6.17101 9.28851 5.9746C9.18081 5.85624 9.35605 5.68142 9.47106 5.7925C9.76678 6.11664 10.0716 6.46991 10.4623 6.5992C10.5024 6.61194 10.7051 6.62469 10.6266 6.49904C10.3098 5.98886 9.92954 5.52078 9.49479 5.10599C9.34145 4.95667 9.42542 4.76547 9.57146 4.86562C10.1866 5.28627 10.455 5.85988 10.7525 6.34426C10.7592 6.35724 10.7696 6.36792 10.7824 6.37494C10.7952 6.38195 10.8099 6.38496 10.8244 6.38359C10.839 6.38222 10.8528 6.37652 10.864 6.36723C10.8753 6.35795 10.8835 6.34551 10.8876 6.33151C11.0702 5.75973 10.612 5.16609 10.2085 4.88566C10.0789 4.79461 10.2085 4.57973 10.3345 4.67078C10.7191 4.99509 10.9833 5.43886 11.0848 5.9309C11.103 6.02559 11.2271 5.85624 11.2545 5.70692C11.3476 5.19704 11.3111 4.61615 10.9241 4.37032ZM3.80482 4.68171C3.89609 5.1151 4.16991 5.65411 4.71755 5.75062C4.9178 5.79762 5.12777 5.78107 5.31813 5.70327C5.57369 5.6104 4.81795 5.4884 4.6208 5.27899C4.51127 5.16244 4.68652 4.98763 4.80335 5.09689C4.99041 5.29541 5.23475 5.43096 5.5025 5.48476C5.59288 5.50826 5.68853 5.50116 5.77443 5.46458C5.86033 5.42799 5.93162 5.364 5.97712 5.28263C6.00911 5.21618 6.02012 5.14161 6.00871 5.06878C5.9973 4.99594 5.96401 4.92828 5.91323 4.87473C5.50798 4.37032 3.78474 4.58337 3.803 4.6726L3.80482 4.68171ZM17.7495 8.37647C17.8627 8.16524 17.9668 7.89027 18.153 7.74095C18.2771 7.6408 18.4542 7.81561 18.3355 7.92305C18.1466 8.06924 17.9932 8.25595 17.8864 8.46934C17.8744 8.49227 17.8696 8.51825 17.8726 8.54395C17.8756 8.56964 17.8862 8.59385 17.9031 8.61346C17.92 8.63306 17.9424 8.64716 17.9674 8.65393C17.9924 8.66071 18.0189 8.65984 18.0434 8.65144C18.2832 8.53927 18.4965 8.37795 18.6696 8.17798C18.9032 7.92305 19.062 7.12728 19.0347 7.12364C18.6213 7.12765 18.2208 7.26785 17.8956 7.52243C17.7215 7.76424 17.6387 8.05965 17.6619 8.35644C17.6638 8.36573 17.6683 8.37428 17.6749 8.38107C17.6815 8.38786 17.69 8.3926 17.6992 8.39471C17.7085 8.39683 17.7182 8.39623 17.7271 8.393C17.736 8.38976 17.7438 8.38402 17.7495 8.37647ZM11.1194 10.8603C11.5057 11.1761 11.9673 11.3869 12.4593 11.4721C12.5743 11.4849 12.651 11.3811 12.5141 11.29C12.3316 11.1717 12.1016 11.1079 11.9154 10.9932C11.6362 10.8512 11.3856 10.6593 11.176 10.4269C11.0793 10.3012 11.2527 10.1246 11.3586 10.2448C11.5211 10.4506 12.2056 10.9841 12.4539 11.0387C12.5159 11.0533 12.5342 10.9331 12.5196 10.873C12.4265 10.4979 12.0997 10.1446 11.6068 9.88606C11.1614 9.64387 10.2633 9.66572 9.75583 9.66026C9.64265 9.66026 10.2031 11.0041 10.7069 11.3902C10.8961 11.5454 11.116 11.6592 11.3522 11.7241C11.5883 11.789 11.8356 11.8037 12.0778 11.7671C12.2512 11.738 12.2604 11.6196 12.1855 11.596C11.7618 11.4808 11.3576 11.3035 10.9862 11.0697C10.8694 10.9823 10.9898 10.7674 11.1194 10.8603ZM17.6619 7.32212C17.6984 7.30756 17.7623 7.26567 17.7495 7.23108C17.6051 6.9104 17.5478 6.55745 17.5834 6.20769C17.609 6.04926 17.8499 6.11664 17.8225 6.27324C17.7587 6.55778 17.8037 6.85582 17.9485 7.10907C17.9586 7.12207 17.9734 7.13066 17.9897 7.13304C18.0061 7.13542 18.0227 7.13139 18.0361 7.12182C18.3738 6.87598 18.4195 6.59191 18.2479 5.82528C18.2223 5.7051 18.0361 4.65439 17.9832 4.6726C17.0851 5.0113 16.3567 5.54667 16.0445 6.04562C15.6338 6.70663 15.9022 7.21104 16.061 7.3458C16.1376 7.42023 16.229 7.47782 16.3293 7.51483C16.4296 7.55184 16.5366 7.56746 16.6433 7.56067C16.6628 7.56026 16.6818 7.55447 16.6982 7.54396C16.7147 7.53344 16.7278 7.5186 16.7363 7.50108C16.7448 7.48356 16.7483 7.46404 16.7464 7.44467C16.7445 7.4253 16.7372 7.40684 16.7254 7.39132C16.5229 7.14473 16.3961 6.84499 16.3603 6.52818C16.364 6.49769 16.3788 6.46961 16.4019 6.44924C16.4249 6.42887 16.4546 6.41763 16.4854 6.41763C16.5162 6.41763 16.5459 6.42887 16.5689 6.44924C16.592 6.46961 16.6067 6.49769 16.6104 6.52818C16.6104 6.87052 16.762 7.33123 17.1015 7.48055C17.2439 7.54246 17.3607 7.43867 17.3187 7.38768C16.9865 6.99071 16.7364 6.30966 17.0266 5.76883C17.1015 5.62861 17.3169 5.75244 17.2402 5.89448C17.0029 6.33698 17.1891 6.89602 17.4958 7.28024C17.5154 7.30402 17.542 7.32092 17.5719 7.32846C17.6018 7.336 17.6334 7.33378 17.6619 7.32212ZM14.9456 4.06257C14.9445 4.05811 14.9423 4.05396 14.9394 4.05043C14.9364 4.0469 14.9327 4.04407 14.9285 4.04215C14.9243 4.04023 14.9197 4.03927 14.9151 4.03934C14.9105 4.03941 14.9059 4.0405 14.9018 4.04254C14.6273 4.21997 14.4049 4.46694 14.2574 4.75819C14.1888 4.90733 14.1558 5.07035 14.1612 5.23438C14.1666 5.39841 14.2102 5.55894 14.2885 5.70327C14.3998 5.88537 14.7521 6.06747 14.6882 5.93272C14.5446 5.6692 14.4669 5.37495 14.4619 5.07504C14.4765 4.91843 14.7247 4.91661 14.7101 5.07504C14.6699 5.35754 14.7091 5.64564 14.8233 5.90722C14.9292 6.12938 15.0844 6.18948 15.161 6.18219C15.2377 6.17491 14.9931 5.93636 14.9511 5.4538C14.9383 5.29538 15.1975 5.29538 15.2012 5.4538C15.205 5.61304 15.2302 5.77105 15.276 5.92361C15.295 6.05847 15.3527 6.18497 15.4421 6.28781C15.4421 6.28781 15.4841 6.31877 15.4951 6.32423C15.5205 6.33121 15.5473 6.33205 15.5731 6.32668C15.5989 6.3213 15.6231 6.30986 15.6436 6.29331C15.6641 6.27676 15.6804 6.25557 15.6911 6.23149C15.7018 6.20742 15.7065 6.18116 15.705 6.15488C15.7178 5.88355 15.5973 5.01495 15.1026 4.46683C15.0152 4.34841 14.961 4.20886 14.9456 4.06257ZM3.8888 7.06172C4.21373 7.19283 4.88367 7.5807 4.8928 7.32759C4.8928 7.1637 4.67009 6.43531 3.75006 6.57188C3.31238 6.67279 2.89092 6.83398 2.49779 7.0508C2.47771 7.06537 3.24988 7.92851 3.72268 8.0141C3.89195 8.04891 4.06721 8.04172 4.23305 7.99314C4.39888 7.94455 4.55022 7.85608 4.67374 7.73549C4.68891 7.71948 4.69945 7.69969 4.70425 7.67819C4.70905 7.6567 4.70792 7.63431 4.701 7.6134C4.69408 7.59249 4.68161 7.57384 4.66492 7.55943C4.64823 7.54502 4.62794 7.53538 4.6062 7.53154C4.33841 7.48018 4.07617 7.40334 3.82308 7.30209C3.67521 7.24382 3.73911 7.00345 3.8888 7.06172ZM3.64601 12.3954C4.42 12.4409 5.13193 12.5775 5.55909 12.3826C5.8895 12.2351 6.16332 11.9055 5.98808 11.545C5.9635 11.5027 5.92912 11.4669 5.88783 11.4406C5.84655 11.4143 5.79954 11.3983 5.75076 11.3938C5.42989 11.4074 5.12385 11.5324 4.8855 11.7471C4.77414 11.8618 4.59707 11.6852 4.70295 11.565C4.85446 11.4102 5.20313 11.3028 5.47512 11.2318C5.52258 11.219 5.43496 11.117 5.3875 11.1025C4.95304 10.9623 4.35429 11.2136 4.18635 11.3337C3.80665 11.6123 3.4379 12.3826 3.64601 12.3954ZM6.95192 13.1784C7.17732 13.1597 7.38926 13.0636 7.55167 12.9066C7.71408 12.7495 7.81694 12.5412 7.84275 12.3171C7.85735 12.2351 7.89203 12.175 7.85187 12.1022C7.74052 11.9037 7.1947 12.2479 6.95374 12.4427C6.82961 12.5429 6.65254 12.3681 6.7712 12.2606C7.01581 12.0621 7.72774 11.9456 7.41924 11.8363C7.34622 11.809 7.32796 11.8108 7.06875 11.809C6.15602 11.809 5.9041 12.5793 5.74711 13.1784C6.1471 13.2292 6.55194 13.2292 6.95192 13.1784ZM27.0703 5.69417C27.2607 5.77196 27.4707 5.78852 27.6709 5.74152C28.2076 5.645 28.4906 5.10599 28.5837 4.6726C28.6019 4.58337 26.8787 4.36121 26.4844 4.87291C26.4336 4.92646 26.4003 4.99412 26.3889 5.06695C26.3775 5.13979 26.3885 5.21436 26.4205 5.28081C26.466 5.36218 26.5373 5.42617 26.6232 5.46276C26.7091 5.49934 26.8047 5.50644 26.8951 5.48294C27.1617 5.42979 27.4053 5.29557 27.5924 5.09871C27.7019 4.98217 27.8772 5.15698 27.775 5.28081C27.5705 5.47929 26.8148 5.6013 27.0703 5.69417ZM2.34263 10.975C2.77344 10.7437 3.58577 10.7437 4.09507 10.6727C4.60438 10.6017 4.98955 10.1501 4.98225 9.78773C4.98133 9.74389 4.96359 9.70208 4.93269 9.67091C4.90178 9.63974 4.86006 9.62159 4.81613 9.6202C4.45352 9.62125 4.09995 9.7331 3.803 9.94069C3.67339 10.0372 3.54926 9.82233 3.67704 9.72764C3.91854 9.58538 4.18386 9.4879 4.46017 9.43992C4.54231 9.42171 4.46016 9.28878 4.37254 9.26693C3.56386 9.03931 2.95233 9.53279 2.65661 10.0354C2.5343 10.243 2.22397 11.0387 2.34263 10.9732V10.975ZM8.25895 10.8712C8.6574 10.6935 9.08936 10.6028 9.52582 10.6053C9.53309 10.5601 9.53309 10.514 9.52582 10.4688C9.35089 10.422 9.17023 10.3999 8.98914 10.4032C8.67093 10.3942 8.35323 10.4342 8.0472 10.5216C8.01605 10.5286 7.98339 10.5234 7.956 10.507C7.92861 10.4906 7.9086 10.4643 7.90014 10.4336C7.89168 10.4029 7.89541 10.3701 7.91056 10.3421C7.9257 10.314 7.95111 10.2929 7.98148 10.283C8.41303 10.1508 8.86702 10.1074 9.31589 10.1556C8.96358 9.90791 8.27355 9.9589 7.86465 10.0499C7.13447 10.2138 6.84422 10.7783 6.57588 11.5286C6.52659 11.6633 7.65655 11.5869 8.16585 11.5286C8.71349 11.4685 9.23922 11.1881 9.44368 10.853C9.08071 10.8615 8.7229 10.9407 8.39039 11.0861C8.23887 11.1462 8.11292 10.9258 8.25895 10.8694V10.8712ZM21.844 14.5423C21.9663 14.5113 22.0357 13.8339 21.9152 13.426C21.7509 12.8797 20.2814 11.9511 20.2723 12.4755C20.2723 12.5902 21.0792 12.9034 21.2982 13.2294C21.3877 13.3623 21.1723 13.4861 21.0828 13.355C20.8254 12.969 20.2322 12.5665 19.7794 12.5756C19.7243 12.5745 19.6701 12.5904 19.6243 12.6212C19.4709 12.7486 20.265 13.0837 20.4603 13.304C20.5662 13.4242 20.391 13.599 20.2778 13.4861C20.1252 13.3262 19.9499 13.1894 19.7575 13.0801C19.5932 12.9854 19.3395 12.745 19.2099 12.7978C19.1478 12.8197 19.0936 12.8597 19.0546 12.9126C19.0155 12.9655 18.9933 13.0289 18.9908 13.0946C18.9781 13.3951 19.2628 14.118 21.0427 14.3493C21.2635 14.3675 21.8057 14.5496 21.844 14.5405V14.5423ZM17.9887 14.4494C17.8189 14.2673 17.8244 13.843 17.6674 13.8248C17.5761 13.8139 17.5414 14.027 17.5287 14.1016C17.517 14.202 17.5264 14.3037 17.5562 14.4003C17.5861 14.4968 17.6357 14.5861 17.7021 14.6625C17.954 14.9684 18.1237 15.0595 18.3738 15.3654C18.4396 15.4437 18.5235 15.562 18.6221 15.6658C18.655 15.7004 19.2537 14.7135 18.9087 13.8248C18.8513 13.695 18.7666 13.5788 18.6604 13.4843C18.4779 13.315 18.2862 13.3022 18.2461 13.4279C18.173 13.6573 18.54 13.8048 18.6257 14.0324C18.6823 14.1836 18.4432 14.2473 18.3866 14.0998C18.3026 13.8776 18.1548 13.5535 17.9941 13.528C17.9729 13.5263 17.9518 13.5318 17.9342 13.5437C17.9166 13.5557 17.9036 13.5733 17.8974 13.5936C17.8951 13.8458 17.9906 14.0892 18.1639 14.2728C18.268 14.3857 18.0927 14.5678 17.9887 14.4494ZM20.1993 11.6014C20.1281 11.6251 20.1336 11.7435 20.307 11.7726C20.5492 11.8092 20.7965 11.7945 21.0326 11.7296C21.2688 11.6646 21.4887 11.5509 21.6779 11.3957C22.1818 11.0096 22.7422 9.6639 22.629 9.66572C22.1215 9.66572 21.2234 9.64933 20.778 9.89152C20.2924 10.1574 19.9656 10.5034 19.8652 10.8785C19.8506 10.9386 19.8652 11.0606 19.931 11.0442C20.1847 10.9896 20.8692 10.456 21.0262 10.2503C21.1266 10.1246 21.3001 10.3012 21.2088 10.4324C20.9992 10.6647 20.7486 10.8567 20.4695 10.9987C20.2869 11.1043 20.0514 11.1808 19.8707 11.2955C19.7338 11.3847 19.8105 11.4885 19.9255 11.4776C20.4213 11.3923 20.8862 11.1795 21.2745 10.8603C21.4041 10.7674 21.5282 10.9823 21.4005 11.0752C21.0262 11.3098 20.6189 11.4871 20.192 11.6014H20.1993ZM19.7703 14.6825C19.6535 14.5714 19.5367 14.3438 19.3815 14.3912C19.2263 14.4385 19.3614 14.7554 19.4709 14.83C19.7009 14.9884 20.2285 15.318 20.2449 15.2816C20.2928 15.151 20.3131 15.012 20.3046 14.8731C20.2962 14.7343 20.2591 14.5988 20.1956 14.4749C20.0332 14.2655 19.5951 14.0251 19.5713 14.2163C19.5513 14.3748 19.8324 14.3984 19.9456 14.5077C20.0587 14.617 19.8798 14.7936 19.763 14.6825H19.7703ZM18.7645 10.7437C18.7542 10.751 18.7466 10.7616 18.743 10.7737C18.7394 10.7857 18.74 10.7987 18.7446 10.8104C18.7492 10.8221 18.7577 10.832 18.7685 10.8384C18.7794 10.8448 18.7921 10.8474 18.8046 10.8457C19.4107 10.7365 20.1135 10.3832 20.3271 9.65844C20.3618 9.53643 20.5954 8.22897 20.6356 7.95947C20.6538 7.8411 19.4143 8.11607 18.9105 8.34187C18.6115 8.47534 18.3511 8.68205 18.1535 8.94278C17.956 9.20351 17.8277 9.50982 17.7806 9.83325C17.7605 9.94798 17.7806 10.0663 17.8463 9.96983C18.0499 9.64922 18.2821 9.34754 18.54 9.06844C18.655 8.95736 18.832 9.13218 18.7225 9.25054C18.4488 9.50728 18.2012 9.79029 17.9832 10.0955C17.8953 10.2007 17.8251 10.3194 17.7751 10.4469C17.755 10.5362 17.7386 10.6818 17.8791 10.5962C18.3538 10.3067 18.9653 9.60563 19.4728 9.0557C19.5823 8.93915 19.7466 9.1085 19.6553 9.23779C19.1734 9.846 18.518 10.3577 17.9467 10.8111C17.9065 10.8421 17.9631 10.8749 18.111 10.8657C18.6221 10.8384 19.0766 10.365 19.4125 10.0008C19.5221 9.88424 19.6973 10.0591 19.5951 10.1829C19.3446 10.406 19.0652 10.5946 18.7645 10.7437ZM28.9195 4.35939C29.3156 4.45751 29.7306 4.44934 30.1225 4.33572C30.274 4.28473 30.3397 4.51782 30.1882 4.57427C29.8231 4.69627 29.3084 4.59976 28.9104 4.50325C28.821 4.4814 28.8337 4.66168 28.8794 4.73998C29.1587 5.21161 29.8231 5.29538 30.3982 5.0459C30.8409 4.81326 31.2394 4.50512 31.5756 4.13541C31.4916 4.06804 30.5643 3.56727 29.971 3.49989C29.668 3.46529 28.9871 3.46711 28.7972 3.93875C28.7333 4.10263 28.7589 4.31205 28.9195 4.35757V4.35939ZM24.5603 13.1347C24.3869 12.7268 23.9762 11.6779 23.1639 11.4284C22.7988 11.3192 22.1252 11.2736 21.9061 11.5468C21.8221 11.6524 22.6728 11.5468 23.1712 11.911C23.3026 12.0039 23.1328 12.1677 22.9886 12.0931C22.5468 11.829 21.8532 11.6524 21.5958 11.8054C21.4972 11.8636 21.4497 11.9711 21.5173 11.9875C21.896 12.0535 22.2597 12.1874 22.5907 12.3826C22.7221 12.4719 22.5907 12.6867 22.4647 12.5975C22.2237 12.4354 21.5337 12.0785 21.4297 12.2078C21.1759 12.5228 21.9773 13.0109 22.326 13.142C22.6016 13.2494 22.8736 13.3678 23.6969 13.2276C24.0857 13.1602 24.5749 13.1675 24.5603 13.1347ZM26.1722 6.69389C26.3868 6.55734 26.6165 6.44612 26.8568 6.36247C27.0083 6.30966 27.074 6.54457 26.9225 6.60102C26.6949 6.68212 26.4775 6.78904 26.2744 6.91969C26.3121 6.98966 26.3542 7.05717 26.4004 7.12182C26.572 7.34398 26.8878 7.56249 27.2438 7.19648C27.4868 6.87121 27.7035 6.52718 27.8918 6.16762C27.5002 5.93426 27.0446 5.83037 26.5902 5.8708C26.0298 5.93272 26.0426 6.34608 26.1722 6.69389ZM16.0902 9.85693C16.0336 9.95618 15.9895 10.062 15.9588 10.172C15.9567 10.1824 15.9568 10.1932 15.9591 10.2036C15.9615 10.214 15.966 10.2238 15.9723 10.2324C15.9787 10.241 15.9868 10.2481 15.9961 10.2534C16.0054 10.2587 16.0157 10.2619 16.0263 10.263C16.3914 10.3031 16.9865 9.83872 17.1216 9.39076C17.2567 8.94279 17.5305 7.69907 17.4264 7.70089C16.9443 7.71768 16.4721 7.84213 16.0445 8.06508C15.8272 8.18786 15.6518 8.37294 15.5411 8.59632C15.4305 8.81971 15.3896 9.0711 15.4239 9.31792C15.4256 9.32507 15.4297 9.33144 15.4355 9.33599C15.4413 9.34055 15.4485 9.34302 15.4558 9.34302C15.4632 9.34302 15.4704 9.34055 15.4762 9.33599C15.482 9.33144 15.4861 9.32507 15.4878 9.31792C15.64 8.95887 15.8827 8.64522 16.1924 8.40743C16.3165 8.30909 16.4936 8.48391 16.375 8.58953C16.0163 8.85765 15.759 9.23883 15.6448 9.67119C15.6137 9.80594 15.5918 9.97529 15.7178 10.0354C15.7653 10.0572 15.8127 9.86785 15.8529 9.78591C15.9832 9.51869 16.1621 9.27789 16.3804 9.07573C16.4973 8.96647 16.6725 9.14128 16.563 9.25782C16.3721 9.429 16.2122 9.63166 16.0902 9.85693ZM22.7714 14.0215C22.5888 13.8394 22.4063 13.5918 22.284 13.5007C22.2146 13.4479 22.169 13.5262 22.1635 13.5444C22.1343 13.6537 22.0485 13.9086 22.5432 14.3802C22.7349 14.5623 23.4651 14.9138 23.4888 14.7845C23.5454 14.484 23.507 13.8959 23.2843 13.6919C23.0616 13.488 22.4373 13.193 22.4537 13.4333C22.4629 13.5426 22.7988 13.6974 22.9466 13.8485C23.058 13.9669 22.8827 14.1435 22.7714 14.0215ZM30.9202 5.15698C31.0079 5.29173 31.2744 5.17155 31.4076 5.10781C31.5409 5.04408 31.6778 5.25167 31.5336 5.32087C31.3894 5.39007 30.8801 5.2626 31.0261 5.42649C31.2689 5.66868 31.7307 5.57945 32.0247 5.26078C32.1619 5.03897 32.2358 4.78394 32.2382 4.52328C32.0117 4.61475 31.7762 4.6819 31.5354 4.72359C31.0791 4.84013 30.8363 5.03498 30.9202 5.16427V5.15698ZM15.119 7.26021C15.2631 7.55613 15.3445 7.87846 15.3582 8.20712C15.3587 8.22118 15.3638 8.23469 15.3728 8.24553C15.3818 8.25638 15.3941 8.26395 15.4079 8.26707C15.4216 8.27019 15.436 8.26868 15.4488 8.26277C15.4616 8.25687 15.4721 8.24691 15.4787 8.23443C15.643 7.94777 15.7 7.61218 15.6393 7.28753C15.5334 6.79222 14.46 6.01284 14.3341 6.10207C14.272 6.14577 13.2936 7.42592 13.6934 8.08876C13.8759 8.3874 14.3231 8.77162 14.6828 8.81715C14.6963 8.81887 14.71 8.81735 14.7228 8.81271C14.7357 8.80807 14.7472 8.80046 14.7565 8.79049C14.7658 8.78052 14.7725 8.76848 14.7762 8.75539C14.7799 8.74229 14.7804 8.7285 14.7777 8.71517C14.7433 8.57746 14.6976 8.44285 14.6408 8.31274C14.5704 8.13229 14.4849 7.95807 14.3852 7.79194C14.2994 7.65536 14.5148 7.53154 14.5988 7.66629C14.7472 7.91471 14.8666 8.17926 14.9547 8.45477C15.0132 8.63687 15.0077 8.72246 15.0405 8.70425C15.0866 8.6741 15.1234 8.63169 15.1466 8.58182C15.1698 8.53194 15.1786 8.47659 15.172 8.422C15.1741 8.06099 15.0816 7.7057 14.9036 7.39132C14.8197 7.24746 15.0351 7.12364 15.119 7.26021ZM10.9552 12.2005C10.8511 12.0712 10.1611 12.4281 9.92012 12.5902C9.78686 12.6794 9.66273 12.4646 9.79416 12.3753C10.1252 12.1774 10.4895 12.041 10.8694 11.9729C10.9369 11.9583 10.8894 11.8509 10.7909 11.7908C10.5335 11.6378 9.8398 11.8145 9.39804 12.0785C9.26113 12.1586 9.09136 11.9948 9.21549 11.8964C9.71384 11.545 10.5645 11.6451 10.4805 11.5322C10.2615 11.2591 9.58059 11.3046 9.2228 11.4139C8.41047 11.6597 7.99973 12.7122 7.82631 13.1201C7.81171 13.1529 8.30093 13.1456 8.68976 13.2112C9.51487 13.3514 9.78504 13.233 10.0607 13.1256C10.3984 13.009 11.2089 12.521 10.9552 12.2005ZM11.6507 7.39314C11.9117 7.69907 12.39 7.87934 12.7459 7.75734C12.7694 7.7491 12.7903 7.7351 12.8069 7.71664C12.8235 7.69818 12.8351 7.67585 12.8408 7.65171C12.8464 7.62758 12.8459 7.60241 12.8392 7.57855C12.8325 7.55468 12.8199 7.53287 12.8025 7.51515C12.7514 7.46598 12.7003 7.42046 12.6528 7.3804C12.4884 7.23168 12.2916 7.1232 12.0778 7.06355C11.9208 7.02713 11.9865 6.78858 12.1435 6.82318C12.4137 6.88327 12.7186 7.16916 12.954 7.42046C12.9628 7.4292 12.974 7.43512 12.9862 7.43744C12.9984 7.43976 13.011 7.43838 13.0224 7.43348C13.0338 7.42858 13.0435 7.42038 13.0502 7.40994C13.0569 7.39951 13.0603 7.38731 13.0599 7.37493C13.0599 7.13456 12.9413 6.77401 12.7149 6.64654C12.3498 6.42256 11.4973 6.34244 11.2545 6.3388C11.1267 6.34244 11.3823 7.0854 11.6507 7.39861V7.39314ZM9.93107 13.4315C9.9475 13.1911 9.33962 13.4661 9.10049 13.6901C8.86135 13.9141 8.83945 14.4859 8.89604 14.7827C8.91977 14.912 9.64995 14.5642 9.84163 14.3784C10.3363 13.9013 10.2505 13.65 10.2213 13.5426C10.2213 13.5244 10.1702 13.4461 10.1008 13.4989C9.98036 13.5899 9.79051 13.8358 9.61344 14.0197C9.50209 14.1344 9.32684 13.9578 9.4309 13.8376C9.59154 13.701 9.92194 13.5462 9.93107 13.437V13.4315ZM10.7343 7.52972C11.0231 7.80908 11.2692 8.12936 11.4645 8.48027C11.4864 8.51851 11.5302 8.42746 11.5046 8.2053C11.4553 7.77009 11.2345 7.33851 10.8913 7.16916C10.1611 6.80497 8.66238 6.7558 8.67333 6.80497C8.81937 7.40953 9.17898 8.61502 9.56781 8.98104C9.94195 9.26373 10.4099 9.39393 10.8767 9.34523C10.8879 9.34358 10.8984 9.33835 10.9064 9.3303C10.9145 9.32226 10.9197 9.31183 10.9214 9.30058C10.923 9.28933 10.921 9.27785 10.9155 9.26785C10.9101 9.25785 10.9016 9.24986 10.8913 9.24508C10.4639 9.08114 10.0605 8.86065 9.69194 8.58953C9.56963 8.48573 9.7467 8.31091 9.87448 8.40743C10.2396 8.72246 10.8803 9.13582 11.2509 9.17224C11.2764 9.17224 11.3732 9.18499 11.386 9.15221C11.3987 9.11943 11.3604 9.06116 11.333 9.03566C11.0665 8.77162 10.8858 8.72974 10.2378 8.22351C10.1702 8.17252 10.0716 8.08694 10.0333 8.05962C9.90187 7.96857 10.0333 7.75188 10.1574 7.84475C10.5788 8.16781 10.9799 8.51626 11.3586 8.88817C11.3677 8.89656 11.3793 8.90193 11.3916 8.90353C11.4039 8.90512 11.4165 8.90287 11.4275 8.89709C11.4385 8.8913 11.4474 8.88226 11.453 8.87121C11.4587 8.86016 11.4608 8.84763 11.459 8.83536C11.3933 8.38922 10.9333 8.00499 10.5663 7.70817C10.4349 7.60984 10.612 7.43503 10.7343 7.53518V7.52972ZM13.3009 5.14241C13.4946 5.39676 13.6553 5.67454 13.7791 5.96914C13.7834 5.97857 13.7904 5.98645 13.7994 5.99164C13.8083 5.99684 13.8187 5.99909 13.829 5.99809C13.8393 5.99708 13.849 5.99286 13.8568 5.98603C13.8645 5.9792 13.87 5.9701 13.8722 5.96003C13.9599 5.50115 13.8522 4.84559 13.2534 4.61251C12.1581 4.18458 11.5247 4.21918 11.5174 4.24831C11.4517 4.49961 11.5083 5.50843 12.0048 6.08932C12.1344 6.24228 12.6967 6.39889 13.0106 6.45352C13.111 6.46809 13.1275 6.44259 13.0544 6.37339C12.8074 6.18508 12.5715 5.98261 12.348 5.76701C12.2458 5.64682 12.421 5.47019 12.5305 5.58491C12.705 5.79691 12.8909 5.99934 13.0873 6.1913C13.2056 6.34462 13.3791 6.44588 13.571 6.47355C13.5953 6.47076 13.6182 6.46077 13.6368 6.44486C13.6553 6.42896 13.6687 6.40787 13.6751 6.38432C13.7737 6.00556 13.3593 5.61769 13.1275 5.32633C13.0252 5.20068 13.2005 5.02405 13.3009 5.14788V5.14241ZM12.7532 12.6084C12.7074 12.5777 12.6533 12.5618 12.5981 12.5629C12.1454 12.5629 11.5521 12.9562 11.2947 13.3423C11.2052 13.4734 10.9898 13.3423 11.0793 13.2166C11.2983 12.8907 12.1052 12.5775 12.1052 12.4627C12.1052 11.9383 10.6339 12.8597 10.4623 13.4133C10.3418 13.8212 10.4112 14.5059 10.5335 14.5296C10.5718 14.5387 11.114 14.3566 11.3257 14.3292C13.1056 14.098 13.3903 13.3751 13.3775 13.0746C13.3751 13.0089 13.3529 12.9455 13.3138 12.8926C13.2747 12.8396 13.2206 12.7996 13.1585 12.7778C13.0234 12.725 12.7697 12.9599 12.6109 13.06C12.4185 13.1723 12.2438 13.3122 12.0924 13.4752C11.9865 13.5954 11.8113 13.4206 11.9099 13.2931C12.1125 13.0819 12.9066 12.7468 12.7532 12.6193V12.6084ZM12.8208 14.2054C12.7971 14.0233 12.3589 14.2546 12.1965 14.464C12.0559 14.6461 12.0632 15.0995 12.1472 15.2707C12.1636 15.3071 12.6948 14.9775 12.9212 14.8191C13.0307 14.7444 13.1786 14.433 13.0106 14.3802C12.8427 14.3274 12.7386 14.5623 12.6218 14.6716C12.505 14.7809 12.3297 14.606 12.4393 14.4895C12.5488 14.373 12.8409 14.3748 12.8208 14.2163V14.2054ZM12.9194 9.03931C13.4268 9.5856 14.0402 10.2903 14.513 10.5799C14.6535 10.6654 14.6371 10.5198 14.617 10.4305C14.567 10.303 14.4968 10.1843 14.4089 10.0791C14.1909 9.7739 13.9433 9.49089 13.6696 9.23415C13.5528 9.12307 13.7299 8.94826 13.8522 9.05205C14.11 9.33115 14.3422 9.63283 14.5458 9.95344C14.6134 10.0499 14.6316 9.93159 14.6116 9.81686C14.5654 9.49267 14.4375 9.18547 14.2398 8.924C14.0422 8.66254 13.7813 8.45535 13.4816 8.32184C12.9778 8.09604 11.7383 7.82107 11.7565 7.93944C11.7967 8.20894 12.0304 9.5164 12.065 9.63841C12.2786 10.3668 12.9778 10.7164 13.5875 10.8257C13.6 10.8273 13.6127 10.8247 13.6236 10.8183C13.6345 10.8119 13.6429 10.8021 13.6475 10.7904C13.6521 10.7786 13.6527 10.7657 13.6491 10.7536C13.6455 10.7415 13.6379 10.731 13.6276 10.7237C13.3337 10.5684 13.0618 10.3749 12.819 10.1483C12.7094 10.0299 12.8847 9.8551 13.0015 9.96618C13.3374 10.3304 13.7919 10.8038 14.3031 10.8311C14.4509 10.8311 14.5075 10.8075 14.4673 10.7765C13.896 10.3231 13.2406 9.8114 12.7587 9.20319C12.6455 9.10486 12.8117 8.93369 12.9194 9.05023V9.03931ZM14.1461 13.4097C14.1059 13.2822 13.9124 13.2968 13.7317 13.4661C13.6255 13.5606 13.5409 13.6767 13.4834 13.8066C13.1384 14.6953 13.7372 15.6822 13.77 15.6476C13.8686 15.5438 13.9526 15.4255 14.0183 15.3472C14.2684 15.0413 14.4381 14.9502 14.6901 14.6443C14.7564 14.5679 14.806 14.4786 14.8359 14.382C14.8658 14.2855 14.8751 14.1838 14.8635 14.0834C14.8507 14.0088 14.816 13.7957 14.7247 13.8066C14.5677 13.8248 14.5732 14.2528 14.4035 14.4312C14.2921 14.5459 14.1169 14.3711 14.2209 14.2491C14.3942 14.0655 14.4897 13.8221 14.4874 13.5699C14.4812 13.5496 14.4683 13.532 14.4507 13.5201C14.4331 13.5081 14.4119 13.5026 14.3907 13.5043C14.23 13.5226 14.0822 13.854 13.9982 14.0761C13.9416 14.2236 13.7025 14.1599 13.7591 14.0088C13.8522 13.8048 14.2191 13.6573 14.1552 13.4279L14.1461 13.4097ZM25.4329 13.1602C25.8305 13.2104 26.2328 13.2104 26.6304 13.1602C26.4734 12.5611 26.2124 11.789 25.3106 11.7908C25.0496 11.7908 25.0313 11.7908 24.9583 11.8181C24.6498 11.9274 25.3617 12.0439 25.6063 12.2424C25.7323 12.3426 25.5552 12.5174 25.4238 12.4245C25.1828 12.2297 24.637 11.8782 24.5256 12.084C24.4855 12.1568 24.5256 12.2169 24.5256 12.2989C24.548 12.5289 24.6515 12.7435 24.8176 12.9046C24.9837 13.0656 25.2018 13.1627 25.4329 13.1784V13.1602ZM9.98219 1.86647C10.1246 1.80456 9.58789 1.53506 9.43455 1.32018C9.34328 1.18725 9.55868 1.06342 9.64813 1.19453C9.79238 1.45342 10.0146 1.66046 10.2834 1.78635C10.4532 1.85737 10.6229 1.5824 10.5189 1.322C10.3674 0.937775 8.93985 0.304074 8.93437 0.424259C8.91388 0.801564 8.97617 1.17878 9.11692 1.52959C9.33049 1.87558 9.90734 1.89925 9.98219 1.86647ZM10.5152 3.03918C10.6649 3.40338 10.7361 3.75119 11.1833 3.9169C11.4042 3.99702 11.7474 4.02797 11.7949 3.96242C11.8423 3.89686 11.6598 3.81674 11.5886 3.7694C11.3678 3.64866 11.1764 3.48077 11.0282 3.27773C11.0115 3.24924 11.0068 3.21529 11.0152 3.18336C11.0236 3.15143 11.0443 3.12413 11.0729 3.10747C11.1015 3.09081 11.1355 3.08615 11.1675 3.09451C11.1995 3.10288 11.2269 3.12359 11.2436 3.15208C11.3771 3.35585 11.548 3.53256 11.7474 3.67288C11.7957 3.71902 11.8531 3.75465 11.916 3.77753C11.9788 3.80041 12.0457 3.81004 12.1125 3.80582C12.1405 3.79697 12.1655 3.78082 12.1851 3.75904C12.2047 3.73727 12.2181 3.71066 12.2239 3.68199C12.2512 3.27227 11.7912 2.9627 11.4407 2.76239C11.4158 2.7444 11.3984 2.7178 11.392 2.68776C11.3857 2.65772 11.3907 2.62638 11.4061 2.59983C11.4216 2.57328 11.4464 2.55342 11.4758 2.54408C11.5051 2.53475 11.5368 2.53663 11.5649 2.54934C11.8608 2.73726 12.106 2.9949 12.2786 3.29958C12.2858 3.31166 12.2964 3.32128 12.3092 3.32717C12.3219 3.33306 12.3362 3.33495 12.3501 3.33258C12.3639 3.33021 12.3767 3.3237 12.3868 3.3139C12.3968 3.30411 12.4037 3.29149 12.4064 3.27773C12.4922 2.90443 12.4064 2.49471 12.1508 2.35814C11.6452 2.08681 10.654 1.90471 10.3382 1.98484C10.256 2.00305 10.4586 2.89897 10.5152 3.03918ZM11.9391 2.03218C11.9549 2.0343 11.971 2.03131 11.985 2.02366C11.999 2.01601 12.0102 2.00409 12.0169 1.98965C12.0236 1.97521 12.0256 1.959 12.0224 1.94339C12.0192 1.92779 12.0111 1.91359 11.9993 1.90289C11.7491 1.66765 11.5508 1.38299 11.417 1.06706C11.3568 0.917744 11.5995 0.854009 11.6561 0.999688C11.7949 1.34203 12.0212 1.79363 12.3188 2.00669C12.3444 2.02479 12.3756 2.03342 12.4069 2.03109C12.4382 2.02877 12.4677 2.01563 12.4904 1.99394C12.682 1.81184 12.7295 1.32564 12.5032 1.00515C12.3334 0.762961 11.417 0.276759 11.1487 0.253087C11.0902 0.253087 10.9661 1.40577 11.3458 1.739C11.5149 1.88611 11.7193 1.9871 11.9391 2.03218ZM5.98625 4.42313C6.45539 5.46108 7.99426 5.87991 7.92489 5.33362C7.92489 5.31541 7.92489 5.29538 7.92489 5.27717C7.90846 5.14423 7.87195 4.97306 7.74234 4.96214C7.32249 4.92754 6.76937 4.71813 6.53754 4.46319C6.43166 4.34482 6.6069 4.16819 6.72008 4.28109C6.9053 4.47582 7.13998 4.61679 7.39916 4.68899C7.50517 4.72633 7.61462 4.75317 7.72591 4.76911C7.7457 4.77144 7.76576 4.76954 7.78476 4.76354C7.80376 4.75754 7.82126 4.74758 7.83611 4.73432C7.85095 4.72106 7.86281 4.70481 7.87087 4.68663C7.87894 4.66845 7.88304 4.64877 7.88291 4.6289C7.88337 4.60061 7.87425 4.573 7.85702 4.55052C7.83979 4.52805 7.81547 4.51204 7.78798 4.50507C7.37078 4.38814 7.007 4.13078 6.75842 3.77668C6.6708 3.64193 6.8862 3.5181 6.97382 3.65103C7.18576 3.9085 7.43712 4.13097 7.71861 4.31023C7.90116 4.40856 7.90116 4.12813 7.93037 3.92236V3.87683C8.01251 3.28319 6.73469 2.91536 5.75259 2.60215C5.63394 2.57665 5.72521 3.84406 5.98625 4.42313ZM8.22609 3.64193C8.28085 3.64193 8.50539 3.64193 8.66785 3.62554C8.68404 3.62461 8.69972 3.61956 8.7134 3.61087C8.72708 3.60218 8.7383 3.59014 8.74599 3.5759C8.75367 3.56165 8.75757 3.54568 8.75732 3.52951C8.75706 3.51333 8.75266 3.4975 8.74452 3.4835C8.54578 3.20049 8.39984 2.88403 8.31371 2.54934C8.28998 2.39274 8.52912 2.32536 8.55285 2.48378C8.59521 2.87093 8.74504 3.2386 8.98548 3.54542C9.02159 3.58304 9.06688 3.61065 9.11692 3.62554C9.2447 3.67106 9.52582 3.6565 9.46375 3.5873C9.24802 3.3578 9.09086 3.07985 9.00557 2.77696C8.97636 2.62218 9.21549 2.5548 9.24652 2.71141C9.30254 2.97357 9.41189 3.22148 9.56781 3.4398C9.66221 3.56517 9.80151 3.64933 9.95663 3.67471C10.0424 3.68927 10.13 3.70384 10.2195 3.72205C10.4678 3.77122 10.2615 2.62036 9.62075 2.17968C9.1297 1.8428 7.99973 1.48407 7.9687 1.62246C7.83179 2.2598 8.03077 3.60915 8.22609 3.64193ZM15.3071 2.71505C15.3309 2.71814 15.3552 2.71537 15.3778 2.70696C15.4004 2.69856 15.4205 2.68479 15.4365 2.66684C15.4526 2.64889 15.4639 2.62731 15.4697 2.60398C15.4754 2.58064 15.4754 2.55626 15.4695 2.53295C15.3819 2.24159 14.9931 1.80456 14.7996 1.64796C14.6791 1.54416 14.8543 1.36935 14.9821 1.46586C15.2429 1.69252 15.4377 1.98499 15.5462 2.31261C15.5513 2.32891 15.5615 2.34316 15.5753 2.35328C15.5891 2.3634 15.6057 2.36885 15.6229 2.36885C15.64 2.36885 15.6567 2.3634 15.6704 2.35328C15.6842 2.34316 15.6944 2.32891 15.6995 2.31261C15.8145 2.00487 15.7525 1.47496 15.1702 1.11441C14.9474 0.976015 14.1844 0.635492 14.0566 0.653702C13.9909 0.662807 13.9763 1.63157 14.1077 1.89925C14.283 2.27073 14.9146 2.65496 15.3071 2.70959V2.71505ZM17.7933 3.01915C17.598 3.4052 17.7714 4.01523 18.0233 4.26834C18.0653 4.30841 18.1018 4.29202 18.0964 4.1172C18.0737 3.82064 18.1324 3.52353 18.2661 3.2577C18.3446 3.11749 18.5582 3.24313 18.4797 3.38335C18.3606 3.6116 18.2792 3.85757 18.2388 4.11174C18.2101 4.21973 18.2244 4.33461 18.2789 4.43223C18.2965 4.45582 18.3215 4.47291 18.3499 4.48082C18.3783 4.48873 18.4086 4.48701 18.4359 4.47594C18.801 4.37396 18.9105 3.87137 18.9835 3.50535C19.0146 3.34875 19.2555 3.41613 19.2227 3.57273C19.161 3.86206 19.0364 4.13434 18.8576 4.37032C18.8506 4.37991 18.8467 4.3914 18.8465 4.40325C18.8462 4.4151 18.8496 4.42675 18.8561 4.43665C18.8627 4.44654 18.8721 4.45421 18.8831 4.45863C18.8941 4.46304 18.9062 4.464 18.9178 4.46137C19.1001 4.41969 19.2702 4.3363 19.4147 4.21779C19.5592 4.09928 19.674 3.94889 19.7502 3.7785C19.8652 3.50535 19.544 2.0249 19.4308 1.75539C19.4016 1.6862 19.1935 1.80092 19.0146 1.90107C18.5527 2.16147 18.0964 2.42005 17.7933 3.01369V3.01915ZM16.2271 1.89925C16.2417 1.9065 16.2578 1.91004 16.2741 1.90954C16.2904 1.90905 16.3062 1.90455 16.3204 1.89643C16.3345 1.88831 16.3463 1.87684 16.3549 1.86303C16.3635 1.84923 16.3685 1.83352 16.3695 1.81731C16.3823 1.64431 16.322 1.42033 16.3202 1.24734C16.3184 1.07435 16.5685 1.06524 16.5685 1.22367C16.5685 1.38209 16.5246 1.56419 16.5155 1.71533C16.5145 1.73469 16.5188 1.75395 16.5281 1.77101C16.5373 1.78807 16.5511 1.80226 16.5678 1.81204C16.5846 1.82182 16.6038 1.8268 16.6232 1.82645C16.6426 1.82609 16.6616 1.82041 16.678 1.81002C16.8262 1.71797 16.947 1.58803 17.0279 1.4337C17.1088 1.27936 17.1468 1.10625 17.138 0.932311C17.0869 0.602714 16.4735 -0.0583006 16.4078 0.0108966C16.176 0.138365 15.8237 0.852188 15.7981 1.08345C15.7866 1.24501 15.8207 1.40657 15.8965 1.5498C15.9723 1.69302 16.0868 1.81219 16.2271 1.89379V1.89925ZM12.6291 3.7785C12.7053 3.94889 12.8202 4.09928 12.9646 4.21779C13.1091 4.3363 13.2792 4.41969 13.4615 4.46137C13.4731 4.464 13.4852 4.46304 13.4962 4.45863C13.5073 4.45421 13.5167 4.44654 13.5232 4.43665C13.5298 4.42675 13.5331 4.4151 13.5329 4.40325C13.5326 4.3914 13.5287 4.37991 13.5218 4.37032C13.343 4.13434 13.2183 3.86206 13.1567 3.57273C13.1238 3.41613 13.3648 3.34875 13.3958 3.50535C13.4706 3.86955 13.5783 4.37396 13.9434 4.47594C13.9708 4.48701 14.001 4.48873 14.0294 4.48082C14.0578 4.47291 14.0828 4.45582 14.1004 4.43223C14.1549 4.33461 14.1693 4.21973 14.1406 4.11174C14.1002 3.85757 14.0188 3.6116 13.8996 3.38335C13.8211 3.24313 14.0347 3.11749 14.1132 3.2577C14.2469 3.52353 14.3056 3.82064 14.283 4.1172C14.283 4.2993 14.314 4.30841 14.356 4.26834C14.6079 4.01523 14.7832 3.4052 14.586 3.01915C14.283 2.42551 13.8266 2.16693 13.3593 1.90653C13.1767 1.80638 12.9723 1.69166 12.9431 1.76086C12.8354 2.0249 12.5123 3.50535 12.6291 3.7785ZM6.43349 2.53295C6.77668 2.78243 7.25312 2.93175 7.4813 2.89715C7.5075 2.8912 7.53183 2.87893 7.55217 2.86141C7.57251 2.8439 7.58823 2.82168 7.59796 2.7967C7.60769 2.77172 7.61113 2.74473 7.60798 2.71812C7.60483 2.6915 7.59518 2.66606 7.57988 2.64403C7.36205 2.38188 7.08825 2.17159 6.7785 2.02854C6.63246 1.97027 6.69635 1.7299 6.84604 1.78999C7.13994 1.90653 7.30606 2.11048 7.54884 2.37999C7.71131 2.56209 7.60179 1.84462 7.16367 1.60425C6.52659 1.2528 5.7033 1.5824 5.54266 1.74993C5.50433 1.78271 6.15967 2.33446 6.43349 2.53295ZM17.4593 1.93385C17.5679 1.60785 17.7628 1.31717 18.0233 1.09256C18.1438 0.988762 18.3209 1.16358 18.2059 1.27466C18.0233 1.43854 17.6254 1.86829 17.5378 2.15965C17.5319 2.18296 17.5319 2.20734 17.5376 2.23067C17.5434 2.25401 17.5547 2.27559 17.5708 2.29354C17.5868 2.31149 17.6069 2.32526 17.6295 2.33366C17.6521 2.34207 17.6764 2.34484 17.7002 2.34175C18.0909 2.28712 18.7243 1.90289 18.9032 1.53506C19.0347 1.26737 19.0219 0.298611 18.9562 0.289506C18.8265 0.269475 18.0635 0.611819 17.8408 0.750214C17.2585 1.11441 17.1982 1.64067 17.3132 1.94842C17.3209 1.96187 17.3324 1.97282 17.3462 1.97992C17.36 1.98703 17.3756 1.98999 17.391 1.98845C17.4065 1.9869 17.4211 1.98093 17.4333 1.97124C17.4454 1.96155 17.4544 1.94856 17.4593 1.93385ZM23.9999 11.0824C23.6674 10.937 23.3096 10.8578 22.9466 10.8494C23.1529 11.1844 23.6768 11.4648 24.2244 11.5249C24.7337 11.5832 25.8674 11.6597 25.8144 11.5249C25.5461 10.7838 25.2485 10.2102 24.5256 10.0463C24.1167 9.95526 23.4304 9.90427 23.0744 10.1519C23.5233 10.1038 23.9773 10.1472 24.4088 10.2794C24.4392 10.2892 24.4646 10.3104 24.4797 10.3384C24.4949 10.3665 24.4986 10.3993 24.4902 10.43C24.4817 10.4607 24.4617 10.487 24.4343 10.5034C24.4069 10.5197 24.3742 10.525 24.3431 10.5179C24.0371 10.4305 23.7194 10.3906 23.4012 10.3996C23.2201 10.3963 23.0394 10.4183 22.8645 10.4651C22.8581 10.5104 22.8581 10.5564 22.8645 10.6017C23.3009 10.5992 23.7329 10.6898 24.1313 10.8676C24.2719 10.9258 24.1459 11.1462 23.9999 11.0843V11.0824ZM24.3997 38.3971C24.0729 38.1112 23.6549 37.6232 23.2478 37.4866C22.7002 37.3045 22.1215 37.5067 21.2873 37.6797C19.8543 37.9765 18.8959 37.1971 18.5947 36.6635C18.2935 36.13 18.1164 33.7208 17.8299 32.7047C17.3388 30.9657 17.399 30.6452 17.3479 29.9842C17.2293 28.4928 17.9083 27.5823 17.6144 26.4624C17.4611 25.8743 17.1745 25.9671 17.0942 25.2223C16.9993 24.3519 16.9664 22.673 17.0942 19.5682C17.1143 19.0419 17.4757 17.8419 17.494 17.0935C17.514 16.1684 17.034 16.183 16.9354 15.664C16.866 15.3126 16.9354 14.4185 17.2457 13.7047L17.2713 13.6664C17.556 13.2494 18.3118 12.989 18.5947 12.8397C18.9922 12.608 19.4094 12.4118 19.8415 12.2533C20.1883 12.1277 20.1792 11.9219 20.0368 11.9092C19.6281 11.9739 19.2317 12.1004 18.8612 12.2843C18.5862 12.4322 18.3014 12.5612 18.0087 12.6703C17.8463 12.6958 18.2041 12.1586 18.4341 11.931C18.958 11.4102 19.2263 11.1462 19.1205 11.0697C18.9799 10.9695 18.4998 11.3738 18.2077 11.6724C18.0142 11.8709 17.0486 12.9963 17.0193 12.9908C16.9664 12.9417 17.065 12.7231 17.1654 12.5228C17.2748 12.2876 17.4121 12.0663 17.5743 11.8636C17.6772 11.76 17.764 11.6415 17.8317 11.5122C17.8408 11.4864 17.8412 11.4582 17.8326 11.4322C17.824 11.4062 17.807 11.3837 17.7842 11.3683C17.6692 11.301 17.3297 11.687 17.2366 11.7999C17.1493 11.9206 17.0523 12.0339 16.9463 12.1386C16.8569 12.1386 17.0796 11.1644 17.2001 10.8184C17.3351 10.4269 17.6856 9.61474 17.483 9.54372C17.399 9.51458 17.1909 9.72582 16.7528 10.9641C16.647 11.27 16.4315 11.8199 16.3111 11.7052C16.2399 11.636 16.0738 11.1134 15.8492 10.7091C15.6519 10.3465 15.4001 10.0161 15.1026 9.72946C14.9785 9.65662 14.8397 9.86057 15.0059 10.0809C15.3162 10.4943 15.5772 10.7274 15.6813 11.4994C15.7132 11.8112 15.7132 12.1255 15.6813 12.4373C15.6685 12.4555 15.6502 12.4373 15.6265 12.3589C15.4541 12.0124 15.2596 11.6773 15.0442 11.3556C14.7594 10.9113 14.5477 10.9914 14.5367 11.1243C14.5258 11.2573 14.659 11.4211 14.8343 11.7416C15.1154 12.2497 15.2249 12.8889 15.119 12.8342C15.0682 12.8062 15.0158 12.7813 14.9621 12.7596C14.9 12.7159 14.8288 12.6703 14.7448 12.6175C14.4164 12.3693 14.1192 12.0826 13.8595 11.7635C13.613 11.3993 13.5838 11.0752 13.3995 11.1407C13.2954 11.179 13.2352 11.4248 13.5345 11.9019C13.613 12.0275 13.7043 12.1641 13.8011 12.2952C13.5018 12.1632 13.193 12.0536 12.8774 11.9674C12.4703 11.8782 12.4812 12.1131 12.6948 12.2042C12.9778 12.328 13.6787 12.6102 14.0183 12.7942C15.0405 13.3405 15.1136 13.2913 15.1702 13.8868C15.1702 14.3074 15.1702 14.8555 15.1829 15.0485C15.2058 16.4762 15.1516 17.9041 15.0205 19.326C14.9584 19.6665 14.597 19.8942 14.5221 20.5188C14.398 21.5421 14.8197 22.2815 14.973 22.9152C15.1099 23.4869 15.0533 26.5116 15.0551 27.1417C15.0643 29.0537 15.1519 30.7217 14.8324 31.308C14.597 31.7396 14.1844 32.3879 14.053 33.923C13.9982 34.5676 13.8376 35.316 13.5528 35.7858C12.735 37.1388 12.2293 37.2772 11.4097 37.2535C10.4696 37.2262 10.2597 37.1443 9.69011 37.2044C9.26296 37.2499 8.72627 37.7507 8.28451 38.1276C7.84274 38.5046 7.24764 38.5701 7.18923 38.7121C7.09796 38.9143 7.76607 38.7304 8.30641 38.4463C8.68793 38.2442 9.20454 37.7325 9.66091 37.6997C10.3016 37.6523 10.7927 37.7944 11.5831 37.8709C12.6693 37.9765 13.5911 37.341 14.0402 36.7091C14.1242 36.5925 14.2373 36.6381 14.2045 36.7455C14.1169 37.0277 13.7153 37.9 13.2534 37.9364C12.5013 37.9965 12.1052 38.1841 11.5137 38.6156C11.0464 38.9562 10.601 39.2621 10.6302 39.3586C10.6594 39.4551 10.884 39.2548 11.3476 39.0163C11.9464 38.7085 12.5762 38.3734 13.0526 38.3771C13.3245 38.3969 13.5963 38.3376 13.8351 38.2063C14.0739 38.0751 14.2694 37.8776 14.398 37.6378C14.8361 36.9221 14.8306 36.0572 14.9182 35.6493C14.9602 35.449 15.1008 35.4562 15.1209 35.6729C15.1681 36.2624 15.0974 36.8554 14.9128 37.4174C14.7999 37.8247 14.577 38.1932 14.2684 38.4827C14.0749 38.6648 13.8814 38.714 13.6203 38.9106C13.317 39.1441 13.0643 39.4365 12.8774 39.7701C12.6802 40.0833 12.5378 40.4202 12.5926 40.4749C12.693 40.5732 12.9175 40.1107 13.0471 39.9286C13.2148 39.6463 13.4524 39.4118 13.7372 39.2475C13.9763 39.131 14.1205 39.0654 14.3797 38.9416C14.6856 38.7864 14.9459 38.5549 15.1355 38.2696C15.31 38.0233 15.4301 37.7427 15.4878 37.4466C15.5024 37.3755 15.506 37.3209 15.5389 37.3191C15.5718 37.3173 15.6101 37.4848 15.6302 37.6177C15.7433 38.3734 15.5316 39.2457 15.2961 39.5953C14.9566 40.0979 14.8525 40.28 14.7996 40.5149C14.5787 41.4982 15.9295 41.6275 15.9825 41.5583C16.0573 41.4582 15.789 41.3762 15.5991 41.307C14.9785 41.0703 15.1409 40.6588 15.234 40.4821C15.5042 39.9923 15.8748 39.7374 16.3421 39.1383C16.5731 38.7818 16.6808 38.3597 16.6488 37.9364C16.636 37.7179 16.5447 37.1388 16.6342 37.1334C16.6944 37.1334 16.7127 37.2626 16.7273 37.3246C16.8261 37.7773 17.0047 38.2089 17.2548 38.5992C17.5451 38.9744 18.0945 39.2657 18.4815 39.4442C18.8685 39.6226 19.2884 39.6591 19.2811 39.5644C19.2738 39.4697 18.8758 39.4333 18.4943 39.1892C17.1544 38.337 17.1051 36.598 17.0723 36.4086C17.0394 36.2192 17.0978 36.1737 17.1362 36.2921C17.368 36.9859 17.4319 37.1224 17.7148 37.5322C18.2497 38.3079 19.1205 38.561 19.8452 38.561C20.997 38.561 22.1745 37.7215 23.131 37.8891C23.5636 37.9637 23.7626 38.3188 24.0602 38.5118C24.5585 38.8342 25.1554 38.8524 25.212 38.785C25.3416 38.6047 24.7264 38.6885 24.3997 38.4026V38.3971ZM13.5583 36.6581C13.3155 36.8639 12.9832 36.9112 13.0617 36.8402C13.2655 36.7188 13.4465 36.5629 13.5966 36.3795C13.7609 36.1646 13.9179 35.8168 14.0019 35.8332C14.0858 35.8496 13.9069 36.3685 13.5583 36.6635V36.6581ZM15.1537 32.0874C15.0348 32.2948 14.948 32.5188 14.8963 32.7521C14.8788 32.9116 14.8508 33.0697 14.8124 33.2255C14.7631 33.3257 14.6864 33.4258 14.6024 33.353C14.4053 33.1709 14.6024 32.5427 14.67 32.326C14.6992 32.2386 14.7813 31.9855 14.9785 31.9217C15.1008 31.8871 15.2048 31.9764 15.1537 32.0929V32.0874ZM15.214 20.1145C15.1236 20.2735 15.0746 20.4525 15.0716 20.6353C15.0862 20.8174 15.13 20.9103 15.0898 20.9776C15.0497 21.045 14.9547 21.0596 14.8763 20.9776C14.732 20.8229 14.7448 20.4568 14.8087 20.2893C14.8416 20.2001 14.9401 19.9251 15.1026 19.8996C15.2048 19.8869 15.2505 20.0307 15.214 20.12V20.1145ZM16.8678 16.8367C16.8185 16.6929 16.7455 16.6091 16.7236 16.5162C16.6962 16.387 16.7857 16.3341 16.8916 16.3615C17.0431 16.4106 17.18 16.7493 17.1928 16.9223C17.2015 16.9777 17.1991 17.0342 17.1856 17.0886C17.1721 17.1431 17.1479 17.1942 17.1143 17.2392C17.1013 17.2508 17.086 17.2595 17.0694 17.2647C17.0528 17.2699 17.0353 17.2715 17.018 17.2695C17.0008 17.2674 16.9841 17.2617 16.9692 17.2527C16.9544 17.2437 16.9416 17.2316 16.9317 17.2173C16.8551 17.1372 16.9226 17.0061 16.8678 16.8458V16.8367ZM17.2749 27.2163C17.1928 27.2691 17.1033 27.2728 17.0595 27.1926C16.9974 27.0834 17.1928 26.9413 17.0905 26.6955C17.0467 26.5848 16.9942 26.4776 16.9335 26.375C16.877 26.2694 16.9865 26.1164 17.1471 26.2348C17.237 26.3113 17.3089 26.4066 17.3578 26.5139C17.4067 26.6212 17.4314 26.7379 17.4301 26.8558C17.4342 26.9262 17.4225 26.9966 17.3956 27.0619C17.3687 27.1271 17.3275 27.1855 17.2749 27.2327V27.2163ZM18.79 37.8326C18.3665 37.6505 18.0745 37.4356 17.9303 37.1352C17.786 36.8347 17.7075 36.3685 17.7988 36.3431C17.8901 36.3176 17.9941 36.8129 18.215 37.1279C18.3846 37.3666 18.6014 37.568 18.8521 37.7197C18.947 37.7816 19.2683 37.8763 19.2464 37.9127C19.2245 37.9492 18.9014 37.8945 18.79 37.849V37.8326ZM30.0531 7.21104C30.0463 7.21792 30.0417 7.22665 30.0398 7.23614C30.0379 7.24564 30.0389 7.25547 30.0426 7.26441C30.0463 7.27336 30.0526 7.28101 30.0606 7.28642C30.0687 7.29183 30.0781 7.29474 30.0878 7.29481C30.2967 7.28745 30.5039 7.33518 30.6884 7.4332C30.715 7.45069 30.7338 7.4777 30.741 7.50865C30.7482 7.53961 30.7432 7.57213 30.727 7.5995C30.7108 7.62686 30.6847 7.64698 30.6541 7.65568C30.6235 7.66439 30.5907 7.66101 30.5625 7.64626C30.3708 7.537 29.9071 7.33487 29.7592 7.66083C29.6808 7.88481 29.7154 8.1361 30.232 8.1798C30.3927 8.19437 31.6066 8.40925 31.6924 8.38558C31.7782 8.3619 31.5975 7.72274 31.1247 7.27842C30.9896 7.16552 30.5095 6.7649 30.0531 7.22743V7.21104ZM32.3605 6.38068C32.1162 6.12772 31.8087 5.9442 31.4697 5.84895C30.9878 5.74516 30.7779 5.99099 30.6848 6.1567C30.5716 6.35883 31.1959 6.11482 31.4277 6.16945C31.5847 6.20769 31.5172 6.44623 31.362 6.40981C31.1667 6.35677 30.9619 6.3493 30.7633 6.38796C30.7418 6.39379 30.7219 6.40424 30.705 6.41859C30.6881 6.43294 30.6745 6.45082 30.6653 6.47097C30.656 6.49113 30.6514 6.51306 30.6516 6.53522C30.6518 6.55738 30.6569 6.57922 30.6665 6.5992C30.7194 6.69986 30.7977 6.78494 30.8938 6.84597C30.9899 6.90699 31.1004 6.94183 31.2141 6.947C31.6796 6.98706 32.5066 6.55549 32.3605 6.39707V6.38068ZM30.0604 23.1264C29.716 23.2285 29.3882 23.38 29.0875 23.5762C27.5979 24.7216 27.9648 26.5881 27.9648 26.5881C28.109 28.1833 29.0601 29.4834 28.4413 30.3921C28.3336 30.5505 27.9922 30.5596 27.9721 30.434C27.8206 29.4834 26.7874 27.8609 26.7874 27.8609C26.5355 27.4057 26.0919 26.985 26.0974 26.4588C26.0974 25.6812 26.4278 25.5028 26.6012 24.6943C26.6925 24.2736 26.5501 23.1555 26.718 22.9061C28.0141 20.9758 28.0835 19.6283 27.7129 18.5029C27.6052 18.177 27.4117 18.0167 27.4829 17.7327C27.6454 17.0935 27.6143 16.3196 27.3843 16.458C27.2214 16.5664 27.0323 16.6293 26.8367 16.6401C26.661 16.6211 26.4833 16.6385 26.3146 16.6911C26.1412 16.753 26.0919 16.7985 26.0828 16.7839C26.0736 16.7694 26.3292 16.4598 26.6304 16.4307C26.5702 16.2759 26.4643 16.0555 26.3091 16.01C26.2927 16.01 26.2507 15.9827 26.2361 16.01C26.0536 16.3742 26.0335 16.5326 25.871 16.6018C25.8146 16.6172 25.7573 16.6294 25.6994 16.6382C25.0915 16.8313 24.71 17.1845 24.3358 17.2556C24.2117 17.2792 24.0364 17.1627 24.0291 17.4158C24.0223 17.535 24.039 17.6545 24.0784 17.7673C24.2993 18.5139 25.1865 18.9054 25.1865 18.9054C25.3526 19.2459 25.1682 20.0107 25.1682 20.0107C24.1514 20.6772 23.8283 21.4238 23.5947 21.7461C23.4833 21.9464 23.33 21.9136 23.047 22.1285C22.8843 22.2553 22.7416 22.4057 22.6235 22.5746C22.545 22.6766 22.441 22.3925 23.1949 21.7588C23.1769 21.6858 23.1525 21.6145 23.1219 21.5458C22.775 20.9394 21.8897 19.3916 21.7747 19.2404C21.5757 18.9818 21.4844 19.0583 20.9788 18.5485C20.7488 18.3172 20.7469 18.1569 20.6283 18.126C20.5096 18.095 20.2632 18.1114 19.9985 18.0823C19.7557 18.055 19.6444 18.0659 19.617 18.1096C19.5732 18.1824 19.6498 18.4374 19.7685 18.6213C20.1646 19.2331 21.1942 19.6738 21.2161 19.7139C21.238 19.7539 21.3658 20.4295 21.3986 20.5661C21.7637 21.828 21.9846 21.9227 21.9919 22.6839C22.0141 22.9205 21.9975 23.1592 21.9426 23.3904C22.0153 23.4098 22.0891 23.425 22.1635 23.436C22.9904 23.5707 23.9744 23.1992 23.9378 23.374C23.9178 23.4778 23.5563 23.5944 22.9119 23.6344C22.5391 23.6576 22.1649 23.6441 21.7948 23.5944C21.7948 23.5944 21.7838 23.5944 21.7948 23.5944C21.8057 23.5944 20.778 23.4487 19.4782 23.2794C19.2446 23.2484 19.0292 23.5671 18.5838 24.0587C18.2187 24.4539 17.9156 24.4721 17.8883 24.6542C17.8207 25.0931 17.7422 25.2333 17.8006 25.3826C17.8408 25.4918 18.3136 25.3334 18.4779 25.2424C19.1131 24.8946 19.5093 24.1498 19.5823 24.1971C19.993 24.4375 21.2654 24.8126 21.9207 24.9692C22.1763 25.0293 22.4592 24.9692 22.441 25.1386C22.2256 27.0178 23.8374 28.5092 24.2281 29.0974C24.2628 29.1484 24.2372 29.2376 24.1916 29.2303C23.9488 29.1884 22.4209 28.9371 21.8021 29.5089C21.4096 29.8731 21.499 30.6652 21.6834 31.1241C21.9444 31.7797 22.2968 32.0201 22.6838 32.7484C22.8006 32.967 23.1255 33.333 22.9247 33.9521C22.7239 34.5712 22.0978 35.0775 21.2818 35.4089C21.0773 35.4908 20.7141 35.3707 20.579 35.5564C20.3965 35.815 20.234 36.2848 20.3618 36.3157C20.4603 36.3358 21.2745 36.3667 21.4662 36.2047C21.7528 35.9607 23.215 35.2942 23.821 34.2416C24.1861 33.6189 23.3902 33.6134 23.6531 32.6028C23.8174 31.9654 24.836 31.5102 24.7903 31.0549C24.7684 30.8546 24.8323 30.9093 24.8561 30.9238C25.15 31.1059 24.7283 32.0565 24.982 33.0016C25.1992 33.8083 26.0773 34.6586 26.8714 35.4235C26.9256 35.4755 26.9696 35.5373 27.001 35.6056C27.0687 35.7549 27.081 35.9233 27.0357 36.0808C26.8294 36.8657 26.2854 37.9564 25.9915 38.093C25.9313 38.1203 25.5972 38.1713 25.515 38.3461C25.4895 38.4026 25.3179 38.7376 25.4 38.8032C25.5826 38.9471 26.5099 38.8542 26.6359 38.7577C26.6676 38.7295 26.6937 38.6955 26.7126 38.6575C26.9754 38.1531 28.4048 35.5109 27.8845 34.8845C27.702 34.6732 27.5194 35.0247 27.2219 34.6914C27.1342 34.5895 27.074 34.2671 27.1105 33.7937C27.116 33.6666 27.1571 33.5436 27.2292 33.4386C27.9447 32.6975 28.2058 31.9727 28.2003 31.2097C28.2003 31.1369 28.4686 31.0768 28.5526 31.1478C28.687 31.276 28.8516 31.3684 29.0312 31.4164C29.2108 31.4645 29.3997 31.4666 29.5804 31.4228C30.2503 31.3372 31.0407 30.5614 31.2324 29.1866C31.3894 28.0722 31.3036 27.4148 29.8049 25.0894C29.0838 24.0059 30.0604 23.1264 30.0604 23.1264ZM27.1488 16.9496C26.9553 17.2683 26.9772 17.2701 26.9791 17.4486C26.9791 17.5105 26.9426 17.5815 26.8714 17.5742C26.8041 17.5481 26.7436 17.5075 26.694 17.4552C26.6445 17.4029 26.6071 17.3403 26.5848 17.2719C26.5683 17.0261 27.2127 16.8422 27.1488 16.9496ZM26.7509 18.7306C26.917 18.594 26.959 18.35 27.032 18.3664C27.105 18.3827 27.1853 18.807 26.9006 18.9545C26.801 19.0027 26.6901 19.0225 26.58 19.0119C26.4698 19.0013 26.3648 18.9607 26.2763 18.8944C26.2306 18.8143 26.5501 18.8999 26.7509 18.7306ZM24.5238 25.5501C24.3898 25.5801 24.2508 25.5801 24.1167 25.5501C24.0492 25.5392 23.9141 25.4937 23.9342 25.4318C23.9543 25.3698 24.2299 25.4445 24.3906 25.3207C24.5202 25.2205 24.5147 25.0166 24.5731 25.0257C24.6315 25.0348 24.648 25.1495 24.6516 25.1641C24.6753 25.3116 24.6772 25.4937 24.5238 25.5501ZM25.4055 17.6416C25.3434 17.6029 25.2988 17.5415 25.2814 17.4704C25.244 17.4569 25.2098 17.4358 25.181 17.4085C25.1353 17.3703 25.1244 17.343 25.1262 17.3375C25.128 17.332 25.139 17.3175 25.2065 17.3193C25.2471 17.32 25.2864 17.305 25.3161 17.2774C25.3568 17.2265 25.415 17.1925 25.4795 17.1821C25.5439 17.1716 25.61 17.1855 25.6647 17.221C25.7761 17.2902 25.8728 17.454 25.9824 17.5487C26.0024 17.5651 25.6355 17.7909 25.4055 17.6416ZM1.35505 5.44105C1.50109 5.27717 0.98996 5.40646 0.847574 5.33544C0.705188 5.26442 0.82932 5.05319 0.973531 5.12238C1.11774 5.19158 1.3733 5.30448 1.46093 5.17155C1.54855 5.03862 1.30211 4.84741 0.842098 4.74362C0.601365 4.70193 0.365768 4.63478 0.139294 4.54331C0.119214 4.53421 0.179456 5.0896 0.352875 5.28081C0.646775 5.5922 1.11227 5.68142 1.35505 5.43923V5.44105ZM8.29181 32.6064C8.55468 33.6243 7.76607 33.6298 8.12386 34.2453C8.72992 35.2996 10.1921 35.9643 10.4787 36.2083C10.6613 36.3704 11.4845 36.3394 11.5849 36.3194C11.6853 36.2994 11.5539 35.8186 11.3659 35.56C11.2308 35.3779 10.8675 35.4945 10.6631 35.4125C9.84345 35.0866 9.22462 34.6058 9.02017 33.9558C8.81571 33.3057 9.1443 32.9706 9.26113 32.7521C9.64813 32.0237 9.99131 31.7833 10.2633 31.1278C10.4459 30.6689 10.5353 29.8768 10.1428 29.5126C9.52399 28.9408 7.99608 29.1921 7.7533 29.234C7.70766 29.234 7.68393 29.152 7.71679 29.101C8.10744 28.5128 9.72479 27.0215 9.50391 25.1422C9.48566 24.9729 9.76861 25.033 10.0242 24.9729C10.6813 24.8163 11.9519 24.4411 12.3626 24.2008C12.4356 24.1589 12.8317 24.8982 13.467 25.246C13.6313 25.3371 14.1041 25.4955 14.1461 25.3862C14.2027 25.2333 14.1242 25.0931 14.0566 24.6578C14.0292 24.4757 13.7207 24.4575 13.3611 24.0624C12.9157 23.5707 12.7003 23.252 12.4685 23.283C11.1669 23.4523 10.1501 23.598 10.1501 23.598C9.77995 23.6478 9.40576 23.6612 9.03295 23.6381C8.38856 23.598 8.02894 23.4815 8.00704 23.3777C7.97053 23.1956 8.95445 23.5744 9.78139 23.4396C9.85582 23.4286 9.92956 23.4134 10.0023 23.3941C9.94743 23.1628 9.93079 22.9242 9.95298 22.6875C9.96211 21.9264 10.1885 21.8317 10.5463 20.5697C10.5846 20.4332 10.7032 19.7867 10.7288 19.7175C10.7544 19.6483 11.7803 19.2277 12.1764 18.6249C12.295 18.4428 12.3735 18.1861 12.3279 18.1132C12.3005 18.0695 12.1892 18.0586 11.9482 18.0859C11.6744 18.1151 11.4572 18.0859 11.3184 18.1296C11.1797 18.1733 11.1961 18.3117 10.9679 18.5521C10.4605 19.062 10.3692 18.9855 10.1702 19.2441C10.0552 19.3952 9.16986 20.943 8.82302 21.5494C8.79243 21.6182 8.76799 21.6895 8.75 21.7625C9.50392 22.4016 9.39986 22.673 9.32137 22.5783C9.20331 22.4093 9.06056 22.2589 8.89786 22.1321C8.61127 21.9173 8.45793 21.95 8.35023 21.7497C8.11474 21.4274 7.79163 20.6808 6.77485 20.0143C6.77485 20.0143 6.5923 19.2495 6.75659 18.909C6.75659 18.909 7.6456 18.5175 7.86465 17.7709C7.90403 17.6581 7.92077 17.5387 7.91394 17.4194C7.91394 17.1663 7.73139 17.2829 7.60726 17.2592C7.23304 17.1918 6.85152 16.8349 6.24364 16.6419C6.1858 16.633 6.1285 16.6209 6.07205 16.6055C5.90228 16.5363 5.87855 16.3687 5.70695 16.0137C5.69235 15.9863 5.65037 16.0137 5.63394 16.0137C5.47877 16.0592 5.37289 16.2795 5.31265 16.4343C5.60838 16.4634 5.87672 16.753 5.86029 16.7876C5.84386 16.8222 5.80188 16.7566 5.62846 16.6947C5.45979 16.6421 5.28207 16.6248 5.10638 16.6437C4.91079 16.633 4.72167 16.5701 4.55874 16.4616C4.32873 16.3287 4.2977 17.1026 4.46017 17.7363C4.53318 18.0204 4.33786 18.1806 4.23016 18.5066C3.86506 19.6301 3.92895 20.9795 5.22503 22.9097C5.39297 23.1592 5.25059 24.2773 5.34186 24.6979C5.51528 25.5064 5.84021 25.6849 5.84751 26.4624C5.84751 26.9887 5.40758 27.4093 5.15567 27.8646C5.15567 27.8646 4.12245 29.4871 3.97094 30.4376C3.95086 30.5633 3.60585 30.5542 3.5018 30.3957C2.88297 29.4853 3.83403 28.1869 3.97824 26.5917C3.97824 26.5917 4.34333 24.7252 2.85558 23.5798C2.55481 23.3837 2.22706 23.2322 1.88261 23.13C1.88261 23.13 2.85923 24.0059 2.16008 25.0876C0.661377 27.413 0.575579 28.0704 0.732569 29.1848C0.915115 30.5596 1.71467 31.3354 2.37549 31.421C2.55403 31.4607 2.73966 31.4557 2.9158 31.4065C3.09195 31.3572 3.25313 31.2652 3.38497 31.1387C3.47076 31.0677 3.73728 31.1278 3.73728 31.2006C3.73728 31.9636 3.99284 32.6884 4.70843 33.4295C4.78126 33.5341 4.82244 33.6573 4.82708 33.7846C4.86541 34.258 4.80335 34.5803 4.71573 34.6823C4.42548 35.0156 4.22833 34.6641 4.05309 34.8753C3.53283 35.5018 4.96581 38.144 5.22503 38.6484C5.24393 38.6864 5.26996 38.7204 5.3017 38.7486C5.42766 38.8451 6.36229 38.9307 6.53754 38.7941C6.61968 38.7285 6.44809 38.3935 6.42254 38.337C6.34039 38.1549 6.00815 38.1112 5.94609 38.0839C5.65219 37.9473 5.1082 36.8566 4.90192 36.0717C4.8575 35.9141 4.86977 35.746 4.93661 35.5965C4.96799 35.5282 5.01195 35.4664 5.06622 35.4144C5.85847 34.6495 6.73834 33.7991 6.95557 32.9925C7.20931 32.0474 6.78763 31.0968 7.08153 30.9147C7.10526 30.9002 7.16915 30.8455 7.14724 31.0458C7.10708 31.5029 8.13117 31.9672 8.28998 32.6046L8.29181 32.6064ZM5.33821 17.2738C5.31584 17.3422 5.27852 17.4048 5.22896 17.457C5.1794 17.5093 5.11883 17.55 5.05161 17.5761C4.98042 17.5761 4.94209 17.5123 4.94391 17.4504C4.94391 17.2683 4.96764 17.2683 4.77414 16.9515C4.70842 16.8422 5.34734 17.0261 5.33639 17.2719L5.33821 17.2738ZM5.64306 18.8872C5.55457 18.9534 5.44949 18.994 5.33937 19.0046C5.22924 19.0152 5.11832 18.9954 5.01876 18.9472C4.73398 18.7997 4.79057 18.3682 4.88914 18.3591C4.96034 18.3591 5.00232 18.5958 5.16844 18.7233C5.37107 18.8999 5.69052 18.8143 5.64123 18.8853L5.64306 18.8872ZM6.51746 17.6434C6.28745 17.7927 5.92053 17.5669 5.94061 17.5506C6.05014 17.4559 6.14689 17.292 6.25824 17.2228C6.31288 17.1869 6.37903 17.1728 6.4436 17.1832C6.50817 17.1937 6.56645 17.228 6.60691 17.2792C6.63662 17.3068 6.67587 17.3218 6.71643 17.3211C6.78398 17.3211 6.7931 17.332 6.79675 17.3393C6.80041 17.3466 6.79676 17.3721 6.74199 17.4103C6.71344 17.438 6.67917 17.4591 6.64159 17.4723C6.62329 17.5429 6.57811 17.6037 6.51563 17.6416L6.51746 17.6434ZM7.2732 25.1732C7.2732 25.1586 7.29693 25.0439 7.34987 25.0348C7.40281 25.0257 7.40646 25.2296 7.53242 25.3298C7.69306 25.4536 7.96505 25.3571 7.98878 25.4409C8.01251 25.5246 7.87195 25.5483 7.80624 25.5592C7.6722 25.5892 7.53319 25.5892 7.39916 25.5592C7.24399 25.4937 7.24582 25.3116 7.27138 25.1714L7.2732 25.1732ZM1.97936 5.0459C2.55438 5.29538 3.21885 5.21161 3.49814 4.73998C3.54378 4.66168 3.55656 4.4814 3.46711 4.50325C3.06916 4.59976 2.55438 4.69627 2.18929 4.57427C2.03778 4.5251 2.10349 4.28473 2.255 4.33572C2.64688 4.44934 3.06192 4.45751 3.45798 4.35939C3.62593 4.31387 3.64053 4.10446 3.58029 3.94421C3.39775 3.47258 2.70955 3.47076 2.40652 3.50535C1.81325 3.57273 0.885909 4.0735 0.801937 4.14088C1.14094 4.50865 1.54191 4.81434 1.98666 5.04408L1.97936 5.0459ZM1.71101 6.61741C1.72063 6.59743 1.72572 6.57559 1.72593 6.55343C1.72614 6.53127 1.72147 6.50934 1.71224 6.48918C1.70301 6.46903 1.68944 6.45115 1.67251 6.4368C1.65558 6.42246 1.6357 6.412 1.61426 6.40617C1.41565 6.36751 1.21077 6.37498 1.01551 6.42802C0.860349 6.46444 0.79281 6.2259 0.949799 6.18765C1.18163 6.13303 1.80594 6.36975 1.69276 6.17491C1.59967 6.0092 1.38973 5.76337 0.907812 5.86716C0.568829 5.96241 0.261364 6.14593 0.0169852 6.39889C-0.129052 6.55913 0.701535 6.98889 1.17068 6.96521C1.28465 6.95986 1.39523 6.92475 1.49133 6.86339C1.58744 6.80204 1.66571 6.71659 1.71832 6.61558L1.71101 6.61741ZM4.42548 4.17365C4.63984 4.26688 4.87073 4.31641 5.10455 4.31933C5.26702 4.30841 5.51711 4.33754 5.46965 4.18276C5.38567 3.92782 4.93661 3.55634 4.69017 3.4398C4.54596 3.37242 4.67192 3.15937 4.81613 3.22674C5.13193 3.37424 5.23233 3.69474 5.4952 3.93875C5.53536 3.97517 5.56457 3.85134 5.56457 3.78578C5.56457 3.40884 5.36377 2.8753 4.8928 2.77878C4.47112 2.68773 4.02753 2.82795 3.61498 2.96088C3.6022 2.97181 3.77196 3.90779 4.43278 4.17183L4.42548 4.17365ZM19.3231 7.3895C19.3222 7.4019 19.3251 7.41428 19.3315 7.42494C19.338 7.43559 19.3475 7.44399 19.359 7.44899C19.3704 7.45398 19.3831 7.45532 19.3953 7.45282C19.4075 7.45032 19.4186 7.4441 19.4271 7.43503C19.6626 7.18373 19.9748 6.88873 20.2376 6.83774C20.3946 6.80315 20.4603 7.04169 20.3034 7.07811C20.09 7.1374 19.8937 7.24594 19.7302 7.39496C19.6809 7.43503 19.6298 7.48055 19.5786 7.52972C19.5613 7.54744 19.5487 7.56925 19.542 7.59311C19.5353 7.61698 19.5348 7.64215 19.5404 7.66628C19.546 7.69042 19.5577 7.71275 19.5743 7.73121C19.5908 7.74967 19.6118 7.76367 19.6352 7.77191C19.9875 7.88663 20.4658 7.70635 20.7305 7.40771C20.9952 7.10907 21.2544 6.35154 21.1248 6.35154C20.8875 6.35154 20.0423 6.43531 19.6644 6.65929C19.449 6.78676 19.3359 7.14731 19.3304 7.38768L19.3231 7.3895ZM20.0533 2.00851C20.3618 1.79363 20.5881 1.34203 20.7269 0.999688C20.7853 0.854009 21.0262 0.917744 20.966 1.06706C20.8327 1.38283 20.635 1.66747 20.3855 1.90289C20.3737 1.91359 20.3656 1.92779 20.3624 1.94339C20.3593 1.959 20.3612 1.97521 20.3679 1.98965C20.3746 2.00409 20.3858 2.01601 20.3998 2.02366C20.4138 2.03131 20.4299 2.0343 20.4457 2.03218C20.6649 1.98681 20.8686 1.88583 21.0372 1.739C21.4187 1.40577 21.2928 0.245803 21.2343 0.253087C20.966 0.280401 20.0496 0.762961 19.8798 1.00515C19.6535 1.32564 19.6973 1.8082 19.8926 1.99394C19.9157 2.01509 19.9455 2.02756 19.9768 2.02922C20.0081 2.03088 20.039 2.02163 20.0642 2.00305L20.0533 2.00851ZM28.7406 12.3954C28.9469 12.3826 28.5782 11.6123 28.193 11.3392C28.0251 11.219 27.4263 10.975 26.9918 11.1079C26.9444 11.1225 26.8568 11.2245 26.9042 11.2372C27.1762 11.3082 27.5249 11.4193 27.6764 11.5705C27.7877 11.6852 27.6107 11.8618 27.4938 11.7526C27.2555 11.5378 26.9495 11.4129 26.6286 11.3993C26.5798 11.4037 26.5328 11.4198 26.4915 11.4461C26.4502 11.4724 26.4158 11.5082 26.3913 11.5504C26.2087 11.9146 26.4898 12.2406 26.8203 12.3881C27.2529 12.5738 27.9648 12.4409 28.7406 12.3954ZM19.1314 4.61797C18.5327 4.85106 18.425 5.50661 18.5144 5.9655C18.5161 5.9758 18.5211 5.98526 18.5287 5.99241C18.5363 5.99956 18.5461 6.004 18.5565 6.00504C18.5669 6.00608 18.5774 6.00365 18.5863 5.99815C18.5952 5.99265 18.602 5.98437 18.6057 5.9746C18.7295 5.68 18.8902 5.40222 19.0839 5.14788C19.1843 5.02405 19.3596 5.20068 19.2665 5.32997C19.031 5.62133 18.6166 6.0092 18.7189 6.38796C18.7253 6.41151 18.7386 6.4326 18.7572 6.4485C18.7757 6.46441 18.7986 6.4744 18.8229 6.47719C19.0122 6.44674 19.1824 6.34426 19.2975 6.1913C19.4962 6.00189 19.6845 5.8019 19.8616 5.5922C19.9638 5.47019 20.1391 5.64682 20.0441 5.77429C19.8181 5.98762 19.5797 6.18766 19.3304 6.37339C19.2574 6.44259 19.2738 6.46809 19.3742 6.45352C19.6882 6.40799 20.2504 6.25139 20.38 6.08932C20.8765 5.50843 20.9277 4.49961 20.8674 4.24831C20.8601 4.22464 20.2303 4.18822 19.1314 4.61797ZM25.6775 5.54121C25.285 5.67232 24.5165 6.06019 24.1478 6.58645C23.7553 7.14731 23.7516 7.95218 24.0218 7.92305C24.0711 7.92305 24.1131 7.92305 24.1587 7.92305C24.1587 7.92305 24.1587 7.92305 24.1587 7.91394C24.5472 7.5799 24.7945 7.11142 24.8506 6.60284C24.878 6.44623 25.1171 6.51361 25.0897 6.67021C25.0276 7.14072 24.824 7.58137 24.5056 7.93397C24.6114 7.9449 24.7118 7.96311 24.8104 7.98314C24.9627 7.89075 25.0928 7.76599 25.1912 7.61774C25.2896 7.46949 25.3541 7.3014 25.38 7.12546C25.3946 6.96703 25.6428 6.96521 25.63 7.12546C25.587 7.48729 25.4067 7.81894 25.1262 8.05234C25.2912 8.08936 25.4582 8.11672 25.6264 8.13428C25.8382 8.15431 26.3055 7.54246 26.028 6.93244C25.8893 6.5992 25.7012 5.5321 25.6775 5.54121ZM24.5001 9.32884C24.193 9.33173 23.8904 9.40329 23.6147 9.53825C23.5978 9.54892 23.584 9.56395 23.5749 9.58177C23.5658 9.59958 23.5617 9.61952 23.563 9.63947C23.5643 9.65942 23.571 9.67865 23.5824 9.69513C23.5937 9.71161 23.6093 9.72473 23.6275 9.7331C24.0122 9.87119 24.4343 9.86407 24.8141 9.71307C25.2065 9.56375 26.0024 8.49848 25.8747 8.46024C25.5096 8.3528 24.3668 8.02502 23.7845 8.20348C23.3829 8.32548 23.0251 9.19227 23.2131 9.0211C23.3391 8.9082 23.8101 8.52579 24.1149 8.46024C24.2701 8.42564 24.3376 8.66601 24.1806 8.69878C23.8265 8.77526 23.2423 9.14857 23.2113 9.36344C23.1985 9.45085 23.2405 9.51094 23.2843 9.48727C23.5435 9.35251 24.1478 9.09211 24.5001 9.08119C24.6589 9.07573 24.6589 9.32338 24.5001 9.32884ZM29.7282 10.0336C29.4325 9.53097 28.8155 9.03749 28.0123 9.26511C27.932 9.28696 27.8425 9.41989 27.9247 9.4381C28.201 9.48608 28.4663 9.58356 28.7078 9.72582C28.8356 9.82051 28.7078 10.0354 28.5837 9.93887C28.2859 9.73145 27.9318 9.61964 27.5687 9.61838C27.5248 9.61977 27.483 9.63792 27.4521 9.66909C27.4212 9.70026 27.4035 9.74207 27.4026 9.78591C27.4026 10.1501 27.7823 10.5999 28.2897 10.6709C28.7972 10.7419 29.6114 10.7419 30.0422 10.9732C30.1608 11.0387 29.8542 10.243 29.7282 10.0336ZM21.4881 9.23961C21.4777 9.2444 21.4692 9.25239 21.4638 9.26239C21.4584 9.27239 21.4563 9.28387 21.458 9.29512C21.4596 9.30637 21.4648 9.31679 21.4729 9.32484C21.481 9.33288 21.4914 9.33812 21.5027 9.33977C21.9695 9.38846 22.4374 9.25827 22.8115 8.97557C23.2004 8.61138 23.56 7.40407 23.706 6.7995C23.717 6.75398 22.211 6.7995 21.4881 7.1637C21.1449 7.33305 20.924 7.76462 20.8747 8.19984C20.8492 8.422 20.893 8.51304 20.9149 8.4748C21.1114 8.1247 21.3573 7.80458 21.6451 7.52425C21.7674 7.4241 21.9444 7.59891 21.8276 7.70635C21.4625 8.00317 21.0007 8.3874 20.935 8.83354C20.9332 8.84581 20.9353 8.85834 20.9409 8.86939C20.9466 8.88044 20.9555 8.88948 20.9665 8.89527C20.9775 8.90105 20.99 8.9033 21.0023 8.9017C21.0147 8.90011 21.0262 8.89474 21.0354 8.88634C21.4141 8.51444 21.8152 8.16599 22.2365 7.84292C22.3661 7.75005 22.4921 7.96675 22.3607 8.0578C22.3223 8.08511 22.2237 8.1707 22.1562 8.22169C21.5027 8.72792 21.322 8.76798 21.0609 9.03384C21.0354 9.05934 20.9843 9.09758 21.008 9.15039C21.0317 9.20319 21.1175 9.17406 21.1431 9.17042C21.5082 9.13036 22.1489 8.72064 22.5195 8.40561C22.6399 8.30181 22.817 8.47662 22.702 8.5877C22.3287 8.8587 21.9204 9.078 21.4881 9.23961ZM27.1926 7.74459C26.7527 7.6153 26.4351 7.67175 26.2544 7.87934C26.1978 7.94672 26.1886 8.13792 26.2781 8.12518C26.572 8.08329 26.9718 8.03048 27.2127 8.12518C27.3606 8.18527 27.2949 8.42564 27.147 8.36554C26.8249 8.24063 26.4692 8.23161 26.1412 8.34005C26.1242 8.34752 26.1098 8.35977 26.0998 8.37531C26.0897 8.39084 26.0844 8.40897 26.0846 8.42746C26.081 8.48021 26.081 8.53314 26.0846 8.58588C26.1229 9.01928 26.5464 9.27057 27.1324 9.15949C27.5729 9.08353 28.0064 8.97146 28.4285 8.82443C28.3938 8.71699 27.8188 7.92851 27.1926 7.74459ZM27.3551 10.8858C27.4 10.6328 27.3757 10.3725 27.2847 10.1322C27.1938 9.89184 27.0397 9.68039 26.8385 9.52004C26.4734 9.24508 25.8217 9.07573 25.599 9.37437C25.5892 9.38942 25.5834 9.40676 25.5823 9.42471C25.5811 9.44266 25.5847 9.46058 25.5926 9.47674C25.6005 9.4929 25.6125 9.50672 25.6274 9.51687C25.6423 9.52701 25.6595 9.53313 25.6775 9.53461C25.9459 9.55647 26.2781 9.59653 26.4241 9.71671C26.5702 9.83689 26.373 9.98986 26.2416 9.89881C26.0171 9.75737 25.7522 9.69339 25.4877 9.71671C25.4314 9.72481 25.3802 9.75356 25.3441 9.79735C25.3079 9.84114 25.2895 9.8968 25.2923 9.95344C25.3033 10.2302 25.5297 10.4742 25.955 10.5853C26.4162 10.7094 26.8835 10.8096 27.3551 10.8858ZM21.457 4.37032C21.07 4.62526 21.0335 5.20615 21.1321 5.71602C21.1595 5.86534 21.2836 6.03469 21.3019 5.94C21.4034 5.44797 21.6676 5.0042 22.0521 4.67988C22.1836 4.58884 22.3077 4.80371 22.1781 4.89476C21.7747 5.17519 21.3092 5.76883 21.499 6.34062C21.5031 6.35461 21.5114 6.36705 21.5226 6.37634C21.5339 6.38562 21.5477 6.39132 21.5622 6.39269C21.5768 6.39407 21.5914 6.39105 21.6042 6.38404C21.617 6.37703 21.6275 6.36634 21.6341 6.35336C21.9317 5.86898 22.2 5.29538 22.8152 4.87473C22.9612 4.77458 23.047 4.96578 22.8919 5.1151C22.4571 5.52988 22.0768 5.99796 21.7601 6.50815C21.6816 6.63379 21.8842 6.62105 21.9244 6.6083C22.315 6.47901 22.6199 6.12574 22.9156 5.80161C23.0251 5.68324 23.2004 5.85806 23.0981 5.98371C22.8927 6.18012 22.6744 6.36262 22.4446 6.53C22.4302 6.54173 22.4197 6.55768 22.4148 6.57561C22.4099 6.59355 22.4107 6.61257 22.4171 6.63002C22.4236 6.64747 22.4353 6.66248 22.4507 6.67295C22.4661 6.68342 22.4844 6.68883 22.503 6.68842C23.0507 6.66657 23.5801 6.4171 23.8119 6.12392C24.2482 5.57763 24.2555 4.04801 24.1496 4.01523C24.0437 3.98245 22.2584 3.83313 21.457 4.37032ZM22.1544 3.73116C22.2438 3.71295 22.3369 3.69838 22.4172 3.68381C22.5729 3.66207 22.7142 3.58117 22.8115 3.45801C22.9682 3.24011 23.0776 2.99204 23.1328 2.72962C23.1639 2.57301 23.403 2.64039 23.3738 2.79517C23.2876 3.093 23.1311 3.36588 22.9174 3.59094C22.8553 3.66014 23.1365 3.67471 23.2642 3.62918C23.3143 3.61429 23.3596 3.58668 23.3957 3.54906C23.6368 3.24244 23.7873 2.87476 23.8301 2.48743C23.8539 2.329 24.093 2.39638 24.0693 2.55298C23.9849 2.88388 23.8421 3.19713 23.6476 3.47804C23.6395 3.49203 23.6351 3.50787 23.6348 3.52405C23.6345 3.54022 23.6385 3.55619 23.6461 3.57043C23.6538 3.58468 23.665 3.59672 23.6787 3.60541C23.6924 3.6141 23.7081 3.61915 23.7243 3.62008C23.8867 3.631 24.1113 3.64375 24.166 3.63646C24.3614 3.60915 24.5603 2.2598 24.4161 1.62246C24.3851 1.48407 23.2551 1.8428 22.7641 2.17968C22.116 2.62036 21.9098 3.77122 22.158 3.72205L22.1544 3.73116ZM30.3562 8.54582C30.0057 8.24718 29.2481 8.10879 29.0784 8.29817C28.9086 8.48755 29.6114 8.46388 29.7903 8.57314C29.8188 8.5898 29.8396 8.6171 29.848 8.64903C29.8564 8.68096 29.8517 8.7149 29.835 8.7434C29.8183 8.77189 29.7909 8.7926 29.7589 8.80097C29.7269 8.80933 29.6929 8.80467 29.6643 8.78801C29.5322 8.70941 29.3905 8.6482 29.2426 8.60591C29.1934 8.59135 29.1276 8.56767 29.0601 8.54946C29.036 8.54304 29.0108 8.54223 28.9864 8.54708C28.9619 8.55194 28.9389 8.56234 28.9192 8.57748C28.8994 8.59262 28.8834 8.61209 28.8724 8.63439C28.8614 8.65668 28.8556 8.68121 28.8556 8.70607C28.8647 8.83357 28.9087 8.95616 28.9827 9.0605C29.0567 9.16484 29.158 9.24694 29.2755 9.29789C29.9673 9.56375 30.3361 9.56739 30.8107 9.75313C30.9294 9.79501 30.7432 8.86267 30.3598 8.53672L30.3562 8.54582ZM24.6534 4.96942C24.5202 4.98035 24.4837 5.15152 24.4709 5.28445C24.4709 5.30266 24.4709 5.32269 24.4709 5.3409C24.4033 5.88719 25.9404 5.46108 26.4095 4.43041C26.6706 3.85134 26.7618 2.58394 26.6541 2.61854C25.672 2.93175 24.3942 3.29958 24.4764 3.89322V3.93875C24.5019 4.13723 24.5129 4.42495 24.6881 4.32662C24.9696 4.14736 25.221 3.92489 25.4329 3.66742C25.5205 3.53449 25.7359 3.65832 25.6483 3.79307C25.3997 4.14717 25.0359 4.40453 24.6187 4.52146C24.5913 4.52843 24.5669 4.54444 24.5497 4.56691C24.5325 4.58939 24.5234 4.617 24.5238 4.64529C24.5236 4.66534 24.5278 4.68519 24.536 4.70351C24.5441 4.72183 24.5562 4.73818 24.5712 4.75147C24.5863 4.76476 24.604 4.77468 24.6232 4.78055C24.6424 4.78642 24.6627 4.78811 24.6826 4.7855C24.7933 4.76935 24.9021 4.74252 25.0076 4.70538C25.2667 4.63317 25.5014 4.4922 25.6866 4.29748C25.7943 4.17912 25.9696 4.35575 25.8692 4.47958C25.6264 4.73451 25.0733 4.93482 24.6534 4.96942ZM19.9821 3.27773C19.9848 3.29149 19.9916 3.30411 20.0017 3.3139C20.0117 3.3237 20.0246 3.33021 20.0384 3.33258C20.0523 3.33495 20.0665 3.33306 20.0793 3.32717C20.092 3.32128 20.1027 3.31166 20.1099 3.29958C20.2825 2.9949 20.5276 2.73726 20.8236 2.54934C20.8516 2.53663 20.8834 2.53475 20.9127 2.54408C20.942 2.55342 20.9669 2.57328 20.9823 2.59983C20.9978 2.62638 21.0028 2.65772 20.9964 2.68776C20.99 2.7178 20.9727 2.7444 20.9477 2.76239C20.5972 2.9627 20.1372 3.27227 20.1646 3.68199C20.1704 3.71066 20.1838 3.73727 20.2034 3.75904C20.223 3.78082 20.248 3.79697 20.276 3.80582C20.3427 3.81004 20.4096 3.80041 20.4725 3.77753C20.5353 3.75465 20.5927 3.71902 20.6411 3.67288C20.8405 3.53256 21.0114 3.35585 21.1449 3.15208C21.1616 3.12359 21.189 3.10288 21.221 3.09451C21.253 3.08615 21.287 3.09081 21.3156 3.10747C21.3441 3.12413 21.3649 3.15143 21.3733 3.18336C21.3817 3.21529 21.377 3.24924 21.3603 3.27773C21.2118 3.48011 21.0205 3.64736 20.7999 3.76757C20.7287 3.81492 20.5352 3.88048 20.5936 3.9606C20.652 4.04072 20.9842 3.9952 21.2051 3.91507C21.6542 3.74937 21.7236 3.41066 21.8732 3.03736C21.9298 2.89715 22.1325 2.00487 22.0558 1.98484C21.74 1.90471 20.7488 2.08681 20.2431 2.35814C19.9821 2.49653 19.8963 2.91354 19.9821 3.27773ZM22.096 1.78453C22.3658 1.65975 22.5894 1.45331 22.7349 1.19453C22.8243 1.06342 23.0397 1.19453 22.9503 1.32018C22.8006 1.53506 22.2639 1.80456 22.4026 1.86647C22.4775 1.89925 23.0543 1.87558 23.2569 1.52959C23.3977 1.17878 23.46 0.801564 23.4395 0.424259C23.4395 0.304074 22.0065 0.937775 21.855 1.322C21.7564 1.5824 21.9262 1.85737 22.096 1.78635V1.78453ZM24.8342 2.37271C25.0769 2.1032 25.2431 1.89925 25.537 1.78271C25.6866 1.72262 25.7505 1.96481 25.6045 2.02126C25.2947 2.1643 25.0209 2.37459 24.8031 2.63675C24.7878 2.65878 24.7782 2.68422 24.775 2.71083C24.7719 2.73745 24.7753 2.76443 24.785 2.78941C24.7948 2.8144 24.8105 2.83662 24.8308 2.85413C24.8512 2.87164 24.8755 2.88391 24.9017 2.88986C25.1299 2.92992 25.6063 2.7806 25.9495 2.52567C26.2233 2.32718 26.8787 1.77542 26.8403 1.73718C26.6779 1.56965 25.8564 1.24006 25.2193 1.59151C24.783 1.83916 24.6735 2.54934 24.836 2.36724L24.8342 2.37271ZM28.6329 6.57006C27.7202 6.43349 27.4829 7.16188 27.4902 7.32577C27.5011 7.57888 28.1693 7.19101 28.4942 7.0599C28.6439 7.00163 28.7078 7.242 28.5599 7.30027C28.3068 7.40152 28.0446 7.47836 27.7768 7.52972C27.7551 7.53356 27.7348 7.5432 27.7181 7.55761C27.7014 7.57202 27.6889 7.59067 27.682 7.61158C27.6751 7.63249 27.6739 7.65488 27.6787 7.67637C27.6835 7.69787 27.6941 7.71766 27.7093 7.73367C27.833 7.85455 27.9846 7.94319 28.1508 7.99178C28.317 8.04037 28.4926 8.04741 28.6621 8.01227C29.1349 7.92669 29.9071 7.06355 29.887 7.04898C29.4938 6.83279 29.0723 6.67222 28.6348 6.57188L28.6329 6.57006ZM30.8417 5.60676C30.3092 5.43041 29.7508 5.34424 29.1897 5.35183C28.9232 5.36821 28.58 5.41556 28.3646 5.63044C28.3044 5.69053 28.2405 5.81253 28.2788 5.87445C28.4321 6.13303 29.1915 5.95093 29.5311 5.84531C29.6844 5.79797 29.7483 6.02741 29.5968 6.08568C29.1514 6.235 28.319 6.05654 28.3792 6.18583C28.4869 6.41528 28.8812 6.50815 29.438 6.45352C30.0513 6.39707 30.9495 5.645 30.8436 5.60858L30.8417 5.60676ZM26.8841 3.9351C27.147 3.69109 27.2492 3.3706 27.5632 3.2231C27.7074 3.15573 27.8334 3.36878 27.6892 3.43616C27.4427 3.5527 26.9937 3.92418 26.9097 4.17912C26.8586 4.3339 27.1087 4.30476 27.2748 4.31569C27.5086 4.31276 27.7395 4.26323 27.9539 4.17001C28.6147 3.90597 28.7845 2.96999 28.7644 2.9627C28.3555 2.82431 27.9119 2.68409 27.4865 2.7806C27.0156 2.88076 26.8093 3.41066 26.8148 3.78761C26.8166 3.84952 26.8458 3.97335 26.886 3.93693L26.8841 3.9351Z" fill="currentColor"/>
</g>
<defs>
<clipPath id="clip0_1046_9674">
<rect width="32" height="42" fill="white"/>
</clipPath>
</defs>
</svg>
