<svg width="244" height="140" viewBox="0 0 244 140" fill="none" xmlns="http://www.w3.org/2000/svg">
<g clip-path="url(#clip0_928_9418)">
<path fill-rule="evenodd" clip-rule="evenodd" d="M19.1994 101.983C17.563 100.923 14.9438 100.16 11.3418 99.696L9.73261 99.5078C5.39522 98.9723 3.22653 97.8503 3.22653 96.1415C3.22653 95.0727 3.77342 94.1922 4.86719 93.4999C5.96411 92.8066 7.41305 92.4615 9.22344 92.4615C11.213 92.4354 13.1864 92.821 15.0192 93.594C16.7625 94.347 18.0313 95.3446 18.8254 96.587H20.0323V91.4262C19.4174 91.6944 18.7787 91.9044 18.1245 92.0536C17.5683 92.1776 17.0003 92.2418 16.4304 92.245C15.2418 92.1659 14.0615 91.9917 12.9008 91.7242C11.433 91.4099 9.93852 91.2366 8.43768 91.2066C5.88344 91.2066 3.83523 91.7389 2.29305 92.8034C0.750865 93.868 -0.0139398 95.2557 -0.00136766 96.9666C-0.0287352 97.763 0.165622 98.5515 0.560114 99.2443C0.954606 99.9371 1.53379 100.507 2.23333 100.891C3.72522 101.789 6.47747 102.477 10.4901 102.956C13.6122 103.338 15.7243 103.843 16.8264 104.471C17.3384 104.73 17.7659 105.129 18.0587 105.622C18.3515 106.115 18.4975 106.681 18.4797 107.254C18.4797 108.622 17.8437 109.756 16.5718 110.658C15.3 111.559 13.652 112.007 11.6279 112C9.44446 112.046 7.27719 111.618 5.27579 110.745C3.41301 109.882 2.14113 108.759 1.46014 107.376H0.253218V112.75C0.752958 112.494 1.28015 112.295 1.82473 112.157C2.34841 112.03 2.88552 111.966 3.42454 111.966C4.01962 111.966 5.23493 112.181 7.07046 112.612C8.59104 112.999 10.1503 113.215 11.719 113.255C14.686 113.255 17.0842 112.61 18.9134 111.32C20.7427 110.029 21.6573 108.374 21.6573 106.353C21.6573 104.498 20.838 103.041 19.1994 101.983ZM39.7863 92.8223H39.912C40.9304 92.8223 41.6344 93.067 42.021 93.5627C42.4076 94.0584 42.6056 94.9933 42.6056 96.3862V108.17C42.6056 109.522 42.4139 110.447 42.0336 110.94C41.6533 111.433 40.9461 111.687 39.9152 111.687H39.7894V112.891H48.9042V111.687H48.7754C47.757 111.687 47.0561 111.439 46.6664 110.946C46.2767 110.454 46.0849 109.528 46.0849 108.176V96.3768C46.0849 94.9943 46.2829 94.0531 46.679 93.5533C47.0718 93.0576 47.7727 92.8129 48.7754 92.8129H48.9042V91.6081H39.7894L39.7863 92.8223ZM86.5043 100.48C87.5328 100.236 88.4611 99.6817 89.1634 98.8929C89.5451 98.448 89.8268 97.9266 89.9895 97.3639C90.1523 96.8012 90.1923 96.2101 90.1068 95.6306C90.0213 95.0512 89.8123 94.4967 89.494 94.0047C89.1756 93.5127 88.7553 93.0945 88.2613 92.7783C87.0041 91.9919 85.1466 91.5977 82.6887 91.5956H67.049V92.8223H67.1527C67.9447 92.8223 68.4958 93.0544 68.8059 93.5187C69.116 93.9831 69.2721 94.9242 69.2742 96.3423V108.17C69.2742 109.578 69.1202 110.516 68.8185 110.993C68.5168 111.47 67.973 111.687 67.1967 111.687H67.049V112.891H81.4032C84.4268 112.891 86.783 112.282 88.4719 111.062C90.1607 109.843 91.0052 108.154 91.0052 105.996C91.028 104.756 90.6079 103.548 89.8202 102.589C88.9566 101.564 87.7994 100.829 86.5043 100.48ZM72.7473 92.8223H81.9029C82.9661 92.7791 84.0079 93.1287 84.8291 93.8042C85.1957 94.1057 85.4892 94.4861 85.6873 94.917C85.8855 95.3479 85.9832 95.8181 85.9732 96.2921C85.9874 96.8048 85.8704 97.3126 85.6334 97.7677C85.3964 98.2227 85.0471 98.61 84.6185 98.8929C83.7133 99.5203 82.4488 99.8341 80.8249 99.8341H72.7473V92.8223ZM85.0837 110.19C83.9124 111.188 82.1743 111.687 79.8694 111.687H72.7473V101.092H81.2052C82.9422 101.092 84.3168 101.523 85.3288 102.385C85.8248 102.804 86.2189 103.33 86.4814 103.924C86.7438 104.517 86.8677 105.162 86.8438 105.811C86.8438 107.743 86.2571 109.203 85.0837 110.19ZM109.335 92.8223H109.546C110.281 92.8223 110.798 93.0649 111.095 93.5501C111.393 94.0353 111.541 94.9629 111.539 96.3329V108.16C111.539 109.513 111.385 110.438 111.073 110.931C110.762 111.423 110.212 111.671 109.42 111.671H109.335V112.876H129.595V107.671H128.388C127.823 109.098 127.059 110.118 126.1 110.739C125.142 111.36 123.818 111.68 122.137 111.68H115.015V101.917H117.177C118.927 101.917 120.212 102.126 121.034 102.545C121.412 102.714 121.734 102.988 121.96 103.336C122.186 103.683 122.306 104.088 122.307 104.502L123.514 104.524V98.1556H122.307C122.304 98.5716 122.183 98.9782 121.957 99.3281C121.732 99.678 121.412 99.9568 121.034 100.132C120.229 100.55 118.944 100.76 117.177 100.76H115.015V92.8223H122.137C123.803 92.8223 125.12 93.1182 126.088 93.7101C127.056 94.302 127.823 95.2756 128.388 96.6309H129.595V91.6081H109.335V92.8223ZM174.959 111.037C174.711 111.109 174.453 111.144 174.195 111.141C172.978 111.141 171.572 109.872 169.977 107.335C169.496 106.601 169.122 106.021 168.855 105.6C168.395 104.905 167.877 104.25 167.305 103.643C166.912 103.23 166.455 102.884 165.951 102.617C168.421 102.546 170.381 102.017 171.831 101.029C173.281 100.042 174.005 98.7517 174.003 97.158C174.003 95.3258 173.165 93.9402 171.489 93.0011C169.813 92.062 167.338 91.5977 164.065 91.6081H150.182V92.8348H150.393C151.128 92.8348 151.637 93.0638 151.92 93.5219C152.203 93.9799 152.345 94.9211 152.345 96.3454V108.173C152.345 109.569 152.194 110.501 151.898 110.974C151.603 111.448 151.059 111.687 150.267 111.687H150.182V112.891H158.002V111.687H157.917C157.125 111.687 156.578 111.45 156.277 110.978C155.962 110.504 155.821 109.572 155.821 108.176V102.617H161.032C161.871 102.621 162.676 102.948 163.279 103.53C163.941 104.132 164.811 105.387 165.888 107.294C165.985 107.451 166.121 107.683 166.29 107.994C168.251 111.502 170.215 113.255 172.18 113.255C172.919 113.269 173.654 113.139 174.343 112.873C175.021 112.579 175.634 112.153 176.144 111.618L175.616 110.708C175.413 110.847 175.192 110.958 174.959 111.037ZM163.895 101.431H155.821V92.8223H163.895C165.674 92.8223 167.112 93.2238 168.207 94.027C168.721 94.3727 169.14 94.8404 169.427 95.3881C169.714 95.9358 169.86 96.5462 169.851 97.1642C169.858 97.7755 169.712 98.3787 169.424 98.9186C169.137 99.4585 168.719 99.9179 168.207 100.254C167.112 101.039 165.674 101.431 163.895 101.431ZM191.985 92.8223H192.11C193.129 92.8223 193.829 93.067 194.219 93.5627C194.609 94.0584 194.801 94.9933 194.801 96.3862V108.17C194.801 109.522 194.612 110.447 194.229 110.94C193.845 111.433 193.141 111.68 192.11 111.68H191.985V112.885H201.099V111.687H200.974C199.955 111.687 199.252 111.44 198.865 110.946C198.475 110.454 198.28 109.528 198.28 108.176V96.3768C198.28 94.9943 198.478 94.0531 198.874 93.5533C199.27 93.0576 199.968 92.8129 200.974 92.8129H201.099V91.6081H191.985V92.8223ZM242.238 110.868C241.66 110.413 241.165 109.861 240.777 109.236L229.333 91.2128L220.602 107.166C219.623 108.942 218.772 110.125 218.047 110.717C217.289 111.316 216.354 111.647 215.388 111.658V112.863H223.632V111.687C222.949 111.681 222.281 111.486 221.702 111.125C221.484 110.995 221.304 110.811 221.178 110.592C221.052 110.372 220.984 110.123 220.982 109.87C220.994 109.486 221.073 109.107 221.215 108.75C221.422 108.213 221.662 107.689 221.934 107.182L223.192 104.791H233.96L236.078 108.132C236.314 108.47 236.513 108.832 236.672 109.211C236.791 109.5 236.855 109.809 236.861 110.121C236.869 110.334 236.829 110.546 236.745 110.742C236.66 110.938 236.534 111.113 236.374 111.254C236.017 111.552 235.562 111.706 235.098 111.687H234.884V112.891H243.999V111.687C243.354 111.56 242.75 111.279 242.238 110.868ZM223.908 103.567L228.145 95.7619L233.174 103.567H223.908Z" fill="currentColor"/>
<path d="M81.1875 138.417V131.075L84.7586 134.879L88.3296 131.075V138.417H87.1324V133.918L84.7586 136.484L82.3744 133.918V138.417H81.1875Z" fill="currentColor"/>
<path d="M100.343 138.499C99.3057 138.499 98.4257 138.141 97.7026 137.425C96.9863 136.709 96.6282 135.83 96.6282 134.787C96.6282 133.744 96.9863 132.865 97.7026 132.149C98.4257 131.433 99.3057 131.075 100.343 131.075C101.373 131.075 102.249 131.437 102.972 132.159C103.695 132.875 104.057 133.751 104.057 134.787C104.057 135.823 103.695 136.702 102.972 137.425C102.249 138.141 101.373 138.499 100.343 138.499ZM100.343 137.353C101.052 137.353 101.645 137.108 102.123 136.617C102.6 136.12 102.839 135.51 102.839 134.787C102.839 134.064 102.6 133.458 102.123 132.967C101.645 132.469 101.052 132.221 100.343 132.221C99.6263 132.221 99.0294 132.469 98.5519 132.967C98.0744 133.458 97.8356 134.064 97.8356 134.787C97.8356 135.51 98.0744 136.12 98.5519 136.617C99.0294 137.108 99.6263 137.353 100.343 137.353Z" fill="currentColor"/>
<path d="M114.132 138.499C113.593 138.499 113.109 138.386 112.679 138.161C112.249 137.936 111.915 137.636 111.676 137.261L112.577 136.505C112.754 136.757 112.979 136.965 113.252 137.128C113.525 137.292 113.812 137.374 114.112 137.374C114.466 137.374 114.743 137.299 114.941 137.149C115.138 136.999 115.237 136.794 115.237 136.535C115.237 136.276 115.152 136.062 114.981 135.891C114.818 135.714 114.548 135.544 114.173 135.38L113.6 135.135C112.515 134.651 111.973 133.938 111.973 132.998C111.973 132.432 112.188 131.972 112.618 131.617C113.048 131.256 113.552 131.075 114.132 131.075C114.971 131.075 115.65 131.382 116.168 131.996L115.34 132.844C115.155 132.613 114.968 132.449 114.777 132.354C114.593 132.251 114.371 132.2 114.112 132.2C113.852 132.2 113.631 132.272 113.447 132.415C113.262 132.558 113.17 132.749 113.17 132.987C113.17 133.226 113.249 133.427 113.406 133.591C113.569 133.754 113.839 133.918 114.214 134.082L114.777 134.327C115.882 134.818 116.434 135.52 116.434 136.433C116.434 137.047 116.223 137.544 115.8 137.926C115.384 138.308 114.828 138.499 114.132 138.499Z" fill="currentColor"/>
<path d="M127.918 138.499C126.881 138.499 126.001 138.141 125.278 137.425C124.562 136.709 124.204 135.83 124.204 134.787C124.204 133.744 124.562 132.865 125.278 132.149C126.001 131.433 126.881 131.075 127.918 131.075C128.525 131.075 129.088 131.212 129.606 131.484C130.132 131.75 130.551 132.098 130.865 132.527L129.995 133.274C129.77 132.947 129.477 132.691 129.115 132.507C128.761 132.316 128.361 132.221 127.918 132.221C127.202 132.221 126.605 132.469 126.127 132.967C125.65 133.458 125.411 134.064 125.411 134.787C125.411 135.51 125.65 136.12 126.127 136.617C126.605 137.108 127.202 137.353 127.918 137.353C128.361 137.353 128.761 137.261 129.115 137.077C129.477 136.886 129.77 136.627 129.995 136.3L130.865 137.047C130.551 137.476 130.132 137.827 129.606 138.1C129.088 138.366 128.525 138.499 127.918 138.499Z" fill="currentColor"/>
<path d="M142.131 138.499C141.094 138.499 140.214 138.141 139.491 137.425C138.774 136.709 138.416 135.83 138.416 134.787C138.416 133.744 138.774 132.865 139.491 132.149C140.214 131.433 141.094 131.075 142.131 131.075C143.161 131.075 144.037 131.437 144.76 132.159C145.483 132.875 145.845 133.751 145.845 134.787C145.845 135.823 145.483 136.702 144.76 137.425C144.037 138.141 143.161 138.499 142.131 138.499ZM142.131 137.353C142.84 137.353 143.433 137.108 143.911 136.617C144.388 136.12 144.627 135.51 144.627 134.787C144.627 134.064 144.388 133.458 143.911 132.967C143.433 132.469 142.84 132.221 142.131 132.221C141.414 132.221 140.817 132.469 140.34 132.967C139.862 133.458 139.624 134.064 139.624 134.787C139.624 135.51 139.862 136.12 140.34 136.617C140.817 137.108 141.414 137.353 142.131 137.353Z" fill="currentColor"/>
<path d="M155.656 138.499L153.149 131.157H154.377L155.799 135.482L157.6 131.075L159.411 135.482L160.833 131.157H162.061L159.554 138.499L157.61 133.724L155.656 138.499Z" fill="currentColor"/>
<path class="img" fill-rule="evenodd" clip-rule="evenodd" d="M96.7748 9.66278C96.583 9.72866 98.1389 11.0212 99.1918 11.1216C100.15 11.2157 100.829 11.0557 101.015 10.6604C101.122 10.4377 99.6852 10.7451 98.9183 10.4879C98.6575 10.3969 98.7675 9.99219 99.0315 10.0738C99.6161 10.2557 100.917 10.5695 101.188 10.124C101.254 10.0079 101.144 9.81023 101.04 9.70356C100.669 9.33337 100.078 9.2518 99.6192 9.22356C98.6532 9.21049 97.6917 9.35895 96.7748 9.66278ZM123.013 8.7216C123.406 8.40787 124.147 7.79924 124.27 7.2565C124.499 6.15845 123.462 3.65178 123.242 3.69884C122.595 3.83688 120.989 5.04786 120.489 6.2463C120.278 6.75454 120.615 7.64866 120.898 8.00944C120.948 8.07219 121.064 8.0565 121.055 7.97493C120.989 7.37165 121.033 6.76141 121.187 6.17414C121.278 5.91689 121.69 6.02983 121.598 6.29022C121.366 6.99772 121.277 7.74406 121.334 8.48631C121.375 8.82513 121.649 9.01023 121.699 8.76239C121.821 7.73777 122.067 6.7317 122.431 5.7663C122.532 5.51218 122.947 5.62512 122.843 5.87924C122.435 6.90199 121.796 8.81886 122.001 9.05729C122.042 9.10121 122.123 9.08552 122.177 9.05729C122.463 8.95376 122.607 8.50827 122.699 8.18827C122.818 7.77415 122.95 7.3914 123.054 6.93336C123.117 6.66355 123.503 6.7765 123.469 7.0463C123.329 7.58651 123.138 8.11187 122.897 8.61493C122.888 8.63086 122.885 8.64909 122.888 8.6668C122.891 8.68451 122.9 8.70071 122.914 8.71288C122.927 8.72504 122.944 8.73249 122.962 8.73407C122.98 8.73565 122.998 8.73126 123.013 8.7216ZM95.3101 14.4753C95.461 14.5161 97.5511 14.1616 97.8245 14.1208C98.714 14.0455 98.7675 13.6126 98.6386 13.2267C98.384 12.6651 97.5857 13.0134 97.2557 13.2016C97.2071 13.227 97.1506 13.2329 97.0979 13.2179C97.0451 13.2029 97.0002 13.1682 96.9723 13.1211C96.9444 13.0739 96.9358 13.0179 96.9482 12.9645C96.9606 12.9112 96.993 12.8647 97.0388 12.8346C97.3566 12.666 97.7132 12.5837 98.0728 12.5961C98.0895 12.596 98.1058 12.591 98.1197 12.5817C98.1335 12.5724 98.1443 12.5592 98.1507 12.5438C98.1571 12.5283 98.1588 12.5114 98.1555 12.4951C98.1523 12.4787 98.1443 12.4637 98.1326 12.4518C97.3468 11.6549 96.5202 12.3451 96.2845 12.5679C95.4736 13.3334 95.1781 14.4314 95.3101 14.4753ZM104.111 10.1177C103.328 10.048 102.544 10.227 101.87 10.6291C102.194 11.2485 102.567 11.8412 102.985 12.4016C103.598 13.0291 104.142 12.6557 104.437 12.273C104.517 12.1616 104.59 12.0453 104.654 11.9247C104.305 11.6986 103.931 11.5133 103.539 11.3726C103.278 11.2847 103.391 10.8706 103.652 10.9616C104.065 11.1057 104.461 11.2973 104.83 11.5326C105.041 10.9334 105.063 10.2212 104.098 10.1177H104.111ZM96.8313 16.7969C97.6485 16.4832 98.2834 16.4832 99.4746 16.0126C99.677 15.9248 99.8514 15.7834 99.9788 15.6036C100.106 15.4239 100.182 15.2127 100.198 14.993C100.198 14.9502 100.188 14.9079 100.169 14.8695C100.15 14.8311 100.122 14.7975 100.088 14.7715C100.054 14.7454 100.015 14.7275 99.9725 14.7191C99.9304 14.7107 99.887 14.7121 99.8455 14.7232C99.7292 14.7546 99.6161 14.7953 99.5312 14.8204C99.2767 14.8933 99.0326 14.9988 98.8052 15.1342C98.756 15.1629 98.6974 15.1709 98.6423 15.1565C98.5872 15.1421 98.5401 15.1064 98.5113 15.0573C98.4825 15.0082 98.4745 14.9497 98.4889 14.8947C98.5034 14.8397 98.5391 14.7927 98.5883 14.764C98.9026 14.5757 100.122 14.6291 99.8141 14.2902C99.5061 13.9514 98.2143 14.2024 97.614 14.7169C96.9476 15.2691 96.6302 16.8754 96.8313 16.7969ZM105.67 9.5467C105.629 9.53102 105.305 11.3695 105.041 11.9279C104.563 12.9789 105.355 14.033 105.736 13.9985C106.024 13.968 106.311 13.9209 106.594 13.8573C106.111 13.4552 105.8 12.8838 105.726 12.2604C105.704 11.9844 106.132 11.9875 106.157 12.2604C106.201 12.5636 106.312 12.8531 106.482 13.1086C106.651 13.364 106.875 13.5789 107.137 13.7381C107.307 13.7036 107.48 13.6722 107.662 13.6534C107.114 13.0459 106.763 12.2867 106.656 11.4761C106.609 11.2063 107.021 11.0902 107.068 11.36C107.165 12.2363 107.59 13.0434 108.259 13.6189C108.259 13.6189 108.259 13.6189 108.259 13.6346C108.338 13.6346 108.41 13.6346 108.495 13.6346C108.96 13.6848 108.954 12.2981 108.278 11.3318C107.669 10.4408 106.345 9.77258 105.67 9.5467ZM105.179 18.2181C105.912 18.0267 106.301 17.5907 106.32 17.1295C106.325 17.0319 106.293 16.936 106.231 16.8606C106.169 16.7851 106.081 16.7356 105.984 16.7216C105.528 16.6814 105.072 16.7917 104.686 17.0354C104.472 17.2048 104.167 16.9036 104.371 16.7216C104.576 16.5397 105.195 16.4518 105.657 16.4079C105.688 16.4053 105.718 16.3948 105.743 16.3773C105.769 16.3599 105.79 16.336 105.803 16.3082C105.817 16.2804 105.823 16.2495 105.821 16.2186C105.819 16.1876 105.809 16.1577 105.792 16.1318C105.409 15.6173 104.287 15.9091 103.658 16.3828C103.312 16.659 103.046 17.0234 102.89 17.4374C102.733 17.8515 102.691 18.3 102.769 18.7358C103.58 18.6046 104.385 18.4318 105.179 18.2181ZM108.36 14.5757C108.885 14.6887 109.696 15.3475 109.913 15.542C110.227 15.8369 109.62 14.3436 108.929 14.1334C107.926 13.8197 105.952 14.3906 105.33 14.5757C105.11 14.6416 106.48 16.4769 107.156 16.7342C107.81 16.9943 108.537 17.0066 109.199 16.7687C109.231 16.7543 109.257 16.7317 109.277 16.7033C109.296 16.6749 109.308 16.6418 109.31 16.6074C109.313 16.573 109.305 16.5387 109.29 16.508C109.274 16.4773 109.25 16.4514 109.221 16.433C108.747 16.2008 108.228 16.0776 107.7 16.0722C107.423 16.0722 107.423 15.6361 107.7 15.6455C108.307 15.6644 109.344 16.113 109.79 16.3452C109.866 16.3859 109.938 16.2824 109.916 16.1318C109.862 15.7616 108.857 15.1185 108.247 14.9867C107.977 14.9303 108.093 14.5161 108.36 14.5757ZM104.959 14.7953C104.965 14.7045 104.965 14.6133 104.959 14.5224C104.96 14.4906 104.95 14.4593 104.933 14.4326C104.916 14.4058 104.891 14.3847 104.862 14.3718C104.297 14.185 103.685 14.2005 103.13 14.4157C102.875 14.5193 102.762 14.102 103.017 14.0016C103.432 13.8353 104.12 13.9263 104.629 14.0016C104.78 14.0236 104.764 13.6879 104.667 13.5781C104.353 13.2204 103.809 13.1232 103.051 13.3459C101.973 13.6597 100.983 15.0212 100.914 15.2095C101.641 15.4628 102.387 15.6559 103.146 15.7867C104.164 15.975 104.893 15.542 104.959 14.7953ZM112.93 7.52944C111.556 6.61963 108.53 6.82669 108.303 6.90199C108.077 6.97728 108.134 9.57808 108.885 10.5349C109.284 11.04 110.196 11.4761 111.138 11.5075C111.171 11.5082 111.202 11.4989 111.229 11.4808C111.255 11.4628 111.275 11.4369 111.286 11.4069C111.297 11.3768 111.299 11.344 111.29 11.3131C111.282 11.2822 111.264 11.2548 111.239 11.2346C110.843 10.9462 110.467 10.6318 110.114 10.2934C109.928 10.0894 110.23 9.78827 110.428 9.97964C110.937 10.5381 111.462 11.1467 112.135 11.3695C112.204 11.3914 112.553 11.4134 112.418 11.1969C111.872 10.3179 111.218 9.5115 110.469 8.7969C110.205 8.53964 110.35 8.21023 110.601 8.38278C111.66 9.10748 112.122 10.0957 112.635 10.9302C112.646 10.9526 112.664 10.971 112.686 10.9831C112.708 10.9952 112.733 11.0004 112.758 10.998C112.783 10.9956 112.807 10.9858 112.827 10.9698C112.846 10.9538 112.86 10.9324 112.867 10.9083C113.181 9.92317 112.393 8.90042 111.698 8.41729C111.475 8.26042 111.698 7.89023 111.915 8.04709C112.577 8.60583 113.032 9.37038 113.207 10.2181C113.238 10.3812 113.452 10.0894 113.499 9.83219C113.659 8.95376 113.596 7.95297 112.93 7.52944ZM100.672 8.06591C100.829 8.81258 101.301 9.74121 102.244 9.90749C102.588 9.98846 102.95 9.95995 103.278 9.82592C103.718 9.66592 102.417 9.45572 102.077 9.09494C101.888 8.89415 102.19 8.59297 102.391 8.78121C102.713 9.12323 103.134 9.35677 103.595 9.44945C103.751 9.48993 103.915 9.4777 104.063 9.41468C104.211 9.35165 104.334 9.24139 104.412 9.10121C104.467 8.98672 104.486 8.85825 104.467 8.73277C104.447 8.6073 104.39 8.49072 104.302 8.39846C103.605 7.52944 100.638 7.8965 100.669 8.05023L100.672 8.06591ZM124.682 14.4314C124.877 14.0675 125.056 13.5938 125.376 13.3365C125.59 13.164 125.895 13.4651 125.691 13.6502C125.366 13.9021 125.101 14.2238 124.918 14.5914C124.897 14.6309 124.889 14.6757 124.894 14.72C124.899 14.7642 124.917 14.8059 124.946 14.8397C124.975 14.8735 125.014 14.8978 125.057 14.9095C125.1 14.9211 125.146 14.9196 125.188 14.9052C125.601 14.7119 125.968 14.434 126.266 14.0895C126.668 13.6502 126.942 12.2793 126.894 12.273C126.183 12.2799 125.493 12.5214 124.933 12.96C124.634 13.3766 124.491 13.8856 124.531 14.3969C124.534 14.4129 124.542 14.4277 124.553 14.4393C124.565 14.451 124.579 14.4592 124.595 14.4629C124.611 14.4665 124.628 14.4655 124.643 14.4599C124.658 14.4543 124.672 14.4444 124.682 14.4314ZM113.266 18.7107C113.931 19.2548 114.726 19.6179 115.573 19.7648C115.771 19.7867 115.903 19.6079 115.668 19.451C115.353 19.2471 114.957 19.1373 114.637 18.9397C114.156 18.6951 113.725 18.3644 113.364 17.964C113.197 17.7475 113.496 17.4432 113.678 17.6503C113.958 18.0048 115.136 18.924 115.564 19.0181C115.671 19.0432 115.702 18.8361 115.677 18.7326C115.517 18.0863 114.954 17.4777 114.105 17.0322C113.339 16.615 111.792 16.6526 110.918 16.6432C110.724 16.6432 111.688 18.9585 112.556 19.6236C112.882 19.891 113.26 20.087 113.667 20.1989C114.074 20.3108 114.499 20.336 114.916 20.273C115.215 20.2228 115.231 20.0189 115.102 19.9781C114.372 19.7798 113.676 19.4742 113.037 19.0714C112.836 18.9209 113.043 18.5507 113.266 18.7107ZM124.531 12.6149C124.594 12.5898 124.704 12.5177 124.682 12.4581C124.433 11.9056 124.334 11.2975 124.396 10.6949C124.44 10.422 124.855 10.5381 124.807 10.8079C124.698 11.2981 124.775 11.8116 125.024 12.2479C125.042 12.2703 125.067 12.2851 125.095 12.2892C125.124 12.2933 125.152 12.2864 125.175 12.2698C125.757 11.8463 125.835 11.3569 125.54 10.0361C125.496 9.82906 125.175 8.01885 125.084 8.05023C123.538 8.63376 122.284 9.55611 121.746 10.4157C121.039 11.5546 121.501 12.4236 121.774 12.6557C121.906 12.784 122.064 12.8832 122.236 12.9469C122.409 13.0107 122.593 13.0376 122.777 13.0259C122.811 13.0252 122.843 13.0152 122.872 12.9971C122.9 12.979 122.923 12.9535 122.937 12.9233C122.952 12.8931 122.958 12.8594 122.955 12.8261C122.951 12.7927 122.939 12.7609 122.919 12.7342C122.57 12.3093 122.351 11.7929 122.29 11.2471C122.296 11.1946 122.322 11.1462 122.361 11.1111C122.401 11.076 122.452 11.0566 122.505 11.0566C122.558 11.0566 122.609 11.076 122.649 11.1111C122.689 11.1462 122.714 11.1946 122.721 11.2471C122.721 11.8369 122.981 12.6306 123.566 12.8879C123.811 12.9946 124.012 12.8157 123.94 12.7279C123.368 12.044 122.937 10.8706 123.437 9.93886C123.566 9.69729 123.937 9.91062 123.805 10.1553C123.396 10.9177 123.717 11.8808 124.245 12.5428C124.279 12.5838 124.325 12.6129 124.376 12.6259C124.427 12.6389 124.482 12.635 124.531 12.6149ZM119.854 6.99924C119.852 6.99156 119.848 6.98441 119.843 6.97832C119.838 6.97224 119.832 6.96736 119.825 6.96405C119.817 6.96075 119.809 6.95909 119.802 6.95921C119.794 6.95933 119.786 6.96121 119.779 6.96473C119.306 7.27042 118.923 7.6959 118.669 8.19768C118.551 8.45462 118.494 8.73549 118.503 9.01809C118.513 9.30068 118.588 9.57725 118.723 9.82592C118.914 10.1396 119.521 10.4534 119.411 10.2212C119.164 9.76721 119.03 9.26027 119.021 8.74356C119.046 8.47376 119.474 8.47062 119.449 8.74356C119.379 9.23026 119.447 9.72662 119.643 10.1773C119.826 10.56 120.093 10.6636 120.225 10.651C120.357 10.6385 119.936 10.2275 119.864 9.39611C119.842 9.12317 120.288 9.12317 120.294 9.39611C120.301 9.67045 120.344 9.94268 120.423 10.2055C120.456 10.4379 120.555 10.6558 120.709 10.833C120.709 10.833 120.781 10.8863 120.8 10.8957C120.844 10.9078 120.89 10.9092 120.934 10.8999C120.979 10.8907 121.021 10.871 121.056 10.8425C121.091 10.8139 121.119 10.7774 121.138 10.736C121.156 10.6945 121.164 10.6492 121.162 10.604C121.184 10.1365 120.976 8.64003 120.124 7.69571C119.974 7.49169 119.881 7.25127 119.854 6.99924ZM100.817 12.1663C101.376 12.3922 102.53 13.0604 102.545 12.6244C102.545 12.342 102.162 11.0871 100.578 11.3224C99.8243 11.4962 99.0986 11.7739 98.4217 12.1475C98.3872 12.1726 99.7167 13.6597 100.531 13.8071C100.822 13.8671 101.124 13.8547 101.409 13.771C101.695 13.6873 101.956 13.5349 102.168 13.3271C102.194 13.2995 102.212 13.2654 102.221 13.2284C102.229 13.1914 102.227 13.1528 102.215 13.1168C102.203 13.0807 102.182 13.0486 102.153 13.0238C102.124 12.999 102.089 12.9824 102.052 12.9757C101.591 12.8872 101.139 12.7549 100.704 12.5804C100.449 12.48 100.559 12.0659 100.817 12.1663ZM100.399 21.3554C101.731 21.4338 102.957 21.6691 103.693 21.3334C104.261 21.0793 104.733 20.5114 104.431 19.8903C104.389 19.8174 104.33 19.7558 104.259 19.7105C104.188 19.6652 104.107 19.6376 104.023 19.6299C103.47 19.6533 102.943 19.8686 102.533 20.2385C102.341 20.4362 102.036 20.1318 102.219 19.9248C102.479 19.6581 103.08 19.473 103.548 19.3507C103.63 19.3287 103.479 19.153 103.397 19.1279C102.649 18.8863 101.618 19.3193 101.329 19.5263C100.675 20.0063 100.04 21.3334 100.399 21.3554ZM106.091 22.7044C106.479 22.6721 106.844 22.5066 107.123 22.2361C107.403 21.9655 107.58 21.6067 107.625 21.2205C107.65 21.0793 107.709 20.9758 107.64 20.8503C107.449 20.5083 106.509 21.1013 106.094 21.4369C105.88 21.6095 105.575 21.3083 105.78 21.1232C106.201 20.7812 107.427 20.5805 106.895 20.3922C106.77 20.3452 106.738 20.3483 106.292 20.3452C104.72 20.3452 104.287 21.6722 104.016 22.7044C104.705 22.792 105.402 22.792 106.091 22.7044ZM140.73 9.81023C141.058 9.94426 141.419 9.97278 141.764 9.8918C142.688 9.72553 143.175 8.7969 143.336 8.05023C143.367 7.8965 140.4 7.51375 139.721 8.39533C139.634 8.48759 139.576 8.60416 139.557 8.72964C139.537 8.85511 139.556 8.98359 139.611 9.09807C139.69 9.23826 139.812 9.34851 139.96 9.41154C140.108 9.47457 140.273 9.4868 140.428 9.44631C140.887 9.35475 141.307 9.1235 141.629 8.78435C141.818 8.58356 142.119 8.88474 141.943 9.09807C141.591 9.44003 140.29 9.65023 140.73 9.81023ZM98.1546 18.9083C98.8963 18.5099 100.295 18.5099 101.172 18.3875C102.049 18.2652 102.712 17.4871 102.699 16.8628C102.698 16.7873 102.667 16.7153 102.614 16.6615C102.561 16.6078 102.489 16.5766 102.413 16.5742C101.789 16.576 101.18 16.7687 100.669 17.1263C100.446 17.2926 100.232 16.9224 100.452 16.7593C100.868 16.5142 101.325 16.3462 101.8 16.2636C101.942 16.2322 101.8 16.0032 101.65 15.9655C100.257 15.5734 99.2043 16.4236 98.6952 17.2895C98.4846 17.6471 97.9503 19.0181 98.1546 18.9052V18.9083ZM108.341 18.7295C109.027 18.4232 109.771 18.2671 110.522 18.2714C110.535 18.1935 110.535 18.1141 110.522 18.0361C110.221 17.9555 109.91 17.9175 109.598 17.9232C109.05 17.9077 108.503 17.9765 107.977 18.1271C107.923 18.1392 107.867 18.1302 107.82 18.102C107.772 18.0738 107.738 18.0285 107.723 17.9756C107.709 17.9226 107.715 17.8662 107.741 17.8178C107.767 17.7695 107.811 17.7331 107.863 17.7161C108.606 17.4883 109.388 17.4136 110.161 17.4965C109.554 17.0699 108.366 17.1577 107.662 17.3146C106.405 17.5969 105.905 18.5695 105.443 19.862C105.358 20.0942 107.304 19.9624 108.181 19.862C109.124 19.7585 110.029 19.2754 110.381 18.6981C109.756 18.7127 109.14 18.8491 108.567 19.0997C108.307 19.2032 108.09 18.8236 108.341 18.7263V18.7295ZM131.732 25.0542C131.942 25.0009 132.062 23.8338 131.854 23.1311C131.571 22.1899 129.041 20.5899 129.025 21.4934C129.025 21.6911 130.415 22.2307 130.792 22.7922C130.946 23.0213 130.575 23.2346 130.421 23.0087C129.978 22.3436 128.956 21.6503 128.177 21.666C128.082 21.6641 127.989 21.6914 127.91 21.7444C127.646 21.964 129.013 22.5413 129.349 22.9209C129.531 23.1279 129.23 23.4291 129.035 23.2346C128.772 22.959 128.47 22.7233 128.139 22.535C127.856 22.3718 127.419 21.9577 127.196 22.0487C127.089 22.0864 126.996 22.1553 126.929 22.2465C126.862 22.3377 126.823 22.4469 126.819 22.5601C126.797 23.0777 127.287 24.3232 130.352 24.7217C130.732 24.753 131.666 25.0668 131.732 25.0511V25.0542ZM125.094 24.8942C124.801 24.5805 124.811 23.8495 124.54 23.8181C124.383 23.7993 124.323 24.1664 124.301 24.295C124.281 24.4679 124.298 24.6431 124.349 24.8095C124.4 24.9758 124.486 25.1297 124.6 25.2613C125.034 25.7883 125.326 25.9452 125.757 26.4722C125.87 26.6072 126.014 26.8111 126.184 26.9899C126.241 27.0495 127.272 25.3491 126.678 23.8181C126.579 23.5943 126.433 23.3943 126.25 23.2315C125.936 22.9397 125.606 22.9177 125.537 23.1342C125.411 23.5295 126.043 23.7836 126.19 24.1758C126.288 24.4362 125.876 24.546 125.779 24.2918C125.634 23.9091 125.38 23.3507 125.103 23.3067C125.066 23.3037 125.03 23.3133 125 23.3339C124.969 23.3544 124.947 23.3847 124.936 23.4197C124.932 23.8542 125.097 24.2735 125.395 24.5899C125.574 24.7844 125.273 25.0981 125.094 24.8942ZM128.9 19.9875C128.777 20.0283 128.787 20.2322 129.085 20.2824C129.502 20.3454 129.928 20.3202 130.335 20.2083C130.741 20.0964 131.12 19.9004 131.446 19.633C132.313 18.9679 133.278 16.6495 133.083 16.6526C132.209 16.6526 130.663 16.6244 129.896 17.0416C129.06 17.4997 128.497 18.0958 128.325 18.742C128.299 18.8456 128.325 19.0558 128.438 19.0275C128.875 18.9334 130.053 18.0142 130.324 17.6597C130.496 17.4432 130.795 17.7475 130.638 17.9734C130.277 18.3738 129.846 18.7045 129.365 18.9491C129.051 19.131 128.645 19.2628 128.334 19.4605C128.098 19.6142 128.23 19.793 128.428 19.7742C129.282 19.6272 130.082 19.2606 130.751 18.7107C130.974 18.5507 131.188 18.9209 130.968 19.0809C130.323 19.485 129.622 19.7906 128.887 19.9875H128.9ZM128.161 25.2958C127.96 25.1044 127.759 24.7122 127.492 24.7938C127.224 24.8754 127.457 25.4213 127.646 25.5499C128.042 25.8228 128.95 26.3907 128.978 26.3279C129.061 26.1029 129.096 25.8633 129.081 25.6242C129.067 25.3851 129.003 25.1515 128.893 24.9381C128.614 24.5773 127.859 24.1632 127.819 24.4926C127.784 24.7656 128.268 24.8064 128.463 24.9946C128.658 25.1828 128.35 25.4871 128.149 25.2958H128.161ZM126.429 18.5099C126.412 18.5225 126.399 18.5406 126.392 18.5614C126.386 18.5822 126.387 18.6045 126.395 18.6247C126.403 18.6449 126.418 18.6619 126.436 18.6729C126.455 18.6839 126.477 18.6884 126.498 18.6856C127.542 18.4973 128.752 17.8887 129.12 16.6401C129.179 16.4299 129.582 14.1773 129.651 13.713C129.682 13.5091 127.548 13.9828 126.681 14.3718C126.166 14.6018 125.717 14.9579 125.377 15.4071C125.037 15.8563 124.816 16.384 124.735 16.9412C124.701 17.1389 124.735 17.3428 124.848 17.1765C125.199 16.6242 125.599 16.1044 126.043 15.6236C126.241 15.4322 126.546 15.7334 126.357 15.9373C125.886 16.3796 125.459 16.8672 125.084 17.393C124.933 17.5743 124.812 17.7788 124.726 17.9985C124.691 18.1522 124.663 18.4032 124.905 18.2558C125.722 17.7569 126.775 16.5491 127.649 15.6016C127.837 15.4008 128.12 15.6926 127.963 15.9154C127.133 16.9632 126.005 17.8448 125.021 18.6259C124.952 18.6793 125.05 18.7358 125.304 18.7201C126.184 18.673 126.967 17.8573 127.545 17.2299C127.734 17.0291 128.035 17.3303 127.859 17.5436C127.428 17.928 126.947 18.253 126.429 18.5099ZM143.914 7.51062C144.596 7.67966 145.311 7.66559 145.985 7.46983C146.246 7.38199 146.359 7.78356 146.098 7.88081C145.47 8.09101 144.583 7.92474 143.898 7.75846C143.744 7.72081 143.766 8.0314 143.845 8.1663C144.326 8.97886 145.47 9.12317 146.46 8.69337C147.222 8.29256 147.908 7.76167 148.487 7.12473C148.343 7.00865 146.746 6.14591 145.724 6.02983C145.203 5.97022 144.03 5.97336 143.703 6.78591C143.593 7.06826 143.637 7.42905 143.914 7.50748V7.51062ZM136.408 22.6291C136.11 21.9263 135.403 20.1193 134.004 19.6895C133.375 19.5012 132.216 19.4228 131.838 19.8934C131.694 20.0754 133.159 19.8934 134.017 20.5209C134.243 20.6809 133.951 20.9632 133.702 20.8346C132.942 20.3797 131.747 20.0754 131.304 20.3389C131.134 20.4393 131.053 20.6244 131.169 20.6526C131.821 20.7664 132.447 20.9971 133.017 21.3334C133.243 21.4871 133.017 21.8573 132.8 21.7036C132.385 21.4244 131.197 20.8095 131.018 21.0322C130.581 21.575 131.961 22.4158 132.561 22.6416C133.036 22.8267 133.504 23.0307 134.922 22.7891C135.591 22.673 136.434 22.6856 136.408 22.6291ZM139.184 11.5326C139.553 11.2973 139.949 11.1057 140.362 10.9616C140.623 10.8706 140.736 11.2753 140.476 11.3726C140.084 11.5123 139.709 11.6965 139.36 11.9216C139.425 12.0422 139.497 12.1585 139.577 12.2698C139.872 12.6526 140.416 13.0291 141.029 12.3985C141.447 11.8381 141.82 11.2454 142.144 10.6259C141.47 10.2239 140.686 10.0449 139.903 10.1145C138.939 10.2212 138.961 10.9334 139.184 11.5326ZM121.825 16.982C121.727 17.153 121.651 17.3353 121.598 17.5248C121.595 17.5428 121.595 17.5614 121.599 17.5793C121.603 17.5972 121.611 17.6141 121.622 17.6289C121.633 17.6437 121.647 17.656 121.663 17.6651C121.679 17.6742 121.696 17.6798 121.715 17.6816C122.343 17.7507 123.368 16.9506 123.601 16.1789C123.833 15.4071 124.305 13.2644 124.125 13.2675C123.295 13.2964 122.482 13.5108 121.746 13.895C121.372 14.1065 121.07 14.4253 120.879 14.8102C120.689 15.1951 120.619 15.6282 120.678 16.0534C120.681 16.0657 120.688 16.0767 120.698 16.0845C120.708 16.0924 120.72 16.0966 120.733 16.0966C120.745 16.0966 120.758 16.0924 120.768 16.0845C120.778 16.0767 120.785 16.0657 120.788 16.0534C121.05 15.4348 121.468 14.8944 122.001 14.4848C122.214 14.3153 122.519 14.6165 122.315 14.7985C121.698 15.2604 121.254 15.9171 121.058 16.662C121.004 16.8942 120.967 17.1859 121.184 17.2895C121.265 17.3271 121.347 17.0008 121.416 16.8597C121.641 16.3993 121.949 15.9844 122.325 15.6361C122.526 15.4479 122.827 15.7491 122.639 15.9499C122.31 16.2448 122.035 16.5939 121.825 16.982ZM133.328 24.1569C133.014 23.8432 132.7 23.4166 132.489 23.2597C132.37 23.1687 132.291 23.3036 132.282 23.335C132.231 23.5232 132.084 23.9624 132.935 24.775C133.265 25.0887 134.523 25.6942 134.563 25.4715C134.661 24.9538 134.595 23.9405 134.211 23.5891C133.828 23.2377 132.753 22.7295 132.781 23.1436C132.797 23.3318 133.375 23.5985 133.63 23.8589C133.822 24.0628 133.52 24.3671 133.328 24.1569ZM147.359 8.88474C147.51 9.1169 147.969 8.90984 148.198 8.80003C148.427 8.69023 148.663 9.04788 148.415 9.16709C148.167 9.28631 147.29 9.0667 147.541 9.34905C147.959 9.76631 148.754 9.61258 149.26 9.06356C149.497 8.68142 149.624 8.24205 149.628 7.79297C149.238 7.95056 148.832 8.06625 148.418 8.13807C147.632 8.33885 147.214 8.67454 147.359 8.89729V8.88474ZM120.153 12.5083C120.401 13.0181 120.541 13.5734 120.564 14.1397C120.565 14.1639 120.574 14.1872 120.59 14.2058C120.605 14.2245 120.626 14.2376 120.65 14.2429C120.674 14.2483 120.698 14.2457 120.72 14.2355C120.743 14.2254 120.761 14.2082 120.772 14.1867C121.055 13.6928 121.153 13.1147 121.048 12.5553C120.866 11.702 119.018 10.3593 118.801 10.513C118.694 10.5883 117.01 12.7938 117.698 13.9357C118.012 14.4502 118.782 15.1122 119.401 15.1906C119.425 15.1936 119.448 15.191 119.471 15.183C119.493 15.175 119.512 15.1619 119.528 15.1447C119.544 15.1275 119.556 15.1068 119.562 15.0842C119.569 15.0617 119.57 15.0379 119.565 15.015C119.506 14.7777 119.427 14.5458 119.329 14.3216C119.208 14.0107 119.061 13.7106 118.889 13.4244C118.741 13.1891 119.112 12.9757 119.257 13.2079C119.512 13.6359 119.718 14.0917 119.87 14.5663C119.97 14.8801 119.961 15.0275 120.018 14.9961C120.097 14.9442 120.16 14.8711 120.2 14.7852C120.24 14.6993 120.255 14.6039 120.244 14.5099C120.247 13.8879 120.088 13.2758 119.782 12.7342C119.637 12.4863 120.008 12.273 120.153 12.5083ZM112.983 21.0197C112.804 20.7969 111.616 21.4118 111.201 21.6911C110.972 21.8448 110.758 21.4746 110.984 21.3209C111.554 20.9798 112.182 20.7448 112.836 20.6275C112.952 20.6024 112.87 20.4173 112.701 20.3138C112.257 20.0503 111.063 20.3546 110.302 20.8095C110.067 20.9475 109.774 20.6652 109.988 20.4958C110.846 19.8903 112.311 20.0628 112.166 19.8683C111.789 19.3977 110.617 19.4761 110.001 19.6644C108.602 20.0879 107.895 21.9013 107.596 22.604C107.571 22.6605 108.413 22.6479 109.083 22.7609C110.504 23.0024 110.969 22.7985 111.443 22.6134C112.025 22.4126 113.42 21.5718 112.983 21.0197ZM114.181 12.7373C114.63 13.2644 115.454 13.575 116.067 13.3648C116.107 13.3506 116.143 13.3264 116.172 13.2946C116.2 13.2628 116.22 13.2244 116.23 13.1828C116.24 13.1412 116.239 13.0978 116.227 13.0567C116.216 13.0156 116.194 12.978 116.164 12.9475C116.076 12.8628 115.988 12.7844 115.906 12.7153C115.623 12.4591 115.284 12.2722 114.916 12.1695C114.646 12.1067 114.759 11.6957 115.03 11.7553C115.495 11.8589 116.02 12.3514 116.425 12.7844C116.44 12.7994 116.459 12.8096 116.48 12.8136C116.501 12.8176 116.523 12.8152 116.543 12.8068C116.562 12.7984 116.579 12.7842 116.591 12.7662C116.602 12.7483 116.608 12.7273 116.607 12.7059C116.607 12.2918 116.403 11.6706 116.013 11.451C115.385 11.0651 113.917 10.9271 113.499 10.9208C113.279 10.9271 113.719 12.2071 114.181 12.7467V12.7373ZM111.22 23.1405C111.248 22.7264 110.202 23.2001 109.79 23.586C109.378 23.9718 109.341 24.9569 109.438 25.4683C109.479 25.6911 110.736 25.0919 111.066 24.7719C111.918 23.9499 111.77 23.5169 111.72 23.3318C111.72 23.3005 111.632 23.1656 111.512 23.2566C111.305 23.4134 110.978 23.8369 110.673 24.1538C110.482 24.3515 110.18 24.0471 110.359 23.8401C110.636 23.6048 111.204 23.3381 111.22 23.1499V23.1405ZM112.603 12.9726C113.1 13.4539 113.524 14.0057 113.86 14.6102C113.898 14.6761 113.973 14.5193 113.929 14.1365C113.845 13.3867 113.464 12.6432 112.873 12.3514C111.616 11.724 109.036 11.6393 109.055 11.724C109.306 12.7655 109.925 14.8424 110.595 15.473C111.239 15.96 112.045 16.1843 112.848 16.1005C112.868 16.0976 112.886 16.0886 112.9 16.0747C112.913 16.0609 112.922 16.0429 112.925 16.0235C112.928 16.0041 112.925 15.9844 112.915 15.9671C112.906 15.9499 112.891 15.9361 112.873 15.9279C112.137 15.6455 111.443 15.2656 110.808 14.7985C110.598 14.6197 110.903 14.3185 111.123 14.4848C111.751 15.0275 112.855 15.7397 113.493 15.8024C113.537 15.8024 113.703 15.8244 113.725 15.7679C113.747 15.7114 113.681 15.611 113.634 15.5671C113.175 15.1122 112.864 15.0401 111.748 14.1679C111.632 14.0801 111.462 13.9326 111.396 13.8855C111.17 13.7287 111.396 13.3553 111.61 13.5153C112.335 14.0719 113.026 14.6723 113.678 15.313C113.694 15.3275 113.714 15.3367 113.735 15.3395C113.756 15.3422 113.778 15.3383 113.797 15.3284C113.816 15.3184 113.831 15.3028 113.841 15.2838C113.85 15.2647 113.854 15.2432 113.851 15.222C113.738 14.4534 112.946 13.7914 112.314 13.28C112.088 13.1106 112.393 12.8095 112.603 12.982V12.9726ZM117.022 8.85964C117.356 9.29783 117.632 9.77641 117.846 10.284C117.853 10.3002 117.865 10.3138 117.881 10.3227C117.896 10.3317 117.914 10.3356 117.931 10.3338C117.949 10.3321 117.966 10.3248 117.979 10.3131C117.993 10.3013 118.002 10.2856 118.006 10.2683C118.157 9.47768 117.971 8.34827 116.94 7.9467C115.055 7.20944 113.964 7.26905 113.951 7.31924C113.838 7.75219 113.936 9.49023 114.791 10.491C115.014 10.7545 115.982 11.0244 116.522 11.1185C116.695 11.1436 116.724 11.0996 116.598 10.9804C116.173 10.656 115.766 10.3072 115.382 9.93572C115.206 9.72866 115.507 9.42435 115.696 9.622C115.996 9.98724 116.316 10.336 116.654 10.6667C116.858 10.9309 117.157 11.1053 117.487 11.153C117.529 11.1482 117.569 11.131 117.601 11.1036C117.633 11.0762 117.655 11.0398 117.667 10.9993C117.836 10.3467 117.123 9.67847 116.724 9.1765C116.548 8.96003 116.849 8.65572 117.022 8.86905V8.85964ZM116.079 21.7224C116 21.6695 115.907 21.6421 115.812 21.644C115.033 21.644 114.011 22.3216 113.568 22.9867C113.414 23.2126 113.043 22.9867 113.197 22.7703C113.574 22.2087 114.964 21.6691 114.964 21.4714C114.964 20.5679 112.43 22.1554 112.135 23.1091C111.927 23.8118 112.047 24.9915 112.257 25.0322C112.323 25.0479 113.257 24.7342 113.621 24.6871C116.686 24.2887 117.176 23.0432 117.154 22.5256C117.15 22.4124 117.112 22.3031 117.044 22.212C116.977 22.1208 116.884 22.0519 116.777 22.0142C116.544 21.9232 116.108 22.3279 115.834 22.5005C115.503 22.6938 115.202 22.9348 114.942 23.2158C114.759 23.4228 114.457 23.1216 114.627 22.902C114.976 22.5381 116.343 21.9609 116.079 21.7413V21.7224ZM116.196 24.4738C116.155 24.1601 115.4 24.5585 115.121 24.9193C114.879 25.233 114.891 26.0142 115.036 26.3091C115.064 26.3719 115.979 25.804 116.368 25.5311C116.557 25.4024 116.812 24.866 116.522 24.775C116.233 24.684 116.054 25.0887 115.853 25.277C115.652 25.4652 115.35 25.164 115.539 24.9632C115.727 24.7624 116.23 24.7656 116.196 24.4926V24.4738ZM116.365 15.5734C117.239 16.5146 118.295 17.7287 119.109 18.2275C119.351 18.375 119.323 18.124 119.288 17.9703C119.202 17.7505 119.081 17.5461 118.93 17.3648C118.555 16.839 118.128 16.3514 117.657 15.9091C117.456 15.7177 117.761 15.4165 117.971 15.5953C118.415 16.0762 118.815 16.5959 119.166 17.1483C119.282 17.3146 119.313 17.1106 119.279 16.913C119.199 16.3545 118.979 15.8252 118.639 15.3747C118.299 14.9243 117.849 14.5673 117.333 14.3373C116.466 13.9483 114.332 13.4746 114.363 13.6785C114.432 14.1428 114.835 16.3954 114.894 16.6055C115.262 17.8605 116.466 18.4628 117.516 18.651C117.537 18.6539 117.559 18.6494 117.578 18.6384C117.597 18.6274 117.611 18.6104 117.619 18.5902C117.627 18.57 117.628 18.5477 117.622 18.5269C117.616 18.5061 117.603 18.4879 117.585 18.4754C117.079 18.2078 116.611 17.8745 116.192 17.484C116.004 17.2801 116.306 16.9789 116.507 17.1703C117.085 17.7977 117.868 18.6134 118.748 18.6605C119.002 18.6605 119.1 18.6197 119.031 18.5663C118.047 17.7852 116.918 16.9036 116.089 15.8557C115.894 15.6863 116.18 15.3914 116.365 15.5922V15.5734ZM118.477 23.1028C118.408 22.8832 118.075 22.9083 117.764 23.2001C117.581 23.3629 117.435 23.563 117.337 23.7867C116.742 25.3177 117.773 27.0181 117.83 26.9585C118 26.7797 118.144 26.5758 118.257 26.4409C118.688 25.9138 118.98 25.757 119.414 25.2299C119.528 25.0983 119.614 24.9445 119.665 24.7781C119.717 24.6117 119.733 24.4365 119.713 24.2636C119.691 24.135 119.631 23.7679 119.474 23.7867C119.203 23.8181 119.213 24.5554 118.921 24.8628C118.729 25.0605 118.427 24.7593 118.606 24.5491C118.905 24.2327 119.069 23.8134 119.065 23.3789C119.055 23.3439 119.032 23.3136 119.002 23.2931C118.972 23.2725 118.935 23.263 118.899 23.266C118.622 23.2973 118.367 23.8683 118.223 24.2511C118.125 24.5052 117.714 24.3954 117.811 24.135C117.971 23.7836 118.603 23.5295 118.493 23.1342L118.477 23.1028ZM137.911 22.673C138.595 22.7595 139.288 22.7595 139.973 22.673C139.702 21.6409 139.253 20.3107 137.7 20.3138C137.251 20.3138 137.219 20.3138 137.094 20.3609C136.562 20.5491 137.788 20.7499 138.209 21.0918C138.426 21.2644 138.121 21.5656 137.895 21.4056C137.48 21.0699 136.54 20.4644 136.349 20.8189C136.28 20.9444 136.349 21.0479 136.349 21.1891C136.387 21.5854 136.565 21.9552 136.851 22.2326C137.137 22.5101 137.513 22.6773 137.911 22.7044V22.673ZM111.308 3.2157C111.553 3.10903 110.629 2.64472 110.365 2.27452C110.208 2.0455 110.579 1.83216 110.733 2.05805C110.981 2.50406 111.364 2.86078 111.827 3.07766C112.119 3.20001 112.411 2.72629 112.232 2.27766C111.971 1.61569 109.513 0.523925 109.504 0.730985C109.469 1.38102 109.576 2.03092 109.818 2.6353C110.186 3.23139 111.179 3.27217 111.308 3.2157ZM112.226 5.2361C112.484 5.86355 112.606 6.46277 113.376 6.74826C113.757 6.8863 114.347 6.93963 114.429 6.82669C114.511 6.71375 114.197 6.57571 114.074 6.49414C113.694 6.28613 113.364 5.99689 113.109 5.64708C113.08 5.59799 113.072 5.53951 113.087 5.48449C113.101 5.42948 113.137 5.38245 113.186 5.35375C113.235 5.32504 113.294 5.31701 113.349 5.33143C113.404 5.34584 113.451 5.38152 113.48 5.43061C113.71 5.78166 114.004 6.08611 114.347 6.32787C114.431 6.40735 114.53 6.46874 114.638 6.50816C114.746 6.54758 114.861 6.56417 114.976 6.55689C115.024 6.54164 115.067 6.51382 115.101 6.47631C115.135 6.43879 115.158 6.39296 115.168 6.34355C115.215 5.63767 114.423 5.10433 113.819 4.75923C113.777 4.72823 113.747 4.6824 113.736 4.63065C113.725 4.5789 113.733 4.52491 113.76 4.47917C113.787 4.43343 113.829 4.3992 113.88 4.38312C113.93 4.36704 113.985 4.37027 114.033 4.39217C114.543 4.71593 114.965 5.15981 115.262 5.68473C115.274 5.70553 115.293 5.7221 115.315 5.73226C115.337 5.74241 115.361 5.74566 115.385 5.74158C115.409 5.73749 115.431 5.72627 115.448 5.7094C115.466 5.69252 115.477 5.67079 115.482 5.64708C115.63 5.00394 115.482 4.29806 115.042 4.06276C114.171 3.59531 112.465 3.28158 111.921 3.41962C111.78 3.45099 112.128 4.99453 112.226 5.2361ZM114.677 3.50119C114.705 3.50484 114.732 3.49969 114.757 3.48651C114.781 3.47333 114.8 3.4528 114.811 3.42792C114.823 3.40304 114.826 3.37511 114.821 3.34822C114.815 3.32133 114.802 3.29688 114.781 3.27844C114.35 2.87315 114.009 2.38274 113.779 1.83844C113.675 1.58118 114.093 1.47138 114.19 1.72236C114.429 2.31217 114.819 3.09021 115.331 3.45727C115.375 3.48846 115.429 3.50332 115.483 3.49932C115.537 3.49531 115.588 3.47268 115.627 3.43531C115.957 3.12158 116.038 2.28393 115.649 1.73177C115.356 1.31452 113.779 0.476866 113.317 0.436082C113.216 0.436082 113.002 2.42197 113.656 2.99609C113.947 3.24953 114.299 3.42353 114.677 3.50119ZM104.428 7.62042C105.236 9.40866 107.885 10.1302 107.766 9.18905C107.766 9.15768 107.766 9.12317 107.766 9.0918C107.738 8.86278 107.675 8.56787 107.452 8.54905C106.729 8.48944 105.776 8.12866 105.377 7.68944C105.195 7.48552 105.497 7.1812 105.692 7.37571C106.01 7.7112 106.415 7.95407 106.861 8.07846C107.043 8.1428 107.232 8.18904 107.423 8.2165C107.457 8.2205 107.492 8.21723 107.525 8.2069C107.557 8.19656 107.588 8.17941 107.613 8.15656C107.639 8.13372 107.659 8.10571 107.673 8.0744C107.687 8.04308 107.694 8.00918 107.694 7.97493C107.694 7.9262 107.679 7.87862 107.649 7.83991C107.619 7.80119 107.578 7.7736 107.53 7.7616C106.812 7.56015 106.186 7.11675 105.758 6.50669C105.607 6.27453 105.978 6.0612 106.128 6.29022C106.493 6.73379 106.926 7.11707 107.411 7.42591C107.725 7.59532 107.725 7.11218 107.775 6.75767V6.67924C107.917 5.65649 105.717 5.02276 104.026 4.48315C103.821 4.43923 103.979 6.62277 104.428 7.62042ZM108.285 6.27453C108.379 6.27453 108.765 6.27453 109.045 6.2463C109.073 6.2447 109.1 6.236 109.124 6.22103C109.147 6.20606 109.166 6.18531 109.18 6.16077C109.193 6.13623 109.2 6.10872 109.199 6.08085C109.199 6.05299 109.191 6.0257 109.177 6.00159C108.835 5.514 108.584 4.9688 108.435 4.39217C108.395 4.12237 108.806 4.00629 108.847 4.27923C108.92 4.94622 109.178 5.57966 109.592 6.10826C109.654 6.17307 109.732 6.22064 109.818 6.2463C110.038 6.32473 110.522 6.29963 110.416 6.18042C110.044 5.78502 109.774 5.30616 109.627 4.78433C109.576 4.51766 109.988 4.40159 110.042 4.67139C110.138 5.12306 110.326 5.55017 110.595 5.9263C110.757 6.1423 110.997 6.28729 111.264 6.331C111.412 6.3561 111.563 6.3812 111.717 6.41257C112.144 6.49728 111.789 4.51453 110.686 3.75531C109.84 3.17491 107.895 2.55687 107.841 2.79531C107.606 3.89335 107.948 6.21806 108.285 6.27453ZM120.476 4.67766C120.518 4.68299 120.559 4.67821 120.598 4.66374C120.637 4.64926 120.672 4.62553 120.699 4.5946C120.727 4.56368 120.747 4.5265 120.756 4.4863C120.766 4.4461 120.766 4.4041 120.756 4.36394C120.605 3.86198 119.936 3.10903 119.603 2.83923C119.395 2.6604 119.697 2.35923 119.917 2.5255C120.366 2.916 120.701 3.41989 120.888 3.98433C120.897 4.01241 120.914 4.03696 120.938 4.05439C120.962 4.07182 120.991 4.08122 121.02 4.08122C121.05 4.08122 121.078 4.07182 121.102 4.05439C121.126 4.03696 121.143 4.01241 121.152 3.98433C121.35 3.45413 121.243 2.54119 120.241 1.92001C119.857 1.68158 118.543 1.09491 118.323 1.12628C118.21 1.14197 118.185 2.81099 118.411 3.27217C118.713 3.91217 119.801 4.57414 120.476 4.66825V4.67766ZM124.757 5.20159C124.421 5.86669 124.719 6.91767 125.153 7.35375C125.226 7.42277 125.288 7.39454 125.279 7.09336C125.24 6.58243 125.341 6.07055 125.571 5.61257C125.706 5.371 126.074 5.58747 125.939 5.82904C125.734 6.22229 125.594 6.64606 125.524 7.08395C125.475 7.27 125.499 7.46793 125.593 7.63611C125.624 7.67675 125.667 7.70619 125.716 7.71981C125.764 7.73344 125.817 7.73048 125.864 7.7114C126.492 7.53571 126.681 6.66983 126.806 6.03924C126.86 5.76943 127.275 5.88551 127.218 6.15532C127.112 6.65378 126.897 7.12288 126.59 7.52944C126.578 7.54597 126.571 7.56576 126.57 7.58618C126.57 7.6066 126.576 7.62667 126.587 7.64372C126.598 7.66076 126.615 7.67397 126.634 7.68158C126.653 7.68919 126.673 7.69084 126.693 7.6863C127.007 7.6145 127.3 7.47084 127.549 7.26666C127.798 7.06249 127.995 6.80339 128.127 6.50983C128.325 6.03924 127.771 3.48864 127.577 3.02433C127.526 2.90511 127.168 3.10276 126.86 3.27531C126.065 3.72394 125.279 4.16943 124.757 5.19218V5.20159ZM122.06 3.27217C122.086 3.28466 122.113 3.29075 122.141 3.2899C122.169 3.28906 122.197 3.28129 122.221 3.26731C122.245 3.25333 122.266 3.23356 122.281 3.20977C122.295 3.18599 122.304 3.15892 122.306 3.13099C122.328 2.83295 122.224 2.44707 122.221 2.14903C122.218 1.85099 122.648 1.8353 122.648 2.10824C122.648 2.38119 122.573 2.69491 122.557 2.95531C122.555 2.98866 122.563 3.02184 122.579 3.05123C122.595 3.08062 122.618 3.10507 122.647 3.12192C122.676 3.13877 122.709 3.14736 122.742 3.14674C122.776 3.14613 122.809 3.13634 122.837 3.11844C123.092 2.95985 123.3 2.73599 123.439 2.47009C123.579 2.20419 123.644 1.90595 123.629 1.60628C123.541 1.03844 122.485 -0.100391 122.372 0.0188254C121.972 0.238434 121.366 1.46824 121.322 1.86667C121.302 2.14502 121.361 2.42335 121.491 2.67011C121.622 2.91687 121.819 3.12218 122.06 3.26276V3.27217ZM115.866 6.50983C115.997 6.80339 116.195 7.06249 116.443 7.26666C116.692 7.47084 116.985 7.6145 117.299 7.6863C117.319 7.69084 117.34 7.68919 117.359 7.68158C117.378 7.67397 117.394 7.66076 117.405 7.64372C117.416 7.62667 117.422 7.6066 117.422 7.58618C117.421 7.56576 117.415 7.54597 117.403 7.52944C117.095 7.12288 116.88 6.65378 116.774 6.15532C116.717 5.88551 117.132 5.76943 117.186 6.03924C117.315 6.66669 117.5 7.53571 118.129 7.7114C118.176 7.73048 118.228 7.73344 118.277 7.71981C118.325 7.70619 118.369 7.67675 118.399 7.63611C118.493 7.46793 118.517 7.27 118.468 7.08395C118.398 6.64606 118.258 6.22229 118.053 5.82904C117.918 5.58747 118.286 5.371 118.421 5.61257C118.651 6.07055 118.752 6.58243 118.713 7.09336C118.713 7.40709 118.767 7.42277 118.839 7.35375C119.273 6.91767 119.574 5.86669 119.235 5.20159C118.713 4.17884 117.927 3.73335 117.123 3.28472C116.808 3.11217 116.456 2.91452 116.406 3.03374C116.221 3.48864 115.664 6.03924 115.866 6.50983ZM105.198 4.36394C105.789 4.79374 106.609 5.051 107.002 4.99139C107.047 4.98114 107.089 4.96 107.124 4.92983C107.159 4.89966 107.186 4.86137 107.203 4.81833C107.22 4.77529 107.226 4.72881 107.22 4.68295C107.215 4.6371 107.198 4.59327 107.172 4.55531C106.797 4.10366 106.325 3.74137 105.792 3.49492C105.541 3.39452 105.651 2.9804 105.908 3.08393C106.414 3.28472 106.7 3.63609 107.119 4.10041C107.398 4.41413 107.21 3.17805 106.455 2.76393C105.358 2.15844 103.941 2.72629 103.664 3.01491C103.598 3.07138 104.727 4.02198 105.198 4.36394ZM124.182 3.33178C124.369 2.77013 124.705 2.26934 125.153 1.88236C125.361 1.70354 125.666 2.00471 125.468 2.19609C125.153 2.47844 124.468 3.21884 124.317 3.7208C124.307 3.76096 124.307 3.80296 124.317 3.84316C124.327 3.88336 124.346 3.92054 124.374 3.95147C124.402 3.98239 124.436 4.00612 124.475 4.0206C124.514 4.03507 124.556 4.03985 124.597 4.03453C125.27 3.94041 126.36 3.27844 126.668 2.64472C126.894 2.18354 126.872 0.514513 126.759 0.498827C126.536 0.464317 125.222 1.05412 124.839 1.29256C123.836 1.92001 123.733 2.82668 123.931 3.35688C123.944 3.38006 123.964 3.39891 123.987 3.41115C124.011 3.42339 124.038 3.42849 124.064 3.42584C124.091 3.42318 124.116 3.41288 124.137 3.39619C124.158 3.3795 124.174 3.35712 124.182 3.33178ZM135.444 19.0934C134.871 18.8429 134.255 18.7064 133.63 18.6918C133.985 19.2691 134.887 19.7522 135.83 19.8558C136.707 19.9562 138.659 20.0879 138.568 19.8558C138.106 18.5789 137.593 17.5907 136.349 17.3083C135.645 17.1514 134.463 17.0636 133.85 17.4903C134.623 17.4073 135.405 17.482 136.148 17.7099C136.2 17.7268 136.244 17.7632 136.27 17.8116C136.296 17.8599 136.302 17.9164 136.288 17.9693C136.273 18.0222 136.239 18.0675 136.191 18.0957C136.144 18.1239 136.088 18.1329 136.034 18.1208C135.507 17.9702 134.96 17.9015 134.413 17.9169C134.101 17.9112 133.79 17.9492 133.489 18.0299C133.478 18.1079 133.478 18.1871 133.489 18.2652C134.24 18.2608 134.984 18.417 135.67 18.7232C135.912 18.8236 135.695 19.2032 135.444 19.0965V19.0934ZM136.132 66.1524C135.569 65.6598 134.849 64.8191 134.149 64.5838C133.206 64.27 132.209 64.6183 130.773 64.9163C128.306 65.4277 126.656 64.0849 126.137 63.1657C125.618 62.2465 125.314 58.0959 124.82 56.3453C123.975 53.3492 124.078 52.7971 123.99 51.6582C123.786 49.0888 124.955 47.5202 124.449 45.5908C124.185 44.5774 123.692 44.7374 123.553 43.4543C123.39 41.9547 123.333 39.0621 123.553 33.7131C123.588 32.8064 124.21 30.7389 124.242 29.4495C124.276 27.8558 123.45 27.8809 123.28 26.9868C123.161 26.3813 123.28 24.8409 123.814 23.6111L123.858 23.5452C124.349 22.8267 125.65 22.3781 126.137 22.1209C126.821 21.7217 127.54 21.3837 128.284 21.1107C128.881 20.8942 128.865 20.5397 128.62 20.5177C127.916 20.6292 127.234 20.8472 126.596 21.164C126.122 21.4188 125.632 21.641 125.128 21.8291C124.848 21.873 125.464 20.9475 125.86 20.5554C126.762 19.6581 127.224 19.2032 127.042 19.0714C126.8 18.8989 125.974 19.5954 125.471 20.1099C125.138 20.4518 123.475 22.3907 123.425 22.3813C123.333 22.2965 123.503 21.9201 123.676 21.575C123.864 21.1697 124.101 20.7884 124.38 20.4393C124.557 20.2607 124.707 20.0566 124.823 19.8338C124.839 19.7893 124.84 19.7408 124.825 19.6959C124.81 19.6511 124.781 19.6124 124.741 19.586C124.543 19.4699 123.959 20.135 123.799 20.3295C123.648 20.5374 123.481 20.7326 123.299 20.913C123.145 20.913 123.528 19.2346 123.736 18.6385C123.968 17.964 124.572 16.5648 124.223 16.4424C124.078 16.3922 123.72 16.7561 122.966 18.8895C122.783 19.4165 122.413 20.364 122.205 20.1663C122.082 20.0471 121.796 19.1467 121.41 18.4503C121.07 17.8255 120.637 17.2562 120.124 16.7624C119.911 16.6369 119.672 16.9883 119.958 17.3679C120.492 18.0801 120.942 18.4816 121.121 19.8118C121.176 20.349 121.176 20.8904 121.121 21.4275C121.099 21.4589 121.067 21.4275 121.026 21.2926C120.73 20.6956 120.395 20.1182 120.024 19.564C119.533 18.7985 119.169 18.9365 119.15 19.1656C119.131 19.3946 119.361 19.6769 119.662 20.2291C120.146 21.1044 120.335 22.2056 120.153 22.1115C120.065 22.0633 119.975 22.0203 119.882 21.9828C119.776 21.9075 119.653 21.8291 119.508 21.7381C118.943 21.3105 118.431 20.8165 117.984 20.2667C117.56 19.6393 117.509 19.0809 117.192 19.1938C117.013 19.2597 116.909 19.6832 117.425 20.5052C117.56 20.7216 117.717 20.9569 117.883 21.1828C117.368 20.9554 116.836 20.7666 116.293 20.6181C115.592 20.4644 115.611 20.8691 115.979 21.026C116.466 21.2393 117.673 21.7256 118.257 22.0424C120.018 22.9836 120.143 22.8989 120.241 23.9248C120.241 24.6495 120.241 25.5938 120.263 25.9264C120.302 28.3861 120.209 30.8461 119.983 33.2958C119.876 33.8825 119.254 34.2746 119.125 35.3507C118.911 37.1139 119.637 38.3876 119.901 39.4794C120.137 40.4645 120.04 45.6755 120.043 46.761C120.058 50.0551 120.209 52.9288 119.659 53.939C119.254 54.6825 118.543 55.7994 118.317 58.4441C118.223 59.5547 117.946 60.8441 117.456 61.6535C116.048 63.9845 115.177 64.223 113.766 64.1822C112.147 64.1351 111.786 63.9939 110.805 64.0975C110.07 64.1759 109.146 65.0387 108.385 65.6881C107.625 66.3375 106.6 66.4504 106.499 66.6951C106.342 67.0434 107.493 66.7265 108.423 66.2371C109.08 65.8889 109.969 65.0073 110.755 64.9508C111.858 64.8692 112.704 65.114 114.065 65.2457C115.935 65.4277 117.522 64.3328 118.295 63.2441C118.44 63.0434 118.635 63.1218 118.578 63.3069C118.427 63.7932 117.736 65.2959 116.94 65.3587C115.646 65.4622 114.964 65.7853 113.945 66.5289C113.141 67.1155 112.374 67.6426 112.424 67.8089C112.474 67.9751 112.861 67.63 113.659 67.2191C114.69 66.6889 115.774 66.1116 116.595 66.1179C117.063 66.152 117.531 66.0498 117.942 65.8237C118.353 65.5976 118.69 65.2574 118.911 64.8441C119.665 63.6112 119.656 62.121 119.807 61.4183C119.879 61.0732 120.121 61.0857 120.156 61.459C120.237 62.4747 120.115 63.4963 119.798 64.4645C119.603 65.1662 119.219 65.8011 118.688 66.2998C118.355 66.6136 118.022 66.6983 117.572 67.0371C117.05 67.4394 116.615 67.9431 116.293 68.5179C115.954 69.0575 115.708 69.6379 115.803 69.732C115.976 69.9014 116.362 69.1046 116.585 68.7908C116.874 68.3045 117.283 67.9005 117.773 67.6175C118.185 67.4167 118.433 67.3038 118.88 67.0904C119.406 66.8231 119.855 66.4243 120.181 65.9328C120.481 65.5083 120.688 65.025 120.788 64.5147C120.813 64.3924 120.819 64.2983 120.876 64.2951C120.932 64.292 120.998 64.5806 121.033 64.8096C121.228 66.1116 120.863 67.6144 120.458 68.2167C119.873 69.0826 119.694 69.3963 119.603 69.801C119.222 71.4952 121.548 71.7179 121.639 71.5987C121.768 71.4261 121.306 71.285 120.979 71.1657C119.911 70.7579 120.19 70.0489 120.351 69.7446C120.816 68.9006 121.454 68.4614 122.259 67.4293C122.656 66.8151 122.842 66.0879 122.787 65.3587C122.765 64.9822 122.607 63.9845 122.761 63.9751C122.865 63.9751 122.897 64.1979 122.922 64.3045C123.092 65.0845 123.399 65.828 123.83 66.5006C124.33 67.1469 125.276 67.6489 125.942 67.9563C126.608 68.2638 127.331 68.3265 127.319 68.1634C127.306 68.0002 126.621 67.9375 125.964 67.5171C123.657 66.0489 123.572 63.0528 123.516 62.7265C123.459 62.4002 123.56 62.3218 123.626 62.5257C124.025 63.721 124.135 63.9563 124.622 64.6622C125.543 65.9987 127.042 66.4347 128.29 66.4347C130.273 66.4347 132.3 64.9885 133.947 65.2771C134.692 65.4057 135.035 66.0175 135.547 66.35C136.405 66.9053 137.433 66.9367 137.531 66.8206C137.754 66.51 136.694 66.6544 136.132 66.1618V66.1524ZM117.465 63.1563C117.047 63.5108 116.475 63.5924 116.61 63.47C116.961 63.2609 117.273 62.9923 117.531 62.6763C117.814 62.3061 118.085 61.7069 118.229 61.7351C118.374 61.7634 118.066 62.6575 117.465 63.1657V63.1563ZM120.212 55.2818C120.008 55.639 119.858 56.025 119.769 56.4269C119.739 56.7016 119.691 56.9741 119.625 57.2426C119.54 57.4151 119.408 57.5877 119.263 57.4622C118.924 57.1484 119.263 56.0661 119.379 55.6927C119.43 55.5422 119.571 55.1061 119.911 54.9963C120.121 54.9367 120.3 55.0904 120.212 55.2912V55.2818ZM120.316 34.6542C120.16 34.9281 120.076 35.2366 120.071 35.5515C120.096 35.8652 120.172 36.0252 120.102 36.1413C120.033 36.2574 119.87 36.2825 119.735 36.1413C119.486 35.8746 119.508 35.244 119.618 34.9554C119.675 34.8017 119.845 34.328 120.124 34.284C120.3 34.2621 120.379 34.5099 120.316 34.6637V34.6542ZM123.164 29.0072C123.079 28.7593 122.953 28.615 122.915 28.455C122.868 28.2323 123.022 28.1413 123.205 28.1883C123.465 28.273 123.701 28.8566 123.723 29.1546C123.738 29.25 123.734 29.3474 123.711 29.4412C123.688 29.5349 123.646 29.6231 123.588 29.7005C123.566 29.7205 123.539 29.7355 123.511 29.7445C123.482 29.7535 123.452 29.7563 123.422 29.7527C123.393 29.7492 123.364 29.7393 123.338 29.7238C123.313 29.7083 123.291 29.6875 123.274 29.6628C123.142 29.5248 123.258 29.2989 123.164 29.0228V29.0072ZM123.865 46.8896C123.723 46.9806 123.569 46.9868 123.494 46.8488C123.387 46.6606 123.723 46.4159 123.547 45.9923C123.472 45.8015 123.381 45.6169 123.277 45.4402C123.179 45.2582 123.368 44.9947 123.645 45.1986C123.799 45.3304 123.923 45.4946 124.007 45.6794C124.091 45.8643 124.134 46.0653 124.132 46.2684C124.139 46.3897 124.119 46.5111 124.072 46.6235C124.026 46.7359 123.955 46.8365 123.865 46.9178V46.8896ZM126.473 65.1798C125.744 64.8661 125.241 64.4959 124.993 63.9783C124.745 63.4606 124.609 62.6575 124.767 62.6136C124.924 62.5696 125.103 63.423 125.483 63.9657C125.775 64.3769 126.148 64.7239 126.58 64.9853C126.744 65.092 127.297 65.2551 127.259 65.3179C127.221 65.3806 126.665 65.2865 126.473 65.2081V65.1798ZM145.866 12.4236C145.854 12.4354 145.846 12.4505 145.843 12.4668C145.84 12.4832 145.841 12.5001 145.848 12.5155C145.854 12.5309 145.865 12.5441 145.879 12.5534C145.893 12.5627 145.909 12.5678 145.926 12.5679C146.285 12.5552 146.642 12.6374 146.96 12.8063C147.005 12.8364 147.038 12.883 147.05 12.9363C147.063 12.9896 147.054 13.0457 147.026 13.0928C146.998 13.14 146.953 13.1746 146.901 13.1896C146.848 13.2046 146.791 13.1988 146.743 13.1734C146.413 12.9851 145.614 12.6369 145.36 13.1985C145.225 13.5844 145.284 14.0173 146.174 14.0926C146.45 14.1177 148.541 14.4879 148.688 14.4471C148.836 14.4063 148.525 13.3051 147.711 12.5397C147.478 12.3451 146.652 11.6549 145.866 12.4518V12.4236ZM149.839 10.993C149.418 10.5572 148.888 10.241 148.305 10.0769C147.475 9.89808 147.114 10.3216 146.953 10.6071C146.758 10.9553 147.833 10.5349 148.233 10.6291C148.503 10.6949 148.387 11.1059 148.119 11.0432C147.783 10.9518 147.43 10.9389 147.088 11.0055C147.052 11.0156 147.017 11.0336 146.988 11.0583C146.959 11.083 146.936 11.1138 146.92 11.1485C146.904 11.1833 146.896 11.2211 146.896 11.2592C146.897 11.2974 146.905 11.335 146.922 11.3695C147.013 11.5429 147.148 11.6895 147.313 11.7946C147.479 11.8997 147.669 11.9598 147.865 11.9687C148.666 12.0377 150.09 11.2942 149.839 11.0212V10.993ZM145.878 39.8433C145.285 40.0192 144.721 40.2803 144.203 40.6182C141.638 42.5915 142.27 45.8072 142.27 45.8072C142.518 48.5555 144.156 50.7955 143.091 52.361C142.905 52.6339 142.317 52.6496 142.283 52.4331C142.022 50.7955 140.243 48.0002 140.243 48.0002C139.809 47.2159 139.045 46.4911 139.055 45.5845C139.055 44.2449 139.624 43.9374 139.922 42.5445C140.08 41.8198 139.834 39.8935 140.124 39.4637C142.355 36.1382 142.474 33.8166 141.836 31.8778C141.651 31.3162 141.318 31.0401 141.44 30.5507C141.72 29.4495 141.667 28.1162 141.271 28.3546C140.99 28.5415 140.665 28.6498 140.328 28.6683C140.025 28.6357 139.719 28.6656 139.429 28.7562C139.13 28.8628 139.045 28.9413 139.03 28.9162C139.014 28.8911 139.454 28.3577 139.973 28.3076C139.869 28.0409 139.687 27.6613 139.419 27.5828C139.391 27.5828 139.319 27.5358 139.294 27.5828C138.979 28.2103 138.945 28.4832 138.665 28.6025C138.568 28.629 138.469 28.6499 138.37 28.6652C137.323 28.9977 136.666 29.6064 136.022 29.7287C135.808 29.7695 135.506 29.5687 135.494 30.0048C135.482 30.2102 135.511 30.416 135.579 30.6103C135.959 31.8966 137.486 32.5711 137.486 32.5711C137.773 33.1578 137.455 34.4754 137.455 34.4754C135.704 35.6237 135.148 36.9099 134.746 37.4652C134.554 37.8103 134.29 37.7539 133.803 38.1241C133.523 38.3425 133.277 38.6016 133.074 38.8927C132.939 39.0684 132.759 38.579 134.057 37.4872C134.026 37.3614 133.984 37.2385 133.932 37.1201C133.335 36.0754 131.81 33.4087 131.612 33.1484C131.27 32.7029 131.112 32.8346 130.242 31.9562C129.846 31.5578 129.843 31.2817 129.638 31.2283C129.434 31.175 129.01 31.2032 128.554 31.1531C128.136 31.106 127.944 31.1248 127.897 31.2001C127.822 31.3256 127.954 31.7648 128.158 32.0817C128.84 33.1358 130.613 33.895 130.65 33.964C130.688 34.0331 130.908 35.197 130.965 35.4323C131.593 37.6064 131.974 37.7695 131.986 39.0809C132.024 39.4886 131.996 39.8997 131.901 40.2982C132.027 40.3315 132.153 40.3577 132.282 40.3766C133.705 40.6088 135.4 39.9688 135.337 40.2699C135.302 40.4488 134.68 40.6496 133.57 40.7186C132.928 40.7584 132.284 40.7353 131.647 40.6496C131.647 40.6496 131.628 40.6496 131.647 40.6496C131.666 40.6496 129.896 40.3986 127.658 40.1068C127.256 40.0535 126.885 40.6025 126.118 41.4496C125.49 42.1303 124.968 42.1617 124.921 42.4754C124.804 43.2315 124.669 43.4731 124.77 43.7304C124.839 43.9186 125.653 43.6456 125.936 43.4888C127.03 42.8896 127.712 41.6064 127.837 41.688C128.545 42.1021 130.735 42.7484 131.864 43.0182C132.304 43.1217 132.791 43.0182 132.759 43.31C132.389 46.5476 135.164 49.117 135.836 50.1304C135.896 50.2182 135.852 50.3719 135.774 50.3594C135.356 50.2872 132.725 49.8543 131.659 50.8394C130.984 51.4669 131.138 52.8316 131.455 53.6222C131.904 54.7516 132.511 55.1657 133.177 56.4206C133.379 56.7971 133.938 57.4277 133.592 58.4943C133.247 59.561 132.168 60.4332 130.764 61.0041C130.412 61.1453 129.786 60.9383 129.553 61.2583C129.239 61.7037 128.959 62.5132 129.179 62.5665C129.349 62.601 130.751 62.6543 131.081 62.3751C131.574 61.9547 134.092 60.8065 135.136 58.9931C135.764 57.9202 134.394 57.9108 134.846 56.1696C135.129 55.0716 136.883 54.2872 136.804 53.5029C136.767 53.1578 136.877 53.252 136.918 53.2771C137.424 53.5908 136.698 55.2284 137.134 56.8567C137.508 58.2465 139.02 59.7116 140.388 61.0292C140.481 61.1189 140.557 61.2253 140.611 61.343C140.727 61.6002 140.749 61.8904 140.67 62.1618C140.315 63.5139 139.379 65.3932 138.873 65.6285C138.769 65.6755 138.194 65.7634 138.052 66.0645C138.008 66.1618 137.713 66.7391 137.854 66.852C138.169 67.0998 139.765 66.9398 139.982 66.7736C140.037 66.725 140.082 66.6664 140.114 66.601C140.567 65.732 143.028 61.1798 142.132 60.1006C141.818 59.7367 141.503 60.3422 140.991 59.7681C140.84 59.5924 140.736 59.0371 140.799 58.2214C140.809 58.0024 140.88 57.7905 141.004 57.6096C142.236 56.3327 142.685 55.0841 142.676 53.7696C142.676 53.6441 143.138 53.5406 143.282 53.6629C143.514 53.8838 143.797 54.0429 144.106 54.1257C144.416 54.2085 144.741 54.2122 145.052 54.1367C146.205 53.9892 147.566 52.6527 147.896 50.2841C148.167 48.3641 148.019 47.2315 145.438 43.2253C144.197 41.3586 145.878 39.8433 145.878 39.8433ZM140.865 29.2017C140.532 29.7507 140.57 29.7538 140.573 30.0613C140.573 30.1679 140.51 30.2903 140.388 30.2778C140.272 30.2328 140.167 30.1628 140.082 30.0727C139.997 29.9826 139.933 29.8748 139.894 29.757C139.866 29.3334 140.975 29.0166 140.865 29.2017ZM140.18 32.2699C140.466 32.0346 140.538 31.6142 140.664 31.6425C140.79 31.6707 140.928 32.4017 140.438 32.6558C140.266 32.7387 140.075 32.7729 139.886 32.7547C139.696 32.7364 139.515 32.6664 139.363 32.5523C139.284 32.4142 139.834 32.5617 140.18 32.2699ZM136.346 44.019C136.115 44.0706 135.875 44.0706 135.645 44.019C135.528 44.0002 135.296 43.9217 135.33 43.8151C135.365 43.7084 135.84 43.837 136.116 43.6237C136.339 43.4511 136.33 43.0998 136.43 43.1154C136.531 43.1311 136.559 43.3288 136.566 43.3539C136.606 43.608 136.61 43.9217 136.346 44.019ZM137.864 30.3938C137.757 30.3271 137.68 30.2213 137.65 30.0989C137.586 30.0756 137.527 30.0393 137.477 29.9923C137.398 29.9264 137.38 29.8793 137.383 29.8699C137.386 29.8605 137.405 29.8354 137.521 29.8385C137.591 29.8397 137.659 29.8138 137.71 29.7664C137.78 29.6786 137.88 29.6201 137.991 29.6021C138.102 29.5841 138.216 29.608 138.31 29.6691C138.502 29.7883 138.668 30.0707 138.857 30.2338C138.891 30.2621 138.26 30.6511 137.864 30.3938ZM96.4542 9.37415C96.7056 9.0918 95.8256 9.31454 95.5804 9.19219C95.3353 9.06984 95.549 8.70591 95.7973 8.82513C96.0456 8.94435 96.4856 9.13886 96.6365 8.90984C96.7873 8.68082 96.363 8.3514 95.571 8.17258C95.1565 8.10075 94.7509 7.98507 94.3609 7.82748C94.3264 7.81179 94.4301 8.76866 94.7287 9.09807C95.2347 9.63455 96.0362 9.78827 96.4542 9.37102V9.37415ZM108.398 56.1759C108.85 57.9296 107.493 57.939 108.109 58.9994C109.152 60.8159 111.67 61.961 112.163 62.3814C112.477 62.6606 113.895 62.6073 114.068 62.5728C114.241 62.5383 114.014 61.71 113.691 61.2645C113.458 60.9508 112.833 61.1516 112.481 61.0104C111.069 60.4488 110.004 59.6206 109.652 58.5006C109.3 57.3806 109.866 56.8033 110.067 56.4269C110.733 55.172 111.324 54.7578 111.792 53.6284C112.106 52.8378 112.261 51.4731 111.585 50.8457C110.519 49.8606 107.889 50.2935 107.471 50.3657C107.392 50.3657 107.351 50.2245 107.408 50.1366C108.08 49.1233 110.865 46.5539 110.485 43.3162C110.453 43.0245 110.94 43.128 111.38 43.0245C112.512 42.7547 114.699 42.1084 115.407 41.6943C115.532 41.6221 116.214 42.8958 117.308 43.4951C117.591 43.6519 118.405 43.9249 118.477 43.7366C118.575 43.4731 118.44 43.2315 118.323 42.4817C118.276 42.168 117.745 42.1366 117.126 41.4558C116.359 40.6088 115.988 40.0597 115.589 40.1131C113.348 40.4048 111.597 40.6558 111.597 40.6558C110.96 40.7416 110.316 40.7647 109.674 40.7248C108.564 40.6558 107.945 40.455 107.907 40.2762C107.845 39.9625 109.539 40.615 110.962 40.3829C111.091 40.3639 111.218 40.3378 111.343 40.3045C111.248 39.906 111.22 39.4949 111.258 39.0872C111.274 37.7758 111.663 37.6127 112.279 35.4386C112.345 35.2033 112.55 34.0895 112.594 33.9703C112.638 33.8511 114.404 33.1264 115.086 32.088C115.29 31.7742 115.426 31.3319 115.347 31.2064C115.3 31.1311 115.108 31.1123 114.693 31.1593C114.222 31.2095 113.848 31.1593 113.609 31.2346C113.37 31.3099 113.398 31.5483 113.005 31.9625C112.132 32.8409 111.974 32.7091 111.632 33.1546C111.434 33.415 109.91 36.0817 109.312 37.1264C109.26 37.2448 109.218 37.3676 109.187 37.4935C110.485 38.5946 110.306 39.0621 110.17 38.899C109.967 38.6079 109.721 38.3488 109.441 38.1303C108.948 37.7601 108.684 37.8166 108.498 37.4715C108.093 36.9162 107.537 35.6299 105.786 34.4817C105.786 34.4817 105.472 33.164 105.754 32.5774C105.754 32.5774 107.285 31.9029 107.662 30.6166C107.73 30.4223 107.759 30.2165 107.747 30.0111C107.747 29.575 107.433 29.7758 107.219 29.735C106.575 29.6189 105.918 29.004 104.871 28.6715C104.772 28.6562 104.673 28.6352 104.576 28.6087C104.283 28.4895 104.243 28.2009 103.947 27.5891C103.922 27.5421 103.85 27.5891 103.821 27.5891C103.554 27.6675 103.372 28.0472 103.268 28.3138C103.777 28.364 104.239 28.8628 104.211 28.9225C104.183 28.9821 104.111 28.8691 103.812 28.7625C103.522 28.6719 103.216 28.642 102.913 28.6746C102.576 28.6561 102.251 28.5477 101.97 28.3609C101.574 28.1319 101.521 29.4652 101.8 30.557C101.926 31.0464 101.59 31.3225 101.404 31.884C100.776 33.8197 100.886 36.1444 103.117 39.4699C103.407 39.8997 103.161 41.826 103.319 42.5507C103.617 43.9437 104.177 44.2511 104.189 45.5908C104.189 46.4974 103.432 47.2221 102.998 48.0064C102.998 48.0064 101.219 50.8017 100.958 52.4394C100.924 52.6559 100.33 52.6402 100.15 52.3672C99.0849 50.7986 100.722 48.5617 100.971 45.8135C100.971 45.8135 101.599 42.5978 99.0378 40.6245C98.5199 40.2865 97.9556 40.0255 97.3625 39.8495C97.3625 39.8495 99.044 41.3586 97.8403 43.2221C95.2598 47.2284 95.1121 48.361 95.3824 50.281C95.6967 52.6496 97.0734 53.9861 98.2111 54.1335C98.5186 54.202 98.8382 54.1934 99.1414 54.1086C99.4447 54.0237 99.7223 53.8652 99.9492 53.6472C100.097 53.5249 100.556 53.6284 100.556 53.7539C100.556 55.0684 100.996 56.3171 102.228 57.5939C102.353 57.7741 102.424 57.9864 102.432 58.2057C102.498 59.0214 102.391 59.5767 102.241 59.7524C101.741 60.3265 101.401 59.721 101.1 60.0849C100.204 61.1641 102.671 65.7163 103.117 66.5853C103.15 66.6507 103.195 66.7093 103.249 66.7579C103.466 66.9242 105.076 67.0716 105.377 66.8363C105.519 66.7234 105.223 66.1461 105.179 66.0489C105.038 65.7351 104.466 65.6598 104.359 65.6128C103.853 65.3775 102.916 63.4983 102.561 62.1461C102.485 61.8746 102.506 61.5849 102.621 61.3273C102.675 61.2097 102.751 61.1032 102.844 61.0135C104.208 59.6959 105.723 58.2308 106.097 56.841C106.534 55.2127 105.808 53.5751 106.314 53.2614C106.355 53.2363 106.465 53.1422 106.427 53.4872C106.358 54.2747 108.121 55.0747 108.395 56.1727L108.398 56.1759ZM103.312 29.7601C103.274 29.8779 103.21 29.9858 103.124 30.0758C103.039 30.1659 102.935 30.2359 102.819 30.2809C102.696 30.2809 102.63 30.1711 102.633 30.0644C102.633 29.7507 102.674 29.7507 102.341 29.2048C102.228 29.0166 103.328 29.3334 103.309 29.757L103.312 29.7601ZM103.837 32.5397C103.685 32.6538 103.504 32.7239 103.314 32.7421C103.125 32.7604 102.934 32.7262 102.762 32.6433C102.272 32.3891 102.369 31.6456 102.539 31.6299C102.662 31.6299 102.734 32.0378 103.02 32.2574C103.369 32.5617 103.919 32.4142 103.834 32.5366L103.837 32.5397ZM105.343 30.397C104.947 30.6542 104.315 30.2652 104.349 30.237C104.538 30.0738 104.705 29.7915 104.896 29.6723C104.99 29.6104 105.104 29.5861 105.216 29.6041C105.327 29.6222 105.427 29.6812 105.497 29.7695C105.548 29.817 105.615 29.8428 105.685 29.8417C105.802 29.8417 105.817 29.8605 105.824 29.873C105.83 29.8856 105.824 29.9295 105.729 29.9954C105.68 30.0431 105.621 30.0795 105.556 30.1021C105.525 30.2238 105.447 30.3284 105.34 30.3938L105.343 30.397ZM106.644 43.3696C106.644 43.3445 106.685 43.1468 106.776 43.1311C106.867 43.1154 106.873 43.4668 107.09 43.6394C107.367 43.8527 107.835 43.6864 107.876 43.8307C107.917 43.9751 107.675 44.0158 107.562 44.0347C107.331 44.0863 107.092 44.0863 106.861 44.0347C106.594 43.9217 106.597 43.608 106.641 43.3664L106.644 43.3696ZM97.5291 8.69337C98.5192 9.12317 99.6632 8.97886 100.144 8.1663C100.223 8.0314 100.245 7.72081 100.091 7.75846C99.4055 7.92474 98.5192 8.09101 97.8906 7.88081C97.6297 7.79611 97.7428 7.38199 98.0037 7.46983C98.6784 7.66559 99.393 7.67966 100.075 7.51062C100.364 7.43218 100.389 7.0714 100.286 6.79532C99.9712 5.98277 98.7863 5.97963 98.2646 6.03924C97.2431 6.15532 95.6464 7.01807 95.5018 7.13414C96.0855 7.76777 96.7759 8.29442 97.5417 8.69023L97.5291 8.69337ZM97.0671 11.4008C97.0836 11.3664 97.0924 11.3288 97.0928 11.2906C97.0931 11.2524 97.0851 11.2146 97.0692 11.1799C97.0533 11.1452 97.0299 11.1144 97.0008 11.0897C96.9716 11.065 96.9374 11.0469 96.9005 11.0369C96.5585 10.9703 96.2058 10.9832 95.8696 11.0745C95.6024 11.1373 95.4861 10.7263 95.7564 10.6604C96.1556 10.5663 97.2305 10.9742 97.0357 10.6385C96.8754 10.353 96.5139 9.92945 95.6841 10.1083C95.1005 10.2724 94.5711 10.5885 94.1503 11.0244C93.8989 11.3004 95.329 12.0408 96.1367 12C96.333 11.9908 96.5234 11.9303 96.6888 11.8246C96.8543 11.7189 96.9891 11.5717 97.0796 11.3977L97.0671 11.4008ZM101.741 7.19062C102.11 7.35122 102.507 7.43656 102.91 7.4416C103.19 7.42277 103.62 7.47297 103.539 7.2063C103.394 6.76708 102.621 6.12708 102.197 5.9263C101.948 5.81022 102.165 5.44316 102.413 5.55924C102.957 5.81336 103.13 6.36551 103.583 6.78591C103.652 6.84865 103.702 6.63532 103.702 6.52238C103.702 5.87296 103.356 4.95374 102.545 4.78747C101.819 4.63061 101.056 4.87218 100.345 5.1012C100.323 5.12002 100.616 6.73257 101.753 7.18748L101.741 7.19062ZM127.391 12.731C127.389 12.7524 127.395 12.7737 127.406 12.7921C127.417 12.8104 127.433 12.8249 127.453 12.8335C127.472 12.8421 127.494 12.8444 127.515 12.8401C127.536 12.8358 127.556 12.8251 127.57 12.8095C127.976 12.3765 128.513 11.8683 128.966 11.7804C129.236 11.7208 129.349 12.1318 129.079 12.1946C128.712 12.2967 128.373 12.4837 128.092 12.7404C128.007 12.8095 127.919 12.8879 127.831 12.9726C127.801 13.0031 127.779 13.0407 127.768 13.0818C127.756 13.1229 127.756 13.1663 127.765 13.2079C127.775 13.2495 127.795 13.2879 127.824 13.3197C127.852 13.3515 127.888 13.3757 127.929 13.3899C128.535 13.5875 129.359 13.2769 129.814 12.7624C130.27 12.2479 130.716 10.9428 130.493 10.9428C130.085 10.9428 128.629 11.0871 127.979 11.473C127.608 11.6926 127.413 12.3138 127.404 12.7279L127.391 12.731ZM128.648 3.46041C129.179 3.09021 129.569 2.31217 129.808 1.72236C129.909 1.47138 130.324 1.58118 130.22 1.83844C129.99 2.38246 129.65 2.87285 129.22 3.27844C129.2 3.29688 129.186 3.32133 129.181 3.34822C129.175 3.37511 129.178 3.40304 129.19 3.42792C129.202 3.4528 129.221 3.47333 129.245 3.48651C129.269 3.49969 129.297 3.50484 129.324 3.50119C129.701 3.42302 130.052 3.24905 130.342 2.99609C130.999 2.42197 130.782 0.423533 130.682 0.436082C130.22 0.483141 128.642 1.31452 128.35 1.73177C127.96 2.28393 128.035 3.11531 128.372 3.43531C128.411 3.47174 128.463 3.49322 128.517 3.49609C128.571 3.49895 128.624 3.48301 128.667 3.45099L128.648 3.46041ZM143.606 21.3554C143.961 21.3334 143.326 20.0063 142.663 19.5358C142.374 19.3287 141.343 18.9083 140.595 19.1373C140.513 19.1624 140.362 19.3381 140.444 19.3601C140.912 19.4824 141.513 19.6738 141.774 19.9342C141.965 20.1318 141.66 20.4361 141.459 20.2479C141.049 19.878 140.522 19.6627 139.969 19.6393C139.886 19.647 139.805 19.6746 139.733 19.7199C139.662 19.7652 139.603 19.8269 139.561 19.8997C139.247 20.5271 139.731 21.0887 140.3 21.3428C141.044 21.6628 142.27 21.4338 143.606 21.3554ZM127.061 7.95611C126.03 8.35768 125.845 9.48709 125.999 10.2777C126.002 10.2954 126.01 10.3117 126.023 10.3241C126.036 10.3364 126.053 10.344 126.071 10.3458C126.089 10.3476 126.107 10.3434 126.122 10.3339C126.138 10.3245 126.15 10.3102 126.156 10.2934C126.369 9.78582 126.646 9.30725 126.979 8.86905C127.152 8.65572 127.454 8.96003 127.294 9.18278C126.888 9.68474 126.175 10.353 126.351 11.0055C126.362 11.0461 126.385 11.0824 126.417 11.1098C126.449 11.1372 126.488 11.1545 126.53 11.1593C126.856 11.1068 127.149 10.9302 127.347 10.6667C127.689 10.3404 128.013 9.99583 128.318 9.63455C128.494 9.42435 128.796 9.72866 128.633 9.94827C128.243 10.3158 127.833 10.6604 127.404 10.9804C127.278 11.0996 127.306 11.1436 127.479 11.1185C128.02 11.04 128.988 10.7702 129.211 10.491C130.066 9.49023 130.154 7.75219 130.05 7.31924C130.038 7.27846 128.953 7.21571 127.061 7.95611ZM138.332 9.5467C137.656 9.77258 136.333 10.4408 135.698 11.3475C135.022 12.3138 135.016 13.7004 135.481 13.6502C135.566 13.6502 135.638 13.6502 135.717 13.6502C135.717 13.6502 135.717 13.6502 135.717 13.6346C136.386 13.0591 136.812 12.2519 136.908 11.3757C136.955 11.1059 137.367 11.222 137.32 11.4918C137.213 12.3024 136.862 13.0616 136.314 13.6691C136.496 13.6879 136.669 13.7193 136.839 13.7538C137.101 13.5946 137.325 13.3797 137.495 13.1242C137.664 12.8688 137.775 12.5792 137.82 12.2761C137.845 12.0032 138.272 12 138.25 12.2761C138.176 12.8995 137.866 13.4709 137.383 13.873C137.667 13.9368 137.954 13.9839 138.244 14.0142C138.609 14.0487 139.413 12.9946 138.935 11.9436C138.697 11.3695 138.373 9.53102 138.332 9.5467ZM136.305 16.0722C135.776 16.0772 135.255 16.2005 134.78 16.433C134.751 16.4514 134.727 16.4773 134.712 16.508C134.696 16.5387 134.689 16.573 134.691 16.6074C134.694 16.6418 134.705 16.6749 134.725 16.7033C134.744 16.7317 134.771 16.7543 134.802 16.7687C135.465 17.0066 136.191 16.9943 136.845 16.7342C137.521 16.4769 138.891 14.6416 138.671 14.5757C138.043 14.3906 136.075 13.8259 135.073 14.1334C134.381 14.3436 133.765 15.8369 134.089 15.542C134.306 15.3475 135.117 14.6887 135.642 14.5757C135.909 14.5161 136.025 14.9303 135.755 14.9867C135.145 15.1185 134.139 15.7616 134.086 16.1318C134.064 16.2824 134.136 16.3859 134.211 16.3452C134.658 16.113 135.698 15.6644 136.305 15.6455C136.578 15.6361 136.578 16.0628 136.305 16.0722ZM145.306 17.2863C144.797 16.4205 143.735 15.5703 142.352 15.9624C142.214 16.0001 142.06 16.2291 142.201 16.2605C142.677 16.3431 143.134 16.511 143.549 16.7561C143.769 16.9193 143.549 17.2895 143.336 17.1232C142.823 16.7659 142.213 16.5732 141.588 16.571C141.513 16.5734 141.441 16.6047 141.387 16.6584C141.334 16.7121 141.304 16.7841 141.302 16.8597C141.302 17.4871 141.956 18.262 142.83 18.3844C143.703 18.5067 145.105 18.5067 145.847 18.9052C146.051 19.0181 145.523 17.6471 145.306 17.2863ZM131.119 15.9185C131.101 15.9267 131.086 15.9405 131.077 15.9577C131.068 15.975 131.064 15.9947 131.067 16.0141C131.07 16.0335 131.079 16.0515 131.093 16.0653C131.106 16.0792 131.124 16.0882 131.144 16.091C131.948 16.1749 132.753 15.9506 133.397 15.4636C134.067 14.8361 134.686 12.7561 134.938 11.7146C134.956 11.6361 132.363 11.7146 131.119 12.342C130.528 12.6338 130.148 13.3773 130.063 14.1271C130.019 14.5099 130.094 14.6667 130.132 14.6008C130.47 13.9977 130.894 13.4461 131.389 12.9632C131.6 12.7906 131.904 13.0918 131.703 13.2769C131.075 13.7883 130.28 14.4502 130.166 15.2189C130.163 15.24 130.167 15.2616 130.177 15.2807C130.186 15.2997 130.202 15.3153 130.221 15.3252C130.24 15.3352 130.261 15.3391 130.282 15.3363C130.304 15.3336 130.323 15.3243 130.339 15.3099C130.991 14.6691 131.682 14.0688 132.407 13.5122C132.631 13.3522 132.847 13.7255 132.621 13.8824C132.555 13.9295 132.385 14.0769 132.269 14.1648C131.144 15.0369 130.833 15.1059 130.383 15.564C130.339 15.6079 130.251 15.6738 130.292 15.7648C130.333 15.8557 130.481 15.8055 130.525 15.7993C131.153 15.7303 132.256 15.0244 132.895 14.4816C133.102 14.3028 133.407 14.604 133.209 14.7953C132.566 15.2622 131.863 15.64 131.119 15.9185ZM140.941 13.3428C140.183 13.12 139.636 13.2173 139.325 13.575C139.228 13.691 139.212 14.0204 139.366 13.9985C139.872 13.9263 140.56 13.8353 140.975 13.9985C141.23 14.102 141.117 14.5161 140.862 14.4126C140.308 14.1974 139.695 14.1819 139.13 14.3687C139.101 14.3815 139.076 14.4027 139.059 14.4294C139.042 14.4562 139.033 14.4874 139.033 14.5193C139.027 14.6101 139.027 14.7013 139.033 14.7922C139.099 15.5389 139.828 15.9718 140.837 15.7804C141.595 15.6496 142.342 15.4565 143.069 15.2032C143.009 15.0181 142.019 13.6597 140.941 13.3428ZM141.22 18.7546C141.298 18.3188 141.256 17.8703 141.099 17.4562C140.943 17.0422 140.677 16.6779 140.331 16.4016C139.702 15.9279 138.58 15.6361 138.197 16.1506C138.18 16.1766 138.17 16.2065 138.168 16.2374C138.166 16.2683 138.172 16.2992 138.186 16.327C138.199 16.3549 138.22 16.3787 138.246 16.3962C138.271 16.4136 138.301 16.4242 138.332 16.4267C138.794 16.4644 139.366 16.5334 139.617 16.7405C139.869 16.9475 139.529 17.211 139.303 17.0542C138.917 16.8105 138.461 16.7003 138.005 16.7405C137.908 16.7544 137.82 16.8039 137.758 16.8794C137.696 16.9548 137.664 17.0507 137.669 17.1483C137.688 17.6252 138.077 18.0456 138.81 18.2369C139.604 18.4506 140.408 18.6234 141.22 18.7546ZM131.065 7.52944C130.399 7.96866 130.336 8.96944 130.506 9.84788C130.553 10.1051 130.767 10.3969 130.798 10.2338C130.973 9.38607 131.428 8.62152 132.09 8.06278C132.316 7.90591 132.53 8.27611 132.307 8.43297C131.612 8.91611 130.811 9.93886 131.138 10.924C131.145 10.9481 131.159 10.9695 131.178 10.9855C131.198 11.0015 131.221 11.0113 131.246 11.0137C131.271 11.016 131.297 11.0109 131.319 10.9988C131.341 10.9867 131.359 10.9683 131.37 10.9459C131.882 10.1114 132.344 9.12317 133.404 8.39846C133.655 8.22591 133.803 8.55533 133.536 8.81258C132.787 9.52719 132.132 10.3336 131.587 11.2126C131.452 11.4291 131.801 11.4071 131.87 11.3851C132.543 11.1624 133.067 10.5538 133.577 9.99533C133.765 9.79141 134.067 10.0926 133.891 10.3091C133.537 10.6474 133.161 10.9619 132.766 11.2502C132.741 11.2705 132.723 11.2979 132.714 11.3288C132.706 11.3597 132.707 11.3925 132.718 11.4226C132.729 11.4526 132.75 11.4785 132.776 11.4965C132.803 11.5146 132.834 11.5239 132.866 11.5232C133.809 11.4855 134.721 11.0557 135.12 10.5506C135.871 9.60945 135.884 6.97414 135.701 6.91767C135.519 6.8612 132.445 6.60395 131.065 7.52944ZM132.266 6.42826C132.42 6.39689 132.58 6.37179 132.719 6.34669C132.987 6.30924 133.23 6.16986 133.397 5.95767C133.667 5.58226 133.856 5.15488 133.951 4.70276C134.004 4.43296 134.416 4.54904 134.365 4.8157C134.217 5.32881 133.948 5.79895 133.58 6.18669C133.473 6.30591 133.957 6.331 134.177 6.25257C134.263 6.22692 134.341 6.17935 134.403 6.11453C134.818 5.58629 135.077 4.95282 135.151 4.28551C135.192 4.01256 135.604 4.12864 135.563 4.39845C135.418 4.96853 135.172 5.50821 134.837 5.99218C134.823 6.01629 134.815 6.04358 134.815 6.07144C134.814 6.09931 134.821 6.12682 134.834 6.15136C134.848 6.1759 134.867 6.19664 134.891 6.21162C134.914 6.22659 134.941 6.23529 134.969 6.23689C135.249 6.25571 135.635 6.27767 135.73 6.26512C136.066 6.21806 136.408 3.89335 136.16 2.79531C136.107 2.55687 134.161 3.17491 133.316 3.75531C132.2 4.51453 131.845 6.49728 132.272 6.41257L132.266 6.42826ZM146.388 14.7232C145.784 14.2087 144.48 13.9702 144.187 14.2965C143.895 14.6228 145.105 14.582 145.413 14.7702C145.462 14.799 145.498 14.846 145.513 14.901C145.527 14.956 145.519 15.0145 145.49 15.0636C145.461 15.1127 145.414 15.1484 145.359 15.1628C145.304 15.1772 145.246 15.1692 145.196 15.1404C144.969 15.005 144.725 14.8996 144.47 14.8267C144.385 14.8016 144.272 14.7608 144.156 14.7295C144.115 14.7184 144.071 14.717 144.029 14.7254C143.987 14.7337 143.947 14.7517 143.913 14.7777C143.879 14.8038 143.852 14.8374 143.833 14.8758C143.814 14.9142 143.804 14.9564 143.804 14.9993C143.82 15.2189 143.895 15.4301 144.023 15.6099C144.15 15.7897 144.325 15.9311 144.527 16.0189C145.718 16.4769 146.353 16.4832 147.17 16.8032C147.374 16.8754 147.054 15.2691 146.394 14.7075L146.388 14.7232ZM136.569 8.5616C136.339 8.58042 136.276 8.87533 136.254 9.10435C136.254 9.13572 136.254 9.17023 136.254 9.2016C136.138 10.1428 138.785 9.40866 139.592 7.63297C140.042 6.63532 140.199 4.45178 140.014 4.51139C138.323 5.051 136.122 5.68473 136.264 6.70748V6.78591C136.308 7.12787 136.327 7.62356 136.628 7.45415C137.113 7.14531 137.546 6.76203 137.911 6.31846C138.062 6.08943 138.433 6.30277 138.282 6.53493C137.854 7.14499 137.227 7.58838 136.509 7.78983C136.462 7.80183 136.42 7.82943 136.39 7.86814C136.36 7.90686 136.345 7.95443 136.346 8.00317C136.345 8.03771 136.352 8.07192 136.366 8.10348C136.381 8.13504 136.401 8.16321 136.427 8.18611C136.453 8.20901 136.484 8.22609 136.517 8.2362C136.55 8.24631 136.585 8.24922 136.619 8.24474C136.81 8.21691 136.997 8.17068 137.178 8.1067C137.625 7.9823 138.029 7.73943 138.348 7.40395C138.533 7.20003 138.835 7.50434 138.662 7.71768C138.244 8.15689 137.292 8.50199 136.569 8.5616ZM128.526 5.64708C128.53 5.67079 128.542 5.69252 128.559 5.7094C128.577 5.72627 128.599 5.73749 128.623 5.74158C128.647 5.74566 128.671 5.74241 128.693 5.73226C128.715 5.7221 128.733 5.70553 128.746 5.68473C129.043 5.15981 129.465 4.71593 129.975 4.39217C130.023 4.37027 130.078 4.36704 130.128 4.38312C130.179 4.3992 130.221 4.43343 130.248 4.47917C130.275 4.52491 130.283 4.5789 130.272 4.63065C130.261 4.6824 130.231 4.72823 130.188 4.75923C129.585 5.10433 128.793 5.63767 128.84 6.34355C128.85 6.39296 128.873 6.43879 128.907 6.47631C128.94 6.51382 128.984 6.54164 129.032 6.55689C129.147 6.56417 129.262 6.54758 129.37 6.50816C129.478 6.46874 129.577 6.40735 129.66 6.32787C130.004 6.08611 130.298 5.78166 130.528 5.43061C130.557 5.38152 130.604 5.34584 130.659 5.33143C130.714 5.31701 130.773 5.32504 130.822 5.35375C130.871 5.38245 130.907 5.42948 130.921 5.48449C130.936 5.53951 130.927 5.59799 130.899 5.64708C130.643 5.99575 130.314 6.28389 129.934 6.491C129.811 6.57257 129.478 6.68552 129.579 6.82355C129.679 6.96159 130.251 6.88316 130.632 6.74512C131.405 6.45963 131.524 5.8761 131.782 5.23296C131.879 4.99139 132.228 3.45413 132.096 3.41962C131.552 3.28158 129.846 3.59531 128.975 4.06276C128.526 4.30119 128.378 5.01963 128.526 5.64708ZM132.165 3.07452C132.63 2.85955 133.015 2.50387 133.265 2.05805C133.419 1.83216 133.79 2.05805 133.636 2.27452C133.379 2.64472 132.454 3.10903 132.693 3.2157C132.822 3.27217 133.815 3.23139 134.164 2.6353C134.407 2.03092 134.514 1.38102 134.479 0.730985C134.479 0.523925 132.011 1.61569 131.75 2.27766C131.581 2.72629 131.873 3.20001 132.165 3.07766V3.07452ZM136.88 4.08786C137.298 3.62354 137.584 3.27217 138.09 3.07138C138.348 2.96786 138.458 3.38511 138.206 3.48237C137.673 3.72882 137.202 4.09111 136.826 4.54276C136.8 4.58072 136.784 4.62455 136.778 4.6704C136.773 4.71626 136.779 4.76274 136.795 4.80578C136.812 4.84883 136.839 4.88711 136.874 4.91728C136.909 4.94745 136.951 4.96859 136.996 4.97884C137.389 5.04786 138.209 4.79061 138.8 4.35139C139.272 4.00943 140.4 3.05884 140.334 2.99295C140.054 2.70432 138.64 2.13648 137.543 2.74197C136.792 3.16864 136.603 4.39217 136.883 4.07845L136.88 4.08786ZM143.421 11.3193C141.849 11.084 141.44 12.3389 141.453 12.6212C141.472 13.0573 142.622 12.3891 143.182 12.1632C143.439 12.0628 143.549 12.4769 143.295 12.5773C142.859 12.7517 142.408 12.8841 141.946 12.9726C141.909 12.9792 141.874 12.9958 141.845 13.0206C141.817 13.0455 141.795 13.0776 141.783 13.1136C141.771 13.1497 141.769 13.1882 141.778 13.2253C141.786 13.2623 141.804 13.2964 141.83 13.324C142.043 13.5322 142.304 13.6849 142.59 13.7687C142.877 13.8524 143.179 13.8645 143.471 13.804C144.285 13.6565 145.614 12.1695 145.58 12.1444C144.903 11.7719 144.177 11.4953 143.424 11.3224L143.421 11.3193ZM147.224 9.65964C146.307 9.35581 145.345 9.20735 144.379 9.22043C143.92 9.24866 143.329 9.33023 142.959 9.70043C142.855 9.80396 142.745 10.0142 142.811 10.1208C143.075 10.5663 144.382 10.2526 144.967 10.0706C145.231 9.98906 145.341 10.3844 145.08 10.4847C144.313 10.742 142.88 10.4345 142.984 10.6573C143.169 11.0526 143.848 11.2126 144.807 11.1185C145.863 11.0212 147.409 9.72553 147.227 9.66278L147.224 9.65964ZM140.41 6.77963C140.862 6.35924 141.038 5.80708 141.579 5.55296C141.827 5.43688 142.044 5.80394 141.796 5.92002C141.371 6.12081 140.598 6.76081 140.454 7.20003C140.366 7.46669 140.796 7.4165 141.082 7.43532C141.485 7.43028 141.882 7.34495 142.251 7.18434C143.389 6.72944 143.681 5.11688 143.647 5.10433C142.943 4.8659 142.179 4.62433 141.447 4.79061C140.636 4.96316 140.281 5.8761 140.29 6.52551C140.293 6.63218 140.344 6.84552 140.413 6.78277L140.41 6.77963Z" fill="#8F7965"/>
</g>
<defs>
<clipPath id="clip0_928_9418">
<rect width="244" height="140" fill="white"/>
</clipPath>
</defs>
</svg>
