<svg width="52" height="66" viewBox="0 0 52 66" fill="none" xmlns="http://www.w3.org/2000/svg">
<g filter="url(#filter0_d_1143_9806)">
<path d="M29.79 51.74C31.5235 53.7608 31.3694 56.7857 29.4394 58.6198C27.5094 60.454 24.4806 60.454 22.5506 58.6198C20.6206 56.7857 20.4665 53.7608 22.2 51.74C24.95 47.32 20.61 46.25 17.2 46H7C5.34315 46 4 44.6569 4 43V5C4 3.34315 5.34315 2 7 2H45C46.6569 2 48 3.34315 48 5V43C48 44.6569 46.6569 46 45 46H34.79C31.39 46.25 27 47.33 29.79 51.74Z" fill="#322d29"/>
</g>
<g clip-path="url(#clip0_1143_9806)">
<path fill-rule="evenodd" clip-rule="evenodd" d="M17.867 14.205C17.8043 14.2268 18.3126 14.6555 18.6566 14.6888C18.9698 14.7201 19.1916 14.667 19.2521 14.5359C19.287 14.462 18.8178 14.564 18.5672 14.4786C18.482 14.4485 18.518 14.3142 18.6042 14.3413C18.7952 14.4016 19.2203 14.5057 19.3086 14.3579C19.3302 14.3194 19.2942 14.2539 19.2604 14.2185C19.1392 14.0957 18.9461 14.0687 18.7962 14.0593C18.4806 14.055 18.1665 14.1042 17.867 14.205ZM26.4389 13.8928C26.5672 13.7888 26.8096 13.5869 26.8496 13.4069C26.9246 13.0427 26.5857 12.2113 26.5138 12.2269C26.3023 12.2727 25.7776 12.6743 25.6143 13.0718C25.5455 13.2404 25.6554 13.5369 25.7478 13.6566C25.7642 13.6774 25.8022 13.6722 25.7992 13.6452C25.7776 13.4451 25.7922 13.2427 25.8423 13.0479C25.8721 12.9625 26.0066 13 25.9768 13.0864C25.9009 13.321 25.8716 13.5686 25.8905 13.8148C25.9039 13.9271 25.9932 13.9885 26.0097 13.9063C26.0494 13.5665 26.1297 13.2328 26.2489 12.9126C26.2818 12.8283 26.4173 12.8658 26.3834 12.9501C26.2499 13.2893 26.0415 13.9251 26.1082 14.0041C26.1216 14.0187 26.1483 14.0135 26.1657 14.0041C26.2592 13.9698 26.3064 13.822 26.3362 13.7159C26.3752 13.5786 26.4183 13.4516 26.4522 13.2997C26.4728 13.2102 26.5991 13.2477 26.5878 13.3371C26.5423 13.5163 26.4797 13.6906 26.4009 13.8574C26.3981 13.8627 26.3972 13.8688 26.3982 13.8746C26.3992 13.8805 26.4021 13.8859 26.4065 13.8899C26.4108 13.8939 26.4163 13.8964 26.4222 13.8969C26.428 13.8975 26.4339 13.896 26.4389 13.8928ZM17.3885 15.8012C17.4377 15.8147 18.1206 15.6971 18.2099 15.6836C18.5005 15.6586 18.518 15.515 18.4759 15.387C18.3927 15.2008 18.1319 15.3163 18.0241 15.3787C18.0082 15.3872 17.9897 15.3891 17.9725 15.3841C17.9553 15.3791 17.9406 15.3676 17.9315 15.352C17.9224 15.3364 17.9196 15.3178 17.9236 15.3001C17.9277 15.2824 17.9382 15.267 17.9532 15.257C18.057 15.2011 18.1735 15.1738 18.291 15.1779C18.2965 15.1779 18.3018 15.1762 18.3063 15.1731C18.3109 15.17 18.3144 15.1656 18.3165 15.1605C18.3185 15.1554 18.3191 15.1498 18.318 15.1444C18.317 15.1389 18.3144 15.134 18.3105 15.13C18.0538 14.8657 17.7838 15.0947 17.7068 15.1685C17.4418 15.4224 17.3453 15.7866 17.3885 15.8012ZM20.2636 14.3559C20.008 14.3327 19.7517 14.3921 19.5314 14.5255C19.6374 14.7309 19.7593 14.9275 19.896 15.1134C20.0962 15.3215 20.2738 15.1977 20.3703 15.0707C20.3964 15.0338 20.42 14.9952 20.4412 14.9552C20.327 14.8802 20.2047 14.8188 20.0767 14.7721C19.9914 14.7429 20.0284 14.6056 20.1136 14.6358C20.2488 14.6836 20.378 14.7471 20.4987 14.8251C20.5675 14.6264 20.5747 14.3902 20.2595 14.3559H20.2636ZM17.8854 16.5712C18.1524 16.4672 18.3598 16.4672 18.749 16.3111C18.8151 16.282 18.8721 16.235 18.9137 16.1754C18.9553 16.1158 18.9801 16.0457 18.9852 15.9729C18.9852 15.9587 18.9819 15.9447 18.9757 15.9319C18.9696 15.9192 18.9606 15.9081 18.9494 15.8994C18.9383 15.8908 18.9254 15.8848 18.9116 15.882C18.8979 15.8793 18.8837 15.8797 18.8702 15.8834C18.8322 15.8938 18.7952 15.9073 18.7675 15.9157C18.6843 15.9398 18.6046 15.9748 18.5303 16.0197C18.5142 16.0292 18.4951 16.0319 18.4771 16.0271C18.4591 16.0223 18.4437 16.0105 18.4343 15.9942C18.4249 15.9779 18.4222 15.9585 18.427 15.9403C18.4317 15.922 18.4434 15.9064 18.4594 15.8969C18.5621 15.8345 18.9605 15.8522 18.8599 15.7398C18.7593 15.6274 18.3372 15.7107 18.1411 15.8813C17.9234 16.0645 17.8197 16.5972 17.8854 16.5712ZM20.7729 14.1665C20.7595 14.1613 20.6538 14.771 20.5675 14.9563C20.4114 15.3048 20.6702 15.6545 20.7944 15.643C20.8887 15.6329 20.9823 15.6173 21.0747 15.5962C20.917 15.4628 20.8156 15.2733 20.7913 15.0666C20.7842 14.975 20.9238 14.976 20.932 15.0666C20.9466 15.1671 20.9828 15.2631 21.0382 15.3479C21.0936 15.4326 21.1667 15.5039 21.2524 15.5567C21.3078 15.5452 21.3643 15.5348 21.4239 15.5286C21.2448 15.3271 21.1302 15.0753 21.0953 14.8064C21.0799 14.7169 21.2144 14.6784 21.2298 14.7679C21.2614 15.0585 21.4004 15.3262 21.619 15.5171C21.619 15.5171 21.619 15.5171 21.619 15.5223C21.6446 15.5223 21.6683 15.5223 21.696 15.5223C21.8479 15.539 21.8459 15.079 21.6251 14.7586C21.4259 14.463 20.9936 14.2414 20.7729 14.1665ZM20.6127 17.0426C20.8519 16.9791 20.9793 16.8345 20.9854 16.6815C20.987 16.6491 20.9766 16.6173 20.9563 16.5923C20.936 16.5673 20.9072 16.5509 20.8755 16.5462C20.7268 16.5329 20.5778 16.5695 20.4515 16.6503C20.3816 16.7065 20.282 16.6066 20.3488 16.5462C20.4155 16.4859 20.6178 16.4567 20.7688 16.4422C20.7789 16.4413 20.7886 16.4378 20.7969 16.432C20.8053 16.4262 20.8121 16.4183 20.8165 16.4091C20.821 16.3999 20.823 16.3896 20.8223 16.3794C20.8217 16.3691 20.8185 16.3592 20.8129 16.3506C20.6876 16.18 20.3211 16.2767 20.1157 16.4339C20.0025 16.5255 19.9158 16.6463 19.8647 16.7836C19.8136 16.921 19.7999 17.0697 19.8251 17.2143C20.0904 17.1708 20.3532 17.1135 20.6127 17.0426ZM21.6518 15.8345C21.8233 15.872 22.0882 16.0905 22.1591 16.155C22.2618 16.2528 22.0636 15.7575 21.8377 15.6878C21.5101 15.5837 20.8653 15.7731 20.662 15.8345C20.5901 15.8563 21.0378 16.4651 21.2585 16.5504C21.4722 16.6367 21.7096 16.6408 21.926 16.5618C21.9362 16.5571 21.945 16.5496 21.9514 16.5401C21.9578 16.5307 21.9615 16.5197 21.9623 16.5083C21.963 16.4969 21.9607 16.4855 21.9556 16.4754C21.9504 16.4652 21.9427 16.4566 21.9332 16.4505C21.7784 16.3735 21.6086 16.3326 21.4362 16.3308C21.3458 16.3308 21.3458 16.1862 21.4362 16.1893C21.6344 16.1956 21.9732 16.3444 22.119 16.4214C22.1437 16.4349 22.1673 16.4006 22.1601 16.3506C22.1426 16.2278 21.8141 16.0145 21.6149 15.9708C21.5265 15.9521 21.5645 15.8147 21.6518 15.8345ZM20.5408 15.9073C20.5428 15.8772 20.5428 15.8469 20.5408 15.8168C20.5409 15.8062 20.5379 15.7959 20.5323 15.787C20.5266 15.7781 20.5185 15.7711 20.509 15.7669C20.3244 15.7049 20.1244 15.71 19.9432 15.7814C19.86 15.8158 19.8231 15.6774 19.9062 15.6441C20.0418 15.5889 20.2666 15.6191 20.433 15.6441C20.4823 15.6514 20.4771 15.54 20.4453 15.5036C20.3426 15.385 20.165 15.3527 19.9175 15.4266C19.5653 15.5306 19.2419 15.9822 19.2193 16.0447C19.4567 16.1287 19.7005 16.1927 19.9483 16.2361C20.281 16.2986 20.5192 16.155 20.5408 15.9073ZM23.1448 13.4974C22.6961 13.1956 21.7073 13.2643 21.6333 13.2893C21.5594 13.3143 21.5779 14.1769 21.8233 14.4943C21.9537 14.6618 22.2515 14.8064 22.5595 14.8168C22.57 14.8171 22.5803 14.814 22.589 14.808C22.5976 14.802 22.6042 14.7934 22.6079 14.7834C22.6115 14.7735 22.6119 14.7626 22.6092 14.7524C22.6064 14.7421 22.6005 14.733 22.5924 14.7263C22.4631 14.6306 22.3403 14.5264 22.2248 14.4141C22.1642 14.3465 22.2628 14.2466 22.3275 14.3101C22.4938 14.4953 22.6653 14.6972 22.885 14.771C22.9076 14.7783 23.0216 14.7856 22.9775 14.7138C22.7993 14.4223 22.5854 14.1548 22.3408 13.9178C22.2546 13.8325 22.3018 13.7232 22.3839 13.7804C22.73 14.0208 22.8809 14.3486 23.0483 14.6254C23.052 14.6328 23.0579 14.6389 23.0651 14.6429C23.0723 14.6469 23.0805 14.6486 23.0887 14.6478C23.0969 14.647 23.1047 14.6438 23.111 14.6385C23.1174 14.6332 23.122 14.6261 23.1243 14.6181C23.227 14.2913 22.9692 13.9521 22.7423 13.7919C22.6694 13.7398 22.7423 13.6171 22.8132 13.6691C23.0295 13.8544 23.1781 14.108 23.2352 14.3892C23.2454 14.4433 23.3153 14.3465 23.3307 14.2612C23.383 13.9698 23.3625 13.6379 23.1448 13.4974ZM19.1402 13.6753C19.1916 13.923 19.3456 14.231 19.6536 14.2861C19.7663 14.313 19.8844 14.3035 19.9914 14.2591C20.1352 14.206 19.7101 14.1363 19.5992 14.0166C19.5376 13.95 19.6362 13.8501 19.7019 13.9126C19.8071 14.026 19.9445 14.1035 20.0952 14.1342C20.146 14.1476 20.1998 14.1436 20.2481 14.1227C20.2964 14.1018 20.3365 14.0652 20.3621 14.0187C20.3801 13.9807 20.3863 13.9381 20.3799 13.8965C20.3735 13.8549 20.3548 13.8162 20.3262 13.7856C20.0982 13.4974 19.1289 13.6191 19.1392 13.6701L19.1402 13.6753ZM26.9841 15.7866C27.0478 15.6659 27.1063 15.5088 27.211 15.4235C27.2809 15.3662 27.3805 15.4661 27.3137 15.5275C27.2075 15.6111 27.1212 15.7178 27.0611 15.8397C27.0544 15.8528 27.0517 15.8676 27.0533 15.8823C27.055 15.897 27.061 15.9108 27.0705 15.922C27.08 15.9332 27.0926 15.9413 27.1067 15.9452C27.1207 15.949 27.1356 15.9485 27.1494 15.9437C27.2843 15.8797 27.4043 15.7875 27.5016 15.6732C27.6331 15.5275 27.7224 15.0728 27.707 15.0707C27.4745 15.073 27.2492 15.1531 27.0663 15.2986C26.9683 15.4368 26.9218 15.6056 26.9348 15.7752C26.9359 15.7805 26.9384 15.7854 26.9421 15.7893C26.9459 15.7931 26.9506 15.7958 26.9558 15.797C26.961 15.7983 26.9665 15.7979 26.9715 15.7961C26.9765 15.7942 26.9809 15.7909 26.9841 15.7866ZM23.2547 17.2059C23.472 17.3864 23.7316 17.5069 24.0084 17.5556C24.0731 17.5629 24.1162 17.5035 24.0392 17.4515C23.9365 17.3839 23.8071 17.3475 23.7024 17.2819C23.5454 17.2008 23.4044 17.0911 23.2865 16.9583C23.2321 16.8865 23.3296 16.7856 23.3892 16.8542C23.4806 16.9718 23.8657 17.2767 24.0053 17.3079C24.0402 17.3162 24.0505 17.2476 24.0423 17.2132C23.9899 16.9989 23.8061 16.797 23.5289 16.6492C23.2783 16.5109 22.7731 16.5233 22.4877 16.5202C22.424 16.5202 22.7392 17.2882 23.0226 17.5087C23.1291 17.5974 23.2527 17.6625 23.3856 17.6996C23.5184 17.7367 23.6575 17.745 23.7938 17.7241C23.8913 17.7075 23.8965 17.6399 23.8544 17.6263C23.616 17.5605 23.3887 17.4592 23.1797 17.3256C23.114 17.2757 23.1818 17.1529 23.2547 17.2059ZM26.9348 15.1841C26.9554 15.1758 26.9913 15.1519 26.9841 15.1321C26.9029 14.9489 26.8706 14.7472 26.8907 14.5473C26.905 14.4568 27.0406 14.4953 27.0252 14.5848C26.9893 14.7474 27.0146 14.9177 27.096 15.0624C27.1017 15.0698 27.11 15.0747 27.1192 15.0761C27.1284 15.0775 27.1378 15.0752 27.1453 15.0697C27.3353 14.9292 27.361 14.7669 27.2644 14.3288C27.2501 14.2601 27.1453 13.6597 27.1155 13.6701C26.6103 13.8637 26.2006 14.1696 26.0251 14.4547C25.794 14.8324 25.945 15.1207 26.0343 15.1977C26.0774 15.2402 26.1288 15.2731 26.1852 15.2943C26.2417 15.3154 26.3018 15.3243 26.3619 15.3205C26.3728 15.3202 26.3835 15.3169 26.3928 15.3109C26.402 15.3049 26.4094 15.2964 26.4142 15.2864C26.419 15.2764 26.4209 15.2652 26.4199 15.2542C26.4188 15.2431 26.4147 15.2325 26.4081 15.2237C26.2941 15.0828 26.2228 14.9115 26.2027 14.7305C26.2048 14.713 26.2131 14.697 26.226 14.6854C26.239 14.6737 26.2557 14.6673 26.273 14.6673C26.2904 14.6673 26.3071 14.6737 26.32 14.6854C26.333 14.697 26.3413 14.713 26.3434 14.7305C26.3434 14.9261 26.4286 15.1893 26.6196 15.2747C26.6997 15.31 26.7654 15.2507 26.7418 15.2216C26.5549 14.9948 26.4142 14.6056 26.5775 14.2965C26.6196 14.2164 26.7408 14.2872 26.6976 14.3683C26.5641 14.6212 26.6689 14.9406 26.8414 15.1602C26.8524 15.1738 26.8674 15.1835 26.8842 15.1878C26.901 15.1921 26.9188 15.1908 26.9348 15.1841ZM25.4069 13.3215C25.4063 13.319 25.4051 13.3166 25.4034 13.3146C25.4017 13.3126 25.3996 13.311 25.3973 13.3099C25.3949 13.3088 25.3923 13.3082 25.3897 13.3083C25.3872 13.3083 25.3846 13.3089 25.3823 13.3101C25.2278 13.4115 25.1028 13.5526 25.0198 13.719C24.9812 13.8043 24.9626 13.8974 24.9657 13.9911C24.9687 14.0849 24.9932 14.1766 25.0373 14.2591C25.0999 14.3631 25.2981 14.4672 25.2621 14.3902C25.1813 14.2396 25.1376 14.0715 25.1348 13.9001C25.143 13.8106 25.2827 13.8096 25.2745 13.9001C25.2518 14.0615 25.2738 14.2261 25.3381 14.3756C25.3977 14.5026 25.485 14.5369 25.5281 14.5328C25.5712 14.5286 25.4336 14.3923 25.41 14.1165C25.4028 14.026 25.5486 14.026 25.5507 14.1165C25.5528 14.2075 25.567 14.2978 25.5928 14.385C25.6034 14.4621 25.6359 14.5343 25.6862 14.5931C25.6862 14.5931 25.7098 14.6108 25.716 14.6139C25.7303 14.6179 25.7453 14.6184 25.7599 14.6153C25.7744 14.6122 25.788 14.6057 25.7995 14.5962C25.8111 14.5868 25.8202 14.5747 25.8262 14.5609C25.8322 14.5472 25.8349 14.5322 25.8341 14.5171C25.8413 14.3621 25.7735 13.8658 25.4952 13.5525C25.446 13.4849 25.4155 13.4051 25.4069 13.3215ZM19.1874 15.0353C19.3702 15.1103 19.7471 15.3319 19.7522 15.1873C19.7522 15.0936 19.6269 14.6774 19.1094 14.7554C18.8632 14.8131 18.6261 14.9052 18.405 15.0291C18.3937 15.0374 18.8281 15.5306 19.094 15.5796C19.1892 15.5994 19.2878 15.5953 19.3811 15.5676C19.4744 15.5398 19.5595 15.4893 19.629 15.4203C19.6375 15.4112 19.6434 15.3999 19.6461 15.3876C19.6488 15.3753 19.6482 15.3625 19.6443 15.3506C19.6404 15.3386 19.6334 15.328 19.624 15.3197C19.6146 15.3115 19.6032 15.306 19.591 15.3038C19.4404 15.2745 19.2928 15.2306 19.1505 15.1727C19.0673 15.1394 19.1032 15.002 19.1874 15.0353ZM19.0509 18.0831C19.4863 18.1092 19.8867 18.1872 20.127 18.0759C20.3128 17.9916 20.4669 17.8032 20.3683 17.5972C20.3545 17.573 20.3351 17.5526 20.3119 17.5376C20.2887 17.5225 20.2622 17.5134 20.2348 17.5108C20.0543 17.5186 19.8822 17.59 19.7481 17.7127C19.6855 17.7783 19.5859 17.6773 19.6454 17.6086C19.7306 17.5202 19.9268 17.4588 20.0798 17.4182C20.1065 17.4109 20.0572 17.3527 20.0305 17.3443C19.7861 17.2642 19.4493 17.4078 19.3548 17.4765C19.1412 17.6357 18.9338 18.0759 19.0509 18.0831ZM20.9105 18.5306C21.0372 18.5199 21.1565 18.465 21.2478 18.3753C21.3392 18.2855 21.397 18.1665 21.4115 18.0384C21.4198 17.9916 21.4393 17.9572 21.4167 17.9156C21.354 17.8022 21.047 17.9989 20.9115 18.1102C20.8417 18.1674 20.7421 18.0675 20.8088 18.0061C20.9464 17.8927 21.3469 17.8261 21.1733 17.7637C21.1322 17.7481 21.122 17.7491 20.9762 17.7481C20.4628 17.7481 20.3211 18.1882 20.2328 18.5306C20.4577 18.5596 20.6855 18.5596 20.9105 18.5306ZM32.2271 14.2539C32.3341 14.2983 32.4523 14.3078 32.5649 14.2809C32.8668 14.2258 33.0259 13.9178 33.0783 13.6701C33.0886 13.6191 32.1193 13.4922 31.8975 13.7846C31.8689 13.8152 31.8502 13.8539 31.8437 13.8955C31.8373 13.9371 31.8435 13.9797 31.8615 14.0177C31.8871 14.0642 31.9272 14.1007 31.9755 14.1216C32.0239 14.1425 32.0777 14.1466 32.1285 14.1332C32.2785 14.1028 32.4155 14.0261 32.5207 13.9136C32.5823 13.847 32.6809 13.9469 32.6234 14.0177C32.5084 14.1311 32.0833 14.2008 32.2271 14.2539ZM18.3177 17.2715C18.5601 17.1394 19.017 17.1394 19.3035 17.0988C19.59 17.0582 19.8066 16.8001 19.8025 16.5931C19.802 16.568 19.792 16.5441 19.7746 16.5263C19.7573 16.5085 19.7338 16.4981 19.7091 16.4973C19.5051 16.4979 19.3062 16.5618 19.1392 16.6805C19.0663 16.7356 18.9965 16.6128 19.0683 16.5587C19.2042 16.4774 19.3534 16.4217 19.5088 16.3943C19.5551 16.3839 19.5088 16.3079 19.4596 16.2955C19.0047 16.1654 18.6607 16.4474 18.4943 16.7346C18.4255 16.8532 18.251 17.3079 18.3177 17.2705V17.2715ZM21.6457 17.2122C21.8698 17.1106 22.1128 17.0588 22.3583 17.0603C22.3624 17.0344 22.3624 17.0081 22.3583 16.9822C22.2599 16.9555 22.1583 16.9429 22.0564 16.9448C21.8774 16.9396 21.6987 16.9625 21.5265 17.0124C21.509 17.0164 21.4907 17.0134 21.4752 17.0041C21.4598 16.9947 21.4486 16.9797 21.4438 16.9621C21.4391 16.9446 21.4412 16.9258 21.4497 16.9098C21.4582 16.8938 21.4725 16.8817 21.4896 16.8761C21.7323 16.8005 21.9877 16.7757 22.2402 16.8033C22.042 16.6617 21.6539 16.6909 21.4239 16.7429C21.0131 16.8365 20.8499 17.1591 20.6989 17.5878C20.6712 17.6648 21.3068 17.6211 21.5933 17.5878C21.9013 17.5535 22.1971 17.3932 22.3121 17.2018C22.1079 17.2066 21.9066 17.2519 21.7196 17.335C21.6344 17.3693 21.5635 17.2434 21.6457 17.2111V17.2122ZM29.2873 19.31C29.3561 19.2923 29.3951 18.9052 29.3273 18.6721C29.2349 18.3599 28.4083 17.8292 28.4032 18.1289C28.4032 18.1945 28.857 18.3735 28.9803 18.5597C29.0306 18.6357 28.9094 18.7064 28.8591 18.6315C28.7143 18.4109 28.3806 18.1809 28.1259 18.1862C28.0949 18.1855 28.0644 18.1946 28.0387 18.2122C27.9524 18.285 28.3991 18.4765 28.5089 18.6024C28.5685 18.6711 28.4699 18.7709 28.4063 18.7064C28.3204 18.615 28.2218 18.5368 28.1136 18.4744C28.0212 18.4203 27.8785 18.2829 27.8056 18.3131C27.7706 18.3256 27.7402 18.3484 27.7182 18.3787C27.6962 18.4089 27.6837 18.4452 27.6824 18.4827C27.6752 18.6544 27.8353 19.0675 28.8365 19.1997C28.9607 19.2101 29.2657 19.3141 29.2873 19.3089V19.31ZM27.1186 19.2569C27.0231 19.1528 27.0262 18.9104 26.9379 18.9C26.8866 18.8937 26.8671 19.0155 26.8599 19.0581C26.8533 19.1155 26.8586 19.1736 26.8754 19.2288C26.8922 19.284 26.9201 19.335 26.9574 19.3786C27.0991 19.5534 27.1946 19.6055 27.3353 19.7803C27.3722 19.825 27.4195 19.8927 27.4749 19.952C27.4934 19.9718 27.8302 19.4078 27.6361 18.9C27.6038 18.8258 27.5562 18.7594 27.4965 18.7054C27.3938 18.6086 27.286 18.6013 27.2634 18.6731C27.2223 18.8042 27.4287 18.8885 27.477 19.0186C27.5088 19.105 27.3743 19.1414 27.3425 19.0571C27.2952 18.9302 27.2121 18.7449 27.1217 18.7304C27.1098 18.7294 27.0979 18.7325 27.088 18.7394C27.0781 18.7462 27.0708 18.7562 27.0673 18.7678C27.066 18.912 27.1197 19.051 27.2172 19.156C27.2757 19.2205 27.1772 19.3245 27.1186 19.2569ZM28.3621 17.6295C28.3221 17.643 28.3251 17.7106 28.4227 17.7273C28.5589 17.7482 28.698 17.7398 28.8309 17.7027C28.9637 17.6656 29.0874 17.6006 29.1938 17.5119C29.4772 17.2913 29.7925 16.5223 29.7288 16.5233C29.4434 16.5233 28.9382 16.514 28.6876 16.6524C28.4145 16.8043 28.2307 17.002 28.1742 17.2164C28.166 17.2507 28.1742 17.3204 28.2112 17.311C28.3539 17.2798 28.739 16.9749 28.8273 16.8574C28.8837 16.7856 28.9813 16.8865 28.9299 16.9614C28.8121 17.0942 28.6711 17.2039 28.5141 17.285C28.4114 17.3454 28.2789 17.3891 28.1773 17.4546C28.1003 17.5056 28.1434 17.5649 28.2081 17.5587C28.487 17.5099 28.7485 17.3883 28.9669 17.2059C29.0398 17.1529 29.1096 17.2757 29.0378 17.3287C28.8272 17.4628 28.5981 17.5642 28.358 17.6295H28.3621ZM28.1208 19.3901C28.0551 19.3266 27.9894 19.1965 27.9021 19.2236C27.8148 19.2506 27.8908 19.4317 27.9524 19.4744C28.0818 19.5649 28.3785 19.7532 28.3878 19.7324C28.4147 19.6578 28.4261 19.5783 28.4214 19.499C28.4166 19.4197 28.3957 19.3422 28.3601 19.2715C28.2687 19.1518 28.0222 19.0144 28.0089 19.1237C27.9976 19.2142 28.1557 19.2278 28.2194 19.2902C28.283 19.3526 28.1824 19.4536 28.1167 19.3901H28.1208ZM27.555 17.1394C27.5492 17.1435 27.545 17.1495 27.543 17.1564C27.5409 17.1633 27.5412 17.1707 27.5438 17.1774C27.5464 17.1841 27.5512 17.1898 27.5573 17.1934C27.5634 17.1971 27.5706 17.1986 27.5776 17.1976C27.9185 17.1352 28.3138 16.9333 28.434 16.5192C28.4535 16.4495 28.5849 15.7023 28.6075 15.5483C28.6178 15.4807 27.9206 15.6378 27.6372 15.7669C27.4689 15.8431 27.3225 15.9612 27.2114 16.1102C27.1002 16.2592 27.0281 16.4343 27.0016 16.6191C26.9903 16.6846 27.0016 16.7523 27.0385 16.6971C27.1531 16.5139 27.2837 16.3415 27.4287 16.182C27.4934 16.1186 27.593 16.2185 27.5314 16.2861C27.3775 16.4328 27.2382 16.5945 27.1155 16.7689C27.0661 16.829 27.0266 16.8969 26.9985 16.9697C26.9872 17.0207 26.978 17.104 27.057 17.0551C27.324 16.8896 27.668 16.489 27.9534 16.1748C28.015 16.1082 28.1075 16.2049 28.0561 16.2788C27.785 16.6264 27.4164 16.9188 27.095 17.1779C27.0724 17.1955 27.1043 17.2143 27.1874 17.2091C27.4749 17.1935 27.7306 16.9229 27.9195 16.7148C27.9812 16.6482 28.0797 16.7481 28.0222 16.8189C27.8813 16.9464 27.7242 17.0542 27.555 17.1394ZM33.2672 13.4912C33.49 13.5472 33.7235 13.5426 33.9439 13.4776C34.0291 13.4485 34.0661 13.5817 33.9809 13.6139C33.7755 13.6837 33.486 13.6285 33.2621 13.5734C33.2118 13.5609 33.219 13.6639 33.2446 13.7086C33.4018 13.9781 33.7755 14.026 34.099 13.8834C34.348 13.7505 34.5721 13.5744 34.7613 13.3632C34.714 13.3247 34.1924 13.0385 33.8587 13C33.6882 12.9802 33.3052 12.9813 33.1984 13.2508C33.1625 13.3444 33.1769 13.4641 33.2672 13.4901V13.4912ZM30.8152 18.5056C30.7176 18.2725 30.4866 17.6732 30.0297 17.5306C29.8243 17.4682 29.4454 17.4422 29.3222 17.5982C29.275 17.6586 29.7535 17.5982 30.0338 17.8063C30.1077 17.8594 30.0122 17.9531 29.9311 17.9104C29.6826 17.7595 29.2924 17.6586 29.1476 17.746C29.0922 17.7793 29.0655 17.8407 29.1035 17.8501C29.3165 17.8878 29.5211 17.9643 29.7072 18.0759C29.7812 18.1268 29.7072 18.2496 29.6364 18.1986C29.5009 18.106 29.1127 17.9021 29.0542 17.976C28.9115 18.156 29.3622 18.4348 29.5584 18.5098C29.7134 18.5712 29.8664 18.6388 30.3295 18.5587C30.5482 18.5202 30.8234 18.5243 30.8152 18.5056ZM31.7219 14.8251C31.8426 14.7471 31.9718 14.6836 32.1069 14.6358C32.1922 14.6056 32.2291 14.7398 32.1439 14.7721C32.0159 14.8184 31.8936 14.8795 31.7794 14.9542C31.8006 14.9942 31.8242 15.0327 31.8502 15.0697C31.9467 15.1966 32.1244 15.3215 32.3246 15.1123C32.4613 14.9265 32.5832 14.7299 32.6891 14.5244C32.4688 14.3911 32.2126 14.3317 31.957 14.3548C31.6418 14.3902 31.649 14.6264 31.7219 14.8251ZM26.0507 16.6326C26.0189 16.6893 25.9941 16.7498 25.9768 16.8126C25.9756 16.8186 25.9757 16.8248 25.977 16.8307C25.9783 16.8367 25.9808 16.8423 25.9844 16.8472C25.988 16.8521 25.9926 16.8561 25.9978 16.8592C26.003 16.8622 26.0088 16.864 26.0148 16.8646C26.2202 16.8875 26.5549 16.6222 26.6309 16.3662C26.7069 16.1102 26.8609 15.3995 26.8024 15.4006C26.5312 15.4102 26.2655 15.4813 26.0251 15.6087C25.9028 15.6788 25.8041 15.7846 25.7419 15.9123C25.6796 16.0399 25.6567 16.1836 25.6759 16.3246C25.6769 16.3287 25.6792 16.3323 25.6825 16.3349C25.6857 16.3375 25.6898 16.3389 25.6939 16.3389C25.6981 16.3389 25.7021 16.3375 25.7053 16.3349C25.7086 16.3323 25.7109 16.3287 25.7119 16.3246C25.7975 16.1194 25.934 15.9402 26.1082 15.8043C26.1781 15.7481 26.2777 15.848 26.2109 15.9084C26.0092 16.0616 25.8644 16.2794 25.8002 16.5265C25.7827 16.6035 25.7704 16.7002 25.8413 16.7346C25.868 16.7471 25.8947 16.6388 25.9172 16.592C25.9906 16.4393 26.0912 16.3017 26.214 16.1862C26.2797 16.1238 26.3783 16.2237 26.3167 16.2903C26.2093 16.3881 26.1194 16.5039 26.0507 16.6326ZM29.8089 19.0124C29.7062 18.9083 29.6035 18.7668 29.5347 18.7148C29.4957 18.6846 29.47 18.7293 29.467 18.7397C29.4505 18.8022 29.4023 18.9478 29.6805 19.2173C29.7884 19.3214 30.1991 19.5222 30.2124 19.4484C30.2443 19.2767 30.2227 18.9406 30.0974 18.824C29.9722 18.7075 29.621 18.5389 29.6302 18.6763C29.6354 18.7387 29.8243 18.8271 29.9075 18.9135C29.9701 18.9811 29.8715 19.0821 29.8089 19.0124ZM34.3926 13.9469C34.4419 14.0239 34.5918 13.9552 34.6668 13.9188C34.7418 13.8824 34.8188 14.001 34.7376 14.0406C34.6565 14.0801 34.37 14.0073 34.4522 14.1009C34.5888 14.2393 34.8485 14.1883 35.0139 14.0062C35.0911 13.8795 35.1326 13.7337 35.134 13.5848C35.0066 13.6371 34.8741 13.6754 34.7387 13.6993C34.482 13.7659 34.3454 13.8772 34.3926 13.9511V13.9469ZM25.5045 15.1488C25.5855 15.3179 25.6313 15.502 25.639 15.6899C25.6392 15.6979 25.6421 15.7056 25.6472 15.7118C25.6523 15.718 25.6592 15.7223 25.6669 15.7241C25.6747 15.7259 25.6828 15.725 25.69 15.7217C25.6972 15.7183 25.7031 15.7126 25.7067 15.7055C25.7992 15.5417 25.8312 15.3499 25.7971 15.1644C25.7375 14.8813 25.1338 14.436 25.0629 14.487C25.028 14.5119 24.4776 15.2435 24.7025 15.6222C24.8052 15.7929 25.0568 16.0124 25.2591 16.0384C25.2667 16.0394 25.2744 16.0386 25.2816 16.0359C25.2888 16.0333 25.2953 16.0289 25.3005 16.0232C25.3057 16.0175 25.3095 16.0106 25.3116 16.0031C25.3137 15.9957 25.314 15.9878 25.3124 15.9802C25.2931 15.9015 25.2674 15.8246 25.2354 15.7502C25.1958 15.6471 25.1478 15.5475 25.0917 15.4526C25.0434 15.3746 25.1646 15.3038 25.2118 15.3808C25.2953 15.5228 25.3625 15.6739 25.412 15.8314C25.4449 15.9354 25.4418 15.9843 25.4603 15.9739C25.4862 15.9567 25.5069 15.9325 25.52 15.904C25.533 15.8755 25.538 15.8438 25.5342 15.8126C25.5354 15.6063 25.4834 15.4033 25.3833 15.2237C25.3361 15.1415 25.4572 15.0707 25.5045 15.1488ZM23.1623 17.9718C23.1037 17.8979 22.7156 18.1019 22.5801 18.1945C22.5051 18.2455 22.4353 18.1227 22.5092 18.0717C22.6954 17.9586 22.9003 17.8806 23.114 17.8417C23.152 17.8334 23.1253 17.772 23.0699 17.7377C22.9251 17.6503 22.5349 17.7512 22.2864 17.9021C22.2094 17.9479 22.1139 17.8542 22.1837 17.798C22.464 17.5972 22.9425 17.6544 22.8953 17.5899C22.7721 17.4338 22.3891 17.4598 22.1878 17.5223C21.7309 17.6628 21.4998 18.2642 21.4023 18.4973C21.3941 18.516 21.6693 18.5118 21.888 18.5493C22.3521 18.6294 22.5041 18.5618 22.6591 18.5004C22.8491 18.4338 23.305 18.1549 23.1623 17.9718ZM23.5535 15.2247C23.7003 15.3995 23.9694 15.5026 24.1696 15.4328C24.1828 15.4281 24.1946 15.4201 24.2039 15.4096C24.2132 15.399 24.2198 15.3863 24.2229 15.3725C24.2261 15.3587 24.2258 15.3443 24.222 15.3307C24.2183 15.317 24.2112 15.3046 24.2014 15.2944C24.1727 15.2663 24.1439 15.2403 24.1172 15.2174C24.0247 15.1325 23.914 15.0705 23.7938 15.0364C23.7055 15.0156 23.7424 14.8793 23.8307 14.899C23.9827 14.9334 24.1542 15.0967 24.2866 15.2403C24.2916 15.2453 24.2979 15.2487 24.3048 15.25C24.3116 15.2514 24.3187 15.2506 24.3251 15.2478C24.3315 15.245 24.337 15.2403 24.3407 15.2343C24.3445 15.2284 24.3464 15.2214 24.3462 15.2143C24.3462 15.077 24.2795 14.8709 24.1521 14.7981C23.9468 14.6701 23.4672 14.6243 23.3307 14.6222C23.2588 14.6243 23.4026 15.0489 23.5535 15.2278V15.2247ZM22.5862 18.6752C22.5955 18.5379 22.2535 18.695 22.119 18.823C21.9845 18.951 21.9722 19.2777 22.004 19.4473C22.0174 19.5212 22.4281 19.3224 22.5359 19.2163C22.8142 18.9437 22.7659 18.8001 22.7495 18.7387C22.7495 18.7283 22.7207 18.6835 22.6817 18.7137C22.614 18.7657 22.5072 18.9062 22.4076 19.0113C22.3449 19.0769 22.2464 18.9759 22.3049 18.9073C22.3952 18.8292 22.5811 18.7408 22.5862 18.6783V18.6752ZM23.038 15.3028C23.2005 15.4624 23.3389 15.6454 23.4488 15.8459C23.4611 15.8678 23.4857 15.8158 23.4714 15.6888C23.4436 15.4401 23.3194 15.1935 23.1263 15.0967C22.7156 14.8886 21.8726 14.8605 21.8787 14.8886C21.9609 15.2341 22.1632 15.9229 22.3819 16.1321C22.5923 16.2936 22.8555 16.368 23.1181 16.3402C23.1245 16.3393 23.1303 16.3363 23.1349 16.3317C23.1394 16.3271 23.1424 16.3211 23.1433 16.3147C23.1442 16.3083 23.143 16.3017 23.14 16.296C23.1369 16.2903 23.1322 16.2857 23.1263 16.283C22.8859 16.1893 22.659 16.0633 22.4517 15.9084C22.3829 15.8491 22.4825 15.7492 22.5544 15.8043C22.7598 15.9843 23.1202 16.2205 23.3286 16.2413C23.343 16.2413 23.3974 16.2486 23.4046 16.2299C23.4118 16.2112 23.3902 16.1779 23.3748 16.1633C23.2249 16.0124 23.1233 15.9885 22.7587 15.6992C22.7207 15.6701 22.6653 15.6212 22.6437 15.6056C22.5698 15.5535 22.6437 15.4297 22.7136 15.4828C22.9506 15.6674 23.1762 15.8665 23.3892 16.079C23.3944 16.0838 23.4008 16.0869 23.4078 16.0878C23.4147 16.0887 23.4218 16.0874 23.4279 16.0841C23.4341 16.0808 23.4392 16.0756 23.4423 16.0693C23.4455 16.063 23.4467 16.0559 23.4457 16.0488C23.4087 15.7939 23.15 15.5744 22.9436 15.4047C22.8696 15.3485 22.9692 15.2487 23.038 15.3059V15.3028ZM24.4817 13.9386C24.5907 14.0839 24.6811 14.2427 24.7508 14.411C24.7531 14.4164 24.7571 14.4209 24.7622 14.4239C24.7672 14.4268 24.773 14.4281 24.7788 14.4275C24.7846 14.427 24.7901 14.4246 24.7944 14.4207C24.7988 14.4168 24.8019 14.4116 24.8031 14.4058C24.8524 14.1436 24.7918 13.769 24.455 13.6358C23.839 13.3913 23.4826 13.411 23.4785 13.4277C23.4416 13.5713 23.4734 14.1477 23.7527 14.4797C23.8256 14.5671 24.1419 14.6566 24.3185 14.6878C24.375 14.6961 24.3842 14.6816 24.3431 14.642C24.2042 14.5344 24.0715 14.4187 23.9457 14.2955C23.8882 14.2268 23.9868 14.1259 24.0484 14.1914C24.1466 14.3126 24.2511 14.4283 24.3616 14.538C24.4281 14.6256 24.5257 14.6834 24.6337 14.6992C24.6474 14.6976 24.6603 14.6919 24.6707 14.6828C24.6811 14.6738 24.6886 14.6617 24.6922 14.6483C24.7477 14.4318 24.5146 14.2102 24.3842 14.0437C24.3267 13.9719 24.4253 13.871 24.4817 13.9417V13.9386ZM24.1737 18.2049C24.1479 18.1873 24.1175 18.1782 24.0864 18.1789C23.8318 18.1789 23.498 18.4036 23.3533 18.6242C23.303 18.6991 23.1818 18.6242 23.2321 18.5524C23.3553 18.3662 23.8092 18.1872 23.8092 18.1216C23.8092 17.822 22.9816 18.3485 22.885 18.6648C22.8173 18.8979 22.8563 19.2891 22.9251 19.3027C22.9466 19.3079 23.2516 19.2038 23.3707 19.1882C24.3719 19.0561 24.5321 18.643 24.5249 18.4713C24.5235 18.4337 24.511 18.3975 24.489 18.3672C24.467 18.337 24.4366 18.3141 24.4017 18.3017C24.3257 18.2715 24.1829 18.4057 24.0936 18.4629C23.9854 18.5271 23.8872 18.607 23.802 18.7002C23.7424 18.7689 23.6439 18.669 23.6993 18.5961C23.8133 18.4754 24.26 18.284 24.1737 18.2111V18.2049ZM24.2117 19.1175C24.1983 19.0134 23.9519 19.1455 23.8605 19.2652C23.7815 19.3693 23.7856 19.6284 23.8328 19.7262C23.842 19.747 24.1408 19.5587 24.2682 19.4681C24.3298 19.4255 24.4129 19.2475 24.3185 19.2173C24.224 19.1872 24.1655 19.3214 24.0998 19.3838C24.0341 19.4463 23.9355 19.3464 23.9971 19.2798C24.0587 19.2132 24.223 19.2142 24.2117 19.1237V19.1175ZM24.2671 16.1654C24.5526 16.4776 24.8976 16.8803 25.1636 17.0457C25.2426 17.0946 25.2334 17.0114 25.2221 16.9604C25.194 16.8875 25.1544 16.8197 25.105 16.7595C24.9824 16.5852 24.8431 16.4234 24.6892 16.2767C24.6234 16.2133 24.723 16.1134 24.7918 16.1727C24.9369 16.3322 25.0675 16.5045 25.182 16.6877C25.22 16.7429 25.2303 16.6753 25.219 16.6097C25.193 16.4245 25.1211 16.2489 25.0099 16.0995C24.8987 15.9501 24.752 15.8317 24.5834 15.7554C24.3 15.6264 23.6028 15.4693 23.6131 15.5369C23.6356 15.6909 23.7671 16.438 23.7866 16.5077C23.9067 16.924 24.3 17.1237 24.643 17.1862C24.65 17.1871 24.6572 17.1856 24.6633 17.182C24.6694 17.1783 24.6741 17.1727 24.6767 17.166C24.6793 17.1593 24.6796 17.1519 24.6776 17.145C24.6756 17.1381 24.6713 17.1321 24.6655 17.1279C24.5002 17.0392 24.3473 16.9286 24.2107 16.7991C24.1491 16.7315 24.2476 16.6316 24.3133 16.695C24.5023 16.9031 24.758 17.1737 25.0455 17.1893C25.1286 17.1893 25.1605 17.1758 25.1379 17.1581C24.8165 16.899 24.4479 16.6066 24.1768 16.259C24.1131 16.2028 24.2066 16.105 24.2671 16.1716V16.1654ZM24.9572 18.6627C24.9346 18.5899 24.8257 18.5982 24.7241 18.695C24.6644 18.749 24.6167 18.8154 24.5844 18.8896C24.3904 19.3974 24.7272 19.9613 24.7456 19.9416C24.8011 19.8823 24.8483 19.8146 24.8853 19.7699C25.026 19.5951 25.1215 19.543 25.2632 19.3682C25.3005 19.3246 25.3284 19.2736 25.3452 19.2184C25.362 19.1632 25.3673 19.1051 25.3607 19.0477C25.3535 19.0051 25.334 18.8833 25.2827 18.8896C25.1944 18.9 25.1974 19.1445 25.1019 19.2465C25.0393 19.312 24.9407 19.2121 24.9993 19.1424C25.0968 19.0375 25.1505 18.8984 25.1492 18.7543C25.1457 18.7427 25.1384 18.7326 25.1285 18.7258C25.1186 18.719 25.1067 18.7158 25.0948 18.7168C25.0044 18.7272 24.9212 18.9166 24.874 19.0436C24.8422 19.1279 24.7076 19.0914 24.7395 19.0051C24.7918 18.8885 24.9982 18.8042 24.9623 18.6731L24.9572 18.6627ZM31.306 18.5202C31.5296 18.5489 31.756 18.5489 31.9796 18.5202C31.8913 18.1778 31.7445 17.7366 31.2372 17.7377C31.0904 17.7377 31.0801 17.7377 31.039 17.7533C30.8655 17.8157 31.266 17.8823 31.4036 17.9957C31.4744 18.053 31.3748 18.1529 31.3009 18.0998C31.1653 17.9884 30.8583 17.7876 30.7957 17.9052C30.7731 17.9468 30.7957 17.9812 30.7957 18.028C30.8083 18.1594 30.8665 18.2821 30.9599 18.3741C31.0534 18.4661 31.176 18.5216 31.306 18.5306V18.5202ZM22.615 12.0666C22.6951 12.0312 22.3932 11.8772 22.3069 11.7545C22.2556 11.6785 22.3768 11.6077 22.4271 11.6827C22.5082 11.8306 22.6332 11.9489 22.7844 12.0208C22.8799 12.0614 22.9754 11.9043 22.9169 11.7555C22.8316 11.5359 22.0287 11.1738 22.0256 11.2425C22.0141 11.4581 22.0491 11.6737 22.1283 11.8741C22.2484 12.0718 22.5729 12.0854 22.615 12.0666ZM22.9148 12.7367C22.999 12.9449 23.0391 13.1436 23.2906 13.2383C23.4149 13.2841 23.6079 13.3018 23.6346 13.2643C23.6613 13.2268 23.5586 13.1811 23.5186 13.154C23.3944 13.085 23.2867 12.9891 23.2033 12.8731C23.194 12.8568 23.1913 12.8374 23.196 12.8191C23.2008 12.8009 23.2124 12.7853 23.2285 12.7758C23.2446 12.7662 23.2637 12.7636 23.2817 12.7684C23.2997 12.7731 23.3151 12.785 23.3245 12.8013C23.3996 12.9177 23.4958 13.0187 23.6079 13.0989C23.6351 13.1252 23.6674 13.1456 23.7027 13.1587C23.7381 13.1717 23.7757 13.1772 23.8133 13.1748C23.829 13.1698 23.8431 13.1605 23.8541 13.1481C23.8651 13.1357 23.8727 13.1204 23.8759 13.1041C23.8913 12.8699 23.6326 12.693 23.4354 12.5786C23.4214 12.5683 23.4116 12.5531 23.408 12.5359C23.4044 12.5188 23.4073 12.5009 23.416 12.4857C23.4247 12.4705 23.4386 12.4592 23.4551 12.4538C23.4716 12.4485 23.4895 12.4496 23.5052 12.4568C23.6717 12.5642 23.8096 12.7114 23.9067 12.8855C23.9107 12.8924 23.9167 12.8979 23.9239 12.9013C23.9311 12.9047 23.9391 12.9058 23.9469 12.9044C23.9547 12.903 23.9619 12.8993 23.9676 12.8937C23.9732 12.8881 23.9771 12.8809 23.9786 12.8731C24.0269 12.6597 23.9786 12.4256 23.8348 12.3476C23.5504 12.1925 22.9929 12.0885 22.8152 12.1343C22.769 12.1447 22.883 12.6566 22.9148 12.7367ZM23.7157 12.1613C23.7246 12.1625 23.7337 12.1608 23.7416 12.1564C23.7494 12.1521 23.7557 12.1453 23.7595 12.137C23.7633 12.1288 23.7644 12.1195 23.7626 12.1106C23.7608 12.1017 23.7563 12.0936 23.7496 12.0874C23.6089 11.953 23.4973 11.7904 23.4221 11.6098C23.3882 11.5245 23.5247 11.4881 23.5566 11.5713C23.6346 11.7669 23.7619 12.025 23.9293 12.1467C23.9437 12.1571 23.9613 12.162 23.9789 12.1607C23.9965 12.1594 24.0131 12.1519 24.0258 12.1395C24.1337 12.0354 24.1604 11.7576 24.033 11.5744C23.9375 11.436 23.4221 11.1582 23.2711 11.1447C23.2383 11.1447 23.1684 11.8034 23.382 11.9938C23.4771 12.0778 23.5921 12.1356 23.7157 12.1613ZM20.3673 13.5276C20.6312 14.1207 21.4968 14.36 21.4578 14.0479C21.4578 14.0374 21.4578 14.026 21.4578 14.0156C21.4485 13.9396 21.428 13.8418 21.3551 13.8356C21.1189 13.8158 20.8078 13.6961 20.6774 13.5505C20.6178 13.4828 20.7164 13.3819 20.78 13.4464C20.8842 13.5577 21.0162 13.6382 21.162 13.6795C21.2217 13.7008 21.2832 13.7162 21.3458 13.7253C21.357 13.7266 21.3682 13.7255 21.3789 13.7221C21.3896 13.7187 21.3995 13.713 21.4078 13.7054C21.4162 13.6978 21.4228 13.6885 21.4274 13.6781C21.4319 13.6678 21.4342 13.6565 21.4341 13.6452C21.4344 13.629 21.4293 13.6132 21.4196 13.6004C21.4099 13.5875 21.3962 13.5784 21.3807 13.5744C21.1461 13.5076 20.9414 13.3605 20.8016 13.1582C20.7523 13.0812 20.8735 13.0104 20.9228 13.0864C21.042 13.2335 21.1834 13.3606 21.3417 13.4631C21.4444 13.5192 21.4444 13.359 21.4608 13.2414V13.2154C21.507 12.8762 20.7883 12.666 20.2358 12.487C20.1691 12.4724 20.2204 13.1967 20.3673 13.5276ZM21.6272 13.0812C21.658 13.0812 21.7843 13.0812 21.8757 13.0718C21.8848 13.0713 21.8936 13.0684 21.9013 13.0634C21.909 13.0585 21.9153 13.0516 21.9196 13.0434C21.9239 13.0353 21.9261 13.0262 21.926 13.0169C21.9258 13.0077 21.9234 12.9986 21.9188 12.9906C21.807 12.8289 21.7249 12.6481 21.6765 12.4568C21.6631 12.3673 21.7976 12.3288 21.811 12.4194C21.8348 12.6406 21.9191 12.8507 22.0543 13.026C22.0746 13.0475 22.1001 13.0633 22.1283 13.0718C22.2001 13.0978 22.3583 13.0895 22.3234 13.05C22.202 12.9188 22.1136 12.76 22.0656 12.5869C22.0492 12.4985 22.1837 12.46 22.2012 12.5494C22.2327 12.6993 22.2942 12.8409 22.3819 12.9657C22.435 13.0373 22.5134 13.0854 22.6006 13.0999C22.6489 13.1082 22.6982 13.1165 22.7485 13.127C22.8881 13.1551 22.7721 12.4974 22.4117 12.2456C22.1355 12.0531 21.4998 11.8481 21.4824 11.9272C21.4054 12.2914 21.5173 13.0624 21.6272 13.0812ZM25.6102 12.5515C25.6237 12.5533 25.6373 12.5517 25.65 12.5469C25.6627 12.5421 25.674 12.5342 25.6831 12.524C25.6921 12.5137 25.6985 12.5014 25.7017 12.4881C25.7049 12.4747 25.7049 12.4608 25.7016 12.4475C25.6523 12.281 25.4336 12.0312 25.3248 11.9418C25.257 11.8824 25.3556 11.7826 25.4274 11.8377C25.5741 11.9672 25.6837 12.1344 25.7447 12.3216C25.7476 12.3309 25.7533 12.339 25.7611 12.3448C25.7689 12.3506 25.7782 12.3537 25.7879 12.3537C25.7975 12.3537 25.8069 12.3506 25.8146 12.3448C25.8224 12.339 25.8281 12.3309 25.831 12.3216C25.8957 12.1457 25.8608 11.8429 25.5332 11.6369C25.4079 11.5578 24.9787 11.3632 24.9068 11.3736C24.8699 11.3788 24.8617 11.9324 24.9356 12.0854C25.0342 12.2976 25.3895 12.5172 25.6102 12.5484V12.5515ZM27.0088 12.7253C26.8989 12.9459 26.9964 13.2945 27.1381 13.4391C27.1618 13.462 27.1823 13.4527 27.1792 13.3528C27.1665 13.1833 27.1995 13.0135 27.2747 12.8616C27.3189 12.7815 27.439 12.8533 27.3948 12.9334C27.3278 13.0638 27.282 13.2044 27.2593 13.3496C27.2432 13.4113 27.2513 13.477 27.2819 13.5328C27.2918 13.5463 27.3059 13.556 27.3218 13.5605C27.3378 13.5651 27.3548 13.5641 27.3702 13.5577C27.5756 13.4995 27.6372 13.2123 27.6782 13.0031C27.6957 12.9136 27.8312 12.9521 27.8128 13.0416C27.7781 13.207 27.708 13.3625 27.6074 13.4974C27.6035 13.5029 27.6013 13.5094 27.6011 13.5162C27.601 13.523 27.6029 13.5296 27.6066 13.5353C27.6102 13.541 27.6155 13.5453 27.6217 13.5479C27.6279 13.5504 27.6348 13.5509 27.6413 13.5494C27.7438 13.5256 27.8395 13.478 27.9208 13.4102C28.002 13.3425 28.0666 13.2566 28.1095 13.1592C28.1742 13.0031 27.9935 12.1572 27.9298 12.0032C27.9134 11.9636 27.7963 12.0292 27.6957 12.0864C27.4359 12.2352 27.1792 12.383 27.0088 12.7222V12.7253ZM26.1277 12.0854C26.1359 12.0895 26.145 12.0915 26.1542 12.0912C26.1633 12.091 26.1723 12.0884 26.1802 12.0837C26.1881 12.0791 26.1948 12.0726 26.1996 12.0647C26.2045 12.0568 26.2073 12.0478 26.2078 12.0385C26.215 11.9397 26.1811 11.8117 26.1801 11.7128C26.1791 11.614 26.3198 11.6088 26.3198 11.6993C26.3198 11.7898 26.2951 11.8939 26.29 11.9803C26.2894 11.9913 26.2919 12.0023 26.297 12.0121C26.3022 12.0218 26.31 12.0299 26.3194 12.0355C26.3288 12.0411 26.3396 12.044 26.3505 12.0438C26.3615 12.0436 26.3721 12.0403 26.3814 12.0344C26.4647 11.9818 26.5327 11.9075 26.5782 11.8193C26.6237 11.7311 26.6451 11.6322 26.6401 11.5328C26.6114 11.3445 26.2664 10.9668 26.2294 11.0063C26.099 11.0791 25.9008 11.487 25.8864 11.6192C25.8799 11.7115 25.8991 11.8038 25.9418 11.8857C25.9844 11.9675 26.0488 12.0356 26.1277 12.0822V12.0854ZM24.1039 13.1592C24.1467 13.2566 24.2113 13.3425 24.2926 13.4102C24.3739 13.478 24.4696 13.5256 24.5721 13.5494C24.5786 13.5509 24.5854 13.5504 24.5916 13.5479C24.5978 13.5453 24.6031 13.541 24.6068 13.5353C24.6105 13.5296 24.6124 13.523 24.6122 13.5162C24.6121 13.5094 24.6099 13.5029 24.606 13.4974C24.5054 13.3625 24.4353 13.207 24.4006 13.0416C24.3821 12.9521 24.5177 12.9136 24.5351 13.0031C24.5772 13.2112 24.6378 13.4995 24.8432 13.5577C24.8586 13.5641 24.8756 13.5651 24.8915 13.5605C24.9075 13.556 24.9216 13.5463 24.9315 13.5328C24.9621 13.477 24.9702 13.4113 24.9541 13.3496C24.9313 13.2044 24.8856 13.0638 24.8185 12.9334C24.7744 12.8533 24.8945 12.7815 24.9387 12.8616C25.0139 13.0135 25.0469 13.1833 25.0342 13.3528C25.0342 13.4568 25.0516 13.462 25.0752 13.4391C25.217 13.2945 25.3155 12.9459 25.2046 12.7253C25.0342 12.3861 24.7775 12.2383 24.5146 12.0895C24.4119 12.0323 24.2969 11.9667 24.2805 12.0063C24.2199 12.1572 24.0382 13.0031 24.1039 13.1592ZM20.6188 12.4475C20.8119 12.59 21.0799 12.6754 21.2082 12.6556C21.223 12.6522 21.2367 12.6452 21.2481 12.6352C21.2595 12.6252 21.2684 12.6125 21.2739 12.5982C21.2793 12.5839 21.2813 12.5685 21.2795 12.5533C21.2777 12.5381 21.2723 12.5235 21.2637 12.5109C21.1412 12.3611 20.9871 12.241 20.8129 12.1592C20.7308 12.1259 20.7667 11.9886 20.8509 12.0229C21.0162 12.0895 21.1097 12.2061 21.2462 12.3601C21.3376 12.4641 21.276 12.0541 21.0296 11.9168C20.6712 11.716 20.2081 11.9043 20.1177 12C20.0962 12.0188 20.4648 12.334 20.6188 12.4475ZM26.8208 12.1051C26.8819 11.9188 26.9916 11.7527 27.1381 11.6244C27.2059 11.5651 27.3055 11.665 27.2408 11.7284C27.1381 11.8221 26.9143 12.0677 26.865 12.2342C26.8617 12.2475 26.8617 12.2614 26.8649 12.2747C26.8681 12.2881 26.8745 12.3004 26.8836 12.3107C26.8926 12.3209 26.9039 12.3288 26.9166 12.3336C26.9293 12.3384 26.943 12.34 26.9564 12.3382C27.1761 12.307 27.5324 12.0874 27.6331 11.8772C27.707 11.7243 27.6998 11.1707 27.6628 11.1655C27.5899 11.1541 27.1607 11.3497 27.0355 11.4288C26.7079 11.6369 26.674 11.9376 26.7387 12.1135C26.743 12.1211 26.7495 12.1274 26.7572 12.1315C26.765 12.1355 26.7737 12.1372 26.7824 12.1363C26.7911 12.1354 26.7994 12.132 26.8062 12.1265C26.813 12.121 26.8181 12.1135 26.8208 12.1051ZM30.5 17.3329C30.3129 17.2498 30.1116 17.2045 29.9075 17.1997C30.0235 17.3912 30.3182 17.5514 30.6263 17.5858C30.9127 17.619 31.5504 17.6628 31.5206 17.5858C31.3697 17.1622 31.2023 16.8345 30.7957 16.7408C30.5657 16.6888 30.1796 16.6597 29.9794 16.8012C30.2318 16.7737 30.4872 16.7984 30.73 16.874C30.747 16.8796 30.7613 16.8917 30.7699 16.9077C30.7784 16.9238 30.7805 16.9425 30.7757 16.9601C30.771 16.9776 30.7597 16.9926 30.7443 17.002C30.7289 17.0113 30.7105 17.0143 30.693 17.0103C30.5209 16.9604 30.3421 16.9376 30.1632 16.9427C30.0613 16.9408 29.9597 16.9534 29.8613 16.9801C29.8577 17.006 29.8577 17.0323 29.8613 17.0582C30.1068 17.0567 30.3498 17.1085 30.5739 17.2101C30.6529 17.2434 30.5821 17.3693 30.5 17.3339V17.3329ZM30.7248 32.9413C30.541 32.7779 30.3059 32.499 30.0769 32.421C29.7689 32.3169 29.4434 32.4324 28.9741 32.5313C28.168 32.7009 27.629 32.2556 27.4595 31.9507C27.2901 31.6458 27.1905 30.2691 27.0293 29.6885C26.7531 28.6948 26.787 28.5116 26.7582 28.1339C26.6915 27.2817 27.0734 26.7614 26.9081 26.1215C26.8219 25.7854 26.6607 25.8384 26.6155 25.4128C26.5621 24.9154 26.5436 23.9561 26.6155 22.1819C26.6268 21.8812 26.8301 21.1954 26.8404 20.7678C26.8517 20.2392 26.5816 20.2475 26.5261 19.9509C26.4871 19.7501 26.5261 19.2392 26.7007 18.8313L26.7151 18.8094C26.8753 18.5712 27.3004 18.4224 27.4595 18.337C27.6831 18.2046 27.9178 18.0925 28.1608 18.002C28.3559 17.9302 28.3508 17.8126 28.2707 17.8053C28.0408 17.8423 27.8178 17.9146 27.6094 18.0197C27.4547 18.1042 27.2945 18.1779 27.1299 18.2403C27.0385 18.2548 27.2398 17.9479 27.3692 17.8178C27.6639 17.5202 27.8148 17.3693 27.7553 17.3256C27.6762 17.2684 27.4061 17.4994 27.2418 17.67C27.133 17.7835 26.5898 18.4265 26.5734 18.4234C26.5436 18.3953 26.5991 18.2704 26.6555 18.156C26.7171 18.0215 26.7943 17.8951 26.8855 17.7793C26.9434 17.7201 26.9923 17.6524 27.0303 17.5785C27.0355 17.5637 27.0356 17.5476 27.0308 17.5327C27.026 17.5179 27.0164 17.505 27.0036 17.4963C26.9389 17.4578 26.7479 17.6784 26.6956 17.7429C26.6465 17.8118 26.5919 17.8766 26.5323 17.9364C26.482 17.9364 26.6073 17.3797 26.675 17.182C26.751 16.9583 26.9482 16.4942 26.8342 16.4536C26.787 16.437 26.6699 16.5577 26.4235 17.2653C26.3639 17.4401 26.2427 17.7543 26.175 17.6888C26.1349 17.6492 26.0415 17.3506 25.9152 17.1196C25.8042 16.9123 25.6626 16.7236 25.4952 16.5598C25.4254 16.5181 25.3474 16.6347 25.4408 16.7606C25.6154 16.9968 25.7622 17.13 25.8207 17.5712C25.8387 17.7493 25.8387 17.9289 25.8207 18.1071C25.8135 18.1175 25.8033 18.1071 25.7899 18.0623C25.6929 17.8643 25.5835 17.6728 25.4624 17.489C25.3022 17.2351 25.1831 17.2809 25.1769 17.3568C25.1707 17.4328 25.2457 17.5264 25.3443 17.7096C25.5024 17.9999 25.564 18.3651 25.5045 18.3339C25.4759 18.3179 25.4464 18.3037 25.4162 18.2912C25.3812 18.2663 25.3412 18.2403 25.294 18.2101C25.1092 18.0683 24.942 17.9044 24.796 17.7221C24.6573 17.514 24.6409 17.3287 24.5372 17.3662C24.4787 17.388 24.4448 17.5285 24.6132 17.8011C24.6573 17.8729 24.7087 17.951 24.7631 18.0259C24.5947 17.9505 24.4211 17.8879 24.2435 17.8386C24.0145 17.7876 24.0207 17.9219 24.1408 17.9739C24.3 18.0446 24.6943 18.2059 24.8853 18.311C25.4603 18.6232 25.5014 18.5951 25.5332 18.9354C25.5332 19.1757 25.5332 19.4889 25.5404 19.5992C25.5533 20.4151 25.5227 21.231 25.449 22.0435C25.4141 22.2381 25.2108 22.3682 25.1687 22.7251C25.0989 23.3099 25.3361 23.7323 25.4223 24.0944C25.4993 24.4212 25.4675 26.1496 25.4685 26.5096C25.4737 27.6022 25.5229 28.5553 25.3432 28.8904C25.2108 29.137 24.9787 29.5074 24.9048 30.3846C24.874 30.753 24.7836 31.1807 24.6234 31.4491C24.1634 32.2223 23.879 32.3013 23.418 32.2878C22.8891 32.2722 22.7711 32.2254 22.4507 32.2597C22.2104 32.2857 21.9085 32.5719 21.66 32.7873C21.4115 33.0027 21.0768 33.0401 21.0439 33.1213C20.9926 33.2368 21.3684 33.1317 21.6724 32.9694C21.887 32.8539 22.1776 32.5615 22.4343 32.5427C22.7947 32.5157 23.0709 32.5969 23.5155 32.6406C24.1265 32.7009 24.645 32.3378 24.8976 31.9767C24.9448 31.9101 25.0085 31.9361 24.99 31.9975C24.9407 32.1588 24.7148 32.6572 24.455 32.678C24.032 32.7124 23.8092 32.8195 23.4765 33.0661C23.2136 33.2607 22.9631 33.4355 22.9795 33.4907C22.9959 33.5458 23.1222 33.4314 23.383 33.2951C23.7198 33.1192 24.0741 32.9278 24.3421 32.9298C24.495 32.9411 24.6479 32.9072 24.7823 32.8323C24.9166 32.7573 25.0266 32.6444 25.0989 32.5074C25.3453 32.0984 25.3422 31.6042 25.3915 31.3711C25.4151 31.2566 25.4942 31.2608 25.5055 31.3846C25.5321 31.7215 25.4923 32.0603 25.3884 32.3815C25.3249 32.6142 25.1996 32.8248 25.026 32.9902C24.9171 33.0942 24.8083 33.1223 24.6614 33.2347C24.4908 33.3682 24.3487 33.5352 24.2435 33.7259C24.1326 33.9048 24.0525 34.0973 24.0833 34.1286C24.1398 34.1847 24.2661 33.9204 24.339 33.8164C24.4333 33.6551 24.567 33.5211 24.7272 33.4272C24.8617 33.3606 24.9428 33.3232 25.0886 33.2524C25.2606 33.1637 25.4071 33.0315 25.5137 32.8684C25.6119 32.7276 25.6794 32.5673 25.7119 32.3981C25.7201 32.3575 25.7221 32.3263 25.7406 32.3253C25.7591 32.3242 25.7807 32.42 25.792 32.4959C25.8556 32.9278 25.7365 33.4262 25.6041 33.626C25.4131 33.9132 25.3545 34.0172 25.3248 34.1515C25.2005 34.7134 25.9604 34.7872 25.9901 34.7477C26.0322 34.6905 25.8813 34.6436 25.7745 34.6041C25.4254 34.4688 25.5168 34.2337 25.5691 34.1327C25.7211 33.8528 25.9296 33.7071 26.1924 33.3648C26.3224 33.1611 26.3829 32.9199 26.3649 32.678C26.3577 32.5532 26.3064 32.2223 26.3567 32.2191C26.3906 32.2191 26.4009 32.293 26.4091 32.3284C26.4647 32.5871 26.5652 32.8337 26.7058 33.0568C26.8691 33.2711 27.1782 33.4376 27.3959 33.5396C27.6136 33.6416 27.8497 33.6624 27.8456 33.6083C27.8415 33.5542 27.6177 33.5334 27.4031 33.3939C26.6494 32.9069 26.6216 31.9132 26.6032 31.805C26.5847 31.6968 26.6175 31.6708 26.6391 31.7384C26.7695 32.1348 26.8054 32.2129 26.9646 32.447C27.2655 32.8903 27.7553 33.0349 28.1629 33.0349C28.8108 33.0349 29.4731 32.5552 30.0112 32.651C30.2545 32.6936 30.3665 32.8965 30.5338 33.0068C30.8142 33.191 31.1499 33.2014 31.1818 33.1629C31.2547 33.0599 30.9086 33.1078 30.7248 32.9444V32.9413ZM24.6265 31.9475C24.49 32.0651 24.3031 32.0922 24.3472 32.0516C24.4618 31.9822 24.5637 31.8931 24.6481 31.7883C24.7405 31.6656 24.8288 31.4668 24.876 31.4762C24.9233 31.4855 24.8227 31.7821 24.6265 31.9507V31.9475ZM25.524 29.3357C25.4571 29.4542 25.4083 29.5823 25.3792 29.7155C25.3693 29.8067 25.3536 29.8971 25.332 29.9861C25.3042 30.0433 25.2611 30.1006 25.2139 30.0589C25.103 29.9549 25.2139 29.5959 25.2519 29.4721C25.2683 29.4221 25.3145 29.2775 25.4254 29.2411C25.4942 29.2213 25.5527 29.2723 25.524 29.3389V29.3357ZM25.5579 22.4941C25.507 22.5849 25.4795 22.6872 25.4778 22.7917C25.486 22.8957 25.5106 22.9488 25.488 22.9873C25.4654 23.0258 25.412 23.0341 25.3679 22.9873C25.2868 22.8988 25.294 22.6897 25.3299 22.594C25.3484 22.543 25.4038 22.3858 25.4952 22.3713C25.5527 22.364 25.5784 22.4462 25.5579 22.4972V22.4941ZM26.4882 20.6211C26.4604 20.5389 26.4194 20.491 26.407 20.4379C26.3916 20.364 26.4419 20.3339 26.5015 20.3495C26.5867 20.3776 26.6637 20.5711 26.6709 20.67C26.6758 20.7016 26.6745 20.7339 26.6669 20.765C26.6593 20.7961 26.6457 20.8253 26.6268 20.851C26.6195 20.8576 26.6109 20.8626 26.6016 20.8656C26.5922 20.8686 26.5824 20.8695 26.5726 20.8683C26.5629 20.8672 26.5536 20.8639 26.5452 20.8588C26.5368 20.8536 26.5296 20.8467 26.5241 20.8385C26.481 20.7928 26.519 20.7178 26.4882 20.6263V20.6211ZM26.7171 26.5522C26.6709 26.5824 26.6206 26.5845 26.596 26.5387C26.5611 26.4763 26.6709 26.3951 26.6134 26.2546C26.5888 26.1914 26.5592 26.1301 26.5251 26.0715C26.4933 26.0112 26.5549 25.9238 26.6453 25.9914C26.6958 26.0351 26.7363 26.0896 26.7638 26.1509C26.7913 26.2122 26.8051 26.2789 26.8044 26.3462C26.8068 26.3865 26.8001 26.4267 26.785 26.464C26.7699 26.5013 26.7467 26.5347 26.7171 26.5616V26.5522ZM27.5694 32.6187C27.3312 32.5147 27.1669 32.3919 27.0858 32.2202C27.0046 32.0485 26.9605 31.7821 27.0118 31.7675C27.0632 31.753 27.1217 32.036 27.2459 32.216C27.3413 32.3524 27.4633 32.4675 27.6043 32.5542C27.6577 32.5896 27.8384 32.6437 27.8261 32.6645C27.8138 32.6853 27.632 32.6541 27.5694 32.6281V32.6187ZM33.9049 15.1207C33.9011 15.1246 33.8984 15.1296 33.8974 15.135C33.8963 15.1404 33.8969 15.1461 33.899 15.1512C33.9011 15.1563 33.9046 15.1606 33.9091 15.1637C33.9136 15.1668 33.9189 15.1685 33.9244 15.1685C34.0419 15.1643 34.1584 15.1916 34.2622 15.2476C34.2772 15.2576 34.2878 15.273 34.2918 15.2907C34.2959 15.3084 34.2931 15.327 34.284 15.3426C34.2748 15.3583 34.2602 15.3698 34.2429 15.3747C34.2257 15.3797 34.2072 15.3778 34.1914 15.3694C34.0836 15.3069 33.8228 15.1914 33.7396 15.3777C33.6954 15.5057 33.7149 15.6493 34.0055 15.6742C34.0959 15.6826 34.7787 15.8054 34.827 15.7918C34.8752 15.7783 34.7736 15.4131 34.5076 15.1592C34.4317 15.0947 34.1616 14.8657 33.9049 15.13V15.1207ZM35.2028 14.6462C35.0653 14.5016 34.8924 14.3968 34.7017 14.3423C34.4306 14.283 34.3125 14.4235 34.2602 14.5182C34.1965 14.6337 34.5477 14.4943 34.6781 14.5255C34.7664 14.5473 34.7284 14.6836 34.6411 14.6628C34.5313 14.6325 34.4161 14.6282 34.3043 14.6503C34.2923 14.6537 34.2811 14.6596 34.2716 14.6678C34.262 14.676 34.2544 14.6863 34.2492 14.6978C34.244 14.7093 34.2414 14.7218 34.2415 14.7345C34.2416 14.7471 34.2445 14.7596 34.2499 14.771C34.2796 14.8286 34.3237 14.8772 34.3778 14.9121C34.4318 14.9469 34.4939 14.9668 34.558 14.9698C34.8198 14.9927 35.2849 14.7461 35.2028 14.6555V14.6462ZM33.909 24.2152C33.7153 24.2735 33.5309 24.3601 33.3617 24.4722C32.5238 25.1267 32.7302 26.1933 32.7302 26.1933C32.8113 27.1048 33.3463 27.8477 32.9982 28.367C32.9376 28.4575 32.7456 28.4627 32.7343 28.3909C32.6491 27.8477 32.0679 26.9206 32.0679 26.9206C31.9262 26.6605 31.6767 26.4201 31.6798 26.1194C31.6798 25.6751 31.8656 25.5731 31.9632 25.1111C32.0145 24.8707 31.9344 24.2318 32.0289 24.0892C32.7579 22.9863 32.797 22.2162 32.5885 21.5732C32.5279 21.3869 32.4191 21.2953 32.4591 21.133C32.5505 20.7678 32.5331 20.3255 32.4037 20.4046C32.312 20.4666 32.2057 20.5025 32.0956 20.5087C31.9968 20.4979 31.8968 20.5078 31.802 20.5378C31.7044 20.5732 31.6767 20.5992 31.6716 20.5909C31.6664 20.5826 31.8102 20.4057 31.9796 20.389C31.9457 20.3006 31.8862 20.1747 31.7989 20.1486C31.7896 20.1486 31.766 20.133 31.7578 20.1486C31.6551 20.3568 31.6438 20.4473 31.5524 20.4868C31.5207 20.4956 31.4885 20.5026 31.4559 20.5076C31.114 20.6179 30.8994 20.8198 30.6889 20.8604C30.6191 20.8739 30.5205 20.8073 30.5164 20.952C30.5125 21.0201 30.522 21.0883 30.5441 21.1528C30.6683 21.5794 31.1674 21.8031 31.1674 21.8031C31.2608 21.9977 31.1571 22.4348 31.1571 22.4348C30.5852 22.8156 30.4034 23.2422 30.272 23.4264C30.2094 23.5409 30.1231 23.5221 29.964 23.6449C29.8724 23.7174 29.7921 23.8033 29.7257 23.8999C29.6816 23.9581 29.623 23.7958 30.0471 23.4337C30.037 23.392 30.0233 23.3512 30.0061 23.3119C29.811 22.9654 29.3129 22.081 29.2483 21.9946C29.1363 21.8468 29.085 21.8905 28.8006 21.5992C28.6712 21.467 28.6702 21.3755 28.6034 21.3578C28.5367 21.3401 28.398 21.3495 28.2492 21.3328C28.1126 21.3172 28.05 21.3234 28.0346 21.3484C28.0099 21.39 28.053 21.5357 28.1198 21.6408C28.3426 21.9904 28.9217 22.2423 28.934 22.2651C28.9464 22.288 29.0182 22.6741 29.0367 22.7521C29.2421 23.4732 29.3663 23.5273 29.3704 23.9623C29.3829 24.0975 29.3736 24.2339 29.3427 24.366C29.3836 24.3771 29.4251 24.3858 29.467 24.392C29.9321 24.469 30.4856 24.2568 30.465 24.3567C30.4537 24.416 30.2504 24.4826 29.888 24.5055C29.6783 24.5187 29.4678 24.511 29.2596 24.4826C29.2596 24.4826 29.2534 24.4826 29.2596 24.4826C29.2657 24.4826 28.6876 24.3993 27.9565 24.3026C27.8251 24.2849 27.7039 24.467 27.4534 24.7479C27.248 24.9737 27.0776 24.9841 27.0622 25.0882C27.0242 25.339 26.98 25.4191 27.0129 25.5044C27.0355 25.5668 27.3014 25.4763 27.3938 25.4243C27.7511 25.2255 27.974 24.7999 28.015 24.827C28.2461 24.9644 28.9618 25.1787 29.3304 25.2682C29.4742 25.3025 29.6333 25.2682 29.623 25.365C29.5019 26.4388 30.4086 27.291 30.6283 27.6271C30.6478 27.6563 30.6334 27.7073 30.6078 27.7031C30.4712 27.6792 29.6118 27.5356 29.2637 27.8623C29.0429 28.0704 29.0932 28.5231 29.1969 28.7853C29.3437 29.1599 29.5419 29.2972 29.7596 29.7135C29.8253 29.8383 30.0081 30.0475 29.8952 30.4013C29.7822 30.7551 29.43 31.0443 28.971 31.2337C28.856 31.2805 28.6517 31.2119 28.5757 31.318C28.473 31.4658 28.3816 31.7342 28.4535 31.7519C28.5089 31.7634 28.9669 31.7811 29.0747 31.6884C29.2359 31.549 30.0584 31.1682 30.3993 30.5667C30.6047 30.2109 30.157 30.2077 30.3049 29.6302C30.3973 29.266 30.9702 29.0059 30.9446 28.7457C30.9322 28.6313 30.9682 28.6625 30.9815 28.6708C31.1468 28.7749 30.9097 29.3181 31.0524 29.8581C31.1746 30.3191 31.6685 30.805 32.1151 31.242C32.1457 31.2718 32.1704 31.3071 32.188 31.3461C32.2262 31.4314 32.2331 31.5277 32.2076 31.6177C32.0915 32.0662 31.7855 32.6895 31.6202 32.7675C31.5863 32.7831 31.3984 32.8123 31.3522 32.9121C31.3378 32.9444 31.2413 33.1359 31.2875 33.1733C31.3902 33.2555 31.9118 33.2025 31.9827 33.1473C32.0005 33.1312 32.0152 33.1118 32.0258 33.0901C32.1737 32.8018 32.9777 31.292 32.685 30.934C32.5823 30.8133 32.4797 31.0142 32.3123 30.8237C32.263 30.7655 32.2291 30.5813 32.2497 30.3107C32.2528 30.2381 32.2759 30.1678 32.3164 30.1078C32.7189 29.6843 32.8658 29.2702 32.8627 28.8342C32.8627 28.7926 33.0136 28.7582 33.0608 28.7988C33.1365 28.8721 33.229 28.9248 33.3301 28.9523C33.4311 28.9798 33.5373 28.981 33.6389 28.9559C34.0158 28.907 34.4604 28.4638 34.5682 27.6781C34.6565 27.0413 34.6083 26.6657 33.7652 25.3369C33.3597 24.7177 33.909 24.2152 33.909 24.2152ZM32.2712 20.6856C32.1624 20.8677 32.1747 20.8687 32.1757 20.9707C32.1757 21.0061 32.1552 21.0466 32.1151 21.0425C32.0773 21.0276 32.0433 21.0043 32.0154 20.9745C31.9875 20.9446 31.9665 20.9088 31.9539 20.8698C31.9447 20.7293 32.3072 20.6242 32.2712 20.6856ZM32.0474 21.7032C32.1408 21.6252 32.1644 21.4858 32.2055 21.4951C32.2466 21.5045 32.2918 21.7469 32.1316 21.8312C32.0756 21.8587 32.0132 21.8701 31.9512 21.864C31.8893 21.858 31.8302 21.8347 31.7804 21.7969C31.7547 21.7511 31.9344 21.8 32.0474 21.7032ZM30.7946 25.6001C30.7193 25.6173 30.6411 25.6173 30.5657 25.6001C30.5277 25.5939 30.4517 25.5679 30.463 25.5325C30.4743 25.4971 30.6293 25.5398 30.7197 25.469C30.7926 25.4118 30.7895 25.2953 30.8224 25.3005C30.8552 25.3057 30.8645 25.3712 30.8665 25.3795C30.8799 25.4638 30.8809 25.5679 30.7946 25.6001ZM31.2906 21.081C31.2556 21.0589 31.2306 21.0238 31.2208 20.9832C31.1998 20.9755 31.1805 20.9634 31.1643 20.9478C31.1386 20.9259 31.1325 20.9103 31.1335 20.9072C31.1345 20.9041 31.1407 20.8958 31.1787 20.8968C31.2015 20.8972 31.2236 20.8886 31.2403 20.8729C31.2632 20.8438 31.296 20.8244 31.3322 20.8184C31.3685 20.8124 31.4056 20.8204 31.4364 20.8406C31.499 20.8802 31.5535 20.9738 31.6151 21.0279C31.6264 21.0373 31.42 21.1663 31.2906 21.081ZM17.7622 14.1092C17.8444 14.0156 17.5569 14.0895 17.4768 14.0489C17.3967 14.0083 17.4665 13.8876 17.5476 13.9271C17.6287 13.9667 17.7725 14.0312 17.8218 13.9552C17.8711 13.8793 17.7324 13.77 17.4737 13.7107C17.3383 13.6869 17.2057 13.6485 17.0784 13.5962C17.0671 13.591 17.1009 13.9084 17.1985 14.0177C17.3638 14.1956 17.6256 14.2466 17.7622 14.1082V14.1092ZM21.6641 29.6323C21.812 30.214 21.3684 30.2171 21.5697 30.5688C21.9106 31.1713 22.7331 31.5511 22.8943 31.6905C22.997 31.7831 23.4601 31.7654 23.5165 31.754C23.573 31.7426 23.4991 31.4678 23.3933 31.3201C23.3173 31.216 23.113 31.2826 22.998 31.2358C22.5369 31.0495 22.1888 30.7748 22.0738 30.4034C21.9588 30.0319 22.1437 29.8404 22.2094 29.7155C22.4271 29.2993 22.6201 29.162 22.7731 28.7874C22.8758 28.5251 22.9261 28.0725 22.7053 27.8644C22.3572 27.5377 21.4978 27.6813 21.3612 27.7052C21.3356 27.7052 21.3222 27.6584 21.3407 27.6292C21.5604 27.2931 22.4702 26.4409 22.346 25.3671C22.3357 25.2703 22.4948 25.3046 22.6386 25.2703C23.0083 25.1808 23.7229 24.9664 23.954 24.8291C23.995 24.8051 24.2179 25.2276 24.5752 25.4264C24.6676 25.4784 24.9335 25.5689 24.9572 25.5065C24.989 25.4191 24.9448 25.339 24.9068 25.0903C24.8914 24.9862 24.7179 24.9758 24.5156 24.75C24.2651 24.469 24.1439 24.287 24.0135 24.3046C23.2814 24.4014 22.7094 24.4847 22.7094 24.4847C22.5012 24.5131 22.2907 24.5208 22.081 24.5075C21.7186 24.4847 21.5163 24.4181 21.504 24.3588C21.4834 24.2547 22.0369 24.4711 22.502 24.3941C22.5439 24.3878 22.5854 24.3792 22.6263 24.3681C22.5954 24.236 22.5861 24.0996 22.5986 23.9644C22.6037 23.5294 22.731 23.4753 22.9323 22.7542C22.9538 22.6762 23.0206 22.3068 23.035 22.2672C23.0493 22.2277 23.6264 21.9873 23.8492 21.6429C23.916 21.5388 23.9601 21.3921 23.9344 21.3505C23.919 21.3255 23.8564 21.3193 23.7209 21.3349C23.5668 21.3515 23.4447 21.3349 23.3666 21.3599C23.2886 21.3848 23.2978 21.4639 23.1695 21.6013C22.884 21.8926 22.8327 21.8489 22.7207 21.9967C22.6561 22.083 22.158 22.9675 21.9629 23.314C21.9457 23.3533 21.932 23.394 21.9219 23.4358C22.346 23.801 22.2874 23.9561 22.2433 23.9019C22.1769 23.8054 22.0966 23.7195 22.005 23.647C21.8438 23.5242 21.7576 23.543 21.697 23.4285C21.5645 23.2443 21.3828 22.8177 20.8109 22.4368C20.8109 22.4368 20.7082 21.9998 20.8006 21.8052C20.8006 21.8052 21.3006 21.5815 21.4239 21.1549C21.446 21.0904 21.4554 21.0222 21.4516 20.954C21.4516 20.8094 21.3489 20.876 21.2791 20.8625C21.0686 20.824 20.854 20.62 20.512 20.5097C20.4795 20.5046 20.4473 20.4977 20.4155 20.4889C20.32 20.4494 20.3067 20.3536 20.2102 20.1507C20.2019 20.1351 20.1783 20.1507 20.1691 20.1507C20.0818 20.1767 20.0223 20.3026 19.9884 20.3911C20.1547 20.4077 20.3057 20.5732 20.2964 20.593C20.2872 20.6127 20.2636 20.5753 20.166 20.5399C20.0711 20.5099 19.9712 20.4999 19.8723 20.5108C19.7623 20.5046 19.6559 20.4687 19.5643 20.4067C19.4349 20.3307 19.4175 20.773 19.5088 21.1351C19.5499 21.2974 19.44 21.389 19.3795 21.5753C19.1741 22.2173 19.21 22.9883 19.9391 24.0913C20.0335 24.2339 19.9535 24.8728 20.0048 25.1132C20.1023 25.5752 20.2851 25.6771 20.2892 26.1215C20.2892 26.4222 20.0418 26.6625 19.9001 26.9227C19.9001 26.9227 19.3189 27.8498 19.2337 28.393C19.2224 28.4648 19.0283 28.4596 18.9698 28.3691C18.6217 27.8488 19.1566 27.1069 19.2378 26.1953C19.2378 26.1953 19.4431 25.1288 18.6063 24.4743C18.4371 24.3622 18.2527 24.2756 18.059 24.2172C18.059 24.2172 18.6083 24.7177 18.215 25.3358C17.372 26.6646 17.3238 27.0403 17.4121 27.6771C17.5148 28.4627 17.9645 28.906 18.3362 28.9549C18.4366 28.9776 18.5411 28.9748 18.6401 28.9466C18.7392 28.9185 18.8299 28.8659 18.904 28.7936C18.9523 28.753 19.1022 28.7874 19.1022 28.829C19.1022 29.265 19.246 29.6791 19.6485 30.1026C19.6895 30.1624 19.7126 30.2328 19.7152 30.3055C19.7368 30.5761 19.7019 30.7603 19.6526 30.8185C19.4893 31.009 19.3784 30.8081 19.2799 30.9288C18.9872 31.2868 19.7933 32.7966 19.9391 33.0849C19.9497 33.1066 19.9644 33.126 19.9822 33.1421C20.0531 33.1973 20.5788 33.2462 20.6774 33.1681C20.7236 33.1307 20.6271 32.9392 20.6127 32.9069C20.5665 32.8029 20.3796 32.7779 20.3447 32.7623C20.1794 32.6843 19.8734 32.061 19.7573 31.6125C19.7323 31.5224 19.7392 31.4263 19.7768 31.3409C19.7945 31.3019 19.8192 31.2666 19.8497 31.2368C20.2954 30.7998 20.7903 30.3139 20.9125 29.8529C21.0552 29.3128 20.818 28.7697 20.9834 28.6656C20.9967 28.6573 21.0326 28.6261 21.0203 28.7405C20.9977 29.0017 21.5738 29.2671 21.6631 29.6313L21.6641 29.6323ZM20.0027 20.8708C19.9902 20.9099 19.9692 20.9456 19.9413 20.9755C19.9134 21.0054 19.8793 21.0286 19.8415 21.0435C19.8015 21.0435 19.7799 21.0071 19.781 20.9717C19.781 20.8677 19.7943 20.8677 19.6855 20.6866C19.6485 20.6242 20.0079 20.7293 20.0017 20.8698L20.0027 20.8708ZM20.1742 21.7927C20.1244 21.8306 20.0653 21.8538 20.0034 21.8599C19.9414 21.8659 19.8791 21.8546 19.8231 21.8271C19.6629 21.7428 19.6947 21.4962 19.7501 21.491C19.7902 21.491 19.8138 21.6262 19.9072 21.6991C20.0212 21.8 20.2009 21.7511 20.1732 21.7917L20.1742 21.7927ZM20.6661 21.082C20.5367 21.1674 20.3303 21.0383 20.3416 21.029C20.4032 20.9749 20.4576 20.8812 20.5203 20.8417C20.551 20.8212 20.5882 20.8131 20.6245 20.8191C20.6608 20.825 20.6936 20.8446 20.7164 20.8739C20.7331 20.8897 20.7552 20.8982 20.778 20.8979C20.816 20.8979 20.8211 20.9041 20.8232 20.9083C20.8252 20.9124 20.8232 20.927 20.7924 20.9488C20.7763 20.9647 20.757 20.9767 20.7359 20.9842C20.7256 21.0246 20.7002 21.0593 20.665 21.081L20.6661 21.082ZM21.0912 25.3847C21.0912 25.3764 21.1045 25.3109 21.1343 25.3057C21.1641 25.3005 21.1661 25.417 21.237 25.4742C21.3273 25.545 21.4803 25.4898 21.4937 25.5377C21.507 25.5856 21.428 25.5991 21.391 25.6053C21.3156 25.6225 21.2374 25.6225 21.162 25.6053C21.0747 25.5679 21.0758 25.4638 21.0901 25.3837L21.0912 25.3847ZM18.1134 13.8834C18.4368 14.026 18.8106 13.9781 18.9677 13.7086C18.9934 13.6639 19.0006 13.5609 18.9503 13.5734C18.7264 13.6285 18.4368 13.6837 18.2315 13.6139C18.1462 13.5858 18.1832 13.4485 18.2684 13.4776C18.4889 13.5426 18.7223 13.5472 18.9451 13.4912C19.0396 13.4651 19.0478 13.3455 19.0139 13.2539C18.9112 12.9844 18.5241 12.9834 18.3537 13.0031C18.02 13.0416 17.4983 13.3278 17.4511 13.3663C17.6418 13.5764 17.8673 13.7511 18.1175 13.8824L18.1134 13.8834ZM17.9624 14.7814C17.9679 14.77 17.9707 14.7575 17.9708 14.7449C17.971 14.7322 17.9683 14.7197 17.9631 14.7082C17.9579 14.6967 17.9503 14.6864 17.9408 14.6782C17.9313 14.67 17.9201 14.6641 17.908 14.6607C17.7963 14.6386 17.6811 14.6429 17.5712 14.6732C17.4839 14.694 17.446 14.5577 17.5343 14.5359C17.6647 14.5047 18.0158 14.6399 17.9522 14.5286C17.8998 14.4339 17.7817 14.2934 17.5106 14.3527C17.32 14.4072 17.147 14.512 17.0096 14.6566C16.9274 14.7481 17.3946 14.9937 17.6585 14.9802C17.7226 14.9771 17.7848 14.9571 17.8389 14.922C17.8929 14.8869 17.937 14.8381 17.9666 14.7804L17.9624 14.7814ZM19.4893 13.385C19.6099 13.4383 19.7398 13.4666 19.8713 13.4683C19.9627 13.462 20.1034 13.4787 20.0767 13.3902C20.0294 13.2445 19.7768 13.0323 19.6382 12.9657C19.5571 12.9272 19.628 12.8054 19.7091 12.8439C19.8867 12.9282 19.9432 13.1113 20.0911 13.2508C20.1136 13.2716 20.1301 13.2008 20.1301 13.1634C20.1301 12.948 20.0171 12.6431 19.7522 12.5879C19.515 12.5359 19.2655 12.616 19.0334 12.692C19.0262 12.6982 19.1217 13.2331 19.4934 13.384L19.4893 13.385ZM27.8692 15.2226C27.8687 15.2297 27.8704 15.2368 27.874 15.2429C27.8776 15.249 27.883 15.2538 27.8894 15.2566C27.8958 15.2595 27.903 15.2603 27.9098 15.2588C27.9167 15.2574 27.923 15.2538 27.9278 15.2487C28.0602 15.1051 28.2358 14.9365 28.3837 14.9074C28.472 14.8876 28.5089 15.0239 28.4206 15.0447C28.3006 15.0786 28.1902 15.1406 28.0982 15.2258C28.0705 15.2487 28.0417 15.2747 28.013 15.3028C28.0032 15.3129 27.9961 15.3254 27.9924 15.339C27.9886 15.3526 27.9883 15.367 27.9915 15.3808C27.9946 15.3946 28.0012 15.4074 28.0105 15.4179C28.0198 15.4285 28.0316 15.4365 28.0448 15.4412C28.243 15.5067 28.512 15.4037 28.6609 15.233C28.8098 15.0624 28.9556 14.6295 28.8827 14.6295C28.7492 14.6295 28.2738 14.6774 28.0612 14.8054C27.9401 14.8782 27.8764 15.0842 27.8733 15.2216L27.8692 15.2226ZM28.28 12.1478C28.4535 12.025 28.5808 11.7669 28.6589 11.5713C28.6917 11.4881 28.8273 11.5245 28.7934 11.6098C28.7184 11.7903 28.6072 11.9529 28.4668 12.0874C28.4602 12.0936 28.4556 12.1017 28.4539 12.1106C28.4521 12.1195 28.4532 12.1288 28.457 12.137C28.4607 12.1453 28.467 12.1521 28.4749 12.1564C28.4828 12.1608 28.4918 12.1625 28.5007 12.1613C28.624 12.1354 28.7386 12.0777 28.8334 11.9938C29.048 11.8034 28.9772 11.1405 28.9443 11.1447C28.7934 11.1603 28.2779 11.436 28.1824 11.5744C28.0551 11.7576 28.0797 12.0333 28.1896 12.1395C28.2026 12.1515 28.2193 12.1587 28.2369 12.1596C28.2545 12.1606 28.2719 12.1553 28.2861 12.1447L28.28 12.1478ZM33.1666 18.0831C33.2826 18.0759 33.0752 17.6357 32.8586 17.4796C32.7641 17.4109 32.4273 17.2715 32.1829 17.3475C32.1562 17.3558 32.1069 17.4141 32.1336 17.4213C32.2866 17.4619 32.4827 17.5254 32.568 17.6118C32.6306 17.6773 32.531 17.7783 32.4653 17.7158C32.3312 17.5931 32.1591 17.5217 31.9786 17.514C31.9511 17.5165 31.9247 17.5257 31.9015 17.5407C31.8783 17.5557 31.8589 17.5762 31.8451 17.6003C31.7424 17.8084 31.9005 17.9947 32.0864 18.079C32.3298 18.1851 32.7302 18.1092 33.1666 18.0831ZM27.7614 13.6389C27.4246 13.7721 27.364 14.1467 27.4144 14.4089C27.4153 14.4148 27.4181 14.4202 27.4224 14.4243C27.4267 14.4284 27.4322 14.4309 27.438 14.4315C27.4439 14.4321 27.4498 14.4307 27.4548 14.4276C27.4598 14.4244 27.4636 14.4197 27.4657 14.4141C27.5353 14.2458 27.6257 14.0871 27.7347 13.9417C27.7912 13.871 27.8898 13.9719 27.8374 14.0458C27.7049 14.2123 27.4719 14.4339 27.5294 14.6503C27.533 14.6638 27.5405 14.6758 27.5509 14.6849C27.5613 14.694 27.5742 14.6997 27.5879 14.7013C27.6944 14.6839 27.7901 14.6254 27.8549 14.538C27.9666 14.4297 28.0726 14.3154 28.1721 14.1956C28.2296 14.1259 28.3282 14.2268 28.2748 14.2997C28.1477 14.4216 28.0136 14.5359 27.8733 14.642C27.8323 14.6816 27.8415 14.6961 27.898 14.6878C28.0746 14.6618 28.3909 14.5723 28.4638 14.4797C28.7431 14.1477 28.7718 13.5713 28.7379 13.4277C28.7338 13.4141 28.3796 13.3933 27.7614 13.6389ZM31.4436 14.1665C31.2228 14.2414 30.7905 14.463 30.5831 14.7638C30.3624 15.0842 30.3603 15.5442 30.5123 15.5275C30.54 15.5275 30.5636 15.5275 30.5893 15.5275C30.5893 15.5275 30.5893 15.5275 30.5893 15.5223C30.8078 15.3314 30.9469 15.0637 30.9785 14.7731C30.9939 14.6836 31.1284 14.7221 31.113 14.8116C31.0781 15.0805 30.9635 15.3323 30.7844 15.5338C30.8439 15.54 30.9004 15.5504 30.9559 15.5619C31.0415 15.5091 31.1147 15.4378 31.17 15.3531C31.2254 15.2683 31.2617 15.1723 31.2762 15.0718C31.2844 14.9812 31.4241 14.9802 31.4169 15.0718C31.3927 15.2785 31.2913 15.468 31.1335 15.6014C31.2263 15.6226 31.3202 15.6382 31.4149 15.6482C31.534 15.6597 31.7968 15.31 31.6408 14.9615C31.5627 14.771 31.457 14.1613 31.4436 14.1665ZM30.7813 16.3308C30.6086 16.3325 30.4384 16.3734 30.2833 16.4505C30.2738 16.4566 30.266 16.4652 30.2609 16.4754C30.2558 16.4855 30.2535 16.4969 30.2542 16.5083C30.2549 16.5197 30.2587 16.5307 30.2651 16.5401C30.2715 16.5496 30.2802 16.5571 30.2905 16.5618C30.5069 16.6408 30.7443 16.6367 30.9579 16.5504C31.1787 16.4651 31.6264 15.8563 31.5545 15.8345C31.3491 15.7731 30.7063 15.5858 30.3788 15.6878C30.1529 15.7575 29.9516 16.2528 30.0574 16.155C30.1282 16.0905 30.3932 15.872 30.5646 15.8345C30.6519 15.8147 30.6899 15.9521 30.6016 15.9708C30.4024 16.0145 30.0738 16.2278 30.0564 16.3506C30.0492 16.4006 30.0728 16.4349 30.0974 16.4214C30.2432 16.3444 30.5831 16.1956 30.7813 16.1893C30.8706 16.1862 30.8706 16.3277 30.7813 16.3308ZM33.7221 16.7335C33.5558 16.4463 33.2087 16.1643 32.7569 16.2944C32.7117 16.3069 32.6614 16.3829 32.7076 16.3933C32.863 16.4207 33.0123 16.4764 33.1481 16.5577C33.22 16.6118 33.1481 16.7346 33.0783 16.6794C32.9108 16.5609 32.7117 16.497 32.5074 16.4963C32.4827 16.4971 32.4592 16.5075 32.4418 16.5253C32.4244 16.5431 32.4145 16.567 32.414 16.592C32.414 16.8001 32.6275 17.0571 32.913 17.0977C33.1984 17.1383 33.6564 17.1383 33.8987 17.2705C33.9655 17.3079 33.793 16.8532 33.7221 16.7335ZM29.087 16.2798C29.0812 16.2826 29.0764 16.2871 29.0734 16.2929C29.0703 16.2986 29.0692 16.3051 29.0701 16.3116C29.071 16.318 29.074 16.324 29.0785 16.3285C29.083 16.3331 29.0889 16.3361 29.0953 16.3371C29.3578 16.3649 29.621 16.2905 29.8315 16.129C30.0502 15.9209 30.2525 15.231 30.3346 14.8855C30.3408 14.8595 29.4937 14.8855 29.087 15.0936C28.894 15.1904 28.7698 15.437 28.742 15.6857C28.7277 15.8126 28.7523 15.8647 28.7646 15.8428C28.8751 15.6428 29.0135 15.4598 29.1754 15.2996C29.2441 15.2424 29.3438 15.3423 29.278 15.4037C29.0727 15.5733 28.8129 15.7929 28.7759 16.0478C28.7749 16.0548 28.7761 16.062 28.7793 16.0683C28.7824 16.0746 28.7875 16.0798 28.7937 16.0831C28.7998 16.0864 28.8069 16.0877 28.8138 16.0868C28.8208 16.0858 28.8272 16.0828 28.8324 16.078C29.0454 15.8655 29.271 15.6663 29.508 15.4817C29.5809 15.4287 29.6518 15.5525 29.5779 15.6045C29.5563 15.6201 29.5009 15.669 29.4629 15.6982C29.0953 15.9875 28.9936 16.0103 28.8468 16.1623C28.8324 16.1768 28.8036 16.1987 28.817 16.2289C28.8303 16.259 28.8786 16.2424 28.893 16.2403C29.0983 16.2174 29.4588 15.9833 29.6672 15.8033C29.735 15.744 29.8346 15.8439 29.7699 15.9073C29.5599 16.0622 29.3302 16.1875 29.087 16.2798ZM32.2959 15.4256C32.0484 15.3517 31.8697 15.3839 31.7681 15.5026C31.7362 15.5411 31.7311 15.6503 31.7814 15.643C31.9467 15.6191 32.1716 15.5889 32.3072 15.643C32.3903 15.6774 32.3534 15.8147 32.2702 15.7804C32.089 15.709 31.8889 15.7038 31.7044 15.7658C31.6949 15.7701 31.6868 15.7771 31.6811 15.786C31.6755 15.7948 31.6725 15.8052 31.6726 15.8158C31.6706 15.8459 31.6706 15.8761 31.6726 15.9063C31.6941 16.1539 31.9324 16.2975 32.262 16.2341C32.5098 16.1907 32.7536 16.1266 32.991 16.0426C32.9715 15.9812 32.6481 15.5306 32.2959 15.4256ZM32.3873 17.2205C32.4125 17.076 32.3988 16.9272 32.3477 16.7899C32.2965 16.6526 32.2098 16.5317 32.0967 16.4401C31.8913 16.283 31.5247 16.1862 31.3994 16.3569C31.3939 16.3655 31.3907 16.3754 31.39 16.3856C31.3894 16.3959 31.3914 16.4061 31.3958 16.4153C31.4003 16.4246 31.407 16.4325 31.4154 16.4383C31.4238 16.4441 31.4335 16.4476 31.4436 16.4484C31.5945 16.4609 31.7814 16.4838 31.8636 16.5525C31.9457 16.6212 31.8348 16.7086 31.7609 16.6565C31.6346 16.5757 31.4856 16.5391 31.3368 16.5525C31.3052 16.5571 31.2764 16.5735 31.256 16.5986C31.2357 16.6236 31.2253 16.6554 31.2269 16.6877C31.2331 16.8459 31.3604 16.9853 31.5997 17.0488C31.8591 17.1197 32.122 17.177 32.3873 17.2205ZM29.0696 13.4974C28.8519 13.6431 28.8314 13.975 28.8868 14.2664C28.9022 14.3517 28.972 14.4485 28.9823 14.3944C29.0394 14.1132 29.188 13.8596 29.4043 13.6743C29.4783 13.6223 29.5481 13.745 29.4752 13.7971C29.2483 13.9573 28.9864 14.2965 29.0932 14.6233C29.0955 14.6313 29.1001 14.6384 29.1065 14.6437C29.1128 14.649 29.1206 14.6523 29.1288 14.653C29.1369 14.6538 29.1452 14.6521 29.1524 14.6481C29.1596 14.6441 29.1654 14.638 29.1692 14.6306C29.3366 14.3538 29.4875 14.026 29.8335 13.7856C29.9157 13.7284 29.9639 13.8377 29.8767 13.923C29.6321 14.16 29.4182 14.4275 29.24 14.719C29.1959 14.7908 29.3099 14.7835 29.3325 14.7762C29.5522 14.7024 29.7237 14.5005 29.89 14.3153C29.9516 14.2476 30.0502 14.3475 29.9927 14.4193C29.8772 14.5316 29.7544 14.6359 29.6251 14.7315C29.617 14.7382 29.6111 14.7473 29.6083 14.7576C29.6056 14.7678 29.606 14.7787 29.6096 14.7887C29.6132 14.7986 29.6199 14.8072 29.6285 14.8132C29.6372 14.8192 29.6475 14.8223 29.658 14.822C29.966 14.8095 30.2638 14.667 30.3942 14.4995C30.6396 14.1873 30.6437 13.3132 30.5842 13.2945C30.5246 13.2758 29.5204 13.1904 29.0696 13.4974ZM29.4618 13.1322C29.5121 13.1218 29.5645 13.1134 29.6097 13.1051C29.6973 13.0927 29.7767 13.0465 29.8315 12.9761C29.9196 12.8516 29.9812 12.7098 30.0122 12.5599C30.0297 12.4704 30.1642 12.5089 30.1478 12.5973C30.0993 12.7675 30.0112 12.9234 29.891 13.052C29.8561 13.0916 30.0143 13.0999 30.0861 13.0739C30.1143 13.0654 30.1398 13.0496 30.1601 13.0281C30.2957 12.8529 30.3803 12.6428 30.4045 12.4215C30.4178 12.3309 30.5523 12.3694 30.539 12.4589C30.4915 12.648 30.4112 12.827 30.3018 12.9875C30.2972 12.9955 30.2947 13.0046 30.2946 13.0138C30.2944 13.0231 30.2966 13.0322 30.301 13.0403C30.3053 13.0485 30.3116 13.0553 30.3193 13.0603C30.327 13.0653 30.3358 13.0682 30.3449 13.0687C30.4363 13.0749 30.5626 13.0822 30.5934 13.078C30.7033 13.0624 30.8152 12.2914 30.7341 11.9272C30.7166 11.8481 30.081 12.0531 29.8048 12.2456C29.4403 12.4974 29.3242 13.1551 29.4639 13.127L29.4618 13.1322ZM34.0753 15.8834C33.8782 15.7127 33.4521 15.6337 33.3566 15.7419C33.2611 15.8501 33.6564 15.8366 33.757 15.899C33.7731 15.9085 33.7848 15.9241 33.7895 15.9424C33.7942 15.9606 33.7916 15.98 33.7822 15.9963C33.7728 16.0126 33.7574 16.0244 33.7394 16.0292C33.7214 16.034 33.7022 16.0313 33.6862 16.0218C33.6119 15.9769 33.5322 15.9419 33.449 15.9177C33.4213 15.9094 33.3843 15.8959 33.3463 15.8855C33.3328 15.8818 33.3186 15.8813 33.3048 15.8841C33.2911 15.8869 33.2781 15.8928 33.267 15.9015C33.2559 15.9101 33.2469 15.9213 33.2407 15.934C33.2345 15.9467 33.2313 15.9608 33.2313 15.975C33.2364 16.0478 33.2611 16.1179 33.3028 16.1775C33.3444 16.2371 33.4014 16.284 33.4675 16.3131C33.8566 16.4651 34.0641 16.4672 34.331 16.5733C34.3978 16.5972 34.293 16.0645 34.0774 15.8782L34.0753 15.8834ZM30.8676 13.8397C30.7926 13.846 30.7721 13.9438 30.7649 14.0198C30.7649 14.0302 30.7649 14.0416 30.7649 14.052C30.7269 14.3642 31.5915 14.1207 31.8554 13.5317C32.0022 13.2008 32.0535 12.4766 31.993 12.4964C31.4405 12.6754 30.7217 12.8855 30.768 13.2248V13.2508C30.7823 13.3642 30.7885 13.5286 30.8871 13.4724C31.0454 13.37 31.1868 13.2429 31.306 13.0957C31.3553 13.0198 31.4765 13.0905 31.4272 13.1675C31.2873 13.3699 31.0827 13.5169 30.848 13.5838C30.8326 13.5877 30.8189 13.5969 30.8092 13.6097C30.7995 13.6226 30.7944 13.6384 30.7946 13.6545C30.7946 13.666 30.7969 13.6773 30.8015 13.6878C30.8061 13.6983 30.8128 13.7076 30.8213 13.7152C30.8298 13.7228 30.8398 13.7285 30.8506 13.7318C30.8614 13.7352 30.8728 13.7361 30.884 13.7346C30.9462 13.7254 31.0074 13.7101 31.0668 13.6889C31.2125 13.6476 31.3446 13.567 31.4487 13.4558C31.5093 13.3881 31.6079 13.4891 31.5514 13.5598C31.4149 13.7055 31.1037 13.82 30.8676 13.8397ZM28.2399 12.8731C28.2414 12.8809 28.2453 12.8881 28.251 12.8937C28.2566 12.8993 28.2638 12.903 28.2716 12.9044C28.2794 12.9058 28.2874 12.9047 28.2946 12.9013C28.3018 12.8979 28.3078 12.8924 28.3118 12.8855C28.4089 12.7114 28.5468 12.5642 28.7133 12.4568C28.729 12.4496 28.7469 12.4485 28.7634 12.4538C28.7799 12.4592 28.7939 12.4705 28.8026 12.4857C28.8113 12.5009 28.8141 12.5188 28.8105 12.5359C28.8069 12.5531 28.7971 12.5683 28.7831 12.5786C28.586 12.693 28.3272 12.8699 28.3426 13.1041C28.3459 13.1204 28.3534 13.1357 28.3644 13.1481C28.3754 13.1605 28.3895 13.1698 28.4052 13.1748C28.4428 13.1772 28.4804 13.1717 28.5158 13.1587C28.5511 13.1456 28.5834 13.1252 28.6106 13.0989C28.7228 13.0187 28.8189 12.9177 28.894 12.8013C28.9034 12.785 28.9188 12.7731 28.9368 12.7684C28.9548 12.7636 28.9739 12.7662 28.99 12.7758C29.0061 12.7853 29.0178 12.8009 29.0225 12.8191C29.0272 12.8374 29.0246 12.8568 29.0152 12.8731C28.9317 12.9887 28.824 13.0843 28.6999 13.153C28.6599 13.18 28.551 13.2175 28.5839 13.2633C28.6168 13.3091 28.8036 13.283 28.9279 13.2373C29.1805 13.1426 29.2195 12.949 29.3037 12.7357C29.3355 12.6556 29.4495 12.1457 29.4064 12.1343C29.2287 12.0885 28.6712 12.1925 28.3868 12.3476C28.2399 12.4267 28.1917 12.6649 28.2399 12.8731ZM29.429 12.0198C29.5808 11.9485 29.7065 11.8305 29.7884 11.6827C29.8387 11.6077 29.9598 11.6827 29.9095 11.7545C29.8253 11.8772 29.5234 12.0312 29.6015 12.0666C29.6436 12.0854 29.9681 12.0718 30.082 11.8741C30.1612 11.6737 30.1962 11.4581 30.1847 11.2425C30.1847 11.1738 29.3787 11.5359 29.2934 11.7555C29.238 11.9043 29.3335 12.0614 29.429 12.0208V12.0198ZM30.9692 12.3559C31.1058 12.2019 31.1992 12.0854 31.3645 12.0188C31.4487 11.9844 31.4847 12.1228 31.4025 12.1551C31.2283 12.2368 31.0743 12.357 30.9518 12.5068C30.9431 12.5194 30.9377 12.5339 30.9359 12.5491C30.9342 12.5643 30.9361 12.5797 30.9416 12.594C30.9471 12.6083 30.9559 12.621 30.9673 12.631C30.9788 12.641 30.9925 12.648 31.0072 12.6514C31.1356 12.6743 31.4036 12.589 31.5966 12.4433C31.7506 12.3299 32.1193 12.0146 32.0977 11.9927C32.0063 11.897 31.5442 11.7087 31.1859 11.9095C30.9405 12.051 30.8789 12.4568 30.9702 12.3528L30.9692 12.3559ZM33.106 14.7544C32.5926 14.6763 32.4591 15.0926 32.4632 15.1862C32.4694 15.3309 32.8452 15.1092 33.028 15.0343C33.1122 15.001 33.1481 15.1384 33.065 15.1717C32.9226 15.2295 32.7751 15.2734 32.6244 15.3028C32.6122 15.305 32.6008 15.3105 32.5914 15.3187C32.582 15.3269 32.575 15.3376 32.5711 15.3495C32.5672 15.3615 32.5666 15.3743 32.5693 15.3866C32.572 15.3988 32.5779 15.4102 32.5865 15.4193C32.656 15.4884 32.7413 15.539 32.8348 15.5668C32.9283 15.5946 33.0271 15.5986 33.1225 15.5785C33.3884 15.5296 33.8228 15.0364 33.8115 15.0281C33.5903 14.9045 33.3532 14.8128 33.1071 14.7554L33.106 14.7544ZM34.3485 14.2039C34.0489 14.1032 33.7348 14.0539 33.4192 14.0583C33.2693 14.0676 33.0763 14.0947 32.9551 14.2175C32.9212 14.2518 32.8853 14.3215 32.9068 14.3569C32.9931 14.5047 33.4202 14.4006 33.6112 14.3402C33.6975 14.3132 33.7334 14.4443 33.6482 14.4776C33.3976 14.5629 32.9294 14.461 32.9633 14.5348C33.0239 14.6659 33.2457 14.719 33.5589 14.6878C33.9039 14.6555 34.4091 14.2258 34.3495 14.205L34.3485 14.2039ZM32.1223 13.2487C32.2702 13.1093 32.3277 12.9261 32.5043 12.8418C32.5854 12.8033 32.6563 12.9251 32.5752 12.9636C32.4365 13.0302 32.1839 13.2425 32.1367 13.3881C32.108 13.4766 32.2486 13.4599 32.3421 13.4662C32.4736 13.4645 32.6035 13.4362 32.724 13.3829C33.0958 13.2321 33.1913 12.6972 33.18 12.693C32.95 12.614 32.7004 12.5338 32.4612 12.589C32.1963 12.6462 32.0802 12.949 32.0833 13.1644C32.0843 13.1998 32.1008 13.2706 32.1234 13.2497L32.1223 13.2487Z" fill="white"/>
</g>
<path d="M26 57C27.1046 57 28 56.1046 28 55C28 53.8954 27.1046 53 26 53C24.8954 53 24 53.8954 24 55C24 56.1046 24.8954 57 26 57Z" fill="white"/>
<defs>
<filter id="filter0_d_1143_9806" x="0" y="0" width="52" height="65.9956" filterUnits="userSpaceOnUse" color-interpolation-filters="sRGB">
<feFlood flood-opacity="0" result="BackgroundImageFix"/>
<feColorMatrix in="SourceAlpha" type="matrix" values="0 0 0 0 0 0 0 0 0 0 0 0 0 0 0 0 0 0 127 0" result="hardAlpha"/>
<feOffset dy="2"/>
<feGaussianBlur stdDeviation="2"/>
<feColorMatrix type="matrix" values="0 0 0 0 0.2 0 0 0 0 0.2 0 0 0 0 0.2 0 0 0 0.3 0"/>
<feBlend mode="normal" in2="BackgroundImageFix" result="effect1_dropShadow_1143_9806"/>
<feBlend mode="normal" in="SourceGraphic" in2="effect1_dropShadow_1143_9806" result="shape"/>
</filter>
<clipPath id="clip0_1143_9806">
<rect width="18" height="24" fill="white" transform="translate(17 11)"/>
</clipPath>
</defs>
</svg>
