<svg width="98" height="105" viewBox="0 0 98 105" fill="none" xmlns="http://www.w3.org/2000/svg">
<g id="Group 3">
<g id="Group">
<g id="Vector">
<path d="M18.6673 53C17.9309 53 17.334 53.597 17.334 54.3333C17.334 55.0697 17.9309 55.6667 18.6673 55.6667H25.334C26.0704 55.6667 26.6673 55.0697 26.6673 54.3333C26.6673 53.597 26.0704 53 25.334 53H18.6673Z" fill="#99918C"/>
<path fill-rule="evenodd" clip-rule="evenodd" d="M30.6673 53C29.9309 53 29.334 53.597 29.334 54.3333C29.334 55.0697 29.9309 55.6667 30.6673 55.6667H37.334C38.0704 55.6667 38.6673 55.0697 38.6673 54.3333C38.6673 53.597 38.0704 53 37.334 53H30.6673Z" fill="#99918C"/>
</g>
<rect id="Rectangle Copy" y="105" width="50.6667" height="96" rx="3" transform="rotate(-90 0 105)" fill="#78726E"/>
<path id="Rectangle Copy_2" fill-rule="evenodd" clip-rule="evenodd" d="M14 102C12.8954 102 12 101.105 12 100L12 59C12 57.8954 12.8954 57 14 57L83 57C84.1046 57 85 57.8954 85 59V100C85 101.105 84.1046 102 83 102H14Z" fill="#322D29"/>
<g id="Vector_2">
<path fill-rule="evenodd" clip-rule="evenodd" d="M6.66732 89C5.93094 89 5.33398 88.403 5.33398 87.6667V70.3333C5.33398 69.597 5.93094 69 6.66732 69C7.4037 69 8.00065 69.597 8.00065 70.3333V87.6667C8.00065 88.403 7.4037 89 6.66732 89Z" fill="#99918C"/>
<path d="M6.66732 94.3333C5.93094 94.3333 5.33398 93.7364 5.33398 93C5.33398 92.2636 5.93094 91.6667 6.66732 91.6667C7.4037 91.6667 8.00065 92.2636 8.00065 93C8.00065 93.7364 7.4037 94.3333 6.66732 94.3333Z" fill="#99918C"/>
</g>
</g>
<g id="Group_2">
<g id="Vector_3">
<path d="M98.0007 18.6663C98.0007 17.93 97.4037 17.333 96.6673 17.333C95.9309 17.333 95.334 17.93 95.334 18.6663V25.333C95.334 26.0694 95.9309 26.6663 96.6673 26.6663C97.4037 26.6663 98.0007 26.0694 98.0007 25.333V18.6663Z" fill="#BAB4B0"/>
<path fill-rule="evenodd" clip-rule="evenodd" d="M98.0007 30.6663C98.0007 29.93 97.4037 29.333 96.6673 29.333C95.9309 29.333 95.334 29.93 95.334 30.6663V37.333C95.334 38.0694 95.9309 38.6663 96.6673 38.6663C97.4037 38.6663 98.0007 38.0694 98.0007 37.333V30.6663Z" fill="#BAB4B0"/>
</g>
<rect id="Rectangle Copy_3" x="46" width="50.6667" height="96" rx="3" fill="#E1DAD5"/>
<path id="Rectangle Copy_4" fill-rule="evenodd" clip-rule="evenodd" d="M49 14C49 12.8954 49.8954 12 51 12H92C93.1046 12 94 12.8954 94 14V83C94 84.1046 93.1046 85 92 85H51C49.8954 85 49 84.1046 49 83V14Z" fill="white"/>
<g id="Logo" clip-path="url(#clip0_1046_10747)">
<path id="Znak" fill-rule="evenodd" clip-rule="evenodd" d="M61.1078 38.0059C61.0277 38.0332 61.6772 38.5691 62.1167 38.6107C62.5169 38.6497 62.8003 38.5834 62.8777 38.4195C62.9223 38.3271 62.3227 38.4546 62.0026 38.3479C61.8937 38.3102 61.9396 38.1424 62.0498 38.1762C62.2939 38.2517 62.8371 38.3818 62.9499 38.1971C62.9774 38.1489 62.9315 38.067 62.8882 38.0228C62.7334 37.8693 62.4867 37.8355 62.2952 37.8238C61.8919 37.8183 61.4905 37.8799 61.1078 38.0059ZM72.0608 37.6156C72.2248 37.4856 72.5344 37.2332 72.5856 37.0082C72.6814 36.553 72.2484 35.5137 72.1566 35.5332C71.8863 35.5905 71.2158 36.0925 71.0072 36.5894C70.9193 36.8001 71.0597 37.1708 71.1778 37.3204C71.1988 37.3464 71.2473 37.3399 71.2434 37.3061C71.2158 37.056 71.2345 36.803 71.2985 36.5595C71.3365 36.4528 71.5084 36.4996 71.4704 36.6076C71.3734 36.9009 71.336 37.2104 71.3601 37.5181C71.3772 37.6586 71.4913 37.7353 71.5123 37.6326C71.5631 37.2077 71.6658 36.7906 71.818 36.3904C71.86 36.285 72.0332 36.3319 71.9899 36.4372C71.8194 36.8612 71.553 37.656 71.6383 37.7548C71.6554 37.773 71.6895 37.7665 71.7118 37.7548C71.8312 37.7119 71.8915 37.5272 71.9296 37.3945C71.9794 37.2228 72.0345 37.0641 72.0778 36.8742C72.1041 36.7624 72.2655 36.8092 72.251 36.9211C72.193 37.145 72.113 37.3629 72.0122 37.5714C72.0087 37.578 72.0075 37.5856 72.0088 37.5929C72.0101 37.6003 72.0138 37.607 72.0194 37.612C72.0249 37.6171 72.032 37.6202 72.0394 37.6208C72.0469 37.6215 72.0544 37.6196 72.0608 37.6156ZM60.4964 40.0011C60.5593 40.018 61.4318 39.8711 61.546 39.8541C61.9173 39.8229 61.9396 39.6434 61.8858 39.4834C61.7795 39.2506 61.4463 39.395 61.3085 39.473C61.2882 39.4836 61.2647 39.486 61.2426 39.4798C61.2206 39.4736 61.2019 39.4592 61.1902 39.4396C61.1786 39.4201 61.175 39.3969 61.1802 39.3748C61.1853 39.3526 61.1989 39.3333 61.218 39.3209C61.3506 39.251 61.4995 39.2169 61.6496 39.222C61.6566 39.222 61.6634 39.2199 61.6692 39.216C61.675 39.2121 61.6795 39.2067 61.6822 39.2003C61.6848 39.1939 61.6855 39.1869 61.6842 39.1801C61.6828 39.1733 61.6795 39.1671 61.6746 39.1622C61.3466 38.8318 61.0015 39.1179 60.9031 39.2103C60.5646 39.5277 60.4412 39.9829 60.4964 40.0011ZM64.1701 38.1945C63.8435 38.1656 63.5161 38.2398 63.2346 38.4065C63.37 38.6633 63.5257 38.909 63.7004 39.1414C63.9562 39.4015 64.1832 39.2467 64.3066 39.088C64.3398 39.0419 64.37 38.9936 64.3971 38.9437C64.2512 38.8499 64.0949 38.7731 63.9313 38.7147C63.8224 38.6783 63.8696 38.5066 63.9785 38.5443C64.1512 38.6041 64.3164 38.6835 64.4706 38.7811C64.5585 38.5326 64.5677 38.2374 64.1649 38.1945H64.1701ZM61.1314 40.9636C61.4725 40.8336 61.7376 40.8336 62.2348 40.6385C62.3193 40.6021 62.3921 40.5434 62.4453 40.4689C62.4985 40.3944 62.5301 40.3068 62.5366 40.2157C62.5366 40.198 62.5325 40.1805 62.5246 40.1645C62.5167 40.1486 62.5051 40.1347 62.4909 40.1239C62.4767 40.1131 62.4602 40.1056 62.4426 40.1022C62.4251 40.0987 62.4069 40.0993 62.3896 40.1039C62.3411 40.1169 62.2939 40.1338 62.2584 40.1442C62.1522 40.1744 62.0503 40.2181 61.9554 40.2743C61.9348 40.2862 61.9104 40.2895 61.8874 40.2835C61.8644 40.2775 61.8447 40.2628 61.8327 40.2424C61.8207 40.2221 61.8173 40.1978 61.8233 40.175C61.8294 40.1522 61.8443 40.1327 61.8648 40.1208C61.996 40.0427 62.5051 40.0649 62.3765 39.9244C62.2479 39.7839 61.7087 39.888 61.4581 40.1013C61.1799 40.3302 61.0474 40.9962 61.1314 40.9636ZM64.8209 37.9577C64.8038 37.9512 64.6687 38.7134 64.5585 38.945C64.359 39.3807 64.6897 39.8177 64.8484 39.8034C64.9689 39.7908 65.0885 39.7712 65.2066 39.7449C65.005 39.5782 64.8754 39.3413 64.8445 39.0828C64.8353 38.9684 65.0137 38.9697 65.0242 39.0828C65.0428 39.2085 65.0892 39.3286 65.1599 39.4345C65.2307 39.5404 65.3241 39.6295 65.4336 39.6955C65.5045 39.6812 65.5766 39.6681 65.6527 39.6603C65.4239 39.4085 65.2775 39.0937 65.2329 38.7577C65.2132 38.6458 65.3851 38.5977 65.4047 38.7095C65.4451 39.0728 65.6228 39.4074 65.902 39.646C65.902 39.646 65.902 39.646 65.902 39.6525C65.9348 39.6525 65.965 39.6525 66.0004 39.6525C66.1946 39.6733 66.192 39.0984 65.9099 38.6978C65.6553 38.3284 65.103 38.0514 64.8209 37.9577ZM64.6162 41.5529C64.9219 41.4735 65.0846 41.2927 65.0925 41.1015C65.0945 41.0611 65.0813 41.0213 65.0553 40.99C65.0293 40.9587 64.9925 40.9382 64.9521 40.9324C64.762 40.9158 64.5716 40.9615 64.4102 41.0625C64.321 41.1327 64.1937 41.0079 64.279 40.9324C64.3643 40.857 64.6228 40.8206 64.8156 40.8024C64.8285 40.8013 64.841 40.7969 64.8517 40.7897C64.8623 40.7824 64.871 40.7726 64.8766 40.761C64.8823 40.7495 64.8849 40.7367 64.8841 40.7239C64.8833 40.711 64.8791 40.6986 64.872 40.6879C64.712 40.4746 64.2436 40.5955 63.9812 40.7919C63.8366 40.9065 63.7258 41.0575 63.6604 41.2292C63.5951 41.4008 63.5776 41.5868 63.6099 41.7675C63.9488 41.7131 64.2847 41.6415 64.6162 41.5529ZM65.944 40.0427C66.1631 40.0896 66.5016 40.3627 66.5921 40.4434C66.7234 40.5656 66.4701 39.9465 66.1815 39.8593C65.7629 39.7293 64.939 39.966 64.6792 40.0427C64.5873 40.0701 65.1594 40.831 65.4415 40.9376C65.7145 41.0455 66.0178 41.0506 66.2943 40.9519C66.3074 40.946 66.3186 40.9366 66.3268 40.9248C66.3349 40.913 66.3397 40.8993 66.3407 40.8851C66.3416 40.8708 66.3387 40.8566 66.3321 40.8438C66.3256 40.8311 66.3157 40.8204 66.3035 40.8128C66.1057 40.7165 65.8888 40.6654 65.6685 40.6632C65.553 40.6632 65.553 40.4824 65.6685 40.4863C65.9217 40.4941 66.3547 40.6801 66.541 40.7763C66.5725 40.7932 66.6026 40.7503 66.5935 40.6879C66.5712 40.5344 66.1513 40.2678 65.8968 40.2131C65.7839 40.1897 65.8325 40.018 65.944 40.0427ZM64.5244 40.1338C64.5269 40.0961 64.5269 40.0583 64.5244 40.0206C64.5245 40.0074 64.5207 39.9945 64.5134 39.9834C64.5062 39.9723 64.4959 39.9635 64.4837 39.9582C64.2479 39.8807 63.9923 39.8872 63.7607 39.9764C63.6545 40.0193 63.6072 39.8463 63.7135 39.8047C63.8867 39.7358 64.174 39.7735 64.3866 39.8047C64.4496 39.8138 64.443 39.6746 64.4023 39.6291C64.2711 39.4808 64.0441 39.4405 63.7279 39.5329C63.2779 39.6629 62.8646 40.2274 62.8357 40.3055C63.1391 40.4105 63.4507 40.4906 63.7673 40.5448C64.1924 40.6229 64.4968 40.4434 64.5244 40.1338ZM67.8517 37.1214C67.2783 36.7442 66.0148 36.83 65.9204 36.8612C65.8259 36.8925 65.8495 37.9707 66.1631 38.3674C66.3297 38.5769 66.7102 38.7577 67.1038 38.7707C67.1172 38.771 67.1304 38.7671 67.1415 38.7596C67.1525 38.7521 67.161 38.7414 67.1656 38.7289C67.1702 38.7165 67.1708 38.7029 67.1673 38.6901C67.1637 38.6773 67.1562 38.6659 67.1458 38.6575C66.9807 38.5379 66.8237 38.4076 66.6761 38.2673C66.5987 38.1827 66.7247 38.0579 66.8073 38.1372C67.0199 38.3687 67.239 38.6211 67.5198 38.7134C67.5486 38.7225 67.6943 38.7316 67.6379 38.6419C67.4102 38.2775 67.1369 37.9431 66.8244 37.6469C66.7142 37.5402 66.7745 37.4036 66.8795 37.4752C67.3216 37.7756 67.5145 38.1853 67.7284 38.5313C67.7332 38.5406 67.7407 38.5482 67.7499 38.5532C67.7591 38.5583 67.7696 38.5604 67.78 38.5594C67.7905 38.5584 67.8004 38.5544 67.8085 38.5477C67.8166 38.5411 67.8225 38.5322 67.8255 38.5222C67.9567 38.1138 67.6274 37.6898 67.3374 37.4895C67.2442 37.4244 67.3374 37.271 67.4279 37.336C67.7043 37.5676 67.8942 37.8846 67.9672 38.2361C67.9803 38.3037 68.0695 38.1827 68.0892 38.0761C68.1561 37.7119 68.1299 37.297 67.8517 37.1214ZM62.7347 37.3438C62.8003 37.6534 62.9971 38.0384 63.3907 38.1073C63.5347 38.1409 63.6856 38.1291 63.8224 38.0735C64.0061 38.0072 63.4629 37.92 63.3212 37.7704C63.2425 37.6872 63.3684 37.5623 63.4524 37.6404C63.5869 37.7822 63.7625 37.879 63.9549 37.9174C64.0199 37.9342 64.0886 37.9291 64.1504 37.903C64.2121 37.8769 64.2634 37.8311 64.2961 37.773C64.319 37.7256 64.327 37.6723 64.3188 37.6203C64.3106 37.5683 64.2866 37.5199 64.2501 37.4817C63.9589 37.1214 62.7203 37.2736 62.7334 37.3373L62.7347 37.3438ZM72.7575 39.9829C72.8388 39.832 72.9136 39.6356 73.0474 39.529C73.1367 39.4574 73.2639 39.5823 73.1786 39.659C73.0429 39.7635 72.9326 39.8968 72.8559 40.0492C72.8473 40.0656 72.8438 40.0842 72.8459 40.1025C72.8481 40.1209 72.8557 40.1382 72.8678 40.1522C72.88 40.1662 72.8961 40.1763 72.9141 40.1811C72.9321 40.1859 72.9511 40.1853 72.9687 40.1793C73.141 40.0992 73.2944 39.984 73.4188 39.8411C73.5867 39.659 73.7008 39.0906 73.6812 39.088C73.384 39.0909 73.0962 39.191 72.8624 39.3729C72.7373 39.5456 72.6778 39.7566 72.6945 39.9686C72.6958 39.9752 72.6991 39.9813 72.7038 39.9862C72.7086 39.991 72.7147 39.9944 72.7213 39.9959C72.728 39.9975 72.7349 39.997 72.7413 39.9947C72.7478 39.9924 72.7534 39.9883 72.7575 39.9829ZM67.9921 41.7571C68.2697 41.9827 68.6015 42.1332 68.9552 42.1941C69.0378 42.2032 69.0929 42.1291 68.9945 42.064C68.8633 41.9795 68.698 41.934 68.5642 41.852C68.3635 41.7506 68.1834 41.6135 68.0328 41.4475C67.9632 41.3578 68.0879 41.2316 68.164 41.3174C68.2808 41.4644 68.7728 41.8455 68.9512 41.8845C68.9958 41.8949 69.0089 41.8091 68.9985 41.7662C68.9315 41.4982 68.6967 41.2459 68.3424 41.0612C68.0223 40.8882 67.3768 40.9038 67.012 40.8999C66.9307 40.8999 67.3335 41.8598 67.6956 42.1356C67.8316 42.2464 67.9896 42.3277 68.1594 42.3741C68.3291 42.4205 68.5068 42.4309 68.6809 42.4048C68.8056 42.384 68.8121 42.2995 68.7583 42.2825C68.4538 42.2003 68.1633 42.0736 67.8963 41.9066C67.8124 41.8442 67.8989 41.6907 67.9921 41.7571ZM72.6945 39.2298C72.7207 39.2194 72.7667 39.1895 72.7575 39.1648C72.6537 38.9357 72.6125 38.6836 72.6381 38.4338C72.6564 38.3206 72.8296 38.3687 72.81 38.4806C72.7641 38.6838 72.7964 38.8967 72.9005 39.0776C72.9078 39.0869 72.9184 39.0931 72.9301 39.0947C72.9419 39.0964 72.9538 39.0936 72.9635 39.0867C73.2062 38.9111 73.239 38.7082 73.1157 38.1606C73.0973 38.0748 72.9635 37.3243 72.9254 37.3373C72.2799 37.5792 71.7564 37.9616 71.532 38.318C71.2368 38.7902 71.4297 39.1505 71.5438 39.2467C71.5989 39.2999 71.6646 39.341 71.7367 39.3675C71.8088 39.3939 71.8857 39.405 71.9624 39.4002C71.9764 39.3999 71.9901 39.3958 72.0019 39.3883C72.0137 39.3807 72.0231 39.3702 72.0292 39.3576C72.0354 39.3451 72.0379 39.3312 72.0365 39.3173C72.0351 39.3035 72.0299 39.2903 72.0214 39.2792C71.8758 39.1031 71.7847 38.889 71.759 38.6627C71.7617 38.6409 71.7723 38.6209 71.7888 38.6063C71.8054 38.5918 71.8268 38.5837 71.8489 38.5837C71.871 38.5837 71.8924 38.5918 71.9089 38.6063C71.9255 38.6209 71.9361 38.6409 71.9388 38.6627C71.9388 38.9072 72.0477 39.2363 72.2917 39.343C72.394 39.3872 72.478 39.3131 72.4478 39.2766C72.209 38.9931 72.0293 38.5066 72.2379 38.1203C72.2917 38.0202 72.4465 38.1086 72.3914 38.2101C72.2208 38.5261 72.3547 38.9254 72.5751 39.1999C72.5892 39.2169 72.6083 39.229 72.6298 39.2343C72.6513 39.2397 72.674 39.2381 72.6945 39.2298ZM70.7422 36.9016C70.7413 36.8984 70.7398 36.8954 70.7377 36.8929C70.7355 36.8904 70.7329 36.8883 70.7299 36.887C70.7268 36.8856 70.7236 36.8849 70.7202 36.885C70.7169 36.885 70.7137 36.8858 70.7107 36.8873C70.5134 37.014 70.3535 37.1904 70.2475 37.3984C70.1982 37.505 70.1745 37.6214 70.1784 37.7386C70.1822 37.8557 70.2136 37.9704 70.2698 38.0735C70.3499 38.2036 70.6031 38.3336 70.5572 38.2374C70.4539 38.0491 70.3981 37.839 70.3945 37.6247C70.405 37.5129 70.5834 37.5116 70.5729 37.6247C70.544 37.8265 70.5721 38.0323 70.6543 38.2192C70.7304 38.3779 70.8419 38.4208 70.897 38.4156C70.9521 38.4104 70.7763 38.24 70.7461 37.8953C70.7369 37.7821 70.9232 37.7821 70.9259 37.8953C70.9286 38.009 70.9467 38.1219 70.9796 38.2309C70.9933 38.3272 71.0347 38.4176 71.099 38.491C71.099 38.491 71.1292 38.5131 71.1371 38.517C71.1554 38.522 71.1746 38.5226 71.1932 38.5188C71.2117 38.5149 71.2291 38.5068 71.2439 38.4949C71.2586 38.4831 71.2703 38.468 71.278 38.4508C71.2856 38.4336 71.2891 38.4148 71.288 38.3961C71.2972 38.2023 71.2106 37.5818 70.855 37.1903C70.7921 37.1057 70.7532 37.006 70.7422 36.9016ZM62.7951 39.0438C63.0286 39.1375 63.5101 39.4145 63.5167 39.2337C63.5167 39.1166 63.3566 38.5964 62.6954 38.6939C62.3808 38.766 62.0778 38.8811 61.7953 39.036C61.7809 39.0464 62.3359 39.6629 62.6757 39.7241C62.7973 39.7489 62.9233 39.7438 63.0425 39.7091C63.1617 39.6744 63.2705 39.6112 63.3593 39.5251C63.3702 39.5136 63.3777 39.4995 63.3812 39.4841C63.3846 39.4688 63.3838 39.4528 63.3788 39.4379C63.3739 39.4229 63.3649 39.4096 63.3529 39.3993C63.3409 39.389 63.3263 39.3821 63.3107 39.3794C63.1182 39.3427 62.9297 39.2878 62.7478 39.2155C62.6416 39.1739 62.6875 39.0022 62.7951 39.0438ZM62.6206 42.8536C63.1769 42.8861 63.6886 42.9836 63.9956 42.8445C64.2331 42.7391 64.4299 42.5037 64.3039 42.2461C64.2863 42.2159 64.2616 42.1904 64.2319 42.1716C64.2022 42.1528 64.1684 42.1414 64.1334 42.1382C63.9027 42.1479 63.6828 42.2371 63.5115 42.3905C63.4314 42.4725 63.3041 42.3463 63.3802 42.2604C63.4891 42.1499 63.7397 42.0731 63.9352 42.0224C63.9694 42.0133 63.9064 41.9405 63.8723 41.9301C63.56 41.8299 63.1296 42.0094 63.0089 42.0952C62.736 42.2943 62.471 42.8445 62.6206 42.8536ZM64.9967 43.4129C65.1587 43.3995 65.311 43.3309 65.4278 43.2187C65.5445 43.1065 65.6184 42.9577 65.637 42.7976C65.6475 42.7391 65.6724 42.6962 65.6435 42.6441C65.5635 42.5024 65.1712 42.7482 64.998 42.8874C64.9088 42.9589 64.7815 42.834 64.8668 42.7573C65.0426 42.6155 65.5543 42.5323 65.3326 42.4542C65.2801 42.4347 65.267 42.436 65.0807 42.4347C64.4246 42.4347 64.2436 42.9849 64.1307 43.4129C64.4182 43.4492 64.7092 43.4492 64.9967 43.4129ZM79.4568 38.067C79.5936 38.1226 79.7445 38.1344 79.8885 38.1008C80.2742 38.0319 80.4776 37.6469 80.5445 37.3373C80.5576 37.2736 79.319 37.1149 79.0356 37.4804C78.9991 37.5186 78.9752 37.567 78.967 37.619C78.9588 37.671 78.9667 37.7243 78.9897 37.7717C79.0224 37.8298 79.0737 37.8756 79.1354 37.9017C79.1971 37.9278 79.2659 37.9329 79.3309 37.9161C79.5225 37.8781 79.6976 37.7823 79.8321 37.6417C79.9108 37.5584 80.0367 37.6833 79.9633 37.7717C79.8163 37.9135 79.2731 38.0006 79.4568 38.067ZM61.6838 41.839C61.9934 41.6738 62.5773 41.6738 62.9433 41.6231C63.3094 41.5724 63.5862 41.2498 63.581 40.991C63.5803 40.9596 63.5676 40.9298 63.5454 40.9075C63.5232 40.8852 63.4932 40.8723 63.4616 40.8713C63.201 40.872 62.9468 40.9519 62.7334 41.1002C62.6402 41.1692 62.551 41.0157 62.6429 40.948C62.8164 40.8464 63.0071 40.7768 63.2057 40.7425C63.2648 40.7295 63.2057 40.6346 63.1428 40.619C62.5615 40.4564 62.122 40.8089 61.9094 41.1679C61.8215 41.3161 61.5985 41.8845 61.6838 41.8377V41.839ZM65.9361 41.7649C66.2225 41.6379 66.533 41.5732 66.8467 41.575C66.8519 41.5427 66.8519 41.5097 66.8467 41.4774C66.7209 41.444 66.5911 41.4282 66.4609 41.4306C66.2322 41.4242 66.0039 41.4527 65.7839 41.5151C65.7615 41.5202 65.7381 41.5164 65.7184 41.5047C65.6987 41.493 65.6843 41.4742 65.6782 41.4523C65.6721 41.4304 65.6748 41.4069 65.6857 41.3869C65.6966 41.3669 65.7149 41.3518 65.7367 41.3447C66.0469 41.2503 66.3732 41.2193 66.6958 41.2537C66.4426 41.0768 65.9466 41.1132 65.6527 41.1783C65.1279 41.2953 64.9193 41.6985 64.7264 42.2344C64.691 42.3307 65.5031 42.276 65.8692 42.2344C66.2628 42.1915 66.6407 41.9912 66.7876 41.7519C66.5268 41.7579 66.2696 41.8145 66.0306 41.9184C65.9217 41.9613 65.8312 41.8039 65.9361 41.7636V41.7649ZM75.7004 44.3871C75.7883 44.365 75.8382 43.8811 75.7516 43.5898C75.6335 43.1995 74.5773 42.5362 74.5707 42.9108C74.5707 42.9927 75.1507 43.2165 75.3081 43.4493C75.3724 43.5442 75.2176 43.6327 75.1533 43.539C74.9683 43.2633 74.5419 42.9758 74.2165 42.9823C74.1768 42.9815 74.1379 42.9929 74.105 43.0148C73.9947 43.1059 74.5655 43.3452 74.7059 43.5026C74.782 43.5884 74.656 43.7133 74.5747 43.6327C74.465 43.5184 74.339 43.4207 74.2007 43.3426C74.0826 43.275 73.9003 43.1033 73.8071 43.141C73.7625 43.1566 73.7236 43.1852 73.6955 43.223C73.6674 43.2608 73.6514 43.3061 73.6497 43.353C73.6405 43.5676 73.8452 44.084 75.1244 44.2492C75.2832 44.2622 75.6729 44.3923 75.7004 44.3858V44.3871ZM72.9294 44.3207C72.8073 44.1907 72.8113 43.8876 72.6984 43.8746C72.6328 43.8668 72.6079 44.019 72.5987 44.0723C72.5903 44.144 72.5971 44.2166 72.6185 44.2856C72.64 44.3546 72.6757 44.4184 72.7234 44.4729C72.9044 44.6914 73.0264 44.7565 73.2062 44.975C73.2534 45.0309 73.3138 45.1155 73.3846 45.1896C73.4083 45.2143 73.8386 44.5093 73.5906 43.8746C73.5493 43.7818 73.4885 43.6989 73.4122 43.6314C73.281 43.5104 73.1432 43.5013 73.1144 43.5911C73.0619 43.7549 73.3256 43.8603 73.3873 44.0229C73.4279 44.1308 73.2561 44.1764 73.2154 44.071C73.155 43.9123 73.0488 43.6808 72.9333 43.6626C72.918 43.6613 72.9028 43.6653 72.8902 43.6738C72.8775 43.6823 72.8682 43.6949 72.8638 43.7094C72.8621 43.8896 72.9307 44.0634 73.0553 44.1946C73.1301 44.2752 73.0041 44.4053 72.9294 44.3207ZM74.5182 42.2865C74.4671 42.3034 74.471 42.3879 74.5957 42.4087C74.7698 42.4348 74.9475 42.4244 75.1172 42.378C75.287 42.3316 75.445 42.2503 75.581 42.1395C75.9431 41.8637 76.3459 40.9025 76.2646 40.9038C75.8998 40.9038 75.2543 40.8921 74.9342 41.0651C74.5852 41.255 74.3503 41.5021 74.2781 41.7701C74.2676 41.813 74.2781 41.9001 74.3254 41.8884C74.5078 41.8494 74.9998 41.4683 75.1126 41.3213C75.1848 41.2316 75.3094 41.3578 75.2438 41.4514C75.0932 41.6174 74.9131 41.7545 74.7124 41.8559C74.5812 41.9314 74.412 41.986 74.2821 42.0679C74.1837 42.1317 74.2388 42.2058 74.3214 42.198C74.6778 42.137 75.012 41.9851 75.291 41.7571C75.3842 41.6907 75.4734 41.8442 75.3816 41.9105C75.1126 42.0781 74.8198 42.2048 74.513 42.2865H74.5182ZM74.2099 44.4872C74.1259 44.4079 74.042 44.2453 73.9305 44.2791C73.8189 44.3129 73.916 44.5393 73.9947 44.5926C74.1601 44.7058 74.5392 44.9412 74.551 44.9152C74.5855 44.8219 74.6001 44.7225 74.594 44.6234C74.5879 44.5242 74.5612 44.4274 74.5156 44.339C74.3989 44.1894 74.084 44.0177 74.0669 44.1543C74.0525 44.2674 74.2545 44.2843 74.3359 44.3624C74.4172 44.4404 74.2886 44.5666 74.2047 44.4872H74.2099ZM73.487 41.6738C73.4796 41.679 73.4741 41.6866 73.4716 41.6952C73.469 41.7038 73.4694 41.713 73.4727 41.7214C73.476 41.7298 73.4821 41.7368 73.4899 41.7414C73.4977 41.746 73.5068 41.7478 73.5158 41.7467C73.9514 41.6686 74.4566 41.4163 74.6101 40.8986C74.635 40.8115 74.803 39.8776 74.8318 39.6851C74.8449 39.6005 73.9541 39.7969 73.5919 39.9582C73.377 40.0535 73.1898 40.2012 73.0478 40.3874C72.9059 40.5737 72.8136 40.7925 72.7798 41.0235C72.7653 41.1054 72.7798 41.19 72.827 41.121C72.9734 40.892 73.1403 40.6765 73.3256 40.4772C73.4083 40.3978 73.5355 40.5227 73.4568 40.6072C73.2601 40.7906 73.0821 40.9928 72.9254 41.2108C72.8623 41.2859 72.8118 41.3707 72.7758 41.4618C72.7614 41.5255 72.7496 41.6296 72.8506 41.5685C73.1918 41.3617 73.6313 40.8609 73.9961 40.4681C74.0748 40.3848 74.1929 40.5058 74.1273 40.5981C73.7809 41.0326 73.3098 41.3981 72.8992 41.7219C72.8703 41.7441 72.911 41.7675 73.0173 41.761C73.3846 41.7415 73.7113 41.4033 73.9528 41.1431C74.0315 41.0599 74.1574 41.1848 74.084 41.2732C73.9039 41.4326 73.7031 41.5673 73.487 41.6738ZM80.7859 37.1136C81.0706 37.1837 81.3689 37.1778 81.6506 37.0967C81.7595 37.0602 81.8067 37.2267 81.6978 37.2671C81.4354 37.3542 81.0654 37.2853 80.7794 37.2163C80.7151 37.2007 80.7243 37.3295 80.7571 37.3854C80.9578 37.7223 81.4354 37.7821 81.8487 37.6039C82.1669 37.4378 82.4533 37.2177 82.695 36.9536C82.6346 36.9055 81.9681 36.5478 81.5417 36.4996C81.3239 36.4749 80.8345 36.4762 80.698 36.8131C80.6521 36.9302 80.6705 37.0798 80.7859 37.1123V37.1136ZM77.6527 43.3816C77.5281 43.0903 77.2329 42.3411 76.649 42.1629C76.3866 42.0848 75.9025 42.0523 75.745 42.2474C75.6847 42.3229 76.2961 42.2474 76.6543 42.5076C76.7487 42.5739 76.6267 42.691 76.5231 42.6376C76.2055 42.449 75.707 42.3229 75.522 42.4321C75.4511 42.4738 75.417 42.5505 75.4655 42.5622C75.7378 42.6094 75.9992 42.705 76.237 42.8445C76.3315 42.9082 76.237 43.0617 76.1465 42.9979C75.9733 42.8822 75.4774 42.6272 75.4026 42.7196C75.2202 42.9446 75.7962 43.2932 76.0468 43.3868C76.2449 43.4636 76.4404 43.5481 77.0321 43.448C77.3116 43.3998 77.6632 43.4051 77.6527 43.3816ZM78.8113 38.7811C78.9655 38.6835 79.1306 38.6041 79.3033 38.5443C79.4122 38.5066 79.4594 38.6744 79.3505 38.7147C79.187 38.7727 79.0307 38.849 78.8848 38.9424C78.9118 38.9923 78.9421 39.0406 78.9753 39.0867C79.0986 39.2454 79.3256 39.4015 79.5815 39.1401C79.7561 38.9077 79.9119 38.662 80.0472 38.4052C79.7658 38.2385 79.4383 38.1643 79.1117 38.1932C78.7089 38.2374 78.7181 38.5326 78.8113 38.7811ZM71.5648 41.0404C71.5242 41.1113 71.4924 41.1869 71.4704 41.2654C71.4689 41.2729 71.4689 41.2806 71.4706 41.288C71.4723 41.2954 71.4755 41.3025 71.4801 41.3086C71.4847 41.3147 71.4905 41.3198 71.4972 41.3236C71.5039 41.3273 71.5113 41.3297 71.5189 41.3304C71.7813 41.3591 72.209 41.0274 72.3061 40.7074C72.4032 40.3874 72.6 39.4991 72.5252 39.5004C72.1787 39.5123 71.8393 39.6012 71.532 39.7605C71.3758 39.8482 71.2497 39.9804 71.1702 40.14C71.0907 40.2995 71.0613 40.4791 71.0859 40.6554C71.0872 40.6605 71.0901 40.665 71.0943 40.6683C71.0984 40.6715 71.1036 40.6733 71.1089 40.6733C71.1142 40.6733 71.1193 40.6715 71.1235 40.6683C71.1277 40.665 71.1306 40.6605 71.1318 40.6554C71.2413 40.3989 71.4157 40.1749 71.6383 40.005C71.7275 39.9348 71.8548 40.0597 71.7695 40.1351C71.5117 40.3266 71.3268 40.5989 71.2447 40.9077C71.2224 41.004 71.2066 41.1249 71.2972 41.1679C71.3313 41.1835 71.3654 41.0482 71.3943 40.9897C71.4879 40.7988 71.6165 40.6268 71.7734 40.4824C71.8574 40.4043 71.9834 40.5292 71.9046 40.6125C71.7675 40.7347 71.6525 40.8795 71.5648 41.0404ZM76.3669 44.0151C76.2357 43.885 76.1045 43.7081 76.0166 43.6431C75.9668 43.6054 75.934 43.6613 75.93 43.6743C75.909 43.7523 75.8474 43.9344 76.2029 44.2713C76.3407 44.4014 76.8655 44.6524 76.8826 44.5601C76.9232 44.3455 76.8957 43.9253 76.7356 43.7797C76.5755 43.634 76.1268 43.4233 76.1386 43.595C76.1452 43.673 76.3866 43.7836 76.4929 43.8915C76.5729 43.9761 76.447 44.1022 76.3669 44.0151ZM82.2239 37.6833C82.2869 37.7795 82.4785 37.6937 82.5742 37.6482C82.67 37.6026 82.7684 37.7509 82.6648 37.8003C82.5611 37.8498 82.1951 37.7587 82.3 37.8758C82.4745 38.0488 82.8065 37.985 83.0177 37.7574C83.1164 37.599 83.1695 37.4168 83.1712 37.2306C83.0084 37.296 82.8391 37.3439 82.6661 37.3737C82.3381 37.457 82.1636 37.5961 82.2239 37.6885V37.6833ZM70.8668 39.1856C70.9703 39.397 71.0288 39.6272 71.0387 39.8619C71.039 39.872 71.0427 39.8816 71.0492 39.8894C71.0557 39.8971 71.0645 39.9025 71.0744 39.9048C71.0843 39.907 71.0946 39.9059 71.1039 39.9017C71.1131 39.8975 71.1206 39.8904 71.1253 39.8815C71.2434 39.6767 71.2843 39.437 71.2407 39.2051C71.1646 38.8513 70.3932 38.2946 70.3026 38.3583C70.258 38.3896 69.5548 39.3039 69.8421 39.7774C69.9733 39.9907 70.2948 40.2652 70.5532 40.2977C70.563 40.2989 70.5728 40.2978 70.582 40.2945C70.5913 40.2912 70.5995 40.2858 70.6062 40.2786C70.6129 40.2715 70.6178 40.2629 70.6204 40.2536C70.623 40.2442 70.6234 40.2344 70.6215 40.2248C70.5968 40.1265 70.5639 40.0303 70.5231 39.9374C70.4725 39.8085 70.411 39.6841 70.3394 39.5654C70.2777 39.4678 70.4325 39.3794 70.4929 39.4756C70.5996 39.6531 70.6854 39.842 70.7487 40.0388C70.7907 40.1689 70.7868 40.23 70.8104 40.217C70.8435 40.1955 70.8699 40.1652 70.8866 40.1296C70.9033 40.094 70.9096 40.0544 70.9049 40.0154C70.9064 39.7576 70.8399 39.5038 70.712 39.2792C70.6516 39.1765 70.8065 39.088 70.8668 39.1856ZM67.874 42.7144C67.7992 42.622 67.3033 42.877 67.1301 42.9927C67.0343 43.0565 66.9451 42.903 67.0396 42.8392C67.2775 42.6978 67.5393 42.6004 67.8124 42.5518C67.8609 42.5414 67.8268 42.4646 67.7559 42.4217C67.5709 42.3125 67.0724 42.4386 66.7548 42.6272C66.6564 42.6845 66.5344 42.5674 66.6236 42.4972C66.9818 42.2461 67.5932 42.3177 67.5329 42.237C67.3754 42.0419 66.886 42.0744 66.6289 42.1525C66.045 42.3281 65.7498 43.0799 65.6252 43.3712C65.6147 43.3946 65.9663 43.3894 66.2458 43.4363C66.8388 43.5364 67.033 43.4519 67.2311 43.3751C67.4738 43.2919 68.0564 42.9433 67.874 42.7144ZM68.3739 39.2805C68.5615 39.4991 68.9053 39.6278 69.1611 39.5407C69.178 39.5348 69.1931 39.5248 69.205 39.5116C69.2169 39.4984 69.2253 39.4825 69.2293 39.4652C69.2334 39.448 69.233 39.43 69.2282 39.413C69.2234 39.3959 69.2143 39.3803 69.2018 39.3677C69.1651 39.3326 69.1283 39.3 69.0942 39.2714C68.9761 39.1652 68.8346 39.0877 68.6809 39.0451C68.5681 39.0191 68.6153 38.8487 68.7282 38.8734C68.9224 38.9163 69.1415 39.1206 69.3107 39.3C69.317 39.3063 69.3251 39.3105 69.3339 39.3122C69.3426 39.3138 69.3517 39.3129 69.3599 39.3094C69.3681 39.3058 69.375 39.3 69.3798 39.2925C69.3846 39.2851 69.3871 39.2764 69.3868 39.2675C69.3868 39.0958 69.3015 38.8383 69.1388 38.7473C68.8764 38.5873 68.2637 38.53 68.0892 38.5274C67.9974 38.53 68.181 39.0607 68.3739 39.2844V39.2805ZM67.138 43.5937C67.1498 43.422 66.7129 43.6184 66.541 43.7784C66.3691 43.9383 66.3534 44.3468 66.394 44.5588C66.4111 44.6511 66.9359 44.4027 67.0737 44.27C67.4292 43.9292 67.3676 43.7497 67.3466 43.673C67.3466 43.66 67.3098 43.6041 67.26 43.6418C67.1734 43.7068 67.0369 43.8824 66.9097 44.0138C66.8296 44.0957 66.7037 43.9696 66.7785 43.8837C66.8939 43.7862 67.1314 43.6756 67.138 43.5976V43.5937ZM67.7153 39.3781C67.9229 39.5776 68.0997 39.8064 68.2401 40.0571C68.2558 40.0844 68.2873 40.0193 68.2689 39.8606C68.2335 39.5498 68.0748 39.2415 67.8281 39.1206C67.3033 38.8604 66.2261 38.8253 66.234 38.8604C66.3389 39.2922 66.5974 40.1533 66.8769 40.4147C67.1458 40.6167 67.4821 40.7097 67.8176 40.6749C67.8257 40.6737 67.8332 40.67 67.839 40.6642C67.8448 40.6585 67.8486 40.651 67.8497 40.643C67.8509 40.635 67.8494 40.6268 67.8455 40.6196C67.8416 40.6125 67.8355 40.6068 67.8281 40.6033C67.5209 40.4862 67.231 40.3288 66.9661 40.1351C66.8782 40.061 67.0054 39.9361 67.0973 40.005C67.3597 40.23 67.8202 40.5253 68.0866 40.5513C68.1049 40.5513 68.1745 40.5604 68.1837 40.537C68.1928 40.5136 68.1653 40.472 68.1456 40.4538C67.9541 40.2652 67.8242 40.2352 67.3584 39.8737C67.3098 39.8372 67.239 39.7761 67.2114 39.7566C67.117 39.6916 67.2114 39.5368 67.3007 39.6031C67.6035 39.8339 67.8918 40.0828 68.164 40.3484C68.1706 40.3544 68.1789 40.3582 68.1877 40.3594C68.1966 40.3605 68.2056 40.3589 68.2135 40.3548C68.2214 40.3507 68.2278 40.3442 68.2319 40.3363C68.2359 40.3284 68.2374 40.3195 68.2361 40.3107C68.1889 39.992 67.8583 39.7176 67.5946 39.5056C67.5001 39.4353 67.6274 39.3105 67.7153 39.382V39.3781ZM69.56 37.6729C69.6993 37.8545 69.8148 38.053 69.9038 38.2634C69.9068 38.2701 69.9119 38.2758 69.9183 38.2795C69.9247 38.2832 69.9322 38.2848 69.9396 38.2841C69.947 38.2833 69.954 38.2803 69.9596 38.2755C69.9651 38.2706 69.969 38.2641 69.9707 38.2569C70.0337 37.9291 69.9562 37.4609 69.5259 37.2944C68.7387 36.9887 68.2834 37.0134 68.2781 37.0342C68.2309 37.2137 68.2716 37.9343 68.6285 38.3492C68.7216 38.4585 69.1257 38.5704 69.3514 38.6094C69.4236 38.6198 69.4354 38.6016 69.3829 38.5521C69.2053 38.4176 69.0358 38.273 68.8751 38.119C68.8016 38.0332 68.9276 37.907 69.0063 37.9889C69.1317 38.1404 69.2653 38.285 69.4065 38.4221C69.4915 38.5316 69.6162 38.6039 69.7542 38.6237C69.7717 38.6217 69.7881 38.6146 69.8014 38.6032C69.8148 38.5918 69.8244 38.5768 69.829 38.5599C69.8998 38.2894 69.602 38.0124 69.4354 37.8042C69.3619 37.7145 69.4878 37.5883 69.56 37.6768V37.6729ZM69.1664 43.0057C69.1335 42.9838 69.0945 42.9724 69.0549 42.9732C68.7295 42.9732 68.3031 43.2542 68.1181 43.5299C68.0538 43.6236 67.8989 43.5299 67.9632 43.4402C68.1207 43.2073 68.7006 42.9836 68.7006 42.9017C68.7006 42.5271 67.6431 43.1852 67.5198 43.5806C67.4332 43.872 67.483 44.3611 67.5709 44.378C67.5985 44.3845 67.9882 44.2544 68.1404 44.2349C69.4196 44.0697 69.6243 43.5533 69.6151 43.3387C69.6133 43.2918 69.5974 43.2465 69.5693 43.2087C69.5412 43.1709 69.5023 43.1423 69.4577 43.1267C69.3606 43.089 69.1782 43.2568 69.0641 43.3283C68.9258 43.4085 68.8003 43.5084 68.6914 43.6249C68.6153 43.7107 68.4894 43.5858 68.5602 43.4948C68.7059 43.3439 69.2766 43.1046 69.1664 43.0135V43.0057ZM69.2149 44.1465C69.1979 44.0164 68.883 44.1816 68.7662 44.3311C68.6652 44.4612 68.6704 44.7851 68.7308 44.9074C68.7426 44.9334 69.1244 44.6979 69.2871 44.5848C69.3658 44.5315 69.4721 44.309 69.3514 44.2713C69.2307 44.2336 69.1559 44.4014 69.0719 44.4794C68.988 44.5575 68.862 44.4326 68.9407 44.3494C69.0194 44.2661 69.2294 44.2674 69.2149 44.1543V44.1465ZM69.2858 40.4564C69.6505 40.8466 70.0914 41.3499 70.4312 41.5568C70.5322 41.6179 70.5204 41.5138 70.506 41.4501C70.4701 41.359 70.4196 41.2742 70.3564 41.1991C70.1997 40.9811 70.0217 40.7789 69.825 40.5955C69.7411 40.5162 69.8683 40.3913 69.9562 40.4655C70.1416 40.6648 70.3084 40.8803 70.4548 41.1093C70.5034 41.1783 70.5165 41.0937 70.5021 41.0118C70.4688 40.7802 70.3769 40.5608 70.2349 40.374C70.0928 40.1872 69.9053 40.0393 69.6899 39.9439C69.3278 39.7826 68.4369 39.5862 68.45 39.6707C68.4789 39.8632 68.6468 40.7972 68.6717 40.8843C68.8253 41.4046 69.3278 41.6543 69.766 41.7324C69.775 41.7335 69.7841 41.7317 69.792 41.7271C69.7998 41.7225 69.8058 41.7155 69.8091 41.7071C69.8125 41.6987 69.8129 41.6895 69.8103 41.6809C69.8077 41.6723 69.8023 41.6647 69.7949 41.6595C69.5836 41.5486 69.3882 41.4104 69.2136 41.2485C69.1349 41.1639 69.2609 41.0391 69.3448 41.1184C69.5862 41.3786 69.9129 41.7167 70.2803 41.7363C70.3866 41.7363 70.4273 41.7193 70.3984 41.6972C69.9877 41.3734 69.5167 41.0079 69.1703 40.5734C69.089 40.5032 69.2084 40.3809 69.2858 40.4642V40.4564ZM70.1675 43.578C70.1386 43.487 69.9995 43.4974 69.8696 43.6184C69.7933 43.6859 69.7325 43.7688 69.6912 43.8616C69.4432 44.4963 69.8736 45.2013 69.8972 45.1766C69.9681 45.1025 70.0284 45.0179 70.0756 44.962C70.2554 44.7435 70.3774 44.6784 70.5585 44.4599C70.6061 44.4054 70.6418 44.3416 70.6633 44.2726C70.6848 44.2036 70.6915 44.131 70.6831 44.0593C70.6739 44.006 70.649 43.8538 70.5834 43.8616C70.4706 43.8746 70.4745 44.1803 70.3525 44.3077C70.2724 44.3897 70.1465 44.2648 70.2213 44.1777C70.3459 44.0465 70.4145 43.8727 70.4128 43.6925C70.4084 43.678 70.3991 43.6654 70.3864 43.6569C70.3738 43.6484 70.3585 43.6444 70.3433 43.6457C70.2278 43.6587 70.1216 43.8954 70.0612 44.0541C70.0205 44.1595 69.8487 44.1139 69.8893 44.006C69.9562 43.8603 70.22 43.7549 70.174 43.5911L70.1675 43.578ZM78.2799 43.3998C78.5657 43.4357 78.8548 43.4357 79.1406 43.3998C79.0278 42.9719 78.8401 42.4204 78.192 42.4217C78.0044 42.4217 77.9912 42.4217 77.9388 42.4412C77.717 42.5193 78.2287 42.6025 78.4045 42.7443C78.4951 42.8158 78.3678 42.9407 78.2733 42.8744C78.1002 42.7352 77.7078 42.4842 77.6278 42.6311C77.5989 42.6832 77.6278 42.7261 77.6278 42.7846C77.6439 42.9489 77.7183 43.1022 77.8377 43.2173C77.9571 43.3323 78.1138 43.4016 78.2799 43.4129V43.3998ZM67.1747 35.3329C67.277 35.2887 66.8913 35.0962 66.7811 34.9427C66.7155 34.8478 66.8703 34.7593 66.9346 34.853C67.0383 35.0379 67.198 35.1858 67.3912 35.2757C67.5132 35.3264 67.6352 35.13 67.5604 34.944C67.4515 34.6696 66.4255 34.2169 66.4216 34.3028C66.4068 34.5723 66.4516 34.8417 66.5528 35.0923C66.7063 35.3394 67.1209 35.3563 67.1747 35.3329ZM67.5578 36.1706C67.6654 36.4307 67.7166 36.6791 68.038 36.7975C68.1968 36.8547 68.4435 36.8768 68.4776 36.83C68.5117 36.7832 68.3805 36.726 68.3293 36.6921C68.1706 36.6059 68.0331 36.486 67.9265 36.341C67.9145 36.3206 67.9111 36.2964 67.9172 36.2736C67.9232 36.2507 67.9381 36.2312 67.9586 36.2193C67.9792 36.2074 68.0036 36.2041 68.0266 36.2101C68.0497 36.2161 68.0693 36.2309 68.0813 36.2512C68.1773 36.3968 68.3001 36.523 68.4435 36.6232C68.4782 36.6562 68.5194 36.6816 68.5646 36.698C68.6098 36.7143 68.6579 36.7212 68.7059 36.7182C68.726 36.7118 68.744 36.7003 68.758 36.6848C68.7721 36.6692 68.7817 36.6502 68.7859 36.6297C68.8056 36.3371 68.4749 36.1159 68.223 35.9729C68.2051 35.96 68.1926 35.941 68.188 35.9196C68.1834 35.8981 68.1871 35.8757 68.1982 35.8567C68.2093 35.8378 68.2271 35.8236 68.2482 35.8169C68.2693 35.8103 68.2921 35.8116 68.3122 35.8207C68.525 35.9549 68.7012 36.1389 68.8253 36.3566C68.8304 36.3652 68.8381 36.3721 68.8472 36.3763C68.8564 36.3805 68.8666 36.3818 68.8766 36.3801C68.8866 36.3784 68.8958 36.3738 68.903 36.3668C68.9102 36.3598 68.9152 36.3508 68.9171 36.341C68.9788 36.0743 68.9171 35.7817 68.7334 35.6841C68.37 35.4903 67.6575 35.3602 67.4305 35.4175C67.3715 35.4305 67.5171 36.0704 67.5578 36.1706ZM68.5812 35.4513C68.5926 35.4528 68.6041 35.4507 68.6142 35.4452C68.6243 35.4397 68.6323 35.4312 68.6371 35.4209C68.642 35.4106 68.6434 35.399 68.6411 35.3879C68.6388 35.3767 68.633 35.3666 68.6245 35.3589C68.4447 35.1909 68.3021 34.9876 68.206 34.7619C68.1627 34.6553 68.3372 34.6097 68.3778 34.7138C68.4776 34.9583 68.6403 35.2809 68.8541 35.4331C68.8725 35.446 68.8949 35.4522 68.9174 35.4505C68.9399 35.4488 68.9612 35.4395 68.9775 35.424C69.1152 35.2939 69.1493 34.9466 68.9866 34.7177C68.8646 34.5447 68.206 34.1974 68.0131 34.1805C67.9711 34.1805 67.8819 35.0038 68.1548 35.2419C68.2764 35.3469 68.4232 35.4191 68.5812 35.4513ZM64.3026 37.1591C64.6398 37.9005 65.7459 38.1997 65.696 37.8094C65.696 37.7964 65.696 37.7821 65.696 37.7691C65.6842 37.6742 65.658 37.5519 65.5648 37.5441C65.263 37.5194 64.8655 37.3698 64.6989 37.1877C64.6228 37.1032 64.7487 36.977 64.8301 37.0576C64.9632 37.1967 65.1319 37.2974 65.3181 37.349C65.3943 37.3757 65.473 37.3948 65.553 37.4062C65.5672 37.4079 65.5816 37.4065 65.5953 37.4022C65.609 37.398 65.6215 37.3909 65.6322 37.3814C65.6429 37.3719 65.6514 37.3603 65.6572 37.3473C65.663 37.3343 65.6659 37.3203 65.6658 37.3061C65.6662 37.2859 65.6596 37.2661 65.6472 37.2501C65.6349 37.234 65.6174 37.2226 65.5976 37.2176C65.2977 37.1341 65.0363 36.9503 64.8576 36.6973C64.7946 36.6011 64.9495 36.5126 65.0124 36.6076C65.1648 36.7915 65.3454 36.9504 65.5478 37.0785C65.679 37.1487 65.679 36.9484 65.7 36.8014V36.7689C65.759 36.3449 64.8406 36.0821 64.1347 35.8584C64.0494 35.8402 64.115 36.7455 64.3026 37.1591ZM65.9125 36.6011C65.9519 36.6011 66.1132 36.6011 66.23 36.5894C66.2417 36.5887 66.2529 36.5851 66.2628 36.5789C66.2726 36.5727 66.2807 36.5641 66.2862 36.5539C66.2917 36.5438 66.2945 36.5324 66.2943 36.5208C66.2941 36.5092 66.291 36.4979 66.2851 36.4879C66.1423 36.2858 66.0374 36.0597 65.9755 35.8207C65.9584 35.7088 66.1303 35.6607 66.1474 35.7739C66.1778 36.0504 66.2855 36.313 66.4583 36.5322C66.4843 36.559 66.5168 36.5788 66.5528 36.5894C66.6446 36.6219 66.8467 36.6115 66.8021 36.5621C66.647 36.3981 66.5341 36.1996 66.4728 35.9833C66.4518 35.8727 66.6236 35.8246 66.6459 35.9364C66.6862 36.1237 66.7648 36.3008 66.8769 36.4567C66.9447 36.5463 67.0448 36.6064 67.1563 36.6245C67.218 36.6349 67.281 36.6453 67.3453 36.6583C67.5237 36.6934 67.3754 35.8714 66.9149 35.5566C66.562 35.316 65.7498 35.0598 65.7275 35.1586C65.6291 35.6139 65.7721 36.5777 65.9125 36.6011ZM71.002 35.939C71.0191 35.9413 71.0366 35.9393 71.0528 35.9333C71.069 35.9273 71.0835 35.9174 71.095 35.9046C71.1065 35.8918 71.1147 35.8764 71.1188 35.8597C71.123 35.843 71.1229 35.8256 71.1187 35.809C71.0557 35.6009 70.7763 35.2887 70.6372 35.1768C70.5506 35.1027 70.6766 34.9778 70.7684 35.0468C70.9558 35.2087 71.0959 35.4176 71.1738 35.6516C71.1775 35.6632 71.1848 35.6734 71.1947 35.6806C71.2046 35.6879 71.2166 35.6918 71.2289 35.6918C71.2412 35.6918 71.2532 35.6879 71.2631 35.6806C71.273 35.6734 71.2804 35.6632 71.284 35.6516C71.3667 35.4318 71.3221 35.0533 70.9035 34.7957C70.7435 34.6969 70.195 34.4536 70.1032 34.4667C70.056 34.4732 70.0455 35.1651 70.1399 35.3563C70.2659 35.6217 70.7199 35.8961 71.002 35.9351V35.939ZM72.789 36.1563C72.6486 36.432 72.7732 36.8677 72.9543 37.0485C72.9845 37.0772 73.0107 37.0654 73.0068 36.9406C72.9905 36.7288 73.0327 36.5165 73.1288 36.3266C73.1852 36.2265 73.3387 36.3162 73.2823 36.4164C73.1967 36.5794 73.1382 36.7551 73.1091 36.9367C73.0885 37.0138 73.0988 37.0959 73.138 37.1656C73.1506 37.1824 73.1686 37.1947 73.189 37.2003C73.2094 37.206 73.2312 37.2047 73.2508 37.1968C73.5132 37.124 73.5919 36.765 73.6444 36.5035C73.6667 36.3917 73.8399 36.4398 73.8163 36.5517C73.772 36.7583 73.6824 36.9528 73.5539 37.1214C73.5489 37.1282 73.5461 37.1364 73.5459 37.1449C73.5457 37.1534 73.5481 37.1617 73.5528 37.1688C73.5575 37.1758 73.5643 37.1813 73.5722 37.1845C73.5802 37.1876 73.5889 37.1883 73.5972 37.1864C73.7282 37.1566 73.8505 37.0971 73.9543 37.0124C74.0582 36.9278 74.1407 36.8204 74.1955 36.6986C74.2781 36.5035 74.0472 35.4461 73.9659 35.2536C73.9449 35.2041 73.7953 35.2861 73.6667 35.3576C73.3348 35.5436 73.0068 35.7283 72.789 36.1524V36.1563ZM71.6632 35.3563C71.6737 35.3615 71.6853 35.364 71.697 35.3637C71.7087 35.3633 71.7201 35.3601 71.7303 35.3543C71.7404 35.3485 71.7489 35.3403 71.7551 35.3305C71.7612 35.3206 71.7648 35.3094 71.7656 35.2978C71.7748 35.1742 71.7315 35.0142 71.7301 34.8907C71.7288 34.7671 71.9086 34.7606 71.9086 34.8738C71.9086 34.9869 71.8771 35.117 71.8705 35.225C71.8698 35.2388 71.8729 35.2525 71.8796 35.2647C71.8862 35.2769 71.8961 35.2871 71.9081 35.294C71.9202 35.301 71.934 35.3046 71.9479 35.3043C71.9619 35.3041 71.9755 35.3 71.9873 35.2926C72.0938 35.2268 72.1807 35.134 72.2388 35.0238C72.2969 34.9136 72.3243 34.7899 72.3179 34.6657C72.2812 34.4302 71.8404 33.9581 71.7931 34.0075C71.6265 34.0986 71.3733 34.6084 71.3549 34.7736C71.3466 34.889 71.3711 35.0044 71.4256 35.1067C71.4801 35.209 71.5624 35.2941 71.6632 35.3524V35.3563ZM69.0772 36.6986C69.1319 36.8204 69.2145 36.9278 69.3183 37.0124C69.4222 37.0971 69.5444 37.1566 69.6755 37.1864C69.6838 37.1883 69.6925 37.1876 69.7004 37.1845C69.7084 37.1813 69.7151 37.1758 69.7198 37.1688C69.7245 37.1617 69.727 37.1534 69.7268 37.1449C69.7266 37.1364 69.7238 37.1282 69.7188 37.1214C69.5903 36.9528 69.5007 36.7583 69.4564 36.5517C69.4327 36.4398 69.6059 36.3917 69.6282 36.5035C69.682 36.7637 69.7594 37.124 70.0218 37.1968C70.0415 37.2047 70.0632 37.206 70.0836 37.2003C70.1041 37.1947 70.122 37.1824 70.1347 37.1656C70.1738 37.0959 70.1842 37.0138 70.1636 36.9367C70.1345 36.7551 70.076 36.5794 69.9904 36.4164C69.9339 36.3162 70.0875 36.2265 70.1439 36.3266C70.24 36.5165 70.2822 36.7288 70.2659 36.9406C70.2659 37.0706 70.2882 37.0772 70.3184 37.0485C70.4994 36.8677 70.6254 36.432 70.4837 36.1563C70.2659 35.7322 69.9379 35.5475 69.602 35.3615C69.4708 35.29 69.3238 35.208 69.3028 35.2575C69.2254 35.4461 68.9932 36.5035 69.0772 36.6986ZM64.6241 35.809C64.8707 35.9872 65.2132 36.0938 65.3772 36.0691C65.396 36.0649 65.4135 36.0561 65.4281 36.0436C65.4427 36.0311 65.454 36.0152 65.461 35.9974C65.468 35.9795 65.4705 35.9602 65.4682 35.9412C65.466 35.9222 65.459 35.9041 65.448 35.8883C65.2915 35.7011 65.0947 35.5509 64.872 35.4487C64.7671 35.4071 64.813 35.2354 64.9206 35.2783C65.1318 35.3615 65.2512 35.5072 65.4257 35.6997C65.5425 35.8298 65.4638 35.3173 65.1489 35.1456C64.691 34.8946 64.0993 35.13 63.9838 35.2497C63.9562 35.2731 64.4273 35.6672 64.6241 35.809ZM72.5489 35.381C72.6269 35.1482 72.767 34.9406 72.9543 34.7801C73.0409 34.706 73.1681 34.8308 73.0855 34.9102C72.9543 35.0273 72.6683 35.3342 72.6053 35.5423C72.6011 35.559 72.601 35.5764 72.6052 35.5931C72.6093 35.6097 72.6175 35.6251 72.629 35.638C72.6405 35.6508 72.655 35.6606 72.6712 35.6666C72.6874 35.6726 72.7049 35.6746 72.7221 35.6724C73.0028 35.6334 73.4581 35.3589 73.5867 35.0962C73.6812 34.905 73.672 34.213 73.6247 34.2065C73.5316 34.1922 72.9831 34.4367 72.8231 34.5356C72.4045 34.7957 72.3612 35.1716 72.4439 35.3914C72.4494 35.4011 72.4577 35.4089 72.4676 35.414C72.4775 35.419 72.4887 35.4211 72.4998 35.42C72.5109 35.4189 72.5214 35.4147 72.5301 35.4077C72.5389 35.4008 72.5454 35.3915 72.5489 35.381ZM77.2499 41.9158C77.0109 41.8119 76.7538 41.7553 76.4929 41.7493C76.6411 41.9886 77.0177 42.1889 77.4113 42.2318C77.7774 42.2734 78.5922 42.3281 78.5541 42.2318C78.3612 41.7024 78.1474 41.2927 77.6278 41.1757C77.3339 41.1106 76.8406 41.0742 76.5847 41.2511C76.9074 41.2167 77.2337 41.2477 77.5438 41.3421C77.5657 41.3492 77.5839 41.3643 77.5948 41.3843C77.6057 41.4043 77.6084 41.4278 77.6023 41.4497C77.5962 41.4716 77.5818 41.4904 77.5622 41.5021C77.5425 41.5138 77.519 41.5176 77.4966 41.5125C77.2766 41.4501 77.0483 41.4216 76.8196 41.428C76.6894 41.4256 76.5596 41.4414 76.4338 41.4748C76.4293 41.5072 76.4293 41.54 76.4338 41.5724C76.7476 41.5706 77.058 41.6353 77.3444 41.7623C77.4454 41.8039 77.3549 41.9613 77.2499 41.9171V41.9158ZM77.5373 61.4262C77.3024 61.222 77.002 60.8734 76.7094 60.7759C76.3158 60.6458 75.8998 60.7902 75.3002 60.9138C74.2703 61.1258 73.5814 60.5691 73.365 60.188C73.1485 59.8069 73.0212 58.086 72.8152 57.3602C72.4623 56.1181 72.5056 55.8892 72.4688 55.417C72.3835 54.3517 72.8716 53.7014 72.6604 52.9015C72.5502 52.4813 72.3442 52.5477 72.2865 52.0157C72.2182 51.3939 72.1946 50.1947 72.2865 47.977C72.3009 47.6011 72.5607 46.7439 72.5738 46.2094C72.5882 45.5486 72.2432 45.559 72.1723 45.1883C72.1224 44.9373 72.1723 44.2986 72.3953 43.7888L72.4137 43.7614C72.6184 43.4636 73.1616 43.2776 73.365 43.1709C73.6506 43.0054 73.9505 42.8653 74.2611 42.7521C74.5104 42.6624 74.5038 42.5154 74.4015 42.5063C74.1077 42.5525 73.8228 42.6429 73.5565 42.7742C73.3588 42.8799 73.1541 42.972 72.9438 43.05C72.827 43.0682 73.0842 42.6845 73.2495 42.5219C73.6261 42.1499 73.8189 41.9613 73.7428 41.9066C73.6418 41.8351 73.2967 42.1239 73.0868 42.3372C72.9477 42.479 72.2536 43.2828 72.2327 43.2789C72.1946 43.2438 72.2655 43.0877 72.3376 42.9446C72.4162 42.7766 72.5149 42.6185 72.6315 42.4738C72.7055 42.3997 72.7679 42.3151 72.8165 42.2227C72.8231 42.2043 72.8233 42.1842 72.8172 42.1656C72.811 42.147 72.7988 42.1309 72.7824 42.12C72.6997 42.0718 72.4557 42.3476 72.3888 42.4282C72.3261 42.5144 72.2563 42.5953 72.1802 42.6702C72.1159 42.6702 72.276 41.9743 72.3625 41.7272C72.4596 41.4475 72.7116 40.8674 72.5659 40.8167C72.5056 40.7959 72.356 40.9467 72.0411 41.8312C71.965 42.0497 71.8102 42.4425 71.7236 42.3606C71.6724 42.3112 71.553 41.9379 71.3916 41.6491C71.2498 41.3901 71.0689 41.1541 70.855 40.9493C70.7658 40.8973 70.6661 41.043 70.7855 41.2004C71.0085 41.4956 71.1961 41.6621 71.2709 42.2136C71.2939 42.4363 71.2939 42.6608 71.2709 42.8835C71.2617 42.8965 71.2486 42.8835 71.2316 42.8275C71.1076 42.58 70.9678 42.3406 70.813 42.1109C70.6083 41.7935 70.4561 41.8507 70.4483 41.9457C70.4404 42.0406 70.5362 42.1577 70.6621 42.3866C70.8642 42.7495 70.9429 43.206 70.8668 43.167C70.8303 43.147 70.7926 43.1292 70.754 43.1137C70.7094 43.0825 70.6582 43.05 70.5978 43.0122C70.3618 42.835 70.1481 42.6301 69.9615 42.4022C69.7844 42.1421 69.7634 41.9105 69.6309 41.9574C69.5561 41.9847 69.5128 42.1603 69.728 42.5011C69.7844 42.5908 69.85 42.6884 69.9195 42.782C69.7044 42.6877 69.4825 42.6095 69.2556 42.5479C68.963 42.4842 68.9709 42.6519 69.1244 42.717C69.3278 42.8054 69.8316 43.007 70.0756 43.1384C70.8104 43.5286 70.8629 43.4935 70.9035 43.9188C70.9035 44.2193 70.9035 44.6108 70.9127 44.7487C70.9292 45.7685 70.8902 46.7884 70.796 47.804C70.7513 48.0472 70.4916 48.2098 70.4378 48.656C70.3486 49.387 70.6516 49.915 70.7618 50.3677C70.8603 50.7761 70.8196 52.9366 70.8209 53.3866C70.8274 54.7523 70.8904 55.9438 70.6608 56.3626C70.4916 56.6709 70.195 57.1339 70.1006 58.2304C70.0612 58.6909 69.9458 59.2255 69.7411 59.561C69.1533 60.5275 68.7898 60.6263 68.2007 60.6094C67.525 60.5899 67.3741 60.5314 66.9648 60.5743C66.6578 60.6068 66.272 60.9645 65.9545 61.2337C65.637 61.503 65.2092 61.5498 65.1673 61.6513C65.1017 61.7956 65.5819 61.6643 65.9702 61.4614C66.2445 61.317 66.6158 60.9515 66.9438 60.9281C67.4043 60.8942 67.7572 60.9957 68.3254 61.0503C69.106 61.1258 69.7686 60.6718 70.0914 60.2205C70.1517 60.1372 70.2331 60.1698 70.2095 60.2465C70.1465 60.4481 69.8578 61.0711 69.5259 61.0972C68.9853 61.1401 68.7006 61.2741 68.2755 61.5823C67.9396 61.8255 67.6195 62.0441 67.6405 62.113C67.6615 62.1819 67.8229 62.0389 68.1561 61.8685C68.5865 61.6487 69.0391 61.4093 69.3816 61.4119C69.577 61.4261 69.7724 61.3837 69.944 61.29C70.1156 61.1962 70.2562 61.0552 70.3485 60.8838C70.6634 60.3727 70.6595 59.7548 70.7225 59.4635C70.7527 59.3204 70.8537 59.3256 70.8681 59.4804C70.9021 59.9015 70.8513 60.325 70.7185 60.7265C70.6374 61.0174 70.4772 61.2806 70.2554 61.4874C70.1163 61.6174 69.9772 61.6526 69.7896 61.793C69.5716 61.9598 69.39 62.1687 69.2556 62.407C69.1139 62.6307 69.0116 62.8713 69.0509 62.9103C69.1231 62.9806 69.2845 62.6502 69.3776 62.5201C69.4982 62.3185 69.6689 62.151 69.8736 62.0337C70.0455 61.9504 70.1491 61.9036 70.3354 61.8151C70.5552 61.7043 70.7424 61.539 70.8786 61.3352C71.0041 61.1592 71.0904 60.9588 71.1318 60.7473C71.1423 60.6965 71.145 60.6575 71.1686 60.6562C71.1922 60.6549 71.2198 60.7746 71.2342 60.8695C71.3155 61.4093 71.1633 62.0324 70.9941 62.2821C70.75 62.6411 70.6753 62.7712 70.6372 62.9389C70.4784 63.6413 71.4494 63.7337 71.4874 63.6842C71.5412 63.6127 71.3483 63.5542 71.2119 63.5047C70.7658 63.3357 70.8826 63.0417 70.9495 62.9155C71.1437 62.5656 71.41 62.3835 71.7459 61.9556C71.9119 61.701 71.9893 61.3995 71.9663 61.0972C71.9571 60.9411 71.8915 60.5275 71.9558 60.5235C71.9991 60.5235 72.0122 60.6159 72.0227 60.6601C72.0938 60.9835 72.2221 61.2918 72.4019 61.5706C72.6105 61.8386 73.0055 62.0467 73.2836 62.1741C73.5618 62.3016 73.8635 62.3276 73.8583 62.26C73.853 62.1923 73.567 62.1663 73.2928 61.992C72.3297 61.3833 72.2943 60.1411 72.2707 60.0059C72.2471 59.8706 72.2891 59.8381 72.3166 59.9226C72.4833 60.4182 72.5292 60.5157 72.7325 60.8084C73.117 61.3625 73.7428 61.5433 74.2637 61.5433C75.0916 61.5433 75.9379 60.9437 76.6254 61.0633C76.9364 61.1167 77.0794 61.3703 77.2932 61.5082C77.6514 61.7384 78.0805 61.7514 78.1211 61.7033C78.2143 61.5745 77.7721 61.6343 77.5373 61.4301V61.4262ZM69.745 60.1841C69.5705 60.331 69.3317 60.3649 69.3881 60.3141C69.5346 60.2274 69.6647 60.1161 69.7726 59.9851C69.8906 59.8316 70.0035 59.5831 70.0638 59.5948C70.1242 59.6066 69.9956 59.9773 69.745 60.188V60.1841ZM70.8917 56.9193C70.8063 57.0674 70.7439 57.2275 70.7067 57.3941C70.6942 57.508 70.674 57.621 70.6464 57.7323C70.611 57.8038 70.5559 57.8753 70.4955 57.8233C70.3538 57.6932 70.4955 57.2445 70.544 57.0897C70.565 57.0273 70.6241 56.8465 70.7658 56.8009C70.8537 56.7762 70.9285 56.84 70.8917 56.9232V56.9193ZM70.935 48.3672C70.8701 48.4808 70.8349 48.6087 70.8327 48.7392C70.8432 48.8693 70.8747 48.9356 70.8458 48.9837C70.817 49.0319 70.7487 49.0423 70.6923 48.9837C70.5887 48.8732 70.5978 48.6117 70.6438 48.4921C70.6674 48.4283 70.7382 48.2319 70.855 48.2137C70.9285 48.2046 70.9613 48.3074 70.935 48.3711V48.3672ZM72.1238 46.026C72.0883 45.9232 72.0358 45.8634 72.0201 45.797C72.0004 45.7047 72.0647 45.667 72.1408 45.6865C72.2497 45.7216 72.3481 45.9635 72.3573 46.0871C72.3636 46.1266 72.3618 46.167 72.3521 46.2059C72.3424 46.2448 72.325 46.2813 72.3009 46.3134C72.2916 46.3217 72.2806 46.3279 72.2687 46.3316C72.2567 46.3354 72.2441 46.3365 72.2317 46.3351C72.2193 46.3336 72.2073 46.3295 72.1966 46.3231C72.1859 46.3166 72.1767 46.308 72.1697 46.2978C72.1146 46.2406 72.1631 46.1469 72.1238 46.0325V46.026ZM72.4163 53.4399C72.3573 53.4777 72.293 53.4803 72.2615 53.423C72.2169 53.345 72.3573 53.2435 72.2838 53.0679C72.2523 52.9888 72.2146 52.9123 72.171 52.839C72.1303 52.7636 72.209 52.6543 72.3245 52.7389C72.3891 52.7935 72.4408 52.8616 72.4759 52.9382C72.5111 53.0149 72.5288 53.0982 72.5279 53.1824C72.5309 53.2327 72.5224 53.283 72.5031 53.3296C72.4838 53.3762 72.4541 53.4179 72.4163 53.4516V53.4399ZM73.5053 61.023C73.201 60.8929 72.991 60.7395 72.8874 60.5248C72.7837 60.3102 72.7273 59.9773 72.7929 59.959C72.8585 59.9408 72.9333 60.2946 73.092 60.5196C73.2139 60.6901 73.3698 60.834 73.55 60.9424C73.6182 60.9866 73.8491 61.0542 73.8334 61.0802C73.8176 61.1063 73.5854 61.0672 73.5053 61.0347V61.023ZM81.6007 39.1505C81.5958 39.1554 81.5925 39.1616 81.5911 39.1684C81.5898 39.1752 81.5905 39.1822 81.5931 39.1886C81.5958 39.195 81.6003 39.2004 81.6061 39.2043C81.6119 39.2082 81.6187 39.2103 81.6256 39.2103C81.7758 39.205 81.9247 39.2391 82.0573 39.3092C82.0764 39.3216 82.0899 39.3409 82.0951 39.363C82.1003 39.3852 82.0967 39.4084 82.085 39.4279C82.0734 39.4475 82.0547 39.4618 82.0326 39.4681C82.0106 39.4743 81.987 39.4719 81.9668 39.4613C81.829 39.3833 81.4957 39.2389 81.3895 39.4717C81.333 39.6317 81.358 39.8112 81.7293 39.8424C81.8447 39.8528 82.7173 40.0063 82.7789 39.9894C82.8406 39.9725 82.7107 39.516 82.3709 39.1986C82.2738 39.1179 81.9287 38.8318 81.6007 39.1622V39.1505ZM83.2591 38.5573C83.0835 38.3767 82.8625 38.2456 82.6189 38.1775C82.2725 38.1034 82.1216 38.279 82.0547 38.3974C81.9733 38.5417 82.422 38.3674 82.5887 38.4065C82.7015 38.4338 82.653 38.6042 82.5414 38.5782C82.4011 38.5403 82.2538 38.5349 82.1111 38.5626C82.0957 38.5667 82.0814 38.5742 82.0692 38.5844C82.0571 38.5947 82.0473 38.6074 82.0407 38.6218C82.034 38.6362 82.0307 38.6519 82.0308 38.6677C82.031 38.6836 82.0346 38.6992 82.0416 38.7134C82.0795 38.7853 82.1359 38.8461 82.2049 38.8897C82.274 38.9333 82.3534 38.9582 82.4352 38.9619C82.7697 38.9905 83.3641 38.6822 83.2591 38.5691V38.5573ZM81.606 50.5186C81.3584 50.5915 81.1228 50.6997 80.9066 50.8398C79.836 51.658 80.0997 52.9912 80.0997 52.9912C80.2034 54.1306 80.8869 55.0593 80.4422 55.7084C80.3647 55.8215 80.1194 55.828 80.105 55.7383C79.9961 55.0593 79.2534 53.9004 79.2534 53.9004C79.0724 53.5752 78.7536 53.2748 78.7575 52.8989C78.7575 52.3435 78.995 52.216 79.1196 51.6385C79.1852 51.338 79.0829 50.5394 79.2036 50.3612C80.1351 48.9824 80.185 48.0199 79.9186 47.2161C79.8412 46.9833 79.7022 46.8688 79.7533 46.6659C79.8701 46.2094 79.8478 45.6566 79.6825 45.7554C79.5654 45.8329 79.4294 45.8778 79.2889 45.8855C79.1626 45.872 79.0349 45.8844 78.9136 45.9219C78.789 45.9661 78.7535 45.9986 78.747 45.9882C78.7404 45.9778 78.9241 45.7567 79.1406 45.7359C79.0973 45.6253 79.0212 45.468 78.9097 45.4354C78.8979 45.4354 78.8677 45.4159 78.8572 45.4354C78.726 45.6956 78.7116 45.8087 78.5948 45.8582C78.5542 45.8692 78.513 45.8778 78.4715 45.8842C78.0345 46.0221 77.7603 46.2744 77.4914 46.3251C77.4021 46.342 77.2762 46.2588 77.2709 46.4396C77.266 46.5248 77.2781 46.6101 77.3064 46.6906C77.4651 47.2239 78.1028 47.5036 78.1028 47.5036C78.2222 47.7468 78.0897 48.2931 78.0897 48.2931C77.3588 48.7691 77.1266 49.3024 76.9587 49.5326C76.8786 49.6757 76.7684 49.6523 76.565 49.8058C76.4481 49.8964 76.3455 50.0038 76.2607 50.1245C76.2042 50.1973 76.1294 49.9944 76.6713 49.5417C76.6584 49.4896 76.6408 49.4387 76.6188 49.3896C76.3696 48.9564 75.7332 47.8508 75.6505 47.7429C75.5075 47.5582 75.4419 47.6128 75.0785 47.2486C74.9132 47.0834 74.9119 46.969 74.8266 46.9469C74.7413 46.9247 74.5642 46.9364 74.3739 46.9156C74.1994 46.8961 74.1194 46.9039 74.0997 46.9351C74.0682 46.9872 74.1233 47.1693 74.2086 47.3006C74.4933 47.7377 75.2333 48.0524 75.2491 48.0811C75.2648 48.1097 75.3566 48.5922 75.3803 48.6898C75.6427 49.5912 75.8014 49.6588 75.8067 50.2025C75.8226 50.3715 75.8107 50.542 75.7713 50.7072C75.8235 50.721 75.8765 50.7318 75.93 50.7397C76.5244 50.8359 77.2316 50.5706 77.2053 50.6955C77.1909 50.7696 76.9311 50.8529 76.468 50.8815C76.2 50.898 75.9311 50.8884 75.665 50.8529C75.665 50.8529 75.6571 50.8529 75.665 50.8529C75.6729 50.8529 74.9342 50.7488 74 50.6278C73.832 50.6057 73.6772 50.8333 73.3571 51.1845C73.0947 51.4668 72.8769 51.4798 72.8572 51.6099C72.8086 51.9233 72.7522 52.0235 72.7942 52.1301C72.8231 52.2082 73.1629 52.095 73.281 52.03C73.7376 51.7816 74.0223 51.2496 74.0748 51.2834C74.37 51.4551 75.2845 51.723 75.7555 51.8349C75.9392 51.8778 76.1426 51.8349 76.1294 51.9558C75.9746 53.2982 77.1332 54.3634 77.4139 54.7836C77.4389 54.82 77.4205 54.8837 77.3877 54.8785C77.2132 54.8486 76.115 54.6691 75.6702 55.0775C75.3881 55.3377 75.4524 55.9035 75.5849 56.2312C75.7726 56.6995 76.0258 56.8712 76.304 57.3915C76.3879 57.5475 76.6215 57.809 76.4771 58.2512C76.3328 58.6935 75.8828 59.0551 75.2963 59.2918C75.1493 59.3503 74.8882 59.2645 74.7912 59.3971C74.66 59.5818 74.5432 59.9174 74.635 59.9395C74.7059 59.9538 75.291 59.976 75.4288 59.8602C75.6348 59.6859 76.6858 59.2098 77.1214 58.458C77.3838 58.0132 76.8117 58.0093 77.0007 57.2874C77.1187 56.8322 77.8509 56.507 77.8181 56.1818C77.8023 56.0387 77.8482 56.0778 77.8653 56.0882C78.0765 56.2182 77.7734 56.8972 77.9558 57.5723C78.112 58.1485 78.7431 58.7559 79.3138 59.3022C79.3528 59.3394 79.3844 59.3835 79.407 59.4323C79.4557 59.5389 79.4645 59.6592 79.4319 59.7717C79.2836 60.3323 78.8926 61.1115 78.6814 61.209C78.6381 61.2285 78.398 61.2649 78.3389 61.3898C78.3206 61.4301 78.1972 61.6695 78.2563 61.7163C78.3875 61.819 79.054 61.7527 79.1445 61.6838C79.1674 61.6636 79.1861 61.6394 79.1996 61.6122C79.3886 61.2519 80.4159 59.3646 80.042 58.9172C79.9108 58.7663 79.7796 59.0173 79.5657 58.7793C79.5027 58.7065 79.4594 58.4762 79.4857 58.1381C79.4896 58.0473 79.5192 57.9594 79.571 57.8844C80.0853 57.355 80.2729 56.8374 80.269 56.2924C80.269 56.2403 80.4618 56.1974 80.5222 56.2482C80.6188 56.3397 80.7371 56.4057 80.8662 56.44C80.9953 56.4743 81.131 56.4759 81.2609 56.4446C81.7424 56.3834 82.3105 55.8293 82.4483 54.8473C82.5611 54.0513 82.4995 53.5817 81.4223 51.9207C80.904 51.1468 81.606 50.5186 81.606 50.5186ZM79.5132 46.1066C79.3741 46.3342 79.3899 46.3355 79.3912 46.463C79.3912 46.5072 79.365 46.5579 79.3138 46.5527C79.2655 46.5341 79.2219 46.5051 79.1863 46.4677C79.1507 46.4304 79.1239 46.3857 79.1078 46.3368C79.096 46.1612 79.5591 46.0299 79.5132 46.1066ZM79.2272 47.3787C79.3466 47.2811 79.3768 47.1068 79.4293 47.1185C79.4817 47.1303 79.5395 47.4333 79.3348 47.5387C79.2632 47.5731 79.1835 47.5872 79.1043 47.5797C79.0252 47.5721 78.9497 47.5431 78.8861 47.4957C78.8533 47.4385 79.0829 47.4997 79.2272 47.3787ZM77.6265 52.2498C77.5302 52.2712 77.4302 52.2712 77.3339 52.2498C77.2854 52.242 77.1883 52.2095 77.2027 52.1653C77.2171 52.121 77.4153 52.1744 77.5307 52.0859C77.6239 52.0144 77.6199 51.8687 77.6619 51.8752C77.7039 51.8817 77.7157 51.9636 77.7183 51.9741C77.7354 52.0794 77.7367 52.2095 77.6265 52.2498ZM78.2602 46.6009C78.2155 46.5732 78.1835 46.5293 78.171 46.4786C78.1441 46.469 78.1196 46.4539 78.0988 46.4344C78.066 46.4071 78.0582 46.3876 78.0595 46.3837C78.0608 46.3797 78.0687 46.3693 78.1172 46.3706C78.1464 46.3711 78.1746 46.3604 78.1959 46.3407C78.2252 46.3044 78.2671 46.2801 78.3134 46.2726C78.3597 46.2652 78.4072 46.2751 78.4465 46.3004C78.5266 46.3498 78.5961 46.4669 78.6748 46.5345C78.6893 46.5462 78.4255 46.7075 78.2602 46.6009ZM60.9739 37.8862C61.0789 37.7691 60.7115 37.8615 60.6092 37.8107C60.5069 37.76 60.5961 37.6091 60.6997 37.6586C60.8034 37.708 60.9871 37.7886 61.05 37.6937C61.113 37.5987 60.9359 37.4622 60.6053 37.388C60.4322 37.3582 60.2629 37.3103 60.1001 37.2449C60.0857 37.2384 60.129 37.6352 60.2536 37.7717C60.4649 37.9941 60.7994 38.0579 60.9739 37.8849V37.8862ZM65.9597 57.29C66.1487 58.0171 65.5819 58.021 65.839 58.4606C66.2746 59.2137 67.3256 59.6885 67.5316 59.8628C67.6628 59.9786 68.2545 59.9564 68.3267 59.9421C68.3988 59.9278 68.3044 59.5844 68.1692 59.3997C68.0721 59.2697 67.811 59.3529 67.6641 59.2944C67.075 59.0616 66.6302 58.7182 66.4832 58.2538C66.3363 57.7895 66.5725 57.5501 66.6564 57.3941C66.9346 56.8738 67.1813 56.7021 67.3768 56.2338C67.508 55.9061 67.5722 55.3403 67.2902 55.0801C66.8454 54.6717 65.7472 54.8512 65.5727 54.8811C65.5399 54.8811 65.5228 54.8226 65.5464 54.7862C65.8272 54.366 66.9897 53.3008 66.8309 51.9584C66.8178 51.8375 67.0212 51.8804 67.2049 51.8375C67.6772 51.7256 68.5904 51.4577 68.8856 51.286C68.9381 51.2561 69.2228 51.7842 69.6794 52.0326C69.7975 52.0976 70.1373 52.2108 70.1675 52.1327C70.2082 52.0235 70.1517 51.9233 70.1032 51.6125C70.0835 51.4824 69.8618 51.4694 69.6033 51.1871C69.2832 50.8359 69.1283 50.6083 68.9617 50.6304C68.0262 50.7514 67.2954 50.8555 67.2954 50.8555C67.0293 50.891 66.7604 50.9006 66.4924 50.8841C66.0293 50.8555 65.7708 50.7722 65.7551 50.6981C65.7288 50.568 66.436 50.8385 67.0304 50.7423C67.0839 50.7344 67.1369 50.7236 67.1891 50.7098C67.1497 50.5446 67.1378 50.3741 67.1537 50.2051C67.1603 49.6614 67.323 49.5938 67.5801 48.6924C67.6077 48.5948 67.693 48.1331 67.7113 48.0837C67.7297 48.0342 68.4671 47.7338 68.7518 47.3032C68.8371 47.1732 68.8935 46.9898 68.8607 46.9377C68.841 46.9065 68.761 46.8987 68.5878 46.9182C68.391 46.939 68.2348 46.9182 68.1351 46.9495C68.0354 46.9807 68.0472 47.0795 67.8832 47.2512C67.5185 47.6154 67.4529 47.5608 67.3098 47.7455C67.2272 47.8534 66.5908 48.959 66.3415 49.3922C66.3196 49.4413 66.302 49.4922 66.2891 49.5443C66.8309 50.0009 66.7562 50.1947 66.6997 50.1271C66.6149 50.0064 66.5123 49.899 66.3953 49.8084C66.1893 49.6549 66.0791 49.6783 66.0017 49.5352C65.8325 49.305 65.6002 48.7717 64.8694 48.2957C64.8694 48.2957 64.7382 47.7494 64.8563 47.5062C64.8563 47.5062 65.4953 47.2265 65.6527 46.6932C65.681 46.6127 65.6931 46.5274 65.6881 46.4422C65.6881 46.2614 65.5569 46.3446 65.4677 46.3277C65.1987 46.2796 64.9245 46.0247 64.4876 45.8868C64.446 45.8804 64.4049 45.8718 64.3643 45.8608C64.2423 45.8113 64.2252 45.6917 64.1019 45.438C64.0914 45.4185 64.0612 45.438 64.0494 45.438C63.9379 45.4706 63.8618 45.6279 63.8185 45.7385C64.031 45.7593 64.2239 45.9661 64.2121 45.9908C64.2003 46.0156 64.1701 45.9687 64.0455 45.9245C63.9242 45.887 63.7965 45.8746 63.6702 45.8881C63.5296 45.8804 63.3937 45.8355 63.2766 45.758C63.1113 45.6631 63.089 46.2159 63.2057 46.6685C63.2582 46.8714 63.1178 46.9859 63.0404 47.2187C62.778 48.0212 62.8239 48.985 63.7555 50.3638C63.8762 50.542 63.7739 51.3406 63.8395 51.6411C63.9641 52.2186 64.1977 52.3461 64.2029 52.9015C64.2029 53.2774 63.8867 53.5778 63.7056 53.903C63.7056 53.903 62.963 55.0619 62.8541 55.7409C62.8397 55.8306 62.5917 55.8241 62.5169 55.711C62.0721 55.0606 62.7557 54.1332 62.8594 52.9938C62.8594 52.9938 63.1218 51.6606 62.0525 50.8424C61.8363 50.7023 61.6007 50.5941 61.3531 50.5212C61.3531 50.5212 62.0551 51.1468 61.5526 51.9194C60.4754 53.5804 60.4137 54.05 60.5265 54.846C60.6577 55.828 61.2324 56.3821 61.7074 56.4433C61.8357 56.4716 61.9691 56.4681 62.0957 56.4329C62.2223 56.3977 62.3382 56.332 62.4329 56.2416C62.4946 56.1909 62.6862 56.2338 62.6862 56.2859C62.6862 56.8309 62.8699 57.3485 63.3842 57.8779C63.4365 57.9526 63.4661 58.0407 63.4695 58.1316C63.497 58.4697 63.4524 58.7 63.3894 58.7728C63.1808 59.0108 63.0391 58.7598 62.9132 58.9107C62.5392 59.3581 63.5692 61.2454 63.7555 61.6057C63.7691 61.6329 63.7878 61.6571 63.8106 61.6773C63.9011 61.7462 64.5729 61.8073 64.6989 61.7098C64.7579 61.663 64.6346 61.4236 64.6162 61.3833C64.5572 61.2532 64.3184 61.222 64.2738 61.2025C64.0625 61.105 63.6715 60.3258 63.5233 59.7652C63.4913 59.6527 63.5001 59.5326 63.5482 59.4258C63.5707 59.377 63.6023 59.3329 63.6413 59.2957C64.2108 58.7494 64.8432 58.142 64.9993 57.5658C65.1817 56.8907 64.8786 56.2117 65.0898 56.0817C65.1069 56.0713 65.1528 56.0322 65.1371 56.1753C65.1082 56.5018 65.8443 56.8335 65.9584 57.2887L65.9597 57.29ZM63.8368 46.3381C63.8208 46.387 63.7939 46.4317 63.7583 46.469C63.7227 46.5064 63.6792 46.5354 63.6308 46.554C63.5797 46.554 63.5521 46.5085 63.5534 46.4643C63.5534 46.3342 63.5705 46.3342 63.4314 46.1079C63.3842 46.0299 63.8434 46.1612 63.8355 46.3368L63.8368 46.3381ZM64.056 47.4905C63.9923 47.5379 63.9168 47.5669 63.8377 47.5745C63.7585 47.582 63.6788 47.5679 63.6072 47.5335C63.4026 47.4281 63.4432 47.1198 63.5141 47.1133C63.5652 47.1133 63.5954 47.2824 63.7148 47.3735C63.8605 47.4997 64.0901 47.4385 64.0546 47.4892L64.056 47.4905ZM64.6844 46.6022C64.5191 46.7088 64.2554 46.5475 64.2698 46.5358C64.3485 46.4682 64.4181 46.3511 64.4981 46.3017C64.5374 46.2761 64.5849 46.266 64.6313 46.2735C64.6777 46.2809 64.7196 46.3054 64.7487 46.342C64.7701 46.3617 64.7983 46.3724 64.8274 46.3719C64.876 46.3719 64.8825 46.3797 64.8852 46.385C64.8878 46.3902 64.8852 46.4084 64.8458 46.4357C64.8253 46.4554 64.8007 46.4705 64.7736 46.4799C64.7605 46.5304 64.728 46.5738 64.6831 46.6009L64.6844 46.6022ZM65.2276 51.9806C65.2276 51.9702 65.2447 51.8882 65.2827 51.8817C65.3208 51.8752 65.3234 52.0209 65.4139 52.0924C65.5294 52.1809 65.7249 52.1119 65.7419 52.1718C65.759 52.2316 65.658 52.2485 65.6107 52.2563C65.5144 52.2777 65.4145 52.2777 65.3181 52.2563C65.2066 52.2095 65.2079 52.0794 65.2263 51.9793L65.2276 51.9806ZM61.4227 37.6039C61.836 37.7821 62.3135 37.7223 62.5143 37.3854C62.5471 37.3295 62.5563 37.2007 62.492 37.2163C62.206 37.2853 61.836 37.3542 61.5736 37.2671C61.4647 37.2319 61.5119 37.0602 61.6208 37.0967C61.9024 37.1778 62.2008 37.1837 62.4854 37.1136C62.6061 37.0811 62.6166 36.9315 62.5733 36.817C62.4421 36.4801 61.9475 36.4788 61.7297 36.5035C61.3033 36.5517 60.6367 36.9094 60.5764 36.9575C60.82 37.2202 61.1082 37.4385 61.4279 37.6026L61.4227 37.6039ZM61.2298 38.7264C61.2367 38.7122 61.2404 38.6966 61.2405 38.6807C61.2407 38.6649 61.2373 38.6492 61.2307 38.6349C61.224 38.6205 61.2143 38.6077 61.2021 38.5974C61.19 38.5872 61.1757 38.5797 61.1603 38.5756C61.0175 38.5479 60.8702 38.5533 60.7299 38.5912C60.6184 38.6172 60.5698 38.4468 60.6827 38.4195C60.8493 38.3805 61.298 38.5495 61.2167 38.4104C61.1498 38.292 60.9989 38.1164 60.6525 38.1906C60.4088 38.2586 60.1879 38.3897 60.0122 38.5704C59.9072 38.6848 60.5042 38.9918 60.8414 38.9749C60.9233 38.971 61.0028 38.946 61.0719 38.9021C61.141 38.8583 61.1972 38.7973 61.235 38.7251L61.2298 38.7264ZM63.1808 36.9809C63.3349 37.0475 63.5008 37.0829 63.6689 37.085C63.7857 37.0772 63.9654 37.098 63.9313 36.9874C63.871 36.8053 63.5482 36.54 63.3711 36.4567C63.2674 36.4086 63.3579 36.2564 63.4616 36.3045C63.6886 36.4099 63.7607 36.6388 63.9497 36.8131C63.9785 36.8391 63.9995 36.7507 63.9995 36.7039C63.9995 36.4346 63.8552 36.0535 63.5167 35.9846C63.2136 35.9195 62.8948 36.0197 62.5983 36.1146C62.5891 36.1224 62.7111 36.791 63.1861 36.9796L63.1808 36.9809ZM73.8885 39.2779C73.8878 39.2868 73.8899 39.2956 73.8945 39.3032C73.8992 39.3109 73.906 39.3169 73.9143 39.3204C73.9225 39.324 73.9316 39.325 73.9404 39.3232C73.9491 39.3214 73.9571 39.3169 73.9633 39.3105C74.1325 39.131 74.3569 38.9202 74.5458 38.8838C74.6586 38.8591 74.7059 39.0295 74.593 39.0555C74.4397 39.0979 74.2986 39.1754 74.1811 39.2818C74.1456 39.3105 74.1089 39.343 74.0722 39.3781C74.0597 39.3907 74.0506 39.4063 74.0458 39.4234C74.041 39.4404 74.0406 39.4584 74.0447 39.4756C74.0487 39.4929 74.0571 39.5088 74.069 39.522C74.0809 39.5352 74.096 39.5452 74.1128 39.5511C74.366 39.633 74.7098 39.5043 74.9001 39.2909C75.0903 39.0776 75.2766 38.5365 75.1835 38.5365C75.0129 38.5365 74.4054 38.5964 74.1338 38.7564C73.979 38.8474 73.8976 39.1049 73.8937 39.2766L73.8885 39.2779ZM74.4133 35.4344C74.635 35.2809 74.7977 34.9583 74.8974 34.7138C74.9394 34.6097 75.1126 34.6553 75.0693 34.7619C74.9735 34.9875 74.8314 35.1908 74.6521 35.3589C74.6436 35.3666 74.6378 35.3767 74.6355 35.3879C74.6332 35.399 74.6346 35.4106 74.6394 35.4209C74.6443 35.4312 74.6523 35.4397 74.6624 35.4452C74.6724 35.4507 74.684 35.4528 74.6954 35.4513C74.8529 35.4189 74.9993 35.3467 75.1205 35.2419C75.3947 35.0038 75.3042 34.1753 75.2622 34.1805C75.0693 34.2 74.4107 34.5447 74.2886 34.7177C74.1259 34.9466 74.1574 35.2913 74.2978 35.424C74.3144 35.4391 74.3358 35.448 74.3583 35.4492C74.3808 35.4504 74.403 35.4437 74.4212 35.4305L74.4133 35.4344ZM80.6573 42.8536C80.8056 42.8445 80.5406 42.2943 80.2637 42.0992C80.143 42.0133 79.7127 41.839 79.4004 41.934C79.3663 41.9444 79.3033 42.0172 79.3374 42.0263C79.5329 42.077 79.7835 42.1564 79.8924 42.2643C79.9724 42.3463 79.8452 42.4725 79.7612 42.3944C79.5899 42.241 79.3699 42.1518 79.1393 42.1421C79.1042 42.1453 79.0705 42.1567 79.0408 42.1755C79.0111 42.1943 78.9864 42.2198 78.9687 42.25C78.8375 42.5102 79.0396 42.743 79.2771 42.8484C79.588 42.981 80.0997 42.8861 80.6573 42.8536ZM73.7507 37.2983C73.3203 37.4648 73.2429 37.933 73.3072 38.2608C73.3084 38.2681 73.312 38.2749 73.3175 38.28C73.323 38.2851 73.33 38.2883 73.3375 38.289C73.345 38.2898 73.3525 38.288 73.3589 38.2841C73.3653 38.2802 73.3702 38.2743 73.3728 38.2673C73.4618 38.0569 73.5773 37.8584 73.7166 37.6768C73.7887 37.5883 73.9147 37.7145 73.8478 37.8068C73.6785 38.015 73.3807 38.292 73.4542 38.5626C73.4588 38.5794 73.4684 38.5944 73.4817 38.6058C73.495 38.6172 73.5115 38.6243 73.529 38.6263C73.665 38.6045 73.7873 38.5313 73.8701 38.4221C74.0129 38.2868 74.1483 38.1439 74.2755 37.9941C74.349 37.907 74.475 38.0332 74.4067 38.1242C74.2442 38.2766 74.0729 38.4195 73.8937 38.5521C73.8412 38.6016 73.853 38.6198 73.9252 38.6094C74.1509 38.5769 74.555 38.465 74.6481 38.3492C75.005 37.9343 75.0418 37.2137 74.9985 37.0342C74.9932 37.0173 74.5406 36.9913 73.7507 37.2983ZM78.4557 37.9577C78.1736 38.0514 77.6212 38.3284 77.3562 38.7043C77.0741 39.1049 77.0715 39.6799 77.2657 39.659C77.3011 39.659 77.3313 39.659 77.3641 39.659C77.3641 39.659 77.3641 39.659 77.3641 39.6525C77.6433 39.4139 77.821 39.0793 77.8614 38.716C77.881 38.6042 78.0529 38.6523 78.0332 38.7642C77.9886 39.1002 77.8422 39.415 77.6134 39.6668C77.6895 39.6746 77.7616 39.6877 77.8325 39.702C77.942 39.636 78.0354 39.5469 78.1062 39.441C78.1769 39.3351 78.2233 39.215 78.2418 39.0893C78.2523 38.9762 78.4308 38.9749 78.4216 39.0893C78.3907 39.3478 78.2611 39.5847 78.0595 39.7514C78.1781 39.7778 78.2981 39.7974 78.419 39.8099C78.5712 39.8242 78.9071 39.3872 78.7076 38.9515C78.6079 38.7134 78.4728 37.9512 78.4557 37.9577ZM77.6094 40.6632C77.3887 40.6652 77.1713 40.7164 76.9731 40.8128C76.9609 40.8204 76.951 40.8311 76.9445 40.8438C76.9379 40.8566 76.935 40.8708 76.9359 40.8851C76.9369 40.8993 76.9417 40.913 76.9498 40.9248C76.958 40.9366 76.9692 40.946 76.9823 40.9519C77.2588 41.0506 77.5621 41.0455 77.8351 40.9376C78.1172 40.831 78.6893 40.0701 78.5974 40.0427C78.335 39.966 77.5137 39.7319 77.0951 39.8593C76.8065 39.9465 76.5493 40.5656 76.6844 40.4434C76.775 40.3627 77.1135 40.0896 77.3326 40.0427C77.4441 40.018 77.4927 40.1897 77.3798 40.2131C77.1253 40.2678 76.7054 40.5344 76.6831 40.6879C76.6739 40.7503 76.7041 40.7932 76.7356 40.7763C76.9219 40.6801 77.3562 40.4941 77.6094 40.4863C77.7236 40.4824 77.7236 40.6593 77.6094 40.6632ZM81.3672 41.1665C81.1546 40.8076 80.7111 40.4551 80.1338 40.6177C80.0761 40.6333 80.0118 40.7282 80.0708 40.7412C80.2694 40.7755 80.4601 40.8451 80.6337 40.9467C80.7256 41.0144 80.6337 41.1679 80.5445 41.0989C80.3305 40.9508 80.076 40.8709 79.815 40.87C79.7834 40.871 79.7534 40.8839 79.7312 40.9062C79.709 40.9285 79.6963 40.9583 79.6956 40.9897C79.6956 41.2498 79.9685 41.5711 80.3333 41.6218C80.698 41.6725 81.2832 41.6725 81.5928 41.8377C81.6781 41.8845 81.4577 41.3161 81.3672 41.1665ZM75.4446 40.5994C75.4371 40.6029 75.431 40.6086 75.4271 40.6157C75.4232 40.6229 75.4217 40.6311 75.4229 40.6391C75.4241 40.6471 75.4279 40.6546 75.4337 40.6603C75.4394 40.6661 75.4469 40.6698 75.4551 40.671C75.7906 40.7058 76.1269 40.6128 76.3958 40.4108C76.6753 40.1507 76.9337 39.2883 77.0387 38.8565C77.0466 38.824 75.9641 38.8565 75.4446 39.1166C75.1979 39.2376 75.0391 39.5459 75.0037 39.8567C74.9853 40.0154 75.0168 40.0805 75.0326 40.0532C75.1738 39.8031 75.3505 39.5744 75.5574 39.3742C75.6453 39.3026 75.7726 39.4275 75.6886 39.5043C75.4262 39.7163 75.0942 39.9907 75.047 40.3094C75.0457 40.3182 75.0472 40.3271 75.0513 40.335C75.0553 40.3429 75.0618 40.3494 75.0697 40.3535C75.0776 40.3576 75.0866 40.3592 75.0954 40.3581C75.1043 40.3569 75.1126 40.3531 75.1192 40.3471C75.3914 40.0815 75.6797 39.8326 75.9825 39.6018C76.0757 39.5355 76.1662 39.6903 76.0717 39.7553C76.0442 39.7748 75.9733 39.8359 75.9248 39.8724C75.4551 40.2339 75.3252 40.2626 75.1375 40.4525C75.1192 40.4707 75.0824 40.498 75.0995 40.5357C75.1165 40.5734 75.1782 40.5526 75.1966 40.55C75.459 40.5214 75.9195 40.2287 76.1859 40.0037C76.2725 39.9296 76.3997 40.0545 76.3171 40.1338C76.0488 40.3274 75.7553 40.484 75.4446 40.5994ZM79.5447 39.5316C79.2285 39.4392 79.0002 39.4795 78.8703 39.6278C78.8296 39.6759 78.8231 39.8125 78.8874 39.8034C79.0986 39.7735 79.386 39.7358 79.5591 39.8034C79.6654 39.8463 79.6182 40.018 79.5119 39.9751C79.2804 39.8859 79.0248 39.8794 78.789 39.9569C78.7768 39.9622 78.7664 39.971 78.7592 39.9821C78.752 39.9932 78.7482 40.0061 78.7483 40.0193C78.7457 40.057 78.7457 40.0948 78.7483 40.1325C78.7759 40.4421 79.0802 40.6216 79.5014 40.5422C79.818 40.488 80.1296 40.4079 80.433 40.3029C80.408 40.2261 79.9948 39.6629 79.5447 39.5316ZM79.6615 41.7753C79.6937 41.5946 79.6763 41.4087 79.6109 41.237C79.5456 41.0653 79.4348 40.9143 79.2902 40.7998C79.0278 40.6033 78.5594 40.4824 78.3993 40.6957C78.3922 40.7064 78.3881 40.7188 78.3872 40.7317C78.3864 40.7445 78.389 40.7573 78.3947 40.7688C78.4004 40.7804 78.409 40.7902 78.4197 40.7975C78.4304 40.8047 78.4428 40.8091 78.4557 40.8102C78.6486 40.8258 78.8874 40.8544 78.9923 40.9402C79.0973 41.0261 78.9556 41.1353 78.8611 41.0703C78.6998 40.9693 78.5094 40.9236 78.3193 40.9402C78.2788 40.946 78.242 40.9666 78.216 40.9978C78.1901 41.0291 78.1768 41.0689 78.1789 41.1093C78.1867 41.307 78.3494 41.4813 78.6551 41.5607C78.9867 41.6493 79.3225 41.7209 79.6615 41.7753ZM75.4223 37.1214C75.1441 37.3035 75.1179 37.7184 75.1887 38.0826C75.2084 38.1893 75.2976 38.3102 75.3107 38.2426C75.3837 37.8911 75.5736 37.5741 75.85 37.3425C75.9444 37.2775 76.0337 37.4309 75.9405 37.496C75.6506 37.6963 75.316 38.1203 75.4524 38.5287C75.4554 38.5387 75.4613 38.5476 75.4694 38.5542C75.4775 38.5609 75.4874 38.5649 75.4979 38.5659C75.5083 38.5669 75.5188 38.5648 75.528 38.5597C75.5373 38.5547 75.5447 38.5471 75.5495 38.5378C75.7634 38.1919 75.9563 37.7821 76.3984 37.4817C76.5034 37.4101 76.565 37.5467 76.4535 37.6534C76.141 37.9496 75.8677 38.284 75.6401 38.6484C75.5836 38.7381 75.7293 38.729 75.7581 38.7199C76.0389 38.6276 76.258 38.3753 76.4706 38.1437C76.5493 38.0592 76.6753 38.184 76.6018 38.2738C76.4542 38.4141 76.2972 38.5444 76.1321 38.664C76.1217 38.6724 76.1142 38.6838 76.1106 38.6966C76.1071 38.7094 76.1077 38.723 76.1123 38.7354C76.1169 38.7479 76.1254 38.7586 76.1364 38.7661C76.1475 38.7736 76.1607 38.7775 76.1741 38.7772C76.5677 38.7616 76.9482 38.5834 77.1148 38.374C77.4284 37.9837 77.4336 36.8912 77.3575 36.8677C77.2814 36.8443 75.9982 36.7377 75.4223 37.1214ZM75.9235 36.6648C75.9877 36.6518 76.0547 36.6414 76.1124 36.631C76.2243 36.6155 76.3258 36.5577 76.3958 36.4697C76.5084 36.3141 76.587 36.1369 76.6267 35.9494C76.649 35.8376 76.8209 35.8857 76.7999 35.9963C76.738 36.209 76.6255 36.4039 76.4719 36.5647C76.4273 36.6141 76.6293 36.6245 76.7212 36.592C76.7571 36.5814 76.7897 36.5616 76.8156 36.5348C76.9889 36.3158 77.0971 36.0531 77.1279 35.7765C77.145 35.6633 77.3169 35.7114 77.2998 35.8233C77.2392 36.0596 77.1365 36.2834 76.9967 36.484C76.9909 36.494 76.9877 36.5053 76.9875 36.5169C76.9873 36.5285 76.9901 36.5399 76.9957 36.55C77.0012 36.5602 77.0092 36.5688 77.0191 36.575C77.0289 36.5812 77.0402 36.5848 77.0518 36.5855C77.1686 36.5933 77.33 36.6024 77.3693 36.5972C77.5097 36.5777 77.6527 35.6139 77.5491 35.1586C77.5268 35.0598 76.7146 35.316 76.3617 35.5566C75.8959 35.8714 75.7476 36.6934 75.9261 36.6583L75.9235 36.6648ZM81.8185 40.1039C81.5666 39.8906 81.0221 39.7917 80.9001 39.927C80.778 40.0623 81.2832 40.0453 81.4118 40.1234C81.4323 40.1353 81.4472 40.1548 81.4532 40.1776C81.4593 40.2004 81.4559 40.2247 81.4439 40.245C81.4319 40.2654 81.4122 40.2801 81.3892 40.2861C81.3662 40.2921 81.3418 40.2888 81.3212 40.2769C81.2263 40.2207 81.1244 40.177 81.0182 40.1468C80.9827 40.1364 80.9355 40.1195 80.8869 40.1065C80.8696 40.1019 80.8515 40.1013 80.8339 40.1048C80.8164 40.1083 80.7999 40.1157 80.7857 40.1265C80.7714 40.1373 80.7599 40.1512 80.752 40.1671C80.7441 40.1831 80.74 40.2006 80.74 40.2183C80.7465 40.3094 80.7781 40.397 80.8313 40.4715C80.8845 40.546 80.9573 40.6047 81.0418 40.6411C81.539 40.831 81.8041 40.8336 82.1452 40.9662C82.2305 40.9962 82.0967 40.3302 81.8211 40.0974L81.8185 40.1039ZM77.7197 37.5493C77.6239 37.5571 77.5976 37.6794 77.5884 37.7743C77.5884 37.7873 77.5884 37.8016 77.5884 37.8146C77.5399 38.2049 78.6447 37.9005 78.9818 37.1643C79.1695 36.7507 79.2351 35.8454 79.1577 35.8701C78.4518 36.0938 77.5333 36.3566 77.5924 36.7806V36.8131C77.6108 36.9549 77.6186 37.1604 77.7446 37.0902C77.9469 36.9621 78.1276 36.8032 78.2799 36.6193C78.3429 36.5244 78.4977 36.6128 78.4347 36.7091C78.2561 36.962 77.9946 37.1458 77.6947 37.2293C77.675 37.2343 77.6575 37.2458 77.6451 37.2618C77.6327 37.2779 77.6262 37.2976 77.6265 37.3178C77.6264 37.3321 77.6294 37.3463 77.6352 37.3594C77.6411 37.3725 77.6497 37.3841 77.6606 37.3936C77.6714 37.4031 77.6841 37.4102 77.6979 37.4144C77.7118 37.4186 77.7263 37.4198 77.7406 37.4179C77.8202 37.4064 77.8984 37.3872 77.9742 37.3607C78.1605 37.3091 78.3292 37.2084 78.4623 37.0693C78.5397 36.9848 78.6656 37.111 78.5935 37.1994C78.419 37.3815 78.0214 37.5246 77.7197 37.5493ZM74.3621 36.341C74.3641 36.3508 74.369 36.3598 74.3762 36.3668C74.3834 36.3738 74.3926 36.3784 74.4026 36.3801C74.4126 36.3818 74.4228 36.3805 74.432 36.3763C74.4412 36.3721 74.4488 36.3652 74.454 36.3566C74.5781 36.1389 74.7542 35.9549 74.967 35.8207C74.9871 35.8116 75.0099 35.8103 75.031 35.8169C75.0521 35.8236 75.0699 35.8378 75.081 35.8567C75.0922 35.8757 75.0958 35.8981 75.0912 35.9196C75.0866 35.941 75.0741 35.96 75.0562 35.9729C74.8043 36.1159 74.4736 36.3371 74.4933 36.6297C74.4975 36.6502 74.5071 36.6692 74.5212 36.6848C74.5353 36.7003 74.5533 36.7118 74.5734 36.7182C74.6213 36.7212 74.6694 36.7143 74.7146 36.698C74.7598 36.6816 74.801 36.6562 74.8358 36.6232C74.9791 36.523 75.1019 36.3968 75.1979 36.2512C75.2099 36.2309 75.2296 36.2161 75.2526 36.2101C75.2756 36.2041 75.3 36.2074 75.3206 36.2193C75.3411 36.2312 75.356 36.2507 75.362 36.2736C75.3681 36.2964 75.3647 36.3206 75.3527 36.341C75.246 36.4855 75.1085 36.605 74.9499 36.6908C74.8987 36.7247 74.7597 36.7715 74.8017 36.8287C74.8436 36.886 75.0824 36.8534 75.2412 36.7962C75.564 36.6778 75.6138 36.4359 75.7214 36.1693C75.7621 36.0691 75.9077 35.4318 75.8526 35.4175C75.6256 35.3602 74.9132 35.4903 74.5497 35.6841C74.3621 35.783 74.3005 36.0808 74.3621 36.341ZM75.8815 35.2744C76.0754 35.1853 76.2361 35.0378 76.3407 34.853C76.405 34.7593 76.5598 34.853 76.4955 34.9427C76.3879 35.0962 76.0022 35.2887 76.1019 35.3329C76.1557 35.3563 76.5703 35.3394 76.7159 35.0923C76.8171 34.8417 76.8619 34.5723 76.8471 34.3028C76.8471 34.2169 75.8172 34.6696 75.7083 34.944C75.6374 35.13 75.7594 35.3264 75.8815 35.2757V35.2744ZM77.8495 35.6945C78.024 35.502 78.1434 35.3563 78.3547 35.2731C78.4623 35.2302 78.5082 35.4032 78.4032 35.4435C78.1806 35.5457 77.9838 35.6959 77.8272 35.8831C77.8162 35.8988 77.8093 35.917 77.807 35.936C77.8048 35.955 77.8073 35.9743 77.8142 35.9922C77.8212 36.01 77.8325 36.0259 77.8472 36.0384C77.8618 36.0509 77.8793 36.0597 77.8981 36.0639C78.0621 36.0925 78.4045 35.9859 78.6512 35.8038C78.848 35.662 79.319 35.2679 79.2915 35.2406C79.1747 35.1209 78.5843 34.8855 78.1264 35.1365C77.8128 35.3134 77.7341 35.8207 77.8509 35.6906L77.8495 35.6945ZM80.5799 38.6926C79.9239 38.5951 79.7533 39.1153 79.7586 39.2324C79.7665 39.4132 80.2467 39.1362 80.4802 39.0425C80.5878 39.0009 80.6337 39.1726 80.5274 39.2142C80.3455 39.2865 80.157 39.3414 79.9646 39.3781C79.9489 39.3808 79.9344 39.3877 79.9224 39.398C79.9104 39.4083 79.9014 39.4216 79.8964 39.4366C79.8915 39.4515 79.8907 39.4675 79.8941 39.4828C79.8976 39.4982 79.9051 39.5123 79.916 39.5238C80.0049 39.6101 80.1139 39.6734 80.2334 39.7081C80.3528 39.7428 80.4791 39.7479 80.6009 39.7228C80.9407 39.6616 81.4957 39.0451 81.4813 39.0347C81.1987 38.8803 80.8958 38.7656 80.5812 38.6939L80.5799 38.6926ZM82.1675 38.0046C81.7847 37.8786 81.3834 37.817 80.9801 37.8225C80.7885 37.8342 80.5419 37.868 80.3871 38.0215C80.3438 38.0644 80.2978 38.1515 80.3254 38.1958C80.4356 38.3805 80.9814 38.2504 81.2255 38.1749C81.3357 38.1411 81.3816 38.305 81.2727 38.3466C80.9525 38.4533 80.3543 38.3258 80.3976 38.4182C80.475 38.5821 80.7584 38.6484 81.1585 38.6094C81.5994 38.5691 82.2449 38.0319 82.1688 38.0059L82.1675 38.0046ZM79.323 36.8105C79.5119 36.6362 79.5854 36.4073 79.8111 36.3019C79.9147 36.2538 80.0052 36.406 79.9016 36.4541C79.7245 36.5374 79.4017 36.8027 79.3413 36.9848C79.3046 37.0954 79.4844 37.0746 79.6038 37.0824C79.7718 37.0803 79.9378 37.0449 80.0918 36.9783C80.5668 36.7897 80.6888 36.1211 80.6744 36.1159C80.3805 36.0171 80.0617 35.9169 79.756 35.9859C79.4174 36.0574 79.2692 36.4359 79.2731 36.7052C79.2744 36.7494 79.2954 36.8378 79.3243 36.8118L79.323 36.8105Z" fill="#8F7965"/>
</g>
<g id="Vector_4">
<path fill-rule="evenodd" clip-rule="evenodd" d="M61.9993 6.66634C61.9993 5.92996 62.5963 5.33301 63.3327 5.33301H80.666C81.4024 5.33301 81.9993 5.92996 81.9993 6.66634C81.9993 7.40272 81.4024 7.99967 80.666 7.99967H63.3327C62.5963 7.99967 61.9993 7.40272 61.9993 6.66634Z" fill="#BAB4B0"/>
<path d="M56.666 6.66634C56.666 5.92996 57.263 5.33301 57.9993 5.33301C58.7357 5.33301 59.3327 5.92996 59.3327 6.66634C59.3327 7.40272 58.7357 7.99967 57.9993 7.99967C57.263 7.99967 56.666 7.40272 56.666 6.66634Z" fill="#BAB4B0"/>
</g>
</g>
<g id="Group 2">
<g id="Vector_5">
<path d="M8.93038 45.5001C8.41688 45.5001 7.99876 45.0835 8.01823 44.5703C8.25195 38.4103 10.8015 32.551 15.1765 28.176C19.5515 23.8009 25.4108 21.2514 31.5709 21.0177C32.084 20.9983 32.5006 21.4164 32.5006 21.9299C32.5006 22.4434 32.084 22.8577 31.5709 22.8787C25.9043 23.1114 20.5177 25.4646 16.4914 29.4909C12.4651 33.5172 10.1119 38.9037 9.87923 44.5704C9.85816 45.0835 9.44388 45.5001 8.93038 45.5001Z" fill="#99918C"/>
<path fill-rule="evenodd" clip-rule="evenodd" d="M39.9052 21.7429C40.0994 21.8594 40.0994 22.1408 39.9052 22.2573L32.455 26.7275C32.255 26.8475 32.0006 26.7034 32.0006 26.4702V17.53C32.0006 17.2968 32.255 17.1527 32.455 17.2727L39.9052 21.7429Z" fill="#99918C"/>
</g>
</g>
</g>
<defs>
<clipPath id="clip0_1046_10747">
<rect width="23" height="30" fill="white" transform="translate(60 34)"/>
</clipPath>
</defs>
</svg>
